<?xml version="1.0" standalone="no"?>
<!DOCTYPE svg PUBLIC "-//W3C//DTD SVG 1.1//EN" "http://www.w3.org/Graphics/SVG/1.1/DTD/svg11.dtd">
<svg width="362mm" height="582mm" viewBox="5 -587 362 582" xmlns="http://www.w3.org/2000/svg" version="1.1">
<title>OpenSCAD Model</title>
<path d="
M 57.6667,-381 L 81,-381 L 81,-375 L 104.333,-375 L 104.333,-381 L 127.667,-381
 L 127.667,-375 L 151,-375 L 151,-381 L 174.333,-381 L 174.333,-375 L 197.667,-375
 L 197.667,-381 L 221,-381 L 221,-375 L 244.333,-375 L 244.333,-381 L 267.667,-381
 L 267.667,-375 L 291,-375 L 291,-381 L 314.333,-381 L 314.333,-375 L 337.667,-375
 L 337.667,-381 L 361,-381 L 361,-403.222 L 367,-403.222 L 367,-425.444 L 361,-425.444
 L 361,-447.667 L 367,-447.667 L 367,-469.889 L 361,-469.889 L 361,-492.111 L 367,-492.111
 L 367,-514.333 L 361,-514.333 L 361,-536.556 L 367,-536.556 L 367,-558.778 L 361,-558.778
 L 361,-581 L 337.667,-581 L 337.667,-587 L 314.333,-587 L 314.333,-581 L 291,-581
 L 291,-587 L 267.667,-587 L 267.667,-581 L 244.333,-581 L 244.333,-587 L 221,-587
 L 221,-581 L 197.667,-581 L 197.667,-587 L 174.333,-587 L 174.333,-581 L 151,-581
 L 151,-587 L 127.667,-587 L 127.667,-581 L 104.333,-581 L 104.333,-587 L 81,-587
 L 81,-581 L 57.6667,-581 L 57.6667,-587 L 34.3333,-587 L 34.3333,-581 L 11,-581
 L 11,-558.778 L 5,-558.778 L 5,-536.556 L 11,-536.556 L 11,-514.333 L 5,-514.333
 L 5,-492.111 L 11,-492.111 L 11,-469.889 L 5,-469.889 L 5,-447.667 L 11,-447.667
 L 11,-425.444 L 5,-425.444 L 5,-403.222 L 11,-403.222 L 11,-381 L 34.3333,-381
 L 34.3333,-375 L 57.6667,-375 z
M 23.3744,-566.504 L 23.2493,-566.516 L 23.1252,-566.535 L 23.0026,-566.563 L 22.882,-566.598 L 22.7638,-566.64
 L 22.6485,-566.69 L 22.5365,-566.747 L 22.4284,-566.811 L 22.3244,-566.882 L 22.2252,-566.959 L 22.1309,-567.042
 L 22.0421,-567.131 L 21.959,-567.225 L 21.882,-567.324 L 21.8114,-567.428 L 21.7474,-567.536 L 21.6904,-567.648
 L 21.6405,-567.764 L 21.5979,-567.882 L 21.5628,-568.003 L 21.5354,-568.125 L 21.5158,-568.249 L 21.504,-568.374
 L 21.5,-568.5 L 21.504,-568.626 L 21.5158,-568.751 L 21.5354,-568.875 L 21.5628,-568.997 L 21.5979,-569.118
 L 21.6405,-569.236 L 21.6904,-569.352 L 21.7474,-569.464 L 21.8114,-569.572 L 21.882,-569.676 L 21.959,-569.775
 L 22.0421,-569.869 L 22.1309,-569.958 L 22.2252,-570.041 L 22.3244,-570.118 L 22.4284,-570.189 L 22.5365,-570.253
 L 22.6485,-570.31 L 22.7638,-570.36 L 22.882,-570.402 L 23.0026,-570.437 L 23.1252,-570.465 L 23.2493,-570.484
 L 23.3744,-570.496 L 23.5,-570.5 L 23.6256,-570.496 L 23.7507,-570.484 L 23.8748,-570.465 L 23.9974,-570.437
 L 24.118,-570.402 L 24.2362,-570.36 L 24.3515,-570.31 L 24.4635,-570.253 L 24.5716,-570.189 L 24.6756,-570.118
 L 24.7748,-570.041 L 24.8691,-569.958 L 24.9579,-569.869 L 25.041,-569.775 L 25.118,-569.676 L 25.1886,-569.572
 L 25.2526,-569.464 L 25.3096,-569.352 L 25.3595,-569.236 L 25.4021,-569.118 L 25.4372,-568.997 L 25.4646,-568.875
 L 25.4842,-568.751 L 25.496,-568.626 L 25.5,-568.5 L 25.496,-568.374 L 25.4842,-568.249 L 25.4646,-568.125
 L 25.4372,-568.003 L 25.4021,-567.882 L 25.3595,-567.764 L 25.3096,-567.648 L 25.2526,-567.536 L 25.1886,-567.428
 L 25.118,-567.324 L 25.041,-567.225 L 24.9579,-567.131 L 24.8691,-567.042 L 24.7748,-566.959 L 24.6756,-566.882
 L 24.5716,-566.811 L 24.4635,-566.747 L 24.3515,-566.69 L 24.2362,-566.64 L 24.118,-566.598 L 23.9974,-566.563
 L 23.8748,-566.535 L 23.7507,-566.516 L 23.6256,-566.504 L 23.5,-566.5 z
M 348.374,-566.504 L 348.249,-566.516 L 348.125,-566.535 L 348.003,-566.563 L 347.882,-566.598 L 347.764,-566.64
 L 347.648,-566.69 L 347.536,-566.747 L 347.428,-566.811 L 347.324,-566.882 L 347.225,-566.959 L 347.131,-567.042
 L 347.042,-567.131 L 346.959,-567.225 L 346.882,-567.324 L 346.811,-567.428 L 346.747,-567.536 L 346.69,-567.648
 L 346.64,-567.764 L 346.598,-567.882 L 346.563,-568.003 L 346.535,-568.125 L 346.516,-568.249 L 346.504,-568.374
 L 346.5,-568.5 L 346.504,-568.626 L 346.516,-568.751 L 346.535,-568.875 L 346.563,-568.997 L 346.598,-569.118
 L 346.64,-569.236 L 346.69,-569.352 L 346.747,-569.464 L 346.811,-569.572 L 346.882,-569.676 L 346.959,-569.775
 L 347.042,-569.869 L 347.131,-569.958 L 347.225,-570.041 L 347.324,-570.118 L 347.428,-570.189 L 347.536,-570.253
 L 347.648,-570.31 L 347.764,-570.36 L 347.882,-570.402 L 348.003,-570.437 L 348.125,-570.465 L 348.249,-570.484
 L 348.374,-570.496 L 348.5,-570.5 L 348.626,-570.496 L 348.751,-570.484 L 348.875,-570.465 L 348.997,-570.437
 L 349.118,-570.402 L 349.236,-570.36 L 349.352,-570.31 L 349.464,-570.253 L 349.572,-570.189 L 349.676,-570.118
 L 349.775,-570.041 L 349.869,-569.958 L 349.958,-569.869 L 350.041,-569.775 L 350.118,-569.676 L 350.189,-569.572
 L 350.253,-569.464 L 350.31,-569.352 L 350.36,-569.236 L 350.402,-569.118 L 350.437,-568.997 L 350.465,-568.875
 L 350.484,-568.751 L 350.496,-568.626 L 350.5,-568.5 L 350.496,-568.374 L 350.484,-568.249 L 350.465,-568.125
 L 350.437,-568.003 L 350.402,-567.882 L 350.36,-567.764 L 350.31,-567.648 L 350.253,-567.536 L 350.189,-567.428
 L 350.118,-567.324 L 350.041,-567.225 L 349.958,-567.131 L 349.869,-567.042 L 349.775,-566.959 L 349.676,-566.882
 L 349.572,-566.811 L 349.464,-566.747 L 349.352,-566.69 L 349.236,-566.64 L 349.118,-566.598 L 348.997,-566.563
 L 348.875,-566.535 L 348.751,-566.516 L 348.626,-566.504 L 348.5,-566.5 z
M 185.874,-566.504 L 185.749,-566.516 L 185.625,-566.535 L 185.503,-566.563 L 185.382,-566.598 L 185.264,-566.64
 L 185.148,-566.69 L 185.036,-566.747 L 184.928,-566.811 L 184.824,-566.882 L 184.725,-566.959 L 184.631,-567.042
 L 184.542,-567.131 L 184.459,-567.225 L 184.382,-567.324 L 184.311,-567.428 L 184.247,-567.536 L 184.19,-567.648
 L 184.14,-567.764 L 184.098,-567.882 L 184.063,-568.003 L 184.035,-568.125 L 184.016,-568.249 L 184.004,-568.374
 L 184,-568.5 L 184.004,-568.626 L 184.016,-568.751 L 184.035,-568.875 L 184.063,-568.997 L 184.098,-569.118
 L 184.14,-569.236 L 184.19,-569.352 L 184.247,-569.464 L 184.311,-569.572 L 184.382,-569.676 L 184.459,-569.775
 L 184.542,-569.869 L 184.631,-569.958 L 184.725,-570.041 L 184.824,-570.118 L 184.928,-570.189 L 185.036,-570.253
 L 185.148,-570.31 L 185.264,-570.36 L 185.382,-570.402 L 185.503,-570.437 L 185.625,-570.465 L 185.749,-570.484
 L 185.874,-570.496 L 186,-570.5 L 186.126,-570.496 L 186.251,-570.484 L 186.375,-570.465 L 186.497,-570.437
 L 186.618,-570.402 L 186.736,-570.36 L 186.852,-570.31 L 186.964,-570.253 L 187.072,-570.189 L 187.176,-570.118
 L 187.275,-570.041 L 187.369,-569.958 L 187.458,-569.869 L 187.541,-569.775 L 187.618,-569.676 L 187.689,-569.572
 L 187.753,-569.464 L 187.81,-569.352 L 187.86,-569.236 L 187.902,-569.118 L 187.937,-568.997 L 187.965,-568.875
 L 187.984,-568.751 L 187.996,-568.626 L 188,-568.5 L 187.996,-568.374 L 187.984,-568.249 L 187.965,-568.125
 L 187.937,-568.003 L 187.902,-567.882 L 187.86,-567.764 L 187.81,-567.648 L 187.753,-567.536 L 187.689,-567.428
 L 187.618,-567.324 L 187.541,-567.225 L 187.458,-567.131 L 187.369,-567.042 L 187.275,-566.959 L 187.176,-566.882
 L 187.072,-566.811 L 186.964,-566.747 L 186.852,-566.69 L 186.736,-566.64 L 186.618,-566.598 L 186.497,-566.563
 L 186.375,-566.535 L 186.251,-566.516 L 186.126,-566.504 L 186,-566.5 z
M 36,-406 L 36,-556 L 336,-556 L 336,-406 z
M 348.374,-479.004 L 348.249,-479.016 L 348.125,-479.035 L 348.003,-479.063 L 347.882,-479.098 L 347.764,-479.14
 L 347.648,-479.19 L 347.536,-479.247 L 347.428,-479.311 L 347.324,-479.382 L 347.225,-479.459 L 347.131,-479.542
 L 347.042,-479.631 L 346.959,-479.725 L 346.882,-479.824 L 346.811,-479.928 L 346.747,-480.036 L 346.69,-480.148
 L 346.64,-480.264 L 346.598,-480.382 L 346.563,-480.503 L 346.535,-480.625 L 346.516,-480.749 L 346.504,-480.874
 L 346.5,-481 L 346.504,-481.126 L 346.516,-481.251 L 346.535,-481.375 L 346.563,-481.497 L 346.598,-481.618
 L 346.64,-481.736 L 346.69,-481.852 L 346.747,-481.964 L 346.811,-482.072 L 346.882,-482.176 L 346.959,-482.275
 L 347.042,-482.369 L 347.131,-482.458 L 347.225,-482.541 L 347.324,-482.618 L 347.428,-482.689 L 347.536,-482.753
 L 347.648,-482.81 L 347.764,-482.86 L 347.882,-482.902 L 348.003,-482.937 L 348.125,-482.965 L 348.249,-482.984
 L 348.374,-482.996 L 348.5,-483 L 348.626,-482.996 L 348.751,-482.984 L 348.875,-482.965 L 348.997,-482.937
 L 349.118,-482.902 L 349.236,-482.86 L 349.352,-482.81 L 349.464,-482.753 L 349.572,-482.689 L 349.676,-482.618
 L 349.775,-482.541 L 349.869,-482.458 L 349.958,-482.369 L 350.041,-482.275 L 350.118,-482.176 L 350.189,-482.072
 L 350.253,-481.964 L 350.31,-481.852 L 350.36,-481.736 L 350.402,-481.618 L 350.437,-481.497 L 350.465,-481.375
 L 350.484,-481.251 L 350.496,-481.126 L 350.5,-481 L 350.496,-480.874 L 350.484,-480.749 L 350.465,-480.625
 L 350.437,-480.503 L 350.402,-480.382 L 350.36,-480.264 L 350.31,-480.148 L 350.253,-480.036 L 350.189,-479.928
 L 350.118,-479.824 L 350.041,-479.725 L 349.958,-479.631 L 349.869,-479.542 L 349.775,-479.459 L 349.676,-479.382
 L 349.572,-479.311 L 349.464,-479.247 L 349.352,-479.19 L 349.236,-479.14 L 349.118,-479.098 L 348.997,-479.063
 L 348.875,-479.035 L 348.751,-479.016 L 348.626,-479.004 L 348.5,-479 z
M 23.3744,-479.004 L 23.2493,-479.016 L 23.1252,-479.035 L 23.0026,-479.063 L 22.882,-479.098 L 22.7638,-479.14
 L 22.6485,-479.19 L 22.5365,-479.247 L 22.4284,-479.311 L 22.3244,-479.382 L 22.2252,-479.459 L 22.1309,-479.542
 L 22.0421,-479.631 L 21.959,-479.725 L 21.882,-479.824 L 21.8114,-479.928 L 21.7474,-480.036 L 21.6904,-480.148
 L 21.6405,-480.264 L 21.5979,-480.382 L 21.5628,-480.503 L 21.5354,-480.625 L 21.5158,-480.749 L 21.504,-480.874
 L 21.5,-481 L 21.504,-481.126 L 21.5158,-481.251 L 21.5354,-481.375 L 21.5628,-481.497 L 21.5979,-481.618
 L 21.6405,-481.736 L 21.6904,-481.852 L 21.7474,-481.964 L 21.8114,-482.072 L 21.882,-482.176 L 21.959,-482.275
 L 22.0421,-482.369 L 22.1309,-482.458 L 22.2252,-482.541 L 22.3244,-482.618 L 22.4284,-482.689 L 22.5365,-482.753
 L 22.6485,-482.81 L 22.7638,-482.86 L 22.882,-482.902 L 23.0026,-482.937 L 23.1252,-482.965 L 23.2493,-482.984
 L 23.3744,-482.996 L 23.5,-483 L 23.6256,-482.996 L 23.7507,-482.984 L 23.8748,-482.965 L 23.9974,-482.937
 L 24.118,-482.902 L 24.2362,-482.86 L 24.3515,-482.81 L 24.4635,-482.753 L 24.5716,-482.689 L 24.6756,-482.618
 L 24.7748,-482.541 L 24.8691,-482.458 L 24.9579,-482.369 L 25.041,-482.275 L 25.118,-482.176 L 25.1886,-482.072
 L 25.2526,-481.964 L 25.3096,-481.852 L 25.3595,-481.736 L 25.4021,-481.618 L 25.4372,-481.497 L 25.4646,-481.375
 L 25.4842,-481.251 L 25.496,-481.126 L 25.5,-481 L 25.496,-480.874 L 25.4842,-480.749 L 25.4646,-480.625
 L 25.4372,-480.503 L 25.4021,-480.382 L 25.3595,-480.264 L 25.3096,-480.148 L 25.2526,-480.036 L 25.1886,-479.928
 L 25.118,-479.824 L 25.041,-479.725 L 24.9579,-479.631 L 24.8691,-479.542 L 24.7748,-479.459 L 24.6756,-479.382
 L 24.5716,-479.311 L 24.4635,-479.247 L 24.3515,-479.19 L 24.2362,-479.14 L 24.118,-479.098 L 23.9974,-479.063
 L 23.8748,-479.035 L 23.7507,-479.016 L 23.6256,-479.004 L 23.5,-479 z
M 185.874,-391.504 L 185.749,-391.516 L 185.625,-391.535 L 185.503,-391.563 L 185.382,-391.598 L 185.264,-391.64
 L 185.148,-391.69 L 185.036,-391.747 L 184.928,-391.811 L 184.824,-391.882 L 184.725,-391.959 L 184.631,-392.042
 L 184.542,-392.131 L 184.459,-392.225 L 184.382,-392.324 L 184.311,-392.428 L 184.247,-392.536 L 184.19,-392.648
 L 184.14,-392.764 L 184.098,-392.882 L 184.063,-393.003 L 184.035,-393.125 L 184.016,-393.249 L 184.004,-393.374
 L 184,-393.5 L 184.004,-393.626 L 184.016,-393.751 L 184.035,-393.875 L 184.063,-393.997 L 184.098,-394.118
 L 184.14,-394.236 L 184.19,-394.352 L 184.247,-394.464 L 184.311,-394.572 L 184.382,-394.676 L 184.459,-394.775
 L 184.542,-394.869 L 184.631,-394.958 L 184.725,-395.041 L 184.824,-395.118 L 184.928,-395.189 L 185.036,-395.253
 L 185.148,-395.31 L 185.264,-395.36 L 185.382,-395.402 L 185.503,-395.437 L 185.625,-395.465 L 185.749,-395.484
 L 185.874,-395.496 L 186,-395.5 L 186.126,-395.496 L 186.251,-395.484 L 186.375,-395.465 L 186.497,-395.437
 L 186.618,-395.402 L 186.736,-395.36 L 186.852,-395.31 L 186.964,-395.253 L 187.072,-395.189 L 187.176,-395.118
 L 187.275,-395.041 L 187.369,-394.958 L 187.458,-394.869 L 187.541,-394.775 L 187.618,-394.676 L 187.689,-394.572
 L 187.753,-394.464 L 187.81,-394.352 L 187.86,-394.236 L 187.902,-394.118 L 187.937,-393.997 L 187.965,-393.875
 L 187.984,-393.751 L 187.996,-393.626 L 188,-393.5 L 187.996,-393.374 L 187.984,-393.249 L 187.965,-393.125
 L 187.937,-393.003 L 187.902,-392.882 L 187.86,-392.764 L 187.81,-392.648 L 187.753,-392.536 L 187.689,-392.428
 L 187.618,-392.324 L 187.541,-392.225 L 187.458,-392.131 L 187.369,-392.042 L 187.275,-391.959 L 187.176,-391.882
 L 187.072,-391.811 L 186.964,-391.747 L 186.852,-391.69 L 186.736,-391.64 L 186.618,-391.598 L 186.497,-391.563
 L 186.375,-391.535 L 186.251,-391.516 L 186.126,-391.504 L 186,-391.5 z
M 348.374,-391.504 L 348.249,-391.516 L 348.125,-391.535 L 348.003,-391.563 L 347.882,-391.598 L 347.764,-391.64
 L 347.648,-391.69 L 347.536,-391.747 L 347.428,-391.811 L 347.324,-391.882 L 347.225,-391.959 L 347.131,-392.042
 L 347.042,-392.131 L 346.959,-392.225 L 346.882,-392.324 L 346.811,-392.428 L 346.747,-392.536 L 346.69,-392.648
 L 346.64,-392.764 L 346.598,-392.882 L 346.563,-393.003 L 346.535,-393.125 L 346.516,-393.249 L 346.504,-393.374
 L 346.5,-393.5 L 346.504,-393.626 L 346.516,-393.751 L 346.535,-393.875 L 346.563,-393.997 L 346.598,-394.118
 L 346.64,-394.236 L 346.69,-394.352 L 346.747,-394.464 L 346.811,-394.572 L 346.882,-394.676 L 346.959,-394.775
 L 347.042,-394.869 L 347.131,-394.958 L 347.225,-395.041 L 347.324,-395.118 L 347.428,-395.189 L 347.536,-395.253
 L 347.648,-395.31 L 347.764,-395.36 L 347.882,-395.402 L 348.003,-395.437 L 348.125,-395.465 L 348.249,-395.484
 L 348.374,-395.496 L 348.5,-395.5 L 348.626,-395.496 L 348.751,-395.484 L 348.875,-395.465 L 348.997,-395.437
 L 349.118,-395.402 L 349.236,-395.36 L 349.352,-395.31 L 349.464,-395.253 L 349.572,-395.189 L 349.676,-395.118
 L 349.775,-395.041 L 349.869,-394.958 L 349.958,-394.869 L 350.041,-394.775 L 350.118,-394.676 L 350.189,-394.572
 L 350.253,-394.464 L 350.31,-394.352 L 350.36,-394.236 L 350.402,-394.118 L 350.437,-393.997 L 350.465,-393.875
 L 350.484,-393.751 L 350.496,-393.626 L 350.5,-393.5 L 350.496,-393.374 L 350.484,-393.249 L 350.465,-393.125
 L 350.437,-393.003 L 350.402,-392.882 L 350.36,-392.764 L 350.31,-392.648 L 350.253,-392.536 L 350.189,-392.428
 L 350.118,-392.324 L 350.041,-392.225 L 349.958,-392.131 L 349.869,-392.042 L 349.775,-391.959 L 349.676,-391.882
 L 349.572,-391.811 L 349.464,-391.747 L 349.352,-391.69 L 349.236,-391.64 L 349.118,-391.598 L 348.997,-391.563
 L 348.875,-391.535 L 348.751,-391.516 L 348.626,-391.504 L 348.5,-391.5 z
M 23.3744,-391.504 L 23.2493,-391.516 L 23.1252,-391.535 L 23.0026,-391.563 L 22.882,-391.598 L 22.7638,-391.64
 L 22.6485,-391.69 L 22.5365,-391.747 L 22.4284,-391.811 L 22.3244,-391.882 L 22.2252,-391.959 L 22.1309,-392.042
 L 22.0421,-392.131 L 21.959,-392.225 L 21.882,-392.324 L 21.8114,-392.428 L 21.7474,-392.536 L 21.6904,-392.648
 L 21.6405,-392.764 L 21.5979,-392.882 L 21.5628,-393.003 L 21.5354,-393.125 L 21.5158,-393.249 L 21.504,-393.374
 L 21.5,-393.5 L 21.504,-393.626 L 21.5158,-393.751 L 21.5354,-393.875 L 21.5628,-393.997 L 21.5979,-394.118
 L 21.6405,-394.236 L 21.6904,-394.352 L 21.7474,-394.464 L 21.8114,-394.572 L 21.882,-394.676 L 21.959,-394.775
 L 22.0421,-394.869 L 22.1309,-394.958 L 22.2252,-395.041 L 22.3244,-395.118 L 22.4284,-395.189 L 22.5365,-395.253
 L 22.6485,-395.31 L 22.7638,-395.36 L 22.882,-395.402 L 23.0026,-395.437 L 23.1252,-395.465 L 23.2493,-395.484
 L 23.3744,-395.496 L 23.5,-395.5 L 23.6256,-395.496 L 23.7507,-395.484 L 23.8748,-395.465 L 23.9974,-395.437
 L 24.118,-395.402 L 24.2362,-395.36 L 24.3515,-395.31 L 24.4635,-395.253 L 24.5716,-395.189 L 24.6756,-395.118
 L 24.7748,-395.041 L 24.8691,-394.958 L 24.9579,-394.869 L 25.041,-394.775 L 25.118,-394.676 L 25.1886,-394.572
 L 25.2526,-394.464 L 25.3096,-394.352 L 25.3595,-394.236 L 25.4021,-394.118 L 25.4372,-393.997 L 25.4646,-393.875
 L 25.4842,-393.751 L 25.496,-393.626 L 25.5,-393.5 L 25.496,-393.374 L 25.4842,-393.249 L 25.4646,-393.125
 L 25.4372,-393.003 L 25.4021,-392.882 L 25.3595,-392.764 L 25.3096,-392.648 L 25.2526,-392.536 L 25.1886,-392.428
 L 25.118,-392.324 L 25.041,-392.225 L 24.9579,-392.131 L 24.8691,-392.042 L 24.7748,-391.959 L 24.6756,-391.882
 L 24.5716,-391.811 L 24.4635,-391.747 L 24.3515,-391.69 L 24.2362,-391.64 L 24.118,-391.598 L 23.9974,-391.563
 L 23.8748,-391.535 L 23.7507,-391.516 L 23.6256,-391.504 L 23.5,-391.5 z
M 57.6667,-161 L 81,-161 L 81,-155 L 104.333,-155 L 104.333,-161 L 127.667,-161
 L 127.667,-155 L 151,-155 L 151,-161 L 174.333,-161 L 174.333,-155 L 197.667,-155
 L 197.667,-161 L 221,-161 L 221,-155 L 244.333,-155 L 244.333,-161 L 267.667,-161
 L 267.667,-155 L 291,-155 L 291,-161 L 314.333,-161 L 314.333,-155 L 337.667,-155
 L 337.667,-161 L 361,-161 L 361,-183.222 L 367,-183.222 L 367,-205.444 L 361,-205.444
 L 361,-227.667 L 367,-227.667 L 367,-249.889 L 361,-249.889 L 361,-272.111 L 367,-272.111
 L 367,-294.333 L 361,-294.333 L 361,-316.556 L 367,-316.556 L 367,-338.778 L 361,-338.778
 L 361,-361 L 337.667,-361 L 337.667,-367 L 314.333,-367 L 314.333,-361 L 291,-361
 L 291,-367 L 267.667,-367 L 267.667,-361 L 244.333,-361 L 244.333,-367 L 221,-367
 L 221,-361 L 197.667,-361 L 197.667,-367 L 174.333,-367 L 174.333,-361 L 151,-361
 L 151,-367 L 127.667,-367 L 127.667,-361 L 104.333,-361 L 104.333,-367 L 81,-367
 L 81,-361 L 57.6667,-361 L 57.6667,-367 L 34.3333,-367 L 34.3333,-361 L 11,-361
 L 11,-338.778 L 5,-338.778 L 5,-316.556 L 11,-316.556 L 11,-294.333 L 5,-294.333
 L 5,-272.111 L 11,-272.111 L 11,-249.889 L 5,-249.889 L 5,-227.667 L 11,-227.667
 L 11,-205.444 L 5,-205.444 L 5,-183.222 L 11,-183.222 L 11,-161 L 34.3333,-161
 L 34.3333,-155 L 57.6667,-155 z
M 346.191,-344.5 L 343.881,-348.5 L 346.191,-352.5 L 350.809,-352.5 L 353.119,-348.5 L 350.809,-344.5
 z
M 183.691,-344.5 L 181.381,-348.5 L 183.691,-352.5 L 188.309,-352.5 L 190.619,-348.5 L 188.309,-344.5
 z
M 21.1906,-344.5 L 18.8812,-348.5 L 21.1906,-352.5 L 25.8094,-352.5 L 28.1188,-348.5 L 25.8094,-344.5
 z
M 36,-186 L 36,-336 L 336,-336 L 336,-186 z
M 21.1906,-257 L 18.8812,-261 L 21.1906,-265 L 25.8094,-265 L 28.1188,-261 L 25.8094,-257
 z
M 346.191,-257 L 343.881,-261 L 346.191,-265 L 350.809,-265 L 353.119,-261 L 350.809,-257
 z
M 346.191,-169.5 L 343.881,-173.5 L 346.191,-177.5 L 350.809,-177.5 L 353.119,-173.5 L 350.809,-169.5
 z
M 21.1906,-169.5 L 18.8812,-173.5 L 21.1906,-177.5 L 25.8094,-177.5 L 28.1188,-173.5 L 25.8094,-169.5
 z
M 183.691,-169.5 L 181.381,-173.5 L 183.691,-177.5 L 188.309,-177.5 L 190.619,-173.5 L 188.309,-169.5
 z
M 367,-94.4 L 361,-94.4 L 361,-108.8 L 367,-108.8 L 367,-123.2 L 361,-123.2
 L 361,-137.6 L 367,-137.6 L 367,-152 L 5,-152 L 5,-137.6 L 11,-137.6
 L 11,-123.2 L 5,-123.2 L 5,-108.8 L 11,-108.8 L 11,-94.4 L 5,-94.4
 L 5,-80 L 367,-80 z
M 267.667,-137 L 267.667,-143 L 291,-143 L 291,-137 z
M 314.333,-137 L 314.333,-143 L 337.667,-143 L 337.667,-137 z
M 221,-137 L 221,-143 L 244.333,-143 L 244.333,-137 z
M 34.3333,-137 L 34.3333,-143 L 57.6667,-143 L 57.6667,-137 z
M 81,-137 L 81,-143 L 104.333,-143 L 104.333,-137 z
M 127.667,-137 L 127.667,-143 L 151,-143 L 151,-137 z
M 174.333,-137 L 174.333,-143 L 197.667,-143 L 197.667,-137 z
M 292.9,-126.403 L 292.799,-126.413 L 292.7,-126.428 L 292.602,-126.45 L 292.506,-126.478 L 292.411,-126.512
 L 292.319,-126.552 L 292.229,-126.598 L 292.143,-126.649 L 292.06,-126.706 L 291.98,-126.767 L 291.905,-126.834
 L 291.834,-126.905 L 291.767,-126.98 L 291.706,-127.06 L 291.649,-127.143 L 291.598,-127.229 L 291.552,-127.319
 L 291.512,-127.411 L 291.478,-127.506 L 291.45,-127.602 L 291.428,-127.7 L 291.413,-127.799 L 291.403,-127.9
 L 291.4,-128 L 291.403,-128.1 L 291.413,-128.201 L 291.428,-128.3 L 291.45,-128.398 L 291.478,-128.494
 L 291.512,-128.589 L 291.552,-128.681 L 291.598,-128.771 L 291.649,-128.857 L 291.706,-128.94 L 291.767,-129.02
 L 291.834,-129.095 L 291.905,-129.166 L 291.98,-129.233 L 292.06,-129.294 L 292.143,-129.351 L 292.229,-129.402
 L 292.319,-129.448 L 292.411,-129.488 L 292.506,-129.522 L 292.602,-129.55 L 292.7,-129.572 L 292.799,-129.587
 L 292.9,-129.597 L 293,-129.6 L 293.1,-129.597 L 293.201,-129.587 L 293.3,-129.572 L 293.398,-129.55
 L 293.494,-129.522 L 293.589,-129.488 L 293.681,-129.448 L 293.771,-129.402 L 293.857,-129.351 L 293.94,-129.294
 L 294.02,-129.233 L 294.095,-129.166 L 294.166,-129.095 L 294.233,-129.02 L 294.294,-128.94 L 294.351,-128.857
 L 294.402,-128.771 L 294.448,-128.681 L 294.488,-128.589 L 294.522,-128.494 L 294.55,-128.398 L 294.572,-128.3
 L 294.587,-128.201 L 294.597,-128.1 L 294.6,-128 L 294.597,-127.9 L 294.587,-127.799 L 294.572,-127.7
 L 294.55,-127.602 L 294.522,-127.506 L 294.488,-127.411 L 294.448,-127.319 L 294.402,-127.229 L 294.351,-127.143
 L 294.294,-127.06 L 294.233,-126.98 L 294.166,-126.905 L 294.095,-126.834 L 294.02,-126.767 L 293.94,-126.706
 L 293.857,-126.649 L 293.771,-126.598 L 293.681,-126.552 L 293.589,-126.512 L 293.494,-126.478 L 293.398,-126.45
 L 293.3,-126.428 L 293.201,-126.413 L 293.1,-126.403 L 293,-126.4 z
M 74.1523,-102.527 L 73.308,-102.606 L 72.4704,-102.739 L 71.6427,-102.924 L 70.8283,-103.161 L 70.0303,-103.448
 L 69.252,-103.785 L 68.4963,-104.17 L 67.7663,-104.602 L 67.0649,-105.078 L 66.3948,-105.598 L 65.7586,-106.159
 L 65.1589,-106.759 L 64.5981,-107.395 L 64.0783,-108.065 L 63.6016,-108.766 L 63.1699,-109.496 L 62.7848,-110.252
 L 62.448,-111.03 L 62.1608,-111.828 L 61.9241,-112.643 L 61.7391,-113.47 L 61.6065,-114.308 L 61.5266,-115.152
 L 61.5,-116 L 61.5266,-116.848 L 61.6065,-117.692 L 61.7391,-118.53 L 61.9241,-119.357 L 62.1608,-120.172
 L 62.448,-120.97 L 62.7848,-121.748 L 63.1699,-122.504 L 63.6016,-123.234 L 64.0783,-123.935 L 64.5981,-124.605
 L 65.1589,-125.241 L 65.7586,-125.841 L 66.3948,-126.402 L 67.0649,-126.922 L 67.7663,-127.398 L 68.4963,-127.83
 L 69.252,-128.215 L 70.0303,-128.552 L 70.8283,-128.839 L 71.6427,-129.076 L 72.4704,-129.261 L 73.308,-129.394
 L 74.1523,-129.473 L 75,-129.5 L 75.8477,-129.473 L 76.692,-129.394 L 77.5296,-129.261 L 78.3573,-129.076
 L 79.1717,-128.839 L 79.9697,-128.552 L 80.748,-128.215 L 81.5037,-127.83 L 82.2337,-127.398 L 82.9351,-126.922
 L 83.6052,-126.402 L 84.2414,-125.841 L 84.8411,-125.241 L 85.4019,-124.605 L 85.9217,-123.935 L 86.3984,-123.234
 L 86.8301,-122.504 L 87.2152,-121.748 L 87.552,-120.97 L 87.8392,-120.172 L 88.0759,-119.357 L 88.2609,-118.53
 L 88.3935,-117.692 L 88.4734,-116.848 L 88.5,-116 L 88.4734,-115.152 L 88.3935,-114.308 L 88.2609,-113.47
 L 88.0759,-112.643 L 87.8392,-111.828 L 87.552,-111.03 L 87.2152,-110.252 L 86.8301,-109.496 L 86.3984,-108.766
 L 85.9217,-108.065 L 85.4019,-107.395 L 84.8411,-106.759 L 84.2414,-106.159 L 83.6052,-105.598 L 82.9351,-105.078
 L 82.2337,-104.602 L 81.5037,-104.17 L 80.748,-103.785 L 79.9697,-103.448 L 79.1717,-103.161 L 78.3573,-102.924
 L 77.5296,-102.739 L 76.692,-102.606 L 75.8477,-102.527 L 75,-102.5 z
M 107.152,-102.527 L 106.308,-102.606 L 105.47,-102.739 L 104.643,-102.924 L 103.828,-103.161 L 103.03,-103.448
 L 102.252,-103.785 L 101.496,-104.17 L 100.766,-104.602 L 100.065,-105.078 L 99.3948,-105.598 L 98.7586,-106.159
 L 98.1589,-106.759 L 97.5981,-107.395 L 97.0783,-108.065 L 96.6016,-108.766 L 96.1698,-109.496 L 95.7848,-110.252
 L 95.448,-111.03 L 95.1607,-111.828 L 94.9241,-112.643 L 94.7391,-113.47 L 94.6064,-114.308 L 94.5266,-115.152
 L 94.5,-116 L 94.5266,-116.848 L 94.6064,-117.692 L 94.7391,-118.53 L 94.9241,-119.357 L 95.1607,-120.172
 L 95.448,-120.97 L 95.7848,-121.748 L 96.1698,-122.504 L 96.6016,-123.234 L 97.0783,-123.935 L 97.5981,-124.605
 L 98.1589,-125.241 L 98.7586,-125.841 L 99.3948,-126.402 L 100.065,-126.922 L 100.766,-127.398 L 101.496,-127.83
 L 102.252,-128.215 L 103.03,-128.552 L 103.828,-128.839 L 104.643,-129.076 L 105.47,-129.261 L 106.308,-129.394
 L 107.152,-129.473 L 108,-129.5 L 108.848,-129.473 L 109.692,-129.394 L 110.53,-129.261 L 111.357,-129.076
 L 112.172,-128.839 L 112.97,-128.552 L 113.748,-128.215 L 114.504,-127.83 L 115.234,-127.398 L 115.935,-126.922
 L 116.605,-126.402 L 117.241,-125.841 L 117.841,-125.241 L 118.402,-124.605 L 118.922,-123.935 L 119.398,-123.234
 L 119.83,-122.504 L 120.215,-121.748 L 120.552,-120.97 L 120.839,-120.172 L 121.076,-119.357 L 121.261,-118.53
 L 121.394,-117.692 L 121.473,-116.848 L 121.5,-116 L 121.473,-115.152 L 121.394,-114.308 L 121.261,-113.47
 L 121.076,-112.643 L 120.839,-111.828 L 120.552,-111.03 L 120.215,-110.252 L 119.83,-109.496 L 119.398,-108.766
 L 118.922,-108.065 L 118.402,-107.395 L 117.841,-106.759 L 117.241,-106.159 L 116.605,-105.598 L 115.935,-105.078
 L 115.234,-104.602 L 114.504,-104.17 L 113.748,-103.785 L 112.97,-103.448 L 112.172,-103.161 L 111.357,-102.924
 L 110.53,-102.739 L 109.692,-102.606 L 108.848,-102.527 L 108,-102.5 z
M 41.1523,-102.527 L 40.308,-102.606 L 39.4704,-102.739 L 38.6427,-102.924 L 37.8283,-103.161 L 37.0303,-103.448
 L 36.252,-103.785 L 35.4963,-104.17 L 34.7663,-104.602 L 34.0649,-105.078 L 33.3948,-105.598 L 32.7586,-106.159
 L 32.1589,-106.759 L 31.5981,-107.395 L 31.0783,-108.065 L 30.6016,-108.766 L 30.1699,-109.496 L 29.7848,-110.252
 L 29.448,-111.03 L 29.1608,-111.828 L 28.9241,-112.643 L 28.7391,-113.47 L 28.6065,-114.308 L 28.5266,-115.152
 L 28.5,-116 L 28.5266,-116.848 L 28.6065,-117.692 L 28.7391,-118.53 L 28.9241,-119.357 L 29.1608,-120.172
 L 29.448,-120.97 L 29.7848,-121.748 L 30.1699,-122.504 L 30.6016,-123.234 L 31.0783,-123.935 L 31.5981,-124.605
 L 32.1589,-125.241 L 32.7586,-125.841 L 33.3948,-126.402 L 34.0649,-126.922 L 34.7663,-127.398 L 35.4963,-127.83
 L 36.252,-128.215 L 37.0303,-128.552 L 37.8283,-128.839 L 38.6427,-129.076 L 39.4704,-129.261 L 40.308,-129.394
 L 41.1523,-129.473 L 42,-129.5 L 42.8477,-129.473 L 43.692,-129.394 L 44.5296,-129.261 L 45.3573,-129.076
 L 46.1717,-128.839 L 46.9697,-128.552 L 47.748,-128.215 L 48.5037,-127.83 L 49.2337,-127.398 L 49.9351,-126.922
 L 50.6052,-126.402 L 51.2414,-125.841 L 51.8411,-125.241 L 52.4019,-124.605 L 52.9217,-123.935 L 53.3984,-123.234
 L 53.8302,-122.504 L 54.2152,-121.748 L 54.552,-120.97 L 54.8393,-120.172 L 55.0759,-119.357 L 55.2609,-118.53
 L 55.3936,-117.692 L 55.4734,-116.848 L 55.5,-116 L 55.4734,-115.152 L 55.3936,-114.308 L 55.2609,-113.47
 L 55.0759,-112.643 L 54.8393,-111.828 L 54.552,-111.03 L 54.2152,-110.252 L 53.8302,-109.496 L 53.3984,-108.766
 L 52.9217,-108.065 L 52.4019,-107.395 L 51.8411,-106.759 L 51.2414,-106.159 L 50.6052,-105.598 L 49.9351,-105.078
 L 49.2337,-104.602 L 48.5037,-104.17 L 47.748,-103.785 L 46.9697,-103.448 L 46.1717,-103.161 L 45.3573,-102.924
 L 44.5296,-102.739 L 43.692,-102.606 L 42.8477,-102.527 L 42,-102.5 z
M 301.747,-104.024 L 300.996,-104.095 L 300.251,-104.213 L 299.516,-104.377 L 298.792,-104.587 L 298.083,-104.843
 L 297.391,-105.142 L 296.719,-105.484 L 296.07,-105.868 L 295.447,-106.292 L 294.851,-106.754 L 294.285,-107.252
 L 293.752,-107.785 L 293.254,-108.351 L 292.792,-108.947 L 292.368,-109.57 L 291.984,-110.219 L 291.642,-110.891
 L 291.343,-111.583 L 291.087,-112.292 L 290.877,-113.016 L 290.713,-113.751 L 290.595,-114.496 L 290.524,-115.247
 L 290.5,-116 L 290.524,-116.753 L 290.595,-117.504 L 290.713,-118.249 L 290.877,-118.984 L 291.087,-119.708
 L 291.343,-120.417 L 291.642,-121.109 L 291.984,-121.781 L 292.368,-122.43 L 292.792,-123.053 L 293.254,-123.649
 L 293.752,-124.215 L 294.285,-124.748 L 294.851,-125.246 L 295.447,-125.708 L 296.07,-126.132 L 296.719,-126.516
 L 297.391,-126.858 L 298.083,-127.157 L 298.792,-127.413 L 299.516,-127.623 L 300.251,-127.787 L 300.996,-127.905
 L 301.747,-127.976 L 302.5,-128 L 303.253,-127.976 L 304.004,-127.905 L 304.749,-127.787 L 305.484,-127.623
 L 306.208,-127.413 L 306.917,-127.157 L 307.609,-126.858 L 308.281,-126.516 L 308.93,-126.132 L 309.553,-125.708
 L 310.149,-125.246 L 310.715,-124.748 L 311.248,-124.215 L 311.746,-123.649 L 312.208,-123.053 L 312.632,-122.43
 L 313.016,-121.781 L 313.358,-121.109 L 313.657,-120.417 L 313.913,-119.708 L 314.123,-118.984 L 314.287,-118.249
 L 314.405,-117.504 L 314.476,-116.753 L 314.5,-116 L 314.476,-115.247 L 314.405,-114.496 L 314.287,-113.751
 L 314.123,-113.016 L 313.913,-112.292 L 313.657,-111.583 L 313.358,-110.891 L 313.016,-110.219 L 312.632,-109.57
 L 312.208,-108.947 L 311.746,-108.351 L 311.248,-107.785 L 310.715,-107.252 L 310.149,-106.754 L 309.553,-106.292
 L 308.93,-105.868 L 308.281,-105.484 L 307.609,-105.142 L 306.917,-104.843 L 306.208,-104.587 L 305.484,-104.377
 L 304.749,-104.213 L 304.004,-104.095 L 303.253,-104.024 L 302.5,-104 z
M 311.9,-102.403 L 311.799,-102.413 L 311.7,-102.428 L 311.602,-102.45 L 311.506,-102.478 L 311.411,-102.512
 L 311.319,-102.552 L 311.229,-102.598 L 311.143,-102.649 L 311.06,-102.706 L 310.98,-102.767 L 310.905,-102.834
 L 310.834,-102.905 L 310.767,-102.98 L 310.706,-103.06 L 310.649,-103.143 L 310.598,-103.229 L 310.552,-103.319
 L 310.512,-103.411 L 310.478,-103.506 L 310.45,-103.602 L 310.428,-103.7 L 310.413,-103.799 L 310.403,-103.9
 L 310.4,-104 L 310.403,-104.1 L 310.413,-104.201 L 310.428,-104.3 L 310.45,-104.398 L 310.478,-104.494
 L 310.512,-104.589 L 310.552,-104.681 L 310.598,-104.771 L 310.649,-104.857 L 310.706,-104.94 L 310.767,-105.02
 L 310.834,-105.095 L 310.905,-105.166 L 310.98,-105.233 L 311.06,-105.294 L 311.143,-105.351 L 311.229,-105.402
 L 311.319,-105.448 L 311.411,-105.488 L 311.506,-105.522 L 311.602,-105.55 L 311.7,-105.572 L 311.799,-105.587
 L 311.9,-105.597 L 312,-105.6 L 312.1,-105.597 L 312.201,-105.587 L 312.3,-105.572 L 312.398,-105.55
 L 312.494,-105.522 L 312.589,-105.488 L 312.681,-105.448 L 312.771,-105.402 L 312.857,-105.351 L 312.94,-105.294
 L 313.02,-105.233 L 313.095,-105.166 L 313.166,-105.095 L 313.233,-105.02 L 313.294,-104.94 L 313.351,-104.857
 L 313.402,-104.771 L 313.448,-104.681 L 313.488,-104.589 L 313.522,-104.494 L 313.55,-104.398 L 313.572,-104.3
 L 313.587,-104.201 L 313.597,-104.1 L 313.6,-104 L 313.597,-103.9 L 313.587,-103.799 L 313.572,-103.7
 L 313.55,-103.602 L 313.522,-103.506 L 313.488,-103.411 L 313.448,-103.319 L 313.402,-103.229 L 313.351,-103.143
 L 313.294,-103.06 L 313.233,-102.98 L 313.166,-102.905 L 313.095,-102.834 L 313.02,-102.767 L 312.94,-102.706
 L 312.857,-102.649 L 312.771,-102.598 L 312.681,-102.552 L 312.589,-102.512 L 312.494,-102.478 L 312.398,-102.45
 L 312.3,-102.428 L 312.201,-102.413 L 312.1,-102.403 L 312,-102.4 z
M 127.667,-87 L 127.667,-93 L 151,-93 L 151,-87 z
M 34.3333,-87 L 34.3333,-93 L 57.6667,-93 L 57.6667,-87 z
M 81,-87 L 81,-93 L 104.333,-93 L 104.333,-87 z
M 174.333,-87 L 174.333,-93 L 197.667,-93 L 197.667,-87 z
M 221,-87 L 221,-93 L 244.333,-93 L 244.333,-87 z
M 267.667,-87 L 267.667,-93 L 291,-93 L 291,-87 z
M 314.333,-87 L 314.333,-93 L 337.667,-93 L 337.667,-87 z
M 367,-19.4 L 361,-19.4 L 361,-33.8 L 367,-33.8 L 367,-48.2 L 361,-48.2
 L 361,-62.6 L 367,-62.6 L 367,-77 L 5,-77 L 5,-62.6 L 11,-62.6
 L 11,-48.2 L 5,-48.2 L 5,-33.8 L 11,-33.8 L 11,-19.4 L 5,-19.4
 L 5,-5 L 367,-5 z
M 314.333,-62 L 314.333,-68 L 337.667,-68 L 337.667,-62 z
M 267.667,-62 L 267.667,-68 L 291,-68 L 291,-62 z
M 221,-62 L 221,-68 L 244.333,-68 L 244.333,-62 z
M 34.3333,-62 L 34.3333,-68 L 57.6667,-68 L 57.6667,-62 z
M 81,-62 L 81,-68 L 104.333,-68 L 104.333,-62 z
M 127.667,-62 L 127.667,-68 L 151,-68 L 151,-62 z
M 174.333,-62 L 174.333,-68 L 197.667,-68 L 197.667,-62 z
M 289.5,-25.5 L 289.5,-56.5 L 315.5,-56.5 L 315.5,-25.5 z
M 41.2465,-29.0237 L 40.496,-29.0946 L 39.7514,-29.2126 L 39.0157,-29.377 L 38.2918,-29.5873 L 37.5825,-29.8427
 L 36.8907,-30.1421 L 36.219,-30.4843 L 35.5701,-30.8681 L 34.9466,-31.2918 L 34.3509,-31.7538 L 33.7854,-32.2524
 L 33.2524,-32.7854 L 32.7538,-33.3509 L 32.2918,-33.9466 L 31.8681,-34.5701 L 31.4843,-35.219 L 31.1421,-35.8907
 L 30.8427,-36.5825 L 30.5873,-37.2918 L 30.377,-38.0157 L 30.2126,-38.7514 L 30.0946,-39.496 L 30.0237,-40.2465
 L 30,-41 L 30.0237,-41.7535 L 30.0946,-42.504 L 30.2126,-43.2486 L 30.377,-43.9843 L 30.5873,-44.7082
 L 30.8427,-45.4175 L 31.1421,-46.1093 L 31.4843,-46.781 L 31.8681,-47.4299 L 32.2918,-48.0534 L 32.7538,-48.6491
 L 33.2524,-49.2146 L 33.7854,-49.7476 L 34.3509,-50.2462 L 34.9466,-50.7082 L 35.5701,-51.1319 L 36.219,-51.5157
 L 36.8907,-51.8579 L 37.5825,-52.1573 L 38.2918,-52.4127 L 39.0157,-52.623 L 39.7514,-52.7874 L 40.496,-52.9054
 L 41.2465,-52.9763 L 42,-53 L 42.7535,-52.9763 L 43.504,-52.9054 L 44.2486,-52.7874 L 44.9843,-52.623
 L 45.7082,-52.4127 L 46.4175,-52.1573 L 47.1094,-51.8579 L 47.7811,-51.5157 L 48.4299,-51.1319 L 49.0534,-50.7082
 L 49.6491,-50.2462 L 50.2146,-49.7476 L 50.7476,-49.2146 L 51.2462,-48.6491 L 51.7082,-48.0534 L 52.1319,-47.4299
 L 52.5157,-46.781 L 52.8579,-46.1093 L 53.1573,-45.4175 L 53.4127,-44.7082 L 53.623,-43.9843 L 53.7875,-43.2486
 L 53.9054,-42.504 L 53.9763,-41.7535 L 54,-41 L 53.9763,-40.2465 L 53.9054,-39.496 L 53.7875,-38.7514
 L 53.623,-38.0157 L 53.4127,-37.2918 L 53.1573,-36.5825 L 52.8579,-35.8907 L 52.5157,-35.219 L 52.1319,-34.5701
 L 51.7082,-33.9466 L 51.2462,-33.3509 L 50.7476,-32.7854 L 50.2146,-32.2524 L 49.6491,-31.7538 L 49.0534,-31.2918
 L 48.4299,-30.8681 L 47.7811,-30.4843 L 47.1094,-30.1421 L 46.4175,-29.8427 L 45.7082,-29.5873 L 44.9843,-29.377
 L 44.2486,-29.2126 L 43.504,-29.0946 L 42.7535,-29.0237 L 42,-29 z
M 107.247,-29.0237 L 106.496,-29.0946 L 105.751,-29.2126 L 105.016,-29.377 L 104.292,-29.5873 L 103.583,-29.8427
 L 102.891,-30.1421 L 102.219,-30.4843 L 101.57,-30.8681 L 100.947,-31.2918 L 100.351,-31.7538 L 99.7854,-32.2524
 L 99.2524,-32.7854 L 98.7538,-33.3509 L 98.2918,-33.9466 L 97.8681,-34.5701 L 97.4843,-35.219 L 97.1421,-35.8907
 L 96.8427,-36.5825 L 96.5873,-37.2918 L 96.377,-38.0157 L 96.2125,-38.7514 L 96.0946,-39.496 L 96.0237,-40.2465
 L 96,-41 L 96.0237,-41.7535 L 96.0946,-42.504 L 96.2125,-43.2486 L 96.377,-43.9843 L 96.5873,-44.7082
 L 96.8427,-45.4175 L 97.1421,-46.1093 L 97.4843,-46.781 L 97.8681,-47.4299 L 98.2918,-48.0534 L 98.7538,-48.6491
 L 99.2524,-49.2146 L 99.7854,-49.7476 L 100.351,-50.2462 L 100.947,-50.7082 L 101.57,-51.1319 L 102.219,-51.5157
 L 102.891,-51.8579 L 103.583,-52.1573 L 104.292,-52.4127 L 105.016,-52.623 L 105.751,-52.7874 L 106.496,-52.9054
 L 107.247,-52.9763 L 108,-53 L 108.753,-52.9763 L 109.504,-52.9054 L 110.249,-52.7874 L 110.984,-52.623
 L 111.708,-52.4127 L 112.417,-52.1573 L 113.109,-51.8579 L 113.781,-51.5157 L 114.43,-51.1319 L 115.053,-50.7082
 L 115.649,-50.2462 L 116.215,-49.7476 L 116.748,-49.2146 L 117.246,-48.6491 L 117.708,-48.0534 L 118.132,-47.4299
 L 118.516,-46.781 L 118.858,-46.1093 L 119.157,-45.4175 L 119.413,-44.7082 L 119.623,-43.9843 L 119.787,-43.2486
 L 119.905,-42.504 L 119.976,-41.7535 L 120,-41 L 119.976,-40.2465 L 119.905,-39.496 L 119.787,-38.7514
 L 119.623,-38.0157 L 119.413,-37.2918 L 119.157,-36.5825 L 118.858,-35.8907 L 118.516,-35.219 L 118.132,-34.5701
 L 117.708,-33.9466 L 117.246,-33.3509 L 116.748,-32.7854 L 116.215,-32.2524 L 115.649,-31.7538 L 115.053,-31.2918
 L 114.43,-30.8681 L 113.781,-30.4843 L 113.109,-30.1421 L 112.417,-29.8427 L 111.708,-29.5873 L 110.984,-29.377
 L 110.249,-29.2126 L 109.504,-29.0946 L 108.753,-29.0237 L 108,-29 z
M 74.2465,-29.0237 L 73.496,-29.0946 L 72.7514,-29.2126 L 72.0157,-29.377 L 71.2918,-29.5873 L 70.5825,-29.8427
 L 69.8907,-30.1421 L 69.219,-30.4843 L 68.5701,-30.8681 L 67.9466,-31.2918 L 67.3509,-31.7538 L 66.7854,-32.2524
 L 66.2524,-32.7854 L 65.7538,-33.3509 L 65.2918,-33.9466 L 64.8681,-34.5701 L 64.4843,-35.219 L 64.1421,-35.8907
 L 63.8427,-36.5825 L 63.5873,-37.2918 L 63.377,-38.0157 L 63.2126,-38.7514 L 63.0946,-39.496 L 63.0237,-40.2465
 L 63,-41 L 63.0237,-41.7535 L 63.0946,-42.504 L 63.2126,-43.2486 L 63.377,-43.9843 L 63.5873,-44.7082
 L 63.8427,-45.4175 L 64.1421,-46.1093 L 64.4843,-46.781 L 64.8681,-47.4299 L 65.2918,-48.0534 L 65.7538,-48.6491
 L 66.2524,-49.2146 L 66.7854,-49.7476 L 67.3509,-50.2462 L 67.9466,-50.7082 L 68.5701,-51.1319 L 69.219,-51.5157
 L 69.8907,-51.8579 L 70.5825,-52.1573 L 71.2918,-52.4127 L 72.0157,-52.623 L 72.7514,-52.7874 L 73.496,-52.9054
 L 74.2465,-52.9763 L 75,-53 L 75.7535,-52.9763 L 76.504,-52.9054 L 77.2486,-52.7874 L 77.9843,-52.623
 L 78.7082,-52.4127 L 79.4175,-52.1573 L 80.1093,-51.8579 L 80.781,-51.5157 L 81.4299,-51.1319 L 82.0534,-50.7082
 L 82.6491,-50.2462 L 83.2146,-49.7476 L 83.7476,-49.2146 L 84.2462,-48.6491 L 84.7082,-48.0534 L 85.1319,-47.4299
 L 85.5157,-46.781 L 85.8579,-46.1093 L 86.1573,-45.4175 L 86.4127,-44.7082 L 86.623,-43.9843 L 86.7874,-43.2486
 L 86.9054,-42.504 L 86.9763,-41.7535 L 87,-41 L 86.9763,-40.2465 L 86.9054,-39.496 L 86.7874,-38.7514
 L 86.623,-38.0157 L 86.4127,-37.2918 L 86.1573,-36.5825 L 85.8579,-35.8907 L 85.5157,-35.219 L 85.1319,-34.5701
 L 84.7082,-33.9466 L 84.2462,-33.3509 L 83.7476,-32.7854 L 83.2146,-32.2524 L 82.6491,-31.7538 L 82.0534,-31.2918
 L 81.4299,-30.8681 L 80.781,-30.4843 L 80.1093,-30.1421 L 79.4175,-29.8427 L 78.7082,-29.5873 L 77.9843,-29.377
 L 77.2486,-29.2126 L 76.504,-29.0946 L 75.7535,-29.0237 L 75,-29 z
M 81,-12 L 81,-18 L 104.333,-18 L 104.333,-12 z
M 127.667,-12 L 127.667,-18 L 151,-18 L 151,-12 z
M 174.333,-12 L 174.333,-18 L 197.667,-18 L 197.667,-12 z
M 221,-12 L 221,-18 L 244.333,-18 L 244.333,-12 z
M 267.667,-12 L 267.667,-18 L 291,-18 L 291,-12 z
M 314.333,-12 L 314.333,-18 L 337.667,-18 L 337.667,-12 z
M 34.3333,-12 L 34.3333,-18 L 57.6667,-18 L 57.6667,-12 z
" stroke="black" fill="lightgray" stroke-width="0.5"/>
</svg>
