<?xml version="1.0" standalone="no"?>
<!DOCTYPE svg PUBLIC "-//W3C//DTD SVG 1.1//EN" "http://www.w3.org/Graphics/SVG/1.1/DTD/svg11.dtd">
<svg width="362mm" height="432mm" viewBox="5 -437 362 432" xmlns="http://www.w3.org/2000/svg" version="1.1">
<title>OpenSCAD Model</title>
<path d="
M 57.6667,-231 L 81,-231 L 81,-225 L 104.333,-225 L 104.333,-231 L 127.667,-231
 L 127.667,-225 L 151,-225 L 151,-231 L 174.333,-231 L 174.333,-225 L 197.667,-225
 L 197.667,-231 L 221,-231 L 221,-225 L 244.333,-225 L 244.333,-231 L 267.667,-231
 L 267.667,-225 L 291,-225 L 291,-231 L 314.333,-231 L 314.333,-225 L 337.667,-225
 L 337.667,-231 L 361,-231 L 361,-253.222 L 367,-253.222 L 367,-275.444 L 361,-275.444
 L 361,-297.667 L 367,-297.667 L 367,-319.889 L 361,-319.889 L 361,-342.111 L 367,-342.111
 L 367,-364.333 L 361,-364.333 L 361,-386.556 L 367,-386.556 L 367,-408.778 L 361,-408.778
 L 361,-431 L 337.667,-431 L 337.667,-437 L 314.333,-437 L 314.333,-431 L 291,-431
 L 291,-437 L 267.667,-437 L 267.667,-431 L 244.333,-431 L 244.333,-437 L 221,-437
 L 221,-431 L 197.667,-431 L 197.667,-437 L 174.333,-437 L 174.333,-431 L 151,-431
 L 151,-437 L 127.667,-437 L 127.667,-431 L 104.333,-431 L 104.333,-437 L 81,-437
 L 81,-431 L 57.6667,-431 L 57.6667,-437 L 34.3333,-437 L 34.3333,-431 L 11,-431
 L 11,-408.778 L 5,-408.778 L 5,-386.556 L 11,-386.556 L 11,-364.333 L 5,-364.333
 L 5,-342.111 L 11,-342.111 L 11,-319.889 L 5,-319.889 L 5,-297.667 L 11,-297.667
 L 11,-275.444 L 5,-275.444 L 5,-253.222 L 11,-253.222 L 11,-231 L 34.3333,-231
 L 34.3333,-225 L 57.6667,-225 z
M 21.1906,-414.5 L 18.8812,-418.5 L 21.1906,-422.5 L 25.8094,-422.5 L 28.1188,-418.5 L 25.8094,-414.5
 z
M 346.191,-414.5 L 343.881,-418.5 L 346.191,-422.5 L 350.809,-422.5 L 353.119,-418.5 L 350.809,-414.5
 z
M 183.691,-414.5 L 181.381,-418.5 L 183.691,-422.5 L 188.309,-422.5 L 190.619,-418.5 L 188.309,-414.5
 z
M 36,-256 L 36,-406 L 336,-406 L 336,-256 z
M 346.191,-327 L 343.881,-331 L 346.191,-335 L 350.809,-335 L 353.119,-331 L 350.809,-327
 z
M 21.1906,-327 L 18.8812,-331 L 21.1906,-335 L 25.8094,-335 L 28.1188,-331 L 25.8094,-327
 z
M 183.691,-239.5 L 181.381,-243.5 L 183.691,-247.5 L 188.309,-247.5 L 190.619,-243.5 L 188.309,-239.5
 z
M 346.191,-239.5 L 343.881,-243.5 L 346.191,-247.5 L 350.809,-247.5 L 353.119,-243.5 L 350.809,-239.5
 z
M 21.1906,-239.5 L 18.8812,-243.5 L 21.1906,-247.5 L 25.8094,-247.5 L 28.1188,-243.5 L 25.8094,-239.5
 z
M 57.6667,-11 L 81,-11 L 81,-5 L 104.333,-5 L 104.333,-11 L 127.667,-11
 L 127.667,-5 L 151,-5 L 151,-11 L 174.333,-11 L 174.333,-5 L 197.667,-5
 L 197.667,-11 L 221,-11 L 221,-5 L 244.333,-5 L 244.333,-11 L 267.667,-11
 L 267.667,-5 L 291,-5 L 291,-11 L 314.333,-11 L 314.333,-5 L 337.667,-5
 L 337.667,-11 L 361,-11 L 361,-33.2222 L 367,-33.2222 L 367,-55.4444 L 361,-55.4444
 L 361,-77.6667 L 367,-77.6667 L 367,-99.8889 L 361,-99.8889 L 361,-122.111 L 367,-122.111
 L 367,-144.333 L 361,-144.333 L 361,-166.556 L 367,-166.556 L 367,-188.778 L 361,-188.778
 L 361,-211 L 337.667,-211 L 337.667,-217 L 314.333,-217 L 314.333,-211 L 291,-211
 L 291,-217 L 267.667,-217 L 267.667,-211 L 244.333,-211 L 244.333,-217 L 221,-217
 L 221,-211 L 197.667,-211 L 197.667,-217 L 174.333,-217 L 174.333,-211 L 151,-211
 L 151,-217 L 127.667,-217 L 127.667,-211 L 104.333,-211 L 104.333,-217 L 81,-217
 L 81,-211 L 57.6667,-211 L 57.6667,-217 L 34.3333,-217 L 34.3333,-211 L 11,-211
 L 11,-188.778 L 5,-188.778 L 5,-166.556 L 11,-166.556 L 11,-144.333 L 5,-144.333
 L 5,-122.111 L 11,-122.111 L 11,-99.8889 L 5,-99.8889 L 5,-77.6667 L 11,-77.6667
 L 11,-55.4444 L 5,-55.4444 L 5,-33.2222 L 11,-33.2222 L 11,-11 L 34.3333,-11
 L 34.3333,-5 L 57.6667,-5 z
M 23.3744,-196.504 L 23.2493,-196.516 L 23.1252,-196.535 L 23.0026,-196.563 L 22.882,-196.598 L 22.7638,-196.64
 L 22.6485,-196.69 L 22.5365,-196.747 L 22.4284,-196.811 L 22.3244,-196.882 L 22.2252,-196.959 L 22.1309,-197.042
 L 22.0421,-197.131 L 21.959,-197.225 L 21.882,-197.324 L 21.8114,-197.428 L 21.7474,-197.536 L 21.6904,-197.648
 L 21.6405,-197.764 L 21.5979,-197.882 L 21.5628,-198.003 L 21.5354,-198.125 L 21.5158,-198.249 L 21.504,-198.374
 L 21.5,-198.5 L 21.504,-198.626 L 21.5158,-198.751 L 21.5354,-198.875 L 21.5628,-198.997 L 21.5979,-199.118
 L 21.6405,-199.236 L 21.6904,-199.352 L 21.7474,-199.464 L 21.8114,-199.572 L 21.882,-199.676 L 21.959,-199.775
 L 22.0421,-199.869 L 22.1309,-199.958 L 22.2252,-200.041 L 22.3244,-200.118 L 22.4284,-200.189 L 22.5365,-200.253
 L 22.6485,-200.31 L 22.7638,-200.36 L 22.882,-200.402 L 23.0026,-200.437 L 23.1252,-200.465 L 23.2493,-200.484
 L 23.3744,-200.496 L 23.5,-200.5 L 23.6256,-200.496 L 23.7507,-200.484 L 23.8748,-200.465 L 23.9974,-200.437
 L 24.118,-200.402 L 24.2362,-200.36 L 24.3515,-200.31 L 24.4635,-200.253 L 24.5716,-200.189 L 24.6756,-200.118
 L 24.7748,-200.041 L 24.8691,-199.958 L 24.9579,-199.869 L 25.041,-199.775 L 25.118,-199.676 L 25.1886,-199.572
 L 25.2526,-199.464 L 25.3096,-199.352 L 25.3595,-199.236 L 25.4021,-199.118 L 25.4372,-198.997 L 25.4646,-198.875
 L 25.4842,-198.751 L 25.496,-198.626 L 25.5,-198.5 L 25.496,-198.374 L 25.4842,-198.249 L 25.4646,-198.125
 L 25.4372,-198.003 L 25.4021,-197.882 L 25.3595,-197.764 L 25.3096,-197.648 L 25.2526,-197.536 L 25.1886,-197.428
 L 25.118,-197.324 L 25.041,-197.225 L 24.9579,-197.131 L 24.8691,-197.042 L 24.7748,-196.959 L 24.6756,-196.882
 L 24.5716,-196.811 L 24.4635,-196.747 L 24.3515,-196.69 L 24.2362,-196.64 L 24.118,-196.598 L 23.9974,-196.563
 L 23.8748,-196.535 L 23.7507,-196.516 L 23.6256,-196.504 L 23.5,-196.5 z
M 348.374,-196.504 L 348.249,-196.516 L 348.125,-196.535 L 348.003,-196.563 L 347.882,-196.598 L 347.764,-196.64
 L 347.648,-196.69 L 347.536,-196.747 L 347.428,-196.811 L 347.324,-196.882 L 347.225,-196.959 L 347.131,-197.042
 L 347.042,-197.131 L 346.959,-197.225 L 346.882,-197.324 L 346.811,-197.428 L 346.747,-197.536 L 346.69,-197.648
 L 346.64,-197.764 L 346.598,-197.882 L 346.563,-198.003 L 346.535,-198.125 L 346.516,-198.249 L 346.504,-198.374
 L 346.5,-198.5 L 346.504,-198.626 L 346.516,-198.751 L 346.535,-198.875 L 346.563,-198.997 L 346.598,-199.118
 L 346.64,-199.236 L 346.69,-199.352 L 346.747,-199.464 L 346.811,-199.572 L 346.882,-199.676 L 346.959,-199.775
 L 347.042,-199.869 L 347.131,-199.958 L 347.225,-200.041 L 347.324,-200.118 L 347.428,-200.189 L 347.536,-200.253
 L 347.648,-200.31 L 347.764,-200.36 L 347.882,-200.402 L 348.003,-200.437 L 348.125,-200.465 L 348.249,-200.484
 L 348.374,-200.496 L 348.5,-200.5 L 348.626,-200.496 L 348.751,-200.484 L 348.875,-200.465 L 348.997,-200.437
 L 349.118,-200.402 L 349.236,-200.36 L 349.352,-200.31 L 349.464,-200.253 L 349.572,-200.189 L 349.676,-200.118
 L 349.775,-200.041 L 349.869,-199.958 L 349.958,-199.869 L 350.041,-199.775 L 350.118,-199.676 L 350.189,-199.572
 L 350.253,-199.464 L 350.31,-199.352 L 350.36,-199.236 L 350.402,-199.118 L 350.437,-198.997 L 350.465,-198.875
 L 350.484,-198.751 L 350.496,-198.626 L 350.5,-198.5 L 350.496,-198.374 L 350.484,-198.249 L 350.465,-198.125
 L 350.437,-198.003 L 350.402,-197.882 L 350.36,-197.764 L 350.31,-197.648 L 350.253,-197.536 L 350.189,-197.428
 L 350.118,-197.324 L 350.041,-197.225 L 349.958,-197.131 L 349.869,-197.042 L 349.775,-196.959 L 349.676,-196.882
 L 349.572,-196.811 L 349.464,-196.747 L 349.352,-196.69 L 349.236,-196.64 L 349.118,-196.598 L 348.997,-196.563
 L 348.875,-196.535 L 348.751,-196.516 L 348.626,-196.504 L 348.5,-196.5 z
M 185.874,-196.504 L 185.749,-196.516 L 185.625,-196.535 L 185.503,-196.563 L 185.382,-196.598 L 185.264,-196.64
 L 185.148,-196.69 L 185.036,-196.747 L 184.928,-196.811 L 184.824,-196.882 L 184.725,-196.959 L 184.631,-197.042
 L 184.542,-197.131 L 184.459,-197.225 L 184.382,-197.324 L 184.311,-197.428 L 184.247,-197.536 L 184.19,-197.648
 L 184.14,-197.764 L 184.098,-197.882 L 184.063,-198.003 L 184.035,-198.125 L 184.016,-198.249 L 184.004,-198.374
 L 184,-198.5 L 184.004,-198.626 L 184.016,-198.751 L 184.035,-198.875 L 184.063,-198.997 L 184.098,-199.118
 L 184.14,-199.236 L 184.19,-199.352 L 184.247,-199.464 L 184.311,-199.572 L 184.382,-199.676 L 184.459,-199.775
 L 184.542,-199.869 L 184.631,-199.958 L 184.725,-200.041 L 184.824,-200.118 L 184.928,-200.189 L 185.036,-200.253
 L 185.148,-200.31 L 185.264,-200.36 L 185.382,-200.402 L 185.503,-200.437 L 185.625,-200.465 L 185.749,-200.484
 L 185.874,-200.496 L 186,-200.5 L 186.126,-200.496 L 186.251,-200.484 L 186.375,-200.465 L 186.497,-200.437
 L 186.618,-200.402 L 186.736,-200.36 L 186.852,-200.31 L 186.964,-200.253 L 187.072,-200.189 L 187.176,-200.118
 L 187.275,-200.041 L 187.369,-199.958 L 187.458,-199.869 L 187.541,-199.775 L 187.618,-199.676 L 187.689,-199.572
 L 187.753,-199.464 L 187.81,-199.352 L 187.86,-199.236 L 187.902,-199.118 L 187.937,-198.997 L 187.965,-198.875
 L 187.984,-198.751 L 187.996,-198.626 L 188,-198.5 L 187.996,-198.374 L 187.984,-198.249 L 187.965,-198.125
 L 187.937,-198.003 L 187.902,-197.882 L 187.86,-197.764 L 187.81,-197.648 L 187.753,-197.536 L 187.689,-197.428
 L 187.618,-197.324 L 187.541,-197.225 L 187.458,-197.131 L 187.369,-197.042 L 187.275,-196.959 L 187.176,-196.882
 L 187.072,-196.811 L 186.964,-196.747 L 186.852,-196.69 L 186.736,-196.64 L 186.618,-196.598 L 186.497,-196.563
 L 186.375,-196.535 L 186.251,-196.516 L 186.126,-196.504 L 186,-196.5 z
M 36,-36 L 36,-186 L 336,-186 L 336,-36 z
M 348.374,-109.004 L 348.249,-109.016 L 348.125,-109.035 L 348.003,-109.063 L 347.882,-109.098 L 347.764,-109.14
 L 347.648,-109.19 L 347.536,-109.247 L 347.428,-109.311 L 347.324,-109.382 L 347.225,-109.459 L 347.131,-109.542
 L 347.042,-109.631 L 346.959,-109.725 L 346.882,-109.824 L 346.811,-109.928 L 346.747,-110.036 L 346.69,-110.148
 L 346.64,-110.264 L 346.598,-110.382 L 346.563,-110.503 L 346.535,-110.625 L 346.516,-110.749 L 346.504,-110.874
 L 346.5,-111 L 346.504,-111.126 L 346.516,-111.251 L 346.535,-111.375 L 346.563,-111.497 L 346.598,-111.618
 L 346.64,-111.736 L 346.69,-111.852 L 346.747,-111.964 L 346.811,-112.072 L 346.882,-112.176 L 346.959,-112.275
 L 347.042,-112.369 L 347.131,-112.458 L 347.225,-112.541 L 347.324,-112.618 L 347.428,-112.689 L 347.536,-112.753
 L 347.648,-112.81 L 347.764,-112.86 L 347.882,-112.902 L 348.003,-112.937 L 348.125,-112.965 L 348.249,-112.984
 L 348.374,-112.996 L 348.5,-113 L 348.626,-112.996 L 348.751,-112.984 L 348.875,-112.965 L 348.997,-112.937
 L 349.118,-112.902 L 349.236,-112.86 L 349.352,-112.81 L 349.464,-112.753 L 349.572,-112.689 L 349.676,-112.618
 L 349.775,-112.541 L 349.869,-112.458 L 349.958,-112.369 L 350.041,-112.275 L 350.118,-112.176 L 350.189,-112.072
 L 350.253,-111.964 L 350.31,-111.852 L 350.36,-111.736 L 350.402,-111.618 L 350.437,-111.497 L 350.465,-111.375
 L 350.484,-111.251 L 350.496,-111.126 L 350.5,-111 L 350.496,-110.874 L 350.484,-110.749 L 350.465,-110.625
 L 350.437,-110.503 L 350.402,-110.382 L 350.36,-110.264 L 350.31,-110.148 L 350.253,-110.036 L 350.189,-109.928
 L 350.118,-109.824 L 350.041,-109.725 L 349.958,-109.631 L 349.869,-109.542 L 349.775,-109.459 L 349.676,-109.382
 L 349.572,-109.311 L 349.464,-109.247 L 349.352,-109.19 L 349.236,-109.14 L 349.118,-109.098 L 348.997,-109.063
 L 348.875,-109.035 L 348.751,-109.016 L 348.626,-109.004 L 348.5,-109 z
M 23.3744,-109.004 L 23.2493,-109.016 L 23.1252,-109.035 L 23.0026,-109.063 L 22.882,-109.098 L 22.7638,-109.14
 L 22.6485,-109.19 L 22.5365,-109.247 L 22.4284,-109.311 L 22.3244,-109.382 L 22.2252,-109.459 L 22.1309,-109.542
 L 22.0421,-109.631 L 21.959,-109.725 L 21.882,-109.824 L 21.8114,-109.928 L 21.7474,-110.036 L 21.6904,-110.148
 L 21.6405,-110.264 L 21.5979,-110.382 L 21.5628,-110.503 L 21.5354,-110.625 L 21.5158,-110.749 L 21.504,-110.874
 L 21.5,-111 L 21.504,-111.126 L 21.5158,-111.251 L 21.5354,-111.375 L 21.5628,-111.497 L 21.5979,-111.618
 L 21.6405,-111.736 L 21.6904,-111.852 L 21.7474,-111.964 L 21.8114,-112.072 L 21.882,-112.176 L 21.959,-112.275
 L 22.0421,-112.369 L 22.1309,-112.458 L 22.2252,-112.541 L 22.3244,-112.618 L 22.4284,-112.689 L 22.5365,-112.753
 L 22.6485,-112.81 L 22.7638,-112.86 L 22.882,-112.902 L 23.0026,-112.937 L 23.1252,-112.965 L 23.2493,-112.984
 L 23.3744,-112.996 L 23.5,-113 L 23.6256,-112.996 L 23.7507,-112.984 L 23.8748,-112.965 L 23.9974,-112.937
 L 24.118,-112.902 L 24.2362,-112.86 L 24.3515,-112.81 L 24.4635,-112.753 L 24.5716,-112.689 L 24.6756,-112.618
 L 24.7748,-112.541 L 24.8691,-112.458 L 24.9579,-112.369 L 25.041,-112.275 L 25.118,-112.176 L 25.1886,-112.072
 L 25.2526,-111.964 L 25.3096,-111.852 L 25.3595,-111.736 L 25.4021,-111.618 L 25.4372,-111.497 L 25.4646,-111.375
 L 25.4842,-111.251 L 25.496,-111.126 L 25.5,-111 L 25.496,-110.874 L 25.4842,-110.749 L 25.4646,-110.625
 L 25.4372,-110.503 L 25.4021,-110.382 L 25.3595,-110.264 L 25.3096,-110.148 L 25.2526,-110.036 L 25.1886,-109.928
 L 25.118,-109.824 L 25.041,-109.725 L 24.9579,-109.631 L 24.8691,-109.542 L 24.7748,-109.459 L 24.6756,-109.382
 L 24.5716,-109.311 L 24.4635,-109.247 L 24.3515,-109.19 L 24.2362,-109.14 L 24.118,-109.098 L 23.9974,-109.063
 L 23.8748,-109.035 L 23.7507,-109.016 L 23.6256,-109.004 L 23.5,-109 z
M 185.874,-21.5039 L 185.749,-21.5158 L 185.625,-21.5354 L 185.503,-21.5628 L 185.382,-21.5979 L 185.264,-21.6404
 L 185.148,-21.6903 L 185.036,-21.7474 L 184.928,-21.8113 L 184.824,-21.882 L 184.725,-21.959 L 184.631,-22.0421
 L 184.542,-22.1309 L 184.459,-22.2251 L 184.382,-22.3244 L 184.311,-22.4283 L 184.247,-22.5365 L 184.19,-22.6484
 L 184.14,-22.7637 L 184.098,-22.882 L 184.063,-23.0026 L 184.035,-23.1252 L 184.016,-23.2493 L 184.004,-23.3744
 L 184,-23.5 L 184.004,-23.6256 L 184.016,-23.7507 L 184.035,-23.8748 L 184.063,-23.9974 L 184.098,-24.118
 L 184.14,-24.2362 L 184.19,-24.3515 L 184.247,-24.4635 L 184.311,-24.5716 L 184.382,-24.6756 L 184.459,-24.7748
 L 184.542,-24.8691 L 184.631,-24.9579 L 184.725,-25.041 L 184.824,-25.118 L 184.928,-25.1886 L 185.036,-25.2526
 L 185.148,-25.3096 L 185.264,-25.3595 L 185.382,-25.4021 L 185.503,-25.4372 L 185.625,-25.4646 L 185.749,-25.4842
 L 185.874,-25.496 L 186,-25.5 L 186.126,-25.496 L 186.251,-25.4842 L 186.375,-25.4646 L 186.497,-25.4372
 L 186.618,-25.4021 L 186.736,-25.3595 L 186.852,-25.3096 L 186.964,-25.2526 L 187.072,-25.1886 L 187.176,-25.118
 L 187.275,-25.041 L 187.369,-24.9579 L 187.458,-24.8691 L 187.541,-24.7748 L 187.618,-24.6756 L 187.689,-24.5716
 L 187.753,-24.4635 L 187.81,-24.3515 L 187.86,-24.2362 L 187.902,-24.118 L 187.937,-23.9974 L 187.965,-23.8748
 L 187.984,-23.7507 L 187.996,-23.6256 L 188,-23.5 L 187.996,-23.3744 L 187.984,-23.2493 L 187.965,-23.1252
 L 187.937,-23.0026 L 187.902,-22.882 L 187.86,-22.7637 L 187.81,-22.6484 L 187.753,-22.5365 L 187.689,-22.4283
 L 187.618,-22.3244 L 187.541,-22.2251 L 187.458,-22.1309 L 187.369,-22.0421 L 187.275,-21.959 L 187.176,-21.882
 L 187.072,-21.8113 L 186.964,-21.7474 L 186.852,-21.6903 L 186.736,-21.6404 L 186.618,-21.5979 L 186.497,-21.5628
 L 186.375,-21.5354 L 186.251,-21.5158 L 186.126,-21.5039 L 186,-21.5 z
M 348.374,-21.5039 L 348.249,-21.5158 L 348.125,-21.5354 L 348.003,-21.5628 L 347.882,-21.5979 L 347.764,-21.6404
 L 347.648,-21.6903 L 347.536,-21.7474 L 347.428,-21.8113 L 347.324,-21.882 L 347.225,-21.959 L 347.131,-22.0421
 L 347.042,-22.1309 L 346.959,-22.2251 L 346.882,-22.3244 L 346.811,-22.4283 L 346.747,-22.5365 L 346.69,-22.6484
 L 346.64,-22.7637 L 346.598,-22.882 L 346.563,-23.0026 L 346.535,-23.1252 L 346.516,-23.2493 L 346.504,-23.3744
 L 346.5,-23.5 L 346.504,-23.6256 L 346.516,-23.7507 L 346.535,-23.8748 L 346.563,-23.9974 L 346.598,-24.118
 L 346.64,-24.2362 L 346.69,-24.3515 L 346.747,-24.4635 L 346.811,-24.5716 L 346.882,-24.6756 L 346.959,-24.7748
 L 347.042,-24.8691 L 347.131,-24.9579 L 347.225,-25.041 L 347.324,-25.118 L 347.428,-25.1886 L 347.536,-25.2526
 L 347.648,-25.3096 L 347.764,-25.3595 L 347.882,-25.4021 L 348.003,-25.4372 L 348.125,-25.4646 L 348.249,-25.4842
 L 348.374,-25.496 L 348.5,-25.5 L 348.626,-25.496 L 348.751,-25.4842 L 348.875,-25.4646 L 348.997,-25.4372
 L 349.118,-25.4021 L 349.236,-25.3595 L 349.352,-25.3096 L 349.464,-25.2526 L 349.572,-25.1886 L 349.676,-25.118
 L 349.775,-25.041 L 349.869,-24.9579 L 349.958,-24.8691 L 350.041,-24.7748 L 350.118,-24.6756 L 350.189,-24.5716
 L 350.253,-24.4635 L 350.31,-24.3515 L 350.36,-24.2362 L 350.402,-24.118 L 350.437,-23.9974 L 350.465,-23.8748
 L 350.484,-23.7507 L 350.496,-23.6256 L 350.5,-23.5 L 350.496,-23.3744 L 350.484,-23.2493 L 350.465,-23.1252
 L 350.437,-23.0026 L 350.402,-22.882 L 350.36,-22.7637 L 350.31,-22.6484 L 350.253,-22.5365 L 350.189,-22.4283
 L 350.118,-22.3244 L 350.041,-22.2251 L 349.958,-22.1309 L 349.869,-22.0421 L 349.775,-21.959 L 349.676,-21.882
 L 349.572,-21.8113 L 349.464,-21.7474 L 349.352,-21.6903 L 349.236,-21.6404 L 349.118,-21.5979 L 348.997,-21.5628
 L 348.875,-21.5354 L 348.751,-21.5158 L 348.626,-21.5039 L 348.5,-21.5 z
M 23.3744,-21.5039 L 23.2493,-21.5158 L 23.1252,-21.5354 L 23.0026,-21.5628 L 22.882,-21.5979 L 22.7638,-21.6404
 L 22.6485,-21.6903 L 22.5365,-21.7474 L 22.4284,-21.8113 L 22.3244,-21.882 L 22.2252,-21.959 L 22.1309,-22.0421
 L 22.0421,-22.1309 L 21.959,-22.2251 L 21.882,-22.3244 L 21.8114,-22.4283 L 21.7474,-22.5365 L 21.6904,-22.6484
 L 21.6405,-22.7637 L 21.5979,-22.882 L 21.5628,-23.0026 L 21.5354,-23.1252 L 21.5158,-23.2493 L 21.504,-23.3744
 L 21.5,-23.5 L 21.504,-23.6256 L 21.5158,-23.7507 L 21.5354,-23.8748 L 21.5628,-23.9974 L 21.5979,-24.118
 L 21.6405,-24.2362 L 21.6904,-24.3515 L 21.7474,-24.4635 L 21.8114,-24.5716 L 21.882,-24.6756 L 21.959,-24.7748
 L 22.0421,-24.8691 L 22.1309,-24.9579 L 22.2252,-25.041 L 22.3244,-25.118 L 22.4284,-25.1886 L 22.5365,-25.2526
 L 22.6485,-25.3096 L 22.7638,-25.3595 L 22.882,-25.4021 L 23.0026,-25.4372 L 23.1252,-25.4646 L 23.2493,-25.4842
 L 23.3744,-25.496 L 23.5,-25.5 L 23.6256,-25.496 L 23.7507,-25.4842 L 23.8748,-25.4646 L 23.9974,-25.4372
 L 24.118,-25.4021 L 24.2362,-25.3595 L 24.3515,-25.3096 L 24.4635,-25.2526 L 24.5716,-25.1886 L 24.6756,-25.118
 L 24.7748,-25.041 L 24.8691,-24.9579 L 24.9579,-24.8691 L 25.041,-24.7748 L 25.118,-24.6756 L 25.1886,-24.5716
 L 25.2526,-24.4635 L 25.3096,-24.3515 L 25.3595,-24.2362 L 25.4021,-24.118 L 25.4372,-23.9974 L 25.4646,-23.8748
 L 25.4842,-23.7507 L 25.496,-23.6256 L 25.5,-23.5 L 25.496,-23.3744 L 25.4842,-23.2493 L 25.4646,-23.1252
 L 25.4372,-23.0026 L 25.4021,-22.882 L 25.3595,-22.7637 L 25.3096,-22.6484 L 25.2526,-22.5365 L 25.1886,-22.4283
 L 25.118,-22.3244 L 25.041,-22.2251 L 24.9579,-22.1309 L 24.8691,-22.0421 L 24.7748,-21.959 L 24.6756,-21.882
 L 24.5716,-21.8113 L 24.4635,-21.7474 L 24.3515,-21.6903 L 24.2362,-21.6404 L 24.118,-21.5979 L 23.9974,-21.5628
 L 23.8748,-21.5354 L 23.7507,-21.5158 L 23.6256,-21.5039 L 23.5,-21.5 z
" stroke="black" fill="lightgray" stroke-width="0.5"/>
</svg>
