<?xml version="1.0" standalone="no"?>
<!DOCTYPE svg PUBLIC "-//W3C//DTD SVG 1.1//EN" "http://www.w3.org/Graphics/SVG/1.1/DTD/svg11.dtd">
<svg width="362mm" height="582mm" viewBox="5 -587 362 582" xmlns="http://www.w3.org/2000/svg" version="1.1">
<title>OpenSCAD Model</title>
<path d="
M 57.6667,-381 L 81,-381 L 81,-375 L 104.333,-375 L 104.333,-381 L 127.667,-381
 L 127.667,-375 L 151,-375 L 151,-381 L 174.333,-381 L 174.333,-375 L 197.667,-375
 L 197.667,-381 L 221,-381 L 221,-375 L 244.333,-375 L 244.333,-381 L 267.667,-381
 L 267.667,-375 L 291,-375 L 291,-381 L 314.333,-381 L 314.333,-375 L 337.667,-375
 L 337.667,-381 L 361,-381 L 361,-403.222 L 367,-403.222 L 367,-425.444 L 361,-425.444
 L 361,-447.667 L 367,-447.667 L 367,-469.889 L 361,-469.889 L 361,-492.111 L 367,-492.111
 L 367,-514.333 L 361,-514.333 L 361,-536.556 L 367,-536.556 L 367,-558.778 L 361,-558.778
 L 361,-581 L 337.667,-581 L 337.667,-587 L 314.333,-587 L 314.333,-581 L 291,-581
 L 291,-587 L 267.667,-587 L 267.667,-581 L 244.333,-581 L 244.333,-587 L 221,-587
 L 221,-581 L 197.667,-581 L 197.667,-587 L 174.333,-587 L 174.333,-581 L 151,-581
 L 151,-587 L 127.667,-587 L 127.667,-581 L 104.333,-581 L 104.333,-587 L 81,-587
 L 81,-581 L 57.6667,-581 L 57.6667,-587 L 34.3333,-587 L 34.3333,-581 L 11,-581
 L 11,-558.778 L 5,-558.778 L 5,-536.556 L 11,-536.556 L 11,-514.333 L 5,-514.333
 L 5,-492.111 L 11,-492.111 L 11,-469.889 L 5,-469.889 L 5,-447.667 L 11,-447.667
 L 11,-425.444 L 5,-425.444 L 5,-403.222 L 11,-403.222 L 11,-381 L 34.3333,-381
 L 34.3333,-375 L 57.6667,-375 z
M 23.3744,-566.504 L 23.2493,-566.516 L 23.1252,-566.535 L 23.0026,-566.563 L 22.882,-566.598 L 22.7638,-566.64
 L 22.6485,-566.69 L 22.5365,-566.747 L 22.4284,-566.811 L 22.3244,-566.882 L 22.2252,-566.959 L 22.1309,-567.042
 L 22.0421,-567.131 L 21.959,-567.225 L 21.882,-567.324 L 21.8114,-567.428 L 21.7474,-567.536 L 21.6904,-567.648
 L 21.6405,-567.764 L 21.5979,-567.882 L 21.5628,-568.003 L 21.5354,-568.125 L 21.5158,-568.249 L 21.504,-568.374
 L 21.5,-568.5 L 21.504,-568.626 L 21.5158,-568.751 L 21.5354,-568.875 L 21.5628,-568.997 L 21.5979,-569.118
 L 21.6405,-569.236 L 21.6904,-569.352 L 21.7474,-569.464 L 21.8114,-569.572 L 21.882,-569.676 L 21.959,-569.775
 L 22.0421,-569.869 L 22.1309,-569.958 L 22.2252,-570.041 L 22.3244,-570.118 L 22.4284,-570.189 L 22.5365,-570.253
 L 22.6485,-570.31 L 22.7638,-570.36 L 22.882,-570.402 L 23.0026,-570.437 L 23.1252,-570.465 L 23.2493,-570.484
 L 23.3744,-570.496 L 23.5,-570.5 L 23.6256,-570.496 L 23.7507,-570.484 L 23.8748,-570.465 L 23.9974,-570.437
 L 24.118,-570.402 L 24.2362,-570.36 L 24.3515,-570.31 L 24.4635,-570.253 L 24.5716,-570.189 L 24.6756,-570.118
 L 24.7748,-570.041 L 24.8691,-569.958 L 24.9579,-569.869 L 25.041,-569.775 L 25.118,-569.676 L 25.1886,-569.572
 L 25.2526,-569.464 L 25.3096,-569.352 L 25.3595,-569.236 L 25.4021,-569.118 L 25.4372,-568.997 L 25.4646,-568.875
 L 25.4842,-568.751 L 25.496,-568.626 L 25.5,-568.5 L 25.496,-568.374 L 25.4842,-568.249 L 25.4646,-568.125
 L 25.4372,-568.003 L 25.4021,-567.882 L 25.3595,-567.764 L 25.3096,-567.648 L 25.2526,-567.536 L 25.1886,-567.428
 L 25.118,-567.324 L 25.041,-567.225 L 24.9579,-567.131 L 24.8691,-567.042 L 24.7748,-566.959 L 24.6756,-566.882
 L 24.5716,-566.811 L 24.4635,-566.747 L 24.3515,-566.69 L 24.2362,-566.64 L 24.118,-566.598 L 23.9974,-566.563
 L 23.8748,-566.535 L 23.7507,-566.516 L 23.6256,-566.504 L 23.5,-566.5 z
M 348.374,-566.504 L 348.249,-566.516 L 348.125,-566.535 L 348.003,-566.563 L 347.882,-566.598 L 347.764,-566.64
 L 347.648,-566.69 L 347.536,-566.747 L 347.428,-566.811 L 347.324,-566.882 L 347.225,-566.959 L 347.131,-567.042
 L 347.042,-567.131 L 346.959,-567.225 L 346.882,-567.324 L 346.811,-567.428 L 346.747,-567.536 L 346.69,-567.648
 L 346.64,-567.764 L 346.598,-567.882 L 346.563,-568.003 L 346.535,-568.125 L 346.516,-568.249 L 346.504,-568.374
 L 346.5,-568.5 L 346.504,-568.626 L 346.516,-568.751 L 346.535,-568.875 L 346.563,-568.997 L 346.598,-569.118
 L 346.64,-569.236 L 346.69,-569.352 L 346.747,-569.464 L 346.811,-569.572 L 346.882,-569.676 L 346.959,-569.775
 L 347.042,-569.869 L 347.131,-569.958 L 347.225,-570.041 L 347.324,-570.118 L 347.428,-570.189 L 347.536,-570.253
 L 347.648,-570.31 L 347.764,-570.36 L 347.882,-570.402 L 348.003,-570.437 L 348.125,-570.465 L 348.249,-570.484
 L 348.374,-570.496 L 348.5,-570.5 L 348.626,-570.496 L 348.751,-570.484 L 348.875,-570.465 L 348.997,-570.437
 L 349.118,-570.402 L 349.236,-570.36 L 349.352,-570.31 L 349.464,-570.253 L 349.572,-570.189 L 349.676,-570.118
 L 349.775,-570.041 L 349.869,-569.958 L 349.958,-569.869 L 350.041,-569.775 L 350.118,-569.676 L 350.189,-569.572
 L 350.253,-569.464 L 350.31,-569.352 L 350.36,-569.236 L 350.402,-569.118 L 350.437,-568.997 L 350.465,-568.875
 L 350.484,-568.751 L 350.496,-568.626 L 350.5,-568.5 L 350.496,-568.374 L 350.484,-568.249 L 350.465,-568.125
 L 350.437,-568.003 L 350.402,-567.882 L 350.36,-567.764 L 350.31,-567.648 L 350.253,-567.536 L 350.189,-567.428
 L 350.118,-567.324 L 350.041,-567.225 L 349.958,-567.131 L 349.869,-567.042 L 349.775,-566.959 L 349.676,-566.882
 L 349.572,-566.811 L 349.464,-566.747 L 349.352,-566.69 L 349.236,-566.64 L 349.118,-566.598 L 348.997,-566.563
 L 348.875,-566.535 L 348.751,-566.516 L 348.626,-566.504 L 348.5,-566.5 z
M 185.874,-566.504 L 185.749,-566.516 L 185.625,-566.535 L 185.503,-566.563 L 185.382,-566.598 L 185.264,-566.64
 L 185.148,-566.69 L 185.036,-566.747 L 184.928,-566.811 L 184.824,-566.882 L 184.725,-566.959 L 184.631,-567.042
 L 184.542,-567.131 L 184.459,-567.225 L 184.382,-567.324 L 184.311,-567.428 L 184.247,-567.536 L 184.19,-567.648
 L 184.14,-567.764 L 184.098,-567.882 L 184.063,-568.003 L 184.035,-568.125 L 184.016,-568.249 L 184.004,-568.374
 L 184,-568.5 L 184.004,-568.626 L 184.016,-568.751 L 184.035,-568.875 L 184.063,-568.997 L 184.098,-569.118
 L 184.14,-569.236 L 184.19,-569.352 L 184.247,-569.464 L 184.311,-569.572 L 184.382,-569.676 L 184.459,-569.775
 L 184.542,-569.869 L 184.631,-569.958 L 184.725,-570.041 L 184.824,-570.118 L 184.928,-570.189 L 185.036,-570.253
 L 185.148,-570.31 L 185.264,-570.36 L 185.382,-570.402 L 185.503,-570.437 L 185.625,-570.465 L 185.749,-570.484
 L 185.874,-570.496 L 186,-570.5 L 186.126,-570.496 L 186.251,-570.484 L 186.375,-570.465 L 186.497,-570.437
 L 186.618,-570.402 L 186.736,-570.36 L 186.852,-570.31 L 186.964,-570.253 L 187.072,-570.189 L 187.176,-570.118
 L 187.275,-570.041 L 187.369,-569.958 L 187.458,-569.869 L 187.541,-569.775 L 187.618,-569.676 L 187.689,-569.572
 L 187.753,-569.464 L 187.81,-569.352 L 187.86,-569.236 L 187.902,-569.118 L 187.937,-568.997 L 187.965,-568.875
 L 187.984,-568.751 L 187.996,-568.626 L 188,-568.5 L 187.996,-568.374 L 187.984,-568.249 L 187.965,-568.125
 L 187.937,-568.003 L 187.902,-567.882 L 187.86,-567.764 L 187.81,-567.648 L 187.753,-567.536 L 187.689,-567.428
 L 187.618,-567.324 L 187.541,-567.225 L 187.458,-567.131 L 187.369,-567.042 L 187.275,-566.959 L 187.176,-566.882
 L 187.072,-566.811 L 186.964,-566.747 L 186.852,-566.69 L 186.736,-566.64 L 186.618,-566.598 L 186.497,-566.563
 L 186.375,-566.535 L 186.251,-566.516 L 186.126,-566.504 L 186,-566.5 z
M 36,-406 L 36,-556 L 336,-556 L 336,-406 z
M 348.374,-479.004 L 348.249,-479.016 L 348.125,-479.035 L 348.003,-479.063 L 347.882,-479.098 L 347.764,-479.14
 L 347.648,-479.19 L 347.536,-479.247 L 347.428,-479.311 L 347.324,-479.382 L 347.225,-479.459 L 347.131,-479.542
 L 347.042,-479.631 L 346.959,-479.725 L 346.882,-479.824 L 346.811,-479.928 L 346.747,-480.036 L 346.69,-480.148
 L 346.64,-480.264 L 346.598,-480.382 L 346.563,-480.503 L 346.535,-480.625 L 346.516,-480.749 L 346.504,-480.874
 L 346.5,-481 L 346.504,-481.126 L 346.516,-481.251 L 346.535,-481.375 L 346.563,-481.497 L 346.598,-481.618
 L 346.64,-481.736 L 346.69,-481.852 L 346.747,-481.964 L 346.811,-482.072 L 346.882,-482.176 L 346.959,-482.275
 L 347.042,-482.369 L 347.131,-482.458 L 347.225,-482.541 L 347.324,-482.618 L 347.428,-482.689 L 347.536,-482.753
 L 347.648,-482.81 L 347.764,-482.86 L 347.882,-482.902 L 348.003,-482.937 L 348.125,-482.965 L 348.249,-482.984
 L 348.374,-482.996 L 348.5,-483 L 348.626,-482.996 L 348.751,-482.984 L 348.875,-482.965 L 348.997,-482.937
 L 349.118,-482.902 L 349.236,-482.86 L 349.352,-482.81 L 349.464,-482.753 L 349.572,-482.689 L 349.676,-482.618
 L 349.775,-482.541 L 349.869,-482.458 L 349.958,-482.369 L 350.041,-482.275 L 350.118,-482.176 L 350.189,-482.072
 L 350.253,-481.964 L 350.31,-481.852 L 350.36,-481.736 L 350.402,-481.618 L 350.437,-481.497 L 350.465,-481.375
 L 350.484,-481.251 L 350.496,-481.126 L 350.5,-481 L 350.496,-480.874 L 350.484,-480.749 L 350.465,-480.625
 L 350.437,-480.503 L 350.402,-480.382 L 350.36,-480.264 L 350.31,-480.148 L 350.253,-480.036 L 350.189,-479.928
 L 350.118,-479.824 L 350.041,-479.725 L 349.958,-479.631 L 349.869,-479.542 L 349.775,-479.459 L 349.676,-479.382
 L 349.572,-479.311 L 349.464,-479.247 L 349.352,-479.19 L 349.236,-479.14 L 349.118,-479.098 L 348.997,-479.063
 L 348.875,-479.035 L 348.751,-479.016 L 348.626,-479.004 L 348.5,-479 z
M 23.3744,-479.004 L 23.2493,-479.016 L 23.1252,-479.035 L 23.0026,-479.063 L 22.882,-479.098 L 22.7638,-479.14
 L 22.6485,-479.19 L 22.5365,-479.247 L 22.4284,-479.311 L 22.3244,-479.382 L 22.2252,-479.459 L 22.1309,-479.542
 L 22.0421,-479.631 L 21.959,-479.725 L 21.882,-479.824 L 21.8114,-479.928 L 21.7474,-480.036 L 21.6904,-480.148
 L 21.6405,-480.264 L 21.5979,-480.382 L 21.5628,-480.503 L 21.5354,-480.625 L 21.5158,-480.749 L 21.504,-480.874
 L 21.5,-481 L 21.504,-481.126 L 21.5158,-481.251 L 21.5354,-481.375 L 21.5628,-481.497 L 21.5979,-481.618
 L 21.6405,-481.736 L 21.6904,-481.852 L 21.7474,-481.964 L 21.8114,-482.072 L 21.882,-482.176 L 21.959,-482.275
 L 22.0421,-482.369 L 22.1309,-482.458 L 22.2252,-482.541 L 22.3244,-482.618 L 22.4284,-482.689 L 22.5365,-482.753
 L 22.6485,-482.81 L 22.7638,-482.86 L 22.882,-482.902 L 23.0026,-482.937 L 23.1252,-482.965 L 23.2493,-482.984
 L 23.3744,-482.996 L 23.5,-483 L 23.6256,-482.996 L 23.7507,-482.984 L 23.8748,-482.965 L 23.9974,-482.937
 L 24.118,-482.902 L 24.2362,-482.86 L 24.3515,-482.81 L 24.4635,-482.753 L 24.5716,-482.689 L 24.6756,-482.618
 L 24.7748,-482.541 L 24.8691,-482.458 L 24.9579,-482.369 L 25.041,-482.275 L 25.118,-482.176 L 25.1886,-482.072
 L 25.2526,-481.964 L 25.3096,-481.852 L 25.3595,-481.736 L 25.4021,-481.618 L 25.4372,-481.497 L 25.4646,-481.375
 L 25.4842,-481.251 L 25.496,-481.126 L 25.5,-481 L 25.496,-480.874 L 25.4842,-480.749 L 25.4646,-480.625
 L 25.4372,-480.503 L 25.4021,-480.382 L 25.3595,-480.264 L 25.3096,-480.148 L 25.2526,-480.036 L 25.1886,-479.928
 L 25.118,-479.824 L 25.041,-479.725 L 24.9579,-479.631 L 24.8691,-479.542 L 24.7748,-479.459 L 24.6756,-479.382
 L 24.5716,-479.311 L 24.4635,-479.247 L 24.3515,-479.19 L 24.2362,-479.14 L 24.118,-479.098 L 23.9974,-479.063
 L 23.8748,-479.035 L 23.7507,-479.016 L 23.6256,-479.004 L 23.5,-479 z
M 185.874,-391.504 L 185.749,-391.516 L 185.625,-391.535 L 185.503,-391.563 L 185.382,-391.598 L 185.264,-391.64
 L 185.148,-391.69 L 185.036,-391.747 L 184.928,-391.811 L 184.824,-391.882 L 184.725,-391.959 L 184.631,-392.042
 L 184.542,-392.131 L 184.459,-392.225 L 184.382,-392.324 L 184.311,-392.428 L 184.247,-392.536 L 184.19,-392.648
 L 184.14,-392.764 L 184.098,-392.882 L 184.063,-393.003 L 184.035,-393.125 L 184.016,-393.249 L 184.004,-393.374
 L 184,-393.5 L 184.004,-393.626 L 184.016,-393.751 L 184.035,-393.875 L 184.063,-393.997 L 184.098,-394.118
 L 184.14,-394.236 L 184.19,-394.352 L 184.247,-394.464 L 184.311,-394.572 L 184.382,-394.676 L 184.459,-394.775
 L 184.542,-394.869 L 184.631,-394.958 L 184.725,-395.041 L 184.824,-395.118 L 184.928,-395.189 L 185.036,-395.253
 L 185.148,-395.31 L 185.264,-395.36 L 185.382,-395.402 L 185.503,-395.437 L 185.625,-395.465 L 185.749,-395.484
 L 185.874,-395.496 L 186,-395.5 L 186.126,-395.496 L 186.251,-395.484 L 186.375,-395.465 L 186.497,-395.437
 L 186.618,-395.402 L 186.736,-395.36 L 186.852,-395.31 L 186.964,-395.253 L 187.072,-395.189 L 187.176,-395.118
 L 187.275,-395.041 L 187.369,-394.958 L 187.458,-394.869 L 187.541,-394.775 L 187.618,-394.676 L 187.689,-394.572
 L 187.753,-394.464 L 187.81,-394.352 L 187.86,-394.236 L 187.902,-394.118 L 187.937,-393.997 L 187.965,-393.875
 L 187.984,-393.751 L 187.996,-393.626 L 188,-393.5 L 187.996,-393.374 L 187.984,-393.249 L 187.965,-393.125
 L 187.937,-393.003 L 187.902,-392.882 L 187.86,-392.764 L 187.81,-392.648 L 187.753,-392.536 L 187.689,-392.428
 L 187.618,-392.324 L 187.541,-392.225 L 187.458,-392.131 L 187.369,-392.042 L 187.275,-391.959 L 187.176,-391.882
 L 187.072,-391.811 L 186.964,-391.747 L 186.852,-391.69 L 186.736,-391.64 L 186.618,-391.598 L 186.497,-391.563
 L 186.375,-391.535 L 186.251,-391.516 L 186.126,-391.504 L 186,-391.5 z
M 348.374,-391.504 L 348.249,-391.516 L 348.125,-391.535 L 348.003,-391.563 L 347.882,-391.598 L 347.764,-391.64
 L 347.648,-391.69 L 347.536,-391.747 L 347.428,-391.811 L 347.324,-391.882 L 347.225,-391.959 L 347.131,-392.042
 L 347.042,-392.131 L 346.959,-392.225 L 346.882,-392.324 L 346.811,-392.428 L 346.747,-392.536 L 346.69,-392.648
 L 346.64,-392.764 L 346.598,-392.882 L 346.563,-393.003 L 346.535,-393.125 L 346.516,-393.249 L 346.504,-393.374
 L 346.5,-393.5 L 346.504,-393.626 L 346.516,-393.751 L 346.535,-393.875 L 346.563,-393.997 L 346.598,-394.118
 L 346.64,-394.236 L 346.69,-394.352 L 346.747,-394.464 L 346.811,-394.572 L 346.882,-394.676 L 346.959,-394.775
 L 347.042,-394.869 L 347.131,-394.958 L 347.225,-395.041 L 347.324,-395.118 L 347.428,-395.189 L 347.536,-395.253
 L 347.648,-395.31 L 347.764,-395.36 L 347.882,-395.402 L 348.003,-395.437 L 348.125,-395.465 L 348.249,-395.484
 L 348.374,-395.496 L 348.5,-395.5 L 348.626,-395.496 L 348.751,-395.484 L 348.875,-395.465 L 348.997,-395.437
 L 349.118,-395.402 L 349.236,-395.36 L 349.352,-395.31 L 349.464,-395.253 L 349.572,-395.189 L 349.676,-395.118
 L 349.775,-395.041 L 349.869,-394.958 L 349.958,-394.869 L 350.041,-394.775 L 350.118,-394.676 L 350.189,-394.572
 L 350.253,-394.464 L 350.31,-394.352 L 350.36,-394.236 L 350.402,-394.118 L 350.437,-393.997 L 350.465,-393.875
 L 350.484,-393.751 L 350.496,-393.626 L 350.5,-393.5 L 350.496,-393.374 L 350.484,-393.249 L 350.465,-393.125
 L 350.437,-393.003 L 350.402,-392.882 L 350.36,-392.764 L 350.31,-392.648 L 350.253,-392.536 L 350.189,-392.428
 L 350.118,-392.324 L 350.041,-392.225 L 349.958,-392.131 L 349.869,-392.042 L 349.775,-391.959 L 349.676,-391.882
 L 349.572,-391.811 L 349.464,-391.747 L 349.352,-391.69 L 349.236,-391.64 L 349.118,-391.598 L 348.997,-391.563
 L 348.875,-391.535 L 348.751,-391.516 L 348.626,-391.504 L 348.5,-391.5 z
M 23.3744,-391.504 L 23.2493,-391.516 L 23.1252,-391.535 L 23.0026,-391.563 L 22.882,-391.598 L 22.7638,-391.64
 L 22.6485,-391.69 L 22.5365,-391.747 L 22.4284,-391.811 L 22.3244,-391.882 L 22.2252,-391.959 L 22.1309,-392.042
 L 22.0421,-392.131 L 21.959,-392.225 L 21.882,-392.324 L 21.8114,-392.428 L 21.7474,-392.536 L 21.6904,-392.648
 L 21.6405,-392.764 L 21.5979,-392.882 L 21.5628,-393.003 L 21.5354,-393.125 L 21.5158,-393.249 L 21.504,-393.374
 L 21.5,-393.5 L 21.504,-393.626 L 21.5158,-393.751 L 21.5354,-393.875 L 21.5628,-393.997 L 21.5979,-394.118
 L 21.6405,-394.236 L 21.6904,-394.352 L 21.7474,-394.464 L 21.8114,-394.572 L 21.882,-394.676 L 21.959,-394.775
 L 22.0421,-394.869 L 22.1309,-394.958 L 22.2252,-395.041 L 22.3244,-395.118 L 22.4284,-395.189 L 22.5365,-395.253
 L 22.6485,-395.31 L 22.7638,-395.36 L 22.882,-395.402 L 23.0026,-395.437 L 23.1252,-395.465 L 23.2493,-395.484
 L 23.3744,-395.496 L 23.5,-395.5 L 23.6256,-395.496 L 23.7507,-395.484 L 23.8748,-395.465 L 23.9974,-395.437
 L 24.118,-395.402 L 24.2362,-395.36 L 24.3515,-395.31 L 24.4635,-395.253 L 24.5716,-395.189 L 24.6756,-395.118
 L 24.7748,-395.041 L 24.8691,-394.958 L 24.9579,-394.869 L 25.041,-394.775 L 25.118,-394.676 L 25.1886,-394.572
 L 25.2526,-394.464 L 25.3096,-394.352 L 25.3595,-394.236 L 25.4021,-394.118 L 25.4372,-393.997 L 25.4646,-393.875
 L 25.4842,-393.751 L 25.496,-393.626 L 25.5,-393.5 L 25.496,-393.374 L 25.4842,-393.249 L 25.4646,-393.125
 L 25.4372,-393.003 L 25.4021,-392.882 L 25.3595,-392.764 L 25.3096,-392.648 L 25.2526,-392.536 L 25.1886,-392.428
 L 25.118,-392.324 L 25.041,-392.225 L 24.9579,-392.131 L 24.8691,-392.042 L 24.7748,-391.959 L 24.6756,-391.882
 L 24.5716,-391.811 L 24.4635,-391.747 L 24.3515,-391.69 L 24.2362,-391.64 L 24.118,-391.598 L 23.9974,-391.563
 L 23.8748,-391.535 L 23.7507,-391.516 L 23.6256,-391.504 L 23.5,-391.5 z
M 57.6667,-161 L 81,-161 L 81,-155 L 104.333,-155 L 104.333,-161 L 127.667,-161
 L 127.667,-155 L 151,-155 L 151,-161 L 174.333,-161 L 174.333,-155 L 197.667,-155
 L 197.667,-161 L 221,-161 L 221,-155 L 244.333,-155 L 244.333,-161 L 267.667,-161
 L 267.667,-155 L 291,-155 L 291,-161 L 314.333,-161 L 314.333,-155 L 337.667,-155
 L 337.667,-161 L 361,-161 L 361,-183.222 L 367,-183.222 L 367,-205.444 L 361,-205.444
 L 361,-227.667 L 367,-227.667 L 367,-249.889 L 361,-249.889 L 361,-272.111 L 367,-272.111
 L 367,-294.333 L 361,-294.333 L 361,-316.556 L 367,-316.556 L 367,-338.778 L 361,-338.778
 L 361,-361 L 337.667,-361 L 337.667,-367 L 314.333,-367 L 314.333,-361 L 291,-361
 L 291,-367 L 267.667,-367 L 267.667,-361 L 244.333,-361 L 244.333,-367 L 221,-367
 L 221,-361 L 197.667,-361 L 197.667,-367 L 174.333,-367 L 174.333,-361 L 151,-361
 L 151,-367 L 127.667,-367 L 127.667,-361 L 104.333,-361 L 104.333,-367 L 81,-367
 L 81,-361 L 57.6667,-361 L 57.6667,-367 L 34.3333,-367 L 34.3333,-361 L 11,-361
 L 11,-338.778 L 5,-338.778 L 5,-316.556 L 11,-316.556 L 11,-294.333 L 5,-294.333
 L 5,-272.111 L 11,-272.111 L 11,-249.889 L 5,-249.889 L 5,-227.667 L 11,-227.667
 L 11,-205.444 L 5,-205.444 L 5,-183.222 L 11,-183.222 L 11,-161 L 34.3333,-161
 L 34.3333,-155 L 57.6667,-155 z
M 346.191,-344.5 L 343.881,-348.5 L 346.191,-352.5 L 350.809,-352.5 L 353.119,-348.5 L 350.809,-344.5
 z
M 183.691,-344.5 L 181.381,-348.5 L 183.691,-352.5 L 188.309,-352.5 L 190.619,-348.5 L 188.309,-344.5
 z
M 21.1906,-344.5 L 18.8812,-348.5 L 21.1906,-352.5 L 25.8094,-352.5 L 28.1188,-348.5 L 25.8094,-344.5
 z
M 36,-186 L 36,-336 L 336,-336 L 336,-186 z
M 21.1906,-257 L 18.8812,-261 L 21.1906,-265 L 25.8094,-265 L 28.1188,-261 L 25.8094,-257
 z
M 346.191,-257 L 343.881,-261 L 346.191,-265 L 350.809,-265 L 353.119,-261 L 350.809,-257
 z
M 346.191,-169.5 L 343.881,-173.5 L 346.191,-177.5 L 350.809,-177.5 L 353.119,-173.5 L 350.809,-169.5
 z
M 21.1906,-169.5 L 18.8812,-173.5 L 21.1906,-177.5 L 25.8094,-177.5 L 28.1188,-173.5 L 25.8094,-169.5
 z
M 183.691,-169.5 L 181.381,-173.5 L 183.691,-177.5 L 188.309,-177.5 L 190.619,-173.5 L 188.309,-169.5
 z
M 367,-94.4 L 361,-94.4 L 361,-108.8 L 367,-108.8 L 367,-123.2 L 361,-123.2
 L 361,-137.6 L 367,-137.6 L 367,-152 L 5,-152 L 5,-137.6 L 11,-137.6
 L 11,-123.2 L 5,-123.2 L 5,-108.8 L 11,-108.8 L 11,-94.4 L 5,-94.4
 L 5,-80 L 367,-80 z
M 267.667,-137 L 267.667,-143 L 291,-143 L 291,-137 z
M 314.333,-137 L 314.333,-143 L 337.667,-143 L 337.667,-137 z
M 221,-137 L 221,-143 L 244.333,-143 L 244.333,-137 z
M 34.3333,-137 L 34.3333,-143 L 57.6667,-143 L 57.6667,-137 z
M 81,-137 L 81,-143 L 104.333,-143 L 104.333,-137 z
M 127.667,-137 L 127.667,-143 L 151,-143 L 151,-137 z
M 174.333,-137 L 174.333,-143 L 197.667,-143 L 197.667,-137 z
M 47.8995,-126.403 L 47.7995,-126.413 L 47.7002,-126.428 L 47.6021,-126.45 L 47.5056,-126.478 L 47.411,-126.512
 L 47.3188,-126.552 L 47.2292,-126.598 L 47.1427,-126.649 L 47.0596,-126.706 L 46.9801,-126.767 L 46.9047,-126.834
 L 46.8337,-126.905 L 46.7672,-126.98 L 46.7056,-127.06 L 46.6491,-127.143 L 46.5979,-127.229 L 46.5523,-127.319
 L 46.5124,-127.411 L 46.4783,-127.506 L 46.4503,-127.602 L 46.4283,-127.7 L 46.4126,-127.799 L 46.4032,-127.9
 L 46.4,-128 L 46.4032,-128.1 L 46.4126,-128.201 L 46.4283,-128.3 L 46.4503,-128.398 L 46.4783,-128.494
 L 46.5124,-128.589 L 46.5523,-128.681 L 46.5979,-128.771 L 46.6491,-128.857 L 46.7056,-128.94 L 46.7672,-129.02
 L 46.8337,-129.095 L 46.9047,-129.166 L 46.9801,-129.233 L 47.0596,-129.294 L 47.1427,-129.351 L 47.2292,-129.402
 L 47.3188,-129.448 L 47.411,-129.488 L 47.5056,-129.522 L 47.6021,-129.55 L 47.7002,-129.572 L 47.7995,-129.587
 L 47.8995,-129.597 L 48,-129.6 L 48.1005,-129.597 L 48.2005,-129.587 L 48.2998,-129.572 L 48.3979,-129.55
 L 48.4944,-129.522 L 48.589,-129.488 L 48.6813,-129.448 L 48.7708,-129.402 L 48.8573,-129.351 L 48.9405,-129.294
 L 49.0199,-129.233 L 49.0953,-129.166 L 49.1664,-129.095 L 49.2328,-129.02 L 49.2944,-128.94 L 49.3509,-128.857
 L 49.4021,-128.771 L 49.4477,-128.681 L 49.4877,-128.589 L 49.5217,-128.494 L 49.5497,-128.398 L 49.5717,-128.3
 L 49.5874,-128.201 L 49.5968,-128.1 L 49.6,-128 L 49.5968,-127.9 L 49.5874,-127.799 L 49.5717,-127.7
 L 49.5497,-127.602 L 49.5217,-127.506 L 49.4877,-127.411 L 49.4477,-127.319 L 49.4021,-127.229 L 49.3509,-127.143
 L 49.2944,-127.06 L 49.2328,-126.98 L 49.1664,-126.905 L 49.0953,-126.834 L 49.0199,-126.767 L 48.9405,-126.706
 L 48.8573,-126.649 L 48.7708,-126.598 L 48.6813,-126.552 L 48.589,-126.512 L 48.4944,-126.478 L 48.3979,-126.45
 L 48.2998,-126.428 L 48.2005,-126.413 L 48.1005,-126.403 L 48,-126.4 z
M 284.152,-102.527 L 283.308,-102.606 L 282.47,-102.739 L 281.643,-102.924 L 280.828,-103.161 L 280.03,-103.448
 L 279.252,-103.785 L 278.496,-104.17 L 277.766,-104.602 L 277.065,-105.078 L 276.395,-105.598 L 275.759,-106.159
 L 275.159,-106.759 L 274.598,-107.395 L 274.078,-108.065 L 273.602,-108.766 L 273.17,-109.496 L 272.785,-110.252
 L 272.448,-111.03 L 272.161,-111.828 L 271.924,-112.643 L 271.739,-113.47 L 271.606,-114.308 L 271.527,-115.152
 L 271.5,-116 L 271.527,-116.848 L 271.606,-117.692 L 271.739,-118.53 L 271.924,-119.357 L 272.161,-120.172
 L 272.448,-120.97 L 272.785,-121.748 L 273.17,-122.504 L 273.602,-123.234 L 274.078,-123.935 L 274.598,-124.605
 L 275.159,-125.241 L 275.759,-125.841 L 276.395,-126.402 L 277.065,-126.922 L 277.766,-127.398 L 278.496,-127.83
 L 279.252,-128.215 L 280.03,-128.552 L 280.828,-128.839 L 281.643,-129.076 L 282.47,-129.261 L 283.308,-129.394
 L 284.152,-129.473 L 285,-129.5 L 285.848,-129.473 L 286.692,-129.394 L 287.53,-129.261 L 288.357,-129.076
 L 289.172,-128.839 L 289.97,-128.552 L 290.748,-128.215 L 291.504,-127.83 L 292.234,-127.398 L 292.935,-126.922
 L 293.605,-126.402 L 294.241,-125.841 L 294.841,-125.241 L 295.402,-124.605 L 295.922,-123.935 L 296.398,-123.234
 L 296.83,-122.504 L 297.215,-121.748 L 297.552,-120.97 L 297.839,-120.172 L 298.076,-119.357 L 298.261,-118.53
 L 298.394,-117.692 L 298.473,-116.848 L 298.5,-116 L 298.473,-115.152 L 298.394,-114.308 L 298.261,-113.47
 L 298.076,-112.643 L 297.839,-111.828 L 297.552,-111.03 L 297.215,-110.252 L 296.83,-109.496 L 296.398,-108.766
 L 295.922,-108.065 L 295.402,-107.395 L 294.841,-106.759 L 294.241,-106.159 L 293.605,-105.598 L 292.935,-105.078
 L 292.234,-104.602 L 291.504,-104.17 L 290.748,-103.785 L 289.97,-103.448 L 289.172,-103.161 L 288.357,-102.924
 L 287.53,-102.739 L 286.692,-102.606 L 285.848,-102.527 L 285,-102.5 z
M 317.152,-102.527 L 316.308,-102.606 L 315.47,-102.739 L 314.643,-102.924 L 313.828,-103.161 L 313.03,-103.448
 L 312.252,-103.785 L 311.496,-104.17 L 310.766,-104.602 L 310.065,-105.078 L 309.395,-105.598 L 308.759,-106.159
 L 308.159,-106.759 L 307.598,-107.395 L 307.078,-108.065 L 306.602,-108.766 L 306.17,-109.496 L 305.785,-110.252
 L 305.448,-111.03 L 305.161,-111.828 L 304.924,-112.643 L 304.739,-113.47 L 304.606,-114.308 L 304.527,-115.152
 L 304.5,-116 L 304.527,-116.848 L 304.606,-117.692 L 304.739,-118.53 L 304.924,-119.357 L 305.161,-120.172
 L 305.448,-120.97 L 305.785,-121.748 L 306.17,-122.504 L 306.602,-123.234 L 307.078,-123.935 L 307.598,-124.605
 L 308.159,-125.241 L 308.759,-125.841 L 309.395,-126.402 L 310.065,-126.922 L 310.766,-127.398 L 311.496,-127.83
 L 312.252,-128.215 L 313.03,-128.552 L 313.828,-128.839 L 314.643,-129.076 L 315.47,-129.261 L 316.308,-129.394
 L 317.152,-129.473 L 318,-129.5 L 318.848,-129.473 L 319.692,-129.394 L 320.53,-129.261 L 321.357,-129.076
 L 322.172,-128.839 L 322.97,-128.552 L 323.748,-128.215 L 324.504,-127.83 L 325.234,-127.398 L 325.935,-126.922
 L 326.605,-126.402 L 327.241,-125.841 L 327.841,-125.241 L 328.402,-124.605 L 328.922,-123.935 L 329.398,-123.234
 L 329.83,-122.504 L 330.215,-121.748 L 330.552,-120.97 L 330.839,-120.172 L 331.076,-119.357 L 331.261,-118.53
 L 331.394,-117.692 L 331.473,-116.848 L 331.5,-116 L 331.473,-115.152 L 331.394,-114.308 L 331.261,-113.47
 L 331.076,-112.643 L 330.839,-111.828 L 330.552,-111.03 L 330.215,-110.252 L 329.83,-109.496 L 329.398,-108.766
 L 328.922,-108.065 L 328.402,-107.395 L 327.841,-106.759 L 327.241,-106.159 L 326.605,-105.598 L 325.935,-105.078
 L 325.234,-104.602 L 324.504,-104.17 L 323.748,-103.785 L 322.97,-103.448 L 322.172,-103.161 L 321.357,-102.924
 L 320.53,-102.739 L 319.692,-102.606 L 318.848,-102.527 L 318,-102.5 z
M 251.152,-102.527 L 250.308,-102.606 L 249.47,-102.739 L 248.643,-102.924 L 247.828,-103.161 L 247.03,-103.448
 L 246.252,-103.785 L 245.496,-104.17 L 244.766,-104.602 L 244.065,-105.078 L 243.395,-105.598 L 242.759,-106.159
 L 242.159,-106.759 L 241.598,-107.395 L 241.078,-108.065 L 240.602,-108.766 L 240.17,-109.496 L 239.785,-110.252
 L 239.448,-111.03 L 239.161,-111.828 L 238.924,-112.643 L 238.739,-113.47 L 238.606,-114.308 L 238.527,-115.152
 L 238.5,-116 L 238.527,-116.848 L 238.606,-117.692 L 238.739,-118.53 L 238.924,-119.357 L 239.161,-120.172
 L 239.448,-120.97 L 239.785,-121.748 L 240.17,-122.504 L 240.602,-123.234 L 241.078,-123.935 L 241.598,-124.605
 L 242.159,-125.241 L 242.759,-125.841 L 243.395,-126.402 L 244.065,-126.922 L 244.766,-127.398 L 245.496,-127.83
 L 246.252,-128.215 L 247.03,-128.552 L 247.828,-128.839 L 248.643,-129.076 L 249.47,-129.261 L 250.308,-129.394
 L 251.152,-129.473 L 252,-129.5 L 252.848,-129.473 L 253.692,-129.394 L 254.53,-129.261 L 255.357,-129.076
 L 256.172,-128.839 L 256.97,-128.552 L 257.748,-128.215 L 258.504,-127.83 L 259.234,-127.398 L 259.935,-126.922
 L 260.605,-126.402 L 261.241,-125.841 L 261.841,-125.241 L 262.402,-124.605 L 262.922,-123.935 L 263.398,-123.234
 L 263.83,-122.504 L 264.215,-121.748 L 264.552,-120.97 L 264.839,-120.172 L 265.076,-119.357 L 265.261,-118.53
 L 265.394,-117.692 L 265.473,-116.848 L 265.5,-116 L 265.473,-115.152 L 265.394,-114.308 L 265.261,-113.47
 L 265.076,-112.643 L 264.839,-111.828 L 264.552,-111.03 L 264.215,-110.252 L 263.83,-109.496 L 263.398,-108.766
 L 262.922,-108.065 L 262.402,-107.395 L 261.841,-106.759 L 261.241,-106.159 L 260.605,-105.598 L 259.935,-105.078
 L 259.234,-104.602 L 258.504,-104.17 L 257.748,-103.785 L 256.97,-103.448 L 256.172,-103.161 L 255.357,-102.924
 L 254.53,-102.739 L 253.692,-102.606 L 252.848,-102.527 L 252,-102.5 z
M 56.7465,-104.024 L 55.996,-104.095 L 55.2514,-104.213 L 54.5157,-104.377 L 53.7918,-104.587 L 53.0825,-104.843
 L 52.3907,-105.142 L 51.719,-105.484 L 51.0701,-105.868 L 50.4466,-106.292 L 49.8509,-106.754 L 49.2854,-107.252
 L 48.7524,-107.785 L 48.2538,-108.351 L 47.7918,-108.947 L 47.3681,-109.57 L 46.9843,-110.219 L 46.6421,-110.891
 L 46.3427,-111.583 L 46.0873,-112.292 L 45.877,-113.016 L 45.7126,-113.751 L 45.5946,-114.496 L 45.5237,-115.247
 L 45.5,-116 L 45.5237,-116.753 L 45.5946,-117.504 L 45.7126,-118.249 L 45.877,-118.984 L 46.0873,-119.708
 L 46.3427,-120.417 L 46.6421,-121.109 L 46.9843,-121.781 L 47.3681,-122.43 L 47.7918,-123.053 L 48.2538,-123.649
 L 48.7524,-124.215 L 49.2854,-124.748 L 49.8509,-125.246 L 50.4466,-125.708 L 51.0701,-126.132 L 51.719,-126.516
 L 52.3907,-126.858 L 53.0825,-127.157 L 53.7918,-127.413 L 54.5157,-127.623 L 55.2514,-127.787 L 55.996,-127.905
 L 56.7465,-127.976 L 57.5,-128 L 58.2535,-127.976 L 59.004,-127.905 L 59.7486,-127.787 L 60.4843,-127.623
 L 61.2082,-127.413 L 61.9175,-127.157 L 62.6093,-126.858 L 63.281,-126.516 L 63.9299,-126.132 L 64.5534,-125.708
 L 65.1491,-125.246 L 65.7146,-124.748 L 66.2476,-124.215 L 66.7462,-123.649 L 67.2082,-123.053 L 67.6319,-122.43
 L 68.0157,-121.781 L 68.3579,-121.109 L 68.6573,-120.417 L 68.9127,-119.708 L 69.123,-118.984 L 69.2874,-118.249
 L 69.4054,-117.504 L 69.4763,-116.753 L 69.5,-116 L 69.4763,-115.247 L 69.4054,-114.496 L 69.2874,-113.751
 L 69.123,-113.016 L 68.9127,-112.292 L 68.6573,-111.583 L 68.3579,-110.891 L 68.0157,-110.219 L 67.6319,-109.57
 L 67.2082,-108.947 L 66.7462,-108.351 L 66.2476,-107.785 L 65.7146,-107.252 L 65.1491,-106.754 L 64.5534,-106.292
 L 63.9299,-105.868 L 63.281,-105.484 L 62.6093,-105.142 L 61.9175,-104.843 L 61.2082,-104.587 L 60.4843,-104.377
 L 59.7486,-104.213 L 59.004,-104.095 L 58.2535,-104.024 L 57.5,-104 z
M 66.8995,-102.403 L 66.7995,-102.413 L 66.7002,-102.428 L 66.6021,-102.45 L 66.5056,-102.478 L 66.411,-102.512
 L 66.3187,-102.552 L 66.2292,-102.598 L 66.1427,-102.649 L 66.0595,-102.706 L 65.9801,-102.767 L 65.9047,-102.834
 L 65.8336,-102.905 L 65.7672,-102.98 L 65.7056,-103.06 L 65.6491,-103.143 L 65.5979,-103.229 L 65.5523,-103.319
 L 65.5123,-103.411 L 65.4783,-103.506 L 65.4503,-103.602 L 65.4283,-103.7 L 65.4126,-103.799 L 65.4032,-103.9
 L 65.4,-104 L 65.4032,-104.1 L 65.4126,-104.201 L 65.4283,-104.3 L 65.4503,-104.398 L 65.4783,-104.494
 L 65.5123,-104.589 L 65.5523,-104.681 L 65.5979,-104.771 L 65.6491,-104.857 L 65.7056,-104.94 L 65.7672,-105.02
 L 65.8336,-105.095 L 65.9047,-105.166 L 65.9801,-105.233 L 66.0595,-105.294 L 66.1427,-105.351 L 66.2292,-105.402
 L 66.3187,-105.448 L 66.411,-105.488 L 66.5056,-105.522 L 66.6021,-105.55 L 66.7002,-105.572 L 66.7995,-105.587
 L 66.8995,-105.597 L 67,-105.6 L 67.1005,-105.597 L 67.2005,-105.587 L 67.2998,-105.572 L 67.3979,-105.55
 L 67.4944,-105.522 L 67.589,-105.488 L 67.6812,-105.448 L 67.7708,-105.402 L 67.8573,-105.351 L 67.9404,-105.294
 L 68.0199,-105.233 L 68.0953,-105.166 L 68.1663,-105.095 L 68.2328,-105.02 L 68.2944,-104.94 L 68.3509,-104.857
 L 68.4021,-104.771 L 68.4477,-104.681 L 68.4876,-104.589 L 68.5217,-104.494 L 68.5497,-104.398 L 68.5717,-104.3
 L 68.5874,-104.201 L 68.5968,-104.1 L 68.6,-104 L 68.5968,-103.9 L 68.5874,-103.799 L 68.5717,-103.7
 L 68.5497,-103.602 L 68.5217,-103.506 L 68.4876,-103.411 L 68.4477,-103.319 L 68.4021,-103.229 L 68.3509,-103.143
 L 68.2944,-103.06 L 68.2328,-102.98 L 68.1663,-102.905 L 68.0953,-102.834 L 68.0199,-102.767 L 67.9404,-102.706
 L 67.8573,-102.649 L 67.7708,-102.598 L 67.6812,-102.552 L 67.589,-102.512 L 67.4944,-102.478 L 67.3979,-102.45
 L 67.2998,-102.428 L 67.2005,-102.413 L 67.1005,-102.403 L 67,-102.4 z
M 127.667,-87 L 127.667,-93 L 151,-93 L 151,-87 z
M 34.3333,-87 L 34.3333,-93 L 57.6667,-93 L 57.6667,-87 z
M 81,-87 L 81,-93 L 104.333,-93 L 104.333,-87 z
M 174.333,-87 L 174.333,-93 L 197.667,-93 L 197.667,-87 z
M 221,-87 L 221,-93 L 244.333,-93 L 244.333,-87 z
M 267.667,-87 L 267.667,-93 L 291,-93 L 291,-87 z
M 314.333,-87 L 314.333,-93 L 337.667,-93 L 337.667,-87 z
M 367,-19.4 L 361,-19.4 L 361,-33.8 L 367,-33.8 L 367,-48.2 L 361,-48.2
 L 361,-62.6 L 367,-62.6 L 367,-77 L 5,-77 L 5,-62.6 L 11,-62.6
 L 11,-48.2 L 5,-48.2 L 5,-33.8 L 11,-33.8 L 11,-19.4 L 5,-19.4
 L 5,-5 L 367,-5 z
M 314.333,-62 L 314.333,-68 L 337.667,-68 L 337.667,-62 z
M 267.667,-62 L 267.667,-68 L 291,-68 L 291,-62 z
M 221,-62 L 221,-68 L 244.333,-68 L 244.333,-62 z
M 34.3333,-62 L 34.3333,-68 L 57.6667,-68 L 57.6667,-62 z
M 81,-62 L 81,-68 L 104.333,-68 L 104.333,-62 z
M 127.667,-62 L 127.667,-68 L 151,-68 L 151,-62 z
M 174.333,-62 L 174.333,-68 L 197.667,-68 L 197.667,-62 z
M 44.5,-25.5 L 44.5,-56.5 L 70.5,-56.5 L 70.5,-25.5 z
M 251.247,-29.0237 L 250.496,-29.0946 L 249.751,-29.2126 L 249.016,-29.377 L 248.292,-29.5873 L 247.583,-29.8427
 L 246.891,-30.1421 L 246.219,-30.4843 L 245.57,-30.8681 L 244.947,-31.2918 L 244.351,-31.7538 L 243.785,-32.2524
 L 243.252,-32.7854 L 242.754,-33.3509 L 242.292,-33.9466 L 241.868,-34.5701 L 241.484,-35.219 L 241.142,-35.8907
 L 240.843,-36.5825 L 240.587,-37.2918 L 240.377,-38.0157 L 240.213,-38.7514 L 240.095,-39.496 L 240.024,-40.2465
 L 240,-41 L 240.024,-41.7535 L 240.095,-42.504 L 240.213,-43.2486 L 240.377,-43.9843 L 240.587,-44.7082
 L 240.843,-45.4175 L 241.142,-46.1093 L 241.484,-46.781 L 241.868,-47.4299 L 242.292,-48.0534 L 242.754,-48.6491
 L 243.252,-49.2146 L 243.785,-49.7476 L 244.351,-50.2462 L 244.947,-50.7082 L 245.57,-51.1319 L 246.219,-51.5157
 L 246.891,-51.8579 L 247.583,-52.1573 L 248.292,-52.4127 L 249.016,-52.623 L 249.751,-52.7874 L 250.496,-52.9054
 L 251.247,-52.9763 L 252,-53 L 252.753,-52.9763 L 253.504,-52.9054 L 254.249,-52.7874 L 254.984,-52.623
 L 255.708,-52.4127 L 256.417,-52.1573 L 257.109,-51.8579 L 257.781,-51.5157 L 258.43,-51.1319 L 259.053,-50.7082
 L 259.649,-50.2462 L 260.215,-49.7476 L 260.748,-49.2146 L 261.246,-48.6491 L 261.708,-48.0534 L 262.132,-47.4299
 L 262.516,-46.781 L 262.858,-46.1093 L 263.157,-45.4175 L 263.413,-44.7082 L 263.623,-43.9843 L 263.787,-43.2486
 L 263.905,-42.504 L 263.976,-41.7535 L 264,-41 L 263.976,-40.2465 L 263.905,-39.496 L 263.787,-38.7514
 L 263.623,-38.0157 L 263.413,-37.2918 L 263.157,-36.5825 L 262.858,-35.8907 L 262.516,-35.219 L 262.132,-34.5701
 L 261.708,-33.9466 L 261.246,-33.3509 L 260.748,-32.7854 L 260.215,-32.2524 L 259.649,-31.7538 L 259.053,-31.2918
 L 258.43,-30.8681 L 257.781,-30.4843 L 257.109,-30.1421 L 256.417,-29.8427 L 255.708,-29.5873 L 254.984,-29.377
 L 254.249,-29.2126 L 253.504,-29.0946 L 252.753,-29.0237 L 252,-29 z
M 317.247,-29.0237 L 316.496,-29.0946 L 315.751,-29.2126 L 315.016,-29.377 L 314.292,-29.5873 L 313.583,-29.8427
 L 312.891,-30.1421 L 312.219,-30.4843 L 311.57,-30.8681 L 310.947,-31.2918 L 310.351,-31.7538 L 309.785,-32.2524
 L 309.252,-32.7854 L 308.754,-33.3509 L 308.292,-33.9466 L 307.868,-34.5701 L 307.484,-35.219 L 307.142,-35.8907
 L 306.843,-36.5825 L 306.587,-37.2918 L 306.377,-38.0157 L 306.213,-38.7514 L 306.095,-39.496 L 306.024,-40.2465
 L 306,-41 L 306.024,-41.7535 L 306.095,-42.504 L 306.213,-43.2486 L 306.377,-43.9843 L 306.587,-44.7082
 L 306.843,-45.4175 L 307.142,-46.1093 L 307.484,-46.781 L 307.868,-47.4299 L 308.292,-48.0534 L 308.754,-48.6491
 L 309.252,-49.2146 L 309.785,-49.7476 L 310.351,-50.2462 L 310.947,-50.7082 L 311.57,-51.1319 L 312.219,-51.5157
 L 312.891,-51.8579 L 313.583,-52.1573 L 314.292,-52.4127 L 315.016,-52.623 L 315.751,-52.7874 L 316.496,-52.9054
 L 317.247,-52.9763 L 318,-53 L 318.753,-52.9763 L 319.504,-52.9054 L 320.249,-52.7874 L 320.984,-52.623
 L 321.708,-52.4127 L 322.417,-52.1573 L 323.109,-51.8579 L 323.781,-51.5157 L 324.43,-51.1319 L 325.053,-50.7082
 L 325.649,-50.2462 L 326.215,-49.7476 L 326.748,-49.2146 L 327.246,-48.6491 L 327.708,-48.0534 L 328.132,-47.4299
 L 328.516,-46.781 L 328.858,-46.1093 L 329.157,-45.4175 L 329.413,-44.7082 L 329.623,-43.9843 L 329.787,-43.2486
 L 329.905,-42.504 L 329.976,-41.7535 L 330,-41 L 329.976,-40.2465 L 329.905,-39.496 L 329.787,-38.7514
 L 329.623,-38.0157 L 329.413,-37.2918 L 329.157,-36.5825 L 328.858,-35.8907 L 328.516,-35.219 L 328.132,-34.5701
 L 327.708,-33.9466 L 327.246,-33.3509 L 326.748,-32.7854 L 326.215,-32.2524 L 325.649,-31.7538 L 325.053,-31.2918
 L 324.43,-30.8681 L 323.781,-30.4843 L 323.109,-30.1421 L 322.417,-29.8427 L 321.708,-29.5873 L 320.984,-29.377
 L 320.249,-29.2126 L 319.504,-29.0946 L 318.753,-29.0237 L 318,-29 z
M 284.247,-29.0237 L 283.496,-29.0946 L 282.751,-29.2126 L 282.016,-29.377 L 281.292,-29.5873 L 280.583,-29.8427
 L 279.891,-30.1421 L 279.219,-30.4843 L 278.57,-30.8681 L 277.947,-31.2918 L 277.351,-31.7538 L 276.785,-32.2524
 L 276.252,-32.7854 L 275.754,-33.3509 L 275.292,-33.9466 L 274.868,-34.5701 L 274.484,-35.219 L 274.142,-35.8907
 L 273.843,-36.5825 L 273.587,-37.2918 L 273.377,-38.0157 L 273.213,-38.7514 L 273.095,-39.496 L 273.024,-40.2465
 L 273,-41 L 273.024,-41.7535 L 273.095,-42.504 L 273.213,-43.2486 L 273.377,-43.9843 L 273.587,-44.7082
 L 273.843,-45.4175 L 274.142,-46.1093 L 274.484,-46.781 L 274.868,-47.4299 L 275.292,-48.0534 L 275.754,-48.6491
 L 276.252,-49.2146 L 276.785,-49.7476 L 277.351,-50.2462 L 277.947,-50.7082 L 278.57,-51.1319 L 279.219,-51.5157
 L 279.891,-51.8579 L 280.583,-52.1573 L 281.292,-52.4127 L 282.016,-52.623 L 282.751,-52.7874 L 283.496,-52.9054
 L 284.247,-52.9763 L 285,-53 L 285.753,-52.9763 L 286.504,-52.9054 L 287.249,-52.7874 L 287.984,-52.623
 L 288.708,-52.4127 L 289.417,-52.1573 L 290.109,-51.8579 L 290.781,-51.5157 L 291.43,-51.1319 L 292.053,-50.7082
 L 292.649,-50.2462 L 293.215,-49.7476 L 293.748,-49.2146 L 294.246,-48.6491 L 294.708,-48.0534 L 295.132,-47.4299
 L 295.516,-46.781 L 295.858,-46.1093 L 296.157,-45.4175 L 296.413,-44.7082 L 296.623,-43.9843 L 296.787,-43.2486
 L 296.905,-42.504 L 296.976,-41.7535 L 297,-41 L 296.976,-40.2465 L 296.905,-39.496 L 296.787,-38.7514
 L 296.623,-38.0157 L 296.413,-37.2918 L 296.157,-36.5825 L 295.858,-35.8907 L 295.516,-35.219 L 295.132,-34.5701
 L 294.708,-33.9466 L 294.246,-33.3509 L 293.748,-32.7854 L 293.215,-32.2524 L 292.649,-31.7538 L 292.053,-31.2918
 L 291.43,-30.8681 L 290.781,-30.4843 L 290.109,-30.1421 L 289.417,-29.8427 L 288.708,-29.5873 L 287.984,-29.377
 L 287.249,-29.2126 L 286.504,-29.0946 L 285.753,-29.0237 L 285,-29 z
M 81,-12 L 81,-18 L 104.333,-18 L 104.333,-12 z
M 127.667,-12 L 127.667,-18 L 151,-18 L 151,-12 z
M 174.333,-12 L 174.333,-18 L 197.667,-18 L 197.667,-12 z
M 221,-12 L 221,-18 L 244.333,-18 L 244.333,-12 z
M 267.667,-12 L 267.667,-18 L 291,-18 L 291,-12 z
M 314.333,-12 L 314.333,-18 L 337.667,-18 L 337.667,-12 z
M 34.3333,-12 L 34.3333,-18 L 57.6667,-18 L 57.6667,-12 z
" stroke="black" fill="lightgray" stroke-width="0.5"/>
</svg>
