<?xml version="1.0" standalone="no"?>
<!DOCTYPE svg PUBLIC "-//W3C//DTD SVG 1.1//EN" "http://www.w3.org/Graphics/SVG/1.1/DTD/svg11.dtd">
<svg width="362mm" height="582mm" viewBox="5 -587 362 582" xmlns="http://www.w3.org/2000/svg" version="1.1">
<title>OpenSCAD Model</title>
<path d="
M 57.6667,-381 L 81,-381 L 81,-375 L 104.333,-375 L 104.333,-381 L 127.667,-381
 L 127.667,-375 L 151,-375 L 151,-381 L 174.333,-381 L 174.333,-375 L 197.667,-375
 L 197.667,-381 L 221,-381 L 221,-375 L 244.333,-375 L 244.333,-381 L 267.667,-381
 L 267.667,-375 L 291,-375 L 291,-381 L 314.333,-381 L 314.333,-375 L 337.667,-375
 L 337.667,-381 L 361,-381 L 361,-403.222 L 367,-403.222 L 367,-425.444 L 361,-425.444
 L 361,-447.667 L 367,-447.667 L 367,-469.889 L 361,-469.889 L 361,-492.111 L 367,-492.111
 L 367,-514.333 L 361,-514.333 L 361,-536.556 L 367,-536.556 L 367,-558.778 L 361,-558.778
 L 361,-581 L 337.667,-581 L 337.667,-587 L 314.333,-587 L 314.333,-581 L 291,-581
 L 291,-587 L 267.667,-587 L 267.667,-581 L 244.333,-581 L 244.333,-587 L 221,-587
 L 221,-581 L 197.667,-581 L 197.667,-587 L 174.333,-587 L 174.333,-581 L 151,-581
 L 151,-587 L 127.667,-587 L 127.667,-581 L 104.333,-581 L 104.333,-587 L 81,-587
 L 81,-581 L 57.6667,-581 L 57.6667,-587 L 34.3333,-587 L 34.3333,-581 L 11,-581
 L 11,-558.778 L 5,-558.778 L 5,-536.556 L 11,-536.556 L 11,-514.333 L 5,-514.333
 L 5,-492.111 L 11,-492.111 L 11,-469.889 L 5,-469.889 L 5,-447.667 L 11,-447.667
 L 11,-425.444 L 5,-425.444 L 5,-403.222 L 11,-403.222 L 11,-381 L 34.3333,-381
 L 34.3333,-375 L 57.6667,-375 z
M 23.3744,-566.504 L 23.2493,-566.516 L 23.1252,-566.535 L 23.0026,-566.563 L 22.882,-566.598 L 22.7638,-566.64
 L 22.6485,-566.69 L 22.5365,-566.747 L 22.4284,-566.811 L 22.3244,-566.882 L 22.2252,-566.959 L 22.1309,-567.042
 L 22.0421,-567.131 L 21.959,-567.225 L 21.882,-567.324 L 21.8114,-567.428 L 21.7474,-567.536 L 21.6904,-567.648
 L 21.6405,-567.764 L 21.5979,-567.882 L 21.5628,-568.003 L 21.5354,-568.125 L 21.5158,-568.249 L 21.504,-568.374
 L 21.5,-568.5 L 21.504,-568.626 L 21.5158,-568.751 L 21.5354,-568.875 L 21.5628,-568.997 L 21.5979,-569.118
 L 21.6405,-569.236 L 21.6904,-569.352 L 21.7474,-569.464 L 21.8114,-569.572 L 21.882,-569.676 L 21.959,-569.775
 L 22.0421,-569.869 L 22.1309,-569.958 L 22.2252,-570.041 L 22.3244,-570.118 L 22.4284,-570.189 L 22.5365,-570.253
 L 22.6485,-570.31 L 22.7638,-570.36 L 22.882,-570.402 L 23.0026,-570.437 L 23.1252,-570.465 L 23.2493,-570.484
 L 23.3744,-570.496 L 23.5,-570.5 L 23.6256,-570.496 L 23.7507,-570.484 L 23.8748,-570.465 L 23.9974,-570.437
 L 24.118,-570.402 L 24.2362,-570.36 L 24.3515,-570.31 L 24.4635,-570.253 L 24.5716,-570.189 L 24.6756,-570.118
 L 24.7748,-570.041 L 24.8691,-569.958 L 24.9579,-569.869 L 25.041,-569.775 L 25.118,-569.676 L 25.1886,-569.572
 L 25.2526,-569.464 L 25.3096,-569.352 L 25.3595,-569.236 L 25.4021,-569.118 L 25.4372,-568.997 L 25.4646,-568.875
 L 25.4842,-568.751 L 25.496,-568.626 L 25.5,-568.5 L 25.496,-568.374 L 25.4842,-568.249 L 25.4646,-568.125
 L 25.4372,-568.003 L 25.4021,-567.882 L 25.3595,-567.764 L 25.3096,-567.648 L 25.2526,-567.536 L 25.1886,-567.428
 L 25.118,-567.324 L 25.041,-567.225 L 24.9579,-567.131 L 24.8691,-567.042 L 24.7748,-566.959 L 24.6756,-566.882
 L 24.5716,-566.811 L 24.4635,-566.747 L 24.3515,-566.69 L 24.2362,-566.64 L 24.118,-566.598 L 23.9974,-566.563
 L 23.8748,-566.535 L 23.7507,-566.516 L 23.6256,-566.504 L 23.5,-566.5 z
M 348.374,-566.504 L 348.249,-566.516 L 348.125,-566.535 L 348.003,-566.563 L 347.882,-566.598 L 347.764,-566.64
 L 347.648,-566.69 L 347.536,-566.747 L 347.428,-566.811 L 347.324,-566.882 L 347.225,-566.959 L 347.131,-567.042
 L 347.042,-567.131 L 346.959,-567.225 L 346.882,-567.324 L 346.811,-567.428 L 346.747,-567.536 L 346.69,-567.648
 L 346.64,-567.764 L 346.598,-567.882 L 346.563,-568.003 L 346.535,-568.125 L 346.516,-568.249 L 346.504,-568.374
 L 346.5,-568.5 L 346.504,-568.626 L 346.516,-568.751 L 346.535,-568.875 L 346.563,-568.997 L 346.598,-569.118
 L 346.64,-569.236 L 346.69,-569.352 L 346.747,-569.464 L 346.811,-569.572 L 346.882,-569.676 L 346.959,-569.775
 L 347.042,-569.869 L 347.131,-569.958 L 347.225,-570.041 L 347.324,-570.118 L 347.428,-570.189 L 347.536,-570.253
 L 347.648,-570.31 L 347.764,-570.36 L 347.882,-570.402 L 348.003,-570.437 L 348.125,-570.465 L 348.249,-570.484
 L 348.374,-570.496 L 348.5,-570.5 L 348.626,-570.496 L 348.751,-570.484 L 348.875,-570.465 L 348.997,-570.437
 L 349.118,-570.402 L 349.236,-570.36 L 349.352,-570.31 L 349.464,-570.253 L 349.572,-570.189 L 349.676,-570.118
 L 349.775,-570.041 L 349.869,-569.958 L 349.958,-569.869 L 350.041,-569.775 L 350.118,-569.676 L 350.189,-569.572
 L 350.253,-569.464 L 350.31,-569.352 L 350.36,-569.236 L 350.402,-569.118 L 350.437,-568.997 L 350.465,-568.875
 L 350.484,-568.751 L 350.496,-568.626 L 350.5,-568.5 L 350.496,-568.374 L 350.484,-568.249 L 350.465,-568.125
 L 350.437,-568.003 L 350.402,-567.882 L 350.36,-567.764 L 350.31,-567.648 L 350.253,-567.536 L 350.189,-567.428
 L 350.118,-567.324 L 350.041,-567.225 L 349.958,-567.131 L 349.869,-567.042 L 349.775,-566.959 L 349.676,-566.882
 L 349.572,-566.811 L 349.464,-566.747 L 349.352,-566.69 L 349.236,-566.64 L 349.118,-566.598 L 348.997,-566.563
 L 348.875,-566.535 L 348.751,-566.516 L 348.626,-566.504 L 348.5,-566.5 z
M 185.874,-566.504 L 185.749,-566.516 L 185.625,-566.535 L 185.503,-566.563 L 185.382,-566.598 L 185.264,-566.64
 L 185.148,-566.69 L 185.036,-566.747 L 184.928,-566.811 L 184.824,-566.882 L 184.725,-566.959 L 184.631,-567.042
 L 184.542,-567.131 L 184.459,-567.225 L 184.382,-567.324 L 184.311,-567.428 L 184.247,-567.536 L 184.19,-567.648
 L 184.14,-567.764 L 184.098,-567.882 L 184.063,-568.003 L 184.035,-568.125 L 184.016,-568.249 L 184.004,-568.374
 L 184,-568.5 L 184.004,-568.626 L 184.016,-568.751 L 184.035,-568.875 L 184.063,-568.997 L 184.098,-569.118
 L 184.14,-569.236 L 184.19,-569.352 L 184.247,-569.464 L 184.311,-569.572 L 184.382,-569.676 L 184.459,-569.775
 L 184.542,-569.869 L 184.631,-569.958 L 184.725,-570.041 L 184.824,-570.118 L 184.928,-570.189 L 185.036,-570.253
 L 185.148,-570.31 L 185.264,-570.36 L 185.382,-570.402 L 185.503,-570.437 L 185.625,-570.465 L 185.749,-570.484
 L 185.874,-570.496 L 186,-570.5 L 186.126,-570.496 L 186.251,-570.484 L 186.375,-570.465 L 186.497,-570.437
 L 186.618,-570.402 L 186.736,-570.36 L 186.852,-570.31 L 186.964,-570.253 L 187.072,-570.189 L 187.176,-570.118
 L 187.275,-570.041 L 187.369,-569.958 L 187.458,-569.869 L 187.541,-569.775 L 187.618,-569.676 L 187.689,-569.572
 L 187.753,-569.464 L 187.81,-569.352 L 187.86,-569.236 L 187.902,-569.118 L 187.937,-568.997 L 187.965,-568.875
 L 187.984,-568.751 L 187.996,-568.626 L 188,-568.5 L 187.996,-568.374 L 187.984,-568.249 L 187.965,-568.125
 L 187.937,-568.003 L 187.902,-567.882 L 187.86,-567.764 L 187.81,-567.648 L 187.753,-567.536 L 187.689,-567.428
 L 187.618,-567.324 L 187.541,-567.225 L 187.458,-567.131 L 187.369,-567.042 L 187.275,-566.959 L 187.176,-566.882
 L 187.072,-566.811 L 186.964,-566.747 L 186.852,-566.69 L 186.736,-566.64 L 186.618,-566.598 L 186.497,-566.563
 L 186.375,-566.535 L 186.251,-566.516 L 186.126,-566.504 L 186,-566.5 z
M 36,-406 L 36,-556 L 336,-556 L 336,-406 z
M 348.374,-479.004 L 348.249,-479.016 L 348.125,-479.035 L 348.003,-479.063 L 347.882,-479.098 L 347.764,-479.14
 L 347.648,-479.19 L 347.536,-479.247 L 347.428,-479.311 L 347.324,-479.382 L 347.225,-479.459 L 347.131,-479.542
 L 347.042,-479.631 L 346.959,-479.725 L 346.882,-479.824 L 346.811,-479.928 L 346.747,-480.036 L 346.69,-480.148
 L 346.64,-480.264 L 346.598,-480.382 L 346.563,-480.503 L 346.535,-480.625 L 346.516,-480.749 L 346.504,-480.874
 L 346.5,-481 L 346.504,-481.126 L 346.516,-481.251 L 346.535,-481.375 L 346.563,-481.497 L 346.598,-481.618
 L 346.64,-481.736 L 346.69,-481.852 L 346.747,-481.964 L 346.811,-482.072 L 346.882,-482.176 L 346.959,-482.275
 L 347.042,-482.369 L 347.131,-482.458 L 347.225,-482.541 L 347.324,-482.618 L 347.428,-482.689 L 347.536,-482.753
 L 347.648,-482.81 L 347.764,-482.86 L 347.882,-482.902 L 348.003,-482.937 L 348.125,-482.965 L 348.249,-482.984
 L 348.374,-482.996 L 348.5,-483 L 348.626,-482.996 L 348.751,-482.984 L 348.875,-482.965 L 348.997,-482.937
 L 349.118,-482.902 L 349.236,-482.86 L 349.352,-482.81 L 349.464,-482.753 L 349.572,-482.689 L 349.676,-482.618
 L 349.775,-482.541 L 349.869,-482.458 L 349.958,-482.369 L 350.041,-482.275 L 350.118,-482.176 L 350.189,-482.072
 L 350.253,-481.964 L 350.31,-481.852 L 350.36,-481.736 L 350.402,-481.618 L 350.437,-481.497 L 350.465,-481.375
 L 350.484,-481.251 L 350.496,-481.126 L 350.5,-481 L 350.496,-480.874 L 350.484,-480.749 L 350.465,-480.625
 L 350.437,-480.503 L 350.402,-480.382 L 350.36,-480.264 L 350.31,-480.148 L 350.253,-480.036 L 350.189,-479.928
 L 350.118,-479.824 L 350.041,-479.725 L 349.958,-479.631 L 349.869,-479.542 L 349.775,-479.459 L 349.676,-479.382
 L 349.572,-479.311 L 349.464,-479.247 L 349.352,-479.19 L 349.236,-479.14 L 349.118,-479.098 L 348.997,-479.063
 L 348.875,-479.035 L 348.751,-479.016 L 348.626,-479.004 L 348.5,-479 z
M 23.3744,-479.004 L 23.2493,-479.016 L 23.1252,-479.035 L 23.0026,-479.063 L 22.882,-479.098 L 22.7638,-479.14
 L 22.6485,-479.19 L 22.5365,-479.247 L 22.4284,-479.311 L 22.3244,-479.382 L 22.2252,-479.459 L 22.1309,-479.542
 L 22.0421,-479.631 L 21.959,-479.725 L 21.882,-479.824 L 21.8114,-479.928 L 21.7474,-480.036 L 21.6904,-480.148
 L 21.6405,-480.264 L 21.5979,-480.382 L 21.5628,-480.503 L 21.5354,-480.625 L 21.5158,-480.749 L 21.504,-480.874
 L 21.5,-481 L 21.504,-481.126 L 21.5158,-481.251 L 21.5354,-481.375 L 21.5628,-481.497 L 21.5979,-481.618
 L 21.6405,-481.736 L 21.6904,-481.852 L 21.7474,-481.964 L 21.8114,-482.072 L 21.882,-482.176 L 21.959,-482.275
 L 22.0421,-482.369 L 22.1309,-482.458 L 22.2252,-482.541 L 22.3244,-482.618 L 22.4284,-482.689 L 22.5365,-482.753
 L 22.6485,-482.81 L 22.7638,-482.86 L 22.882,-482.902 L 23.0026,-482.937 L 23.1252,-482.965 L 23.2493,-482.984
 L 23.3744,-482.996 L 23.5,-483 L 23.6256,-482.996 L 23.7507,-482.984 L 23.8748,-482.965 L 23.9974,-482.937
 L 24.118,-482.902 L 24.2362,-482.86 L 24.3515,-482.81 L 24.4635,-482.753 L 24.5716,-482.689 L 24.6756,-482.618
 L 24.7748,-482.541 L 24.8691,-482.458 L 24.9579,-482.369 L 25.041,-482.275 L 25.118,-482.176 L 25.1886,-482.072
 L 25.2526,-481.964 L 25.3096,-481.852 L 25.3595,-481.736 L 25.4021,-481.618 L 25.4372,-481.497 L 25.4646,-481.375
 L 25.4842,-481.251 L 25.496,-481.126 L 25.5,-481 L 25.496,-480.874 L 25.4842,-480.749 L 25.4646,-480.625
 L 25.4372,-480.503 L 25.4021,-480.382 L 25.3595,-480.264 L 25.3096,-480.148 L 25.2526,-480.036 L 25.1886,-479.928
 L 25.118,-479.824 L 25.041,-479.725 L 24.9579,-479.631 L 24.8691,-479.542 L 24.7748,-479.459 L 24.6756,-479.382
 L 24.5716,-479.311 L 24.4635,-479.247 L 24.3515,-479.19 L 24.2362,-479.14 L 24.118,-479.098 L 23.9974,-479.063
 L 23.8748,-479.035 L 23.7507,-479.016 L 23.6256,-479.004 L 23.5,-479 z
M 185.874,-391.504 L 185.749,-391.516 L 185.625,-391.535 L 185.503,-391.563 L 185.382,-391.598 L 185.264,-391.64
 L 185.148,-391.69 L 185.036,-391.747 L 184.928,-391.811 L 184.824,-391.882 L 184.725,-391.959 L 184.631,-392.042
 L 184.542,-392.131 L 184.459,-392.225 L 184.382,-392.324 L 184.311,-392.428 L 184.247,-392.536 L 184.19,-392.648
 L 184.14,-392.764 L 184.098,-392.882 L 184.063,-393.003 L 184.035,-393.125 L 184.016,-393.249 L 184.004,-393.374
 L 184,-393.5 L 184.004,-393.626 L 184.016,-393.751 L 184.035,-393.875 L 184.063,-393.997 L 184.098,-394.118
 L 184.14,-394.236 L 184.19,-394.352 L 184.247,-394.464 L 184.311,-394.572 L 184.382,-394.676 L 184.459,-394.775
 L 184.542,-394.869 L 184.631,-394.958 L 184.725,-395.041 L 184.824,-395.118 L 184.928,-395.189 L 185.036,-395.253
 L 185.148,-395.31 L 185.264,-395.36 L 185.382,-395.402 L 185.503,-395.437 L 185.625,-395.465 L 185.749,-395.484
 L 185.874,-395.496 L 186,-395.5 L 186.126,-395.496 L 186.251,-395.484 L 186.375,-395.465 L 186.497,-395.437
 L 186.618,-395.402 L 186.736,-395.36 L 186.852,-395.31 L 186.964,-395.253 L 187.072,-395.189 L 187.176,-395.118
 L 187.275,-395.041 L 187.369,-394.958 L 187.458,-394.869 L 187.541,-394.775 L 187.618,-394.676 L 187.689,-394.572
 L 187.753,-394.464 L 187.81,-394.352 L 187.86,-394.236 L 187.902,-394.118 L 187.937,-393.997 L 187.965,-393.875
 L 187.984,-393.751 L 187.996,-393.626 L 188,-393.5 L 187.996,-393.374 L 187.984,-393.249 L 187.965,-393.125
 L 187.937,-393.003 L 187.902,-392.882 L 187.86,-392.764 L 187.81,-392.648 L 187.753,-392.536 L 187.689,-392.428
 L 187.618,-392.324 L 187.541,-392.225 L 187.458,-392.131 L 187.369,-392.042 L 187.275,-391.959 L 187.176,-391.882
 L 187.072,-391.811 L 186.964,-391.747 L 186.852,-391.69 L 186.736,-391.64 L 186.618,-391.598 L 186.497,-391.563
 L 186.375,-391.535 L 186.251,-391.516 L 186.126,-391.504 L 186,-391.5 z
M 348.374,-391.504 L 348.249,-391.516 L 348.125,-391.535 L 348.003,-391.563 L 347.882,-391.598 L 347.764,-391.64
 L 347.648,-391.69 L 347.536,-391.747 L 347.428,-391.811 L 347.324,-391.882 L 347.225,-391.959 L 347.131,-392.042
 L 347.042,-392.131 L 346.959,-392.225 L 346.882,-392.324 L 346.811,-392.428 L 346.747,-392.536 L 346.69,-392.648
 L 346.64,-392.764 L 346.598,-392.882 L 346.563,-393.003 L 346.535,-393.125 L 346.516,-393.249 L 346.504,-393.374
 L 346.5,-393.5 L 346.504,-393.626 L 346.516,-393.751 L 346.535,-393.875 L 346.563,-393.997 L 346.598,-394.118
 L 346.64,-394.236 L 346.69,-394.352 L 346.747,-394.464 L 346.811,-394.572 L 346.882,-394.676 L 346.959,-394.775
 L 347.042,-394.869 L 347.131,-394.958 L 347.225,-395.041 L 347.324,-395.118 L 347.428,-395.189 L 347.536,-395.253
 L 347.648,-395.31 L 347.764,-395.36 L 347.882,-395.402 L 348.003,-395.437 L 348.125,-395.465 L 348.249,-395.484
 L 348.374,-395.496 L 348.5,-395.5 L 348.626,-395.496 L 348.751,-395.484 L 348.875,-395.465 L 348.997,-395.437
 L 349.118,-395.402 L 349.236,-395.36 L 349.352,-395.31 L 349.464,-395.253 L 349.572,-395.189 L 349.676,-395.118
 L 349.775,-395.041 L 349.869,-394.958 L 349.958,-394.869 L 350.041,-394.775 L 350.118,-394.676 L 350.189,-394.572
 L 350.253,-394.464 L 350.31,-394.352 L 350.36,-394.236 L 350.402,-394.118 L 350.437,-393.997 L 350.465,-393.875
 L 350.484,-393.751 L 350.496,-393.626 L 350.5,-393.5 L 350.496,-393.374 L 350.484,-393.249 L 350.465,-393.125
 L 350.437,-393.003 L 350.402,-392.882 L 350.36,-392.764 L 350.31,-392.648 L 350.253,-392.536 L 350.189,-392.428
 L 350.118,-392.324 L 350.041,-392.225 L 349.958,-392.131 L 349.869,-392.042 L 349.775,-391.959 L 349.676,-391.882
 L 349.572,-391.811 L 349.464,-391.747 L 349.352,-391.69 L 349.236,-391.64 L 349.118,-391.598 L 348.997,-391.563
 L 348.875,-391.535 L 348.751,-391.516 L 348.626,-391.504 L 348.5,-391.5 z
M 23.3744,-391.504 L 23.2493,-391.516 L 23.1252,-391.535 L 23.0026,-391.563 L 22.882,-391.598 L 22.7638,-391.64
 L 22.6485,-391.69 L 22.5365,-391.747 L 22.4284,-391.811 L 22.3244,-391.882 L 22.2252,-391.959 L 22.1309,-392.042
 L 22.0421,-392.131 L 21.959,-392.225 L 21.882,-392.324 L 21.8114,-392.428 L 21.7474,-392.536 L 21.6904,-392.648
 L 21.6405,-392.764 L 21.5979,-392.882 L 21.5628,-393.003 L 21.5354,-393.125 L 21.5158,-393.249 L 21.504,-393.374
 L 21.5,-393.5 L 21.504,-393.626 L 21.5158,-393.751 L 21.5354,-393.875 L 21.5628,-393.997 L 21.5979,-394.118
 L 21.6405,-394.236 L 21.6904,-394.352 L 21.7474,-394.464 L 21.8114,-394.572 L 21.882,-394.676 L 21.959,-394.775
 L 22.0421,-394.869 L 22.1309,-394.958 L 22.2252,-395.041 L 22.3244,-395.118 L 22.4284,-395.189 L 22.5365,-395.253
 L 22.6485,-395.31 L 22.7638,-395.36 L 22.882,-395.402 L 23.0026,-395.437 L 23.1252,-395.465 L 23.2493,-395.484
 L 23.3744,-395.496 L 23.5,-395.5 L 23.6256,-395.496 L 23.7507,-395.484 L 23.8748,-395.465 L 23.9974,-395.437
 L 24.118,-395.402 L 24.2362,-395.36 L 24.3515,-395.31 L 24.4635,-395.253 L 24.5716,-395.189 L 24.6756,-395.118
 L 24.7748,-395.041 L 24.8691,-394.958 L 24.9579,-394.869 L 25.041,-394.775 L 25.118,-394.676 L 25.1886,-394.572
 L 25.2526,-394.464 L 25.3096,-394.352 L 25.3595,-394.236 L 25.4021,-394.118 L 25.4372,-393.997 L 25.4646,-393.875
 L 25.4842,-393.751 L 25.496,-393.626 L 25.5,-393.5 L 25.496,-393.374 L 25.4842,-393.249 L 25.4646,-393.125
 L 25.4372,-393.003 L 25.4021,-392.882 L 25.3595,-392.764 L 25.3096,-392.648 L 25.2526,-392.536 L 25.1886,-392.428
 L 25.118,-392.324 L 25.041,-392.225 L 24.9579,-392.131 L 24.8691,-392.042 L 24.7748,-391.959 L 24.6756,-391.882
 L 24.5716,-391.811 L 24.4635,-391.747 L 24.3515,-391.69 L 24.2362,-391.64 L 24.118,-391.598 L 23.9974,-391.563
 L 23.8748,-391.535 L 23.7507,-391.516 L 23.6256,-391.504 L 23.5,-391.5 z
M 57.6667,-161 L 81,-161 L 81,-155 L 104.333,-155 L 104.333,-161 L 127.667,-161
 L 127.667,-155 L 151,-155 L 151,-161 L 174.333,-161 L 174.333,-155 L 197.667,-155
 L 197.667,-161 L 221,-161 L 221,-155 L 244.333,-155 L 244.333,-161 L 267.667,-161
 L 267.667,-155 L 291,-155 L 291,-161 L 314.333,-161 L 314.333,-155 L 337.667,-155
 L 337.667,-161 L 361,-161 L 361,-183.222 L 367,-183.222 L 367,-205.444 L 361,-205.444
 L 361,-227.667 L 367,-227.667 L 367,-249.889 L 361,-249.889 L 361,-272.111 L 367,-272.111
 L 367,-294.333 L 361,-294.333 L 361,-316.556 L 367,-316.556 L 367,-338.778 L 361,-338.778
 L 361,-361 L 337.667,-361 L 337.667,-367 L 314.333,-367 L 314.333,-361 L 291,-361
 L 291,-367 L 267.667,-367 L 267.667,-361 L 244.333,-361 L 244.333,-367 L 221,-367
 L 221,-361 L 197.667,-361 L 197.667,-367 L 174.333,-367 L 174.333,-361 L 151,-361
 L 151,-367 L 127.667,-367 L 127.667,-361 L 104.333,-361 L 104.333,-367 L 81,-367
 L 81,-361 L 57.6667,-361 L 57.6667,-367 L 34.3333,-367 L 34.3333,-361 L 11,-361
 L 11,-338.778 L 5,-338.778 L 5,-316.556 L 11,-316.556 L 11,-294.333 L 5,-294.333
 L 5,-272.111 L 11,-272.111 L 11,-249.889 L 5,-249.889 L 5,-227.667 L 11,-227.667
 L 11,-205.444 L 5,-205.444 L 5,-183.222 L 11,-183.222 L 11,-161 L 34.3333,-161
 L 34.3333,-155 L 57.6667,-155 z
M 346.191,-344.5 L 343.881,-348.5 L 346.191,-352.5 L 350.809,-352.5 L 353.119,-348.5 L 350.809,-344.5
 z
M 183.691,-344.5 L 181.381,-348.5 L 183.691,-352.5 L 188.309,-352.5 L 190.619,-348.5 L 188.309,-344.5
 z
M 21.1906,-344.5 L 18.8812,-348.5 L 21.1906,-352.5 L 25.8094,-352.5 L 28.1188,-348.5 L 25.8094,-344.5
 z
M 36,-186 L 36,-336 L 336,-336 L 336,-186 z
M 21.1906,-257 L 18.8812,-261 L 21.1906,-265 L 25.8094,-265 L 28.1188,-261 L 25.8094,-257
 z
M 346.191,-257 L 343.881,-261 L 346.191,-265 L 350.809,-265 L 353.119,-261 L 350.809,-257
 z
M 346.191,-169.5 L 343.881,-173.5 L 346.191,-177.5 L 350.809,-177.5 L 353.119,-173.5 L 350.809,-169.5
 z
M 21.1906,-169.5 L 18.8812,-173.5 L 21.1906,-177.5 L 25.8094,-177.5 L 28.1188,-173.5 L 25.8094,-169.5
 z
M 183.691,-169.5 L 181.381,-173.5 L 183.691,-177.5 L 188.309,-177.5 L 190.619,-173.5 L 188.309,-169.5
 z
M 367,-94.4 L 361,-94.4 L 361,-108.8 L 367,-108.8 L 367,-123.2 L 361,-123.2
 L 361,-137.6 L 367,-137.6 L 367,-152 L 5,-152 L 5,-137.6 L 11,-137.6
 L 11,-123.2 L 5,-123.2 L 5,-108.8 L 11,-108.8 L 11,-94.4 L 5,-94.4
 L 5,-80 L 367,-80 z
M 267.667,-137 L 267.667,-143 L 291,-143 L 291,-137 z
M 314.333,-137 L 314.333,-143 L 337.667,-143 L 337.667,-137 z
M 221,-137 L 221,-143 L 244.333,-143 L 244.333,-137 z
M 34.3333,-137 L 34.3333,-143 L 57.6667,-143 L 57.6667,-137 z
M 81,-137 L 81,-143 L 104.333,-143 L 104.333,-137 z
M 127.667,-137 L 127.667,-143 L 151,-143 L 151,-137 z
M 174.333,-137 L 174.333,-143 L 197.667,-143 L 197.667,-137 z
M 310.4,-126.403 L 310.299,-126.413 L 310.2,-126.428 L 310.102,-126.45 L 310.006,-126.478 L 309.911,-126.512
 L 309.819,-126.552 L 309.729,-126.598 L 309.643,-126.649 L 309.56,-126.706 L 309.48,-126.767 L 309.405,-126.834
 L 309.334,-126.905 L 309.267,-126.98 L 309.206,-127.06 L 309.149,-127.143 L 309.098,-127.229 L 309.052,-127.319
 L 309.012,-127.411 L 308.978,-127.506 L 308.95,-127.602 L 308.928,-127.7 L 308.913,-127.799 L 308.903,-127.9
 L 308.9,-128 L 308.903,-128.1 L 308.913,-128.201 L 308.928,-128.3 L 308.95,-128.398 L 308.978,-128.494
 L 309.012,-128.589 L 309.052,-128.681 L 309.098,-128.771 L 309.149,-128.857 L 309.206,-128.94 L 309.267,-129.02
 L 309.334,-129.095 L 309.405,-129.166 L 309.48,-129.233 L 309.56,-129.294 L 309.643,-129.351 L 309.729,-129.402
 L 309.819,-129.448 L 309.911,-129.488 L 310.006,-129.522 L 310.102,-129.55 L 310.2,-129.572 L 310.299,-129.587
 L 310.4,-129.597 L 310.5,-129.6 L 310.6,-129.597 L 310.701,-129.587 L 310.8,-129.572 L 310.898,-129.55
 L 310.994,-129.522 L 311.089,-129.488 L 311.181,-129.448 L 311.271,-129.402 L 311.357,-129.351 L 311.44,-129.294
 L 311.52,-129.233 L 311.595,-129.166 L 311.666,-129.095 L 311.733,-129.02 L 311.794,-128.94 L 311.851,-128.857
 L 311.902,-128.771 L 311.948,-128.681 L 311.988,-128.589 L 312.022,-128.494 L 312.05,-128.398 L 312.072,-128.3
 L 312.087,-128.201 L 312.097,-128.1 L 312.1,-128 L 312.097,-127.9 L 312.087,-127.799 L 312.072,-127.7
 L 312.05,-127.602 L 312.022,-127.506 L 311.988,-127.411 L 311.948,-127.319 L 311.902,-127.229 L 311.851,-127.143
 L 311.794,-127.06 L 311.733,-126.98 L 311.666,-126.905 L 311.595,-126.834 L 311.52,-126.767 L 311.44,-126.706
 L 311.357,-126.649 L 311.271,-126.598 L 311.181,-126.552 L 311.089,-126.512 L 310.994,-126.478 L 310.898,-126.45
 L 310.8,-126.428 L 310.701,-126.413 L 310.6,-126.403 L 310.5,-126.4 z
M 91.6523,-102.527 L 90.808,-102.606 L 89.9704,-102.739 L 89.1427,-102.924 L 88.3283,-103.161 L 87.5303,-103.448
 L 86.752,-103.785 L 85.9963,-104.17 L 85.2663,-104.602 L 84.5649,-105.078 L 83.8948,-105.598 L 83.2586,-106.159
 L 82.6589,-106.759 L 82.0981,-107.395 L 81.5783,-108.065 L 81.1016,-108.766 L 80.6699,-109.496 L 80.2848,-110.252
 L 79.948,-111.03 L 79.6608,-111.828 L 79.4241,-112.643 L 79.2391,-113.47 L 79.1065,-114.308 L 79.0266,-115.152
 L 79,-116 L 79.0266,-116.848 L 79.1065,-117.692 L 79.2391,-118.53 L 79.4241,-119.357 L 79.6608,-120.172
 L 79.948,-120.97 L 80.2848,-121.748 L 80.6699,-122.504 L 81.1016,-123.234 L 81.5783,-123.935 L 82.0981,-124.605
 L 82.6589,-125.241 L 83.2586,-125.841 L 83.8948,-126.402 L 84.5649,-126.922 L 85.2663,-127.398 L 85.9963,-127.83
 L 86.752,-128.215 L 87.5303,-128.552 L 88.3283,-128.839 L 89.1427,-129.076 L 89.9704,-129.261 L 90.808,-129.394
 L 91.6523,-129.473 L 92.5,-129.5 L 93.3477,-129.473 L 94.192,-129.394 L 95.0296,-129.261 L 95.8573,-129.076
 L 96.6717,-128.839 L 97.4697,-128.552 L 98.248,-128.215 L 99.0037,-127.83 L 99.7337,-127.398 L 100.435,-126.922
 L 101.105,-126.402 L 101.741,-125.841 L 102.341,-125.241 L 102.902,-124.605 L 103.422,-123.935 L 103.898,-123.234
 L 104.33,-122.504 L 104.715,-121.748 L 105.052,-120.97 L 105.339,-120.172 L 105.576,-119.357 L 105.761,-118.53
 L 105.894,-117.692 L 105.973,-116.848 L 106,-116 L 105.973,-115.152 L 105.894,-114.308 L 105.761,-113.47
 L 105.576,-112.643 L 105.339,-111.828 L 105.052,-111.03 L 104.715,-110.252 L 104.33,-109.496 L 103.898,-108.766
 L 103.422,-108.065 L 102.902,-107.395 L 102.341,-106.759 L 101.741,-106.159 L 101.105,-105.598 L 100.435,-105.078
 L 99.7337,-104.602 L 99.0037,-104.17 L 98.248,-103.785 L 97.4697,-103.448 L 96.6717,-103.161 L 95.8573,-102.924
 L 95.0296,-102.739 L 94.192,-102.606 L 93.3477,-102.527 L 92.5,-102.5 z
M 124.652,-102.527 L 123.808,-102.606 L 122.97,-102.739 L 122.143,-102.924 L 121.328,-103.161 L 120.53,-103.448
 L 119.752,-103.785 L 118.996,-104.17 L 118.266,-104.602 L 117.565,-105.078 L 116.895,-105.598 L 116.259,-106.159
 L 115.659,-106.759 L 115.098,-107.395 L 114.578,-108.065 L 114.102,-108.766 L 113.67,-109.496 L 113.285,-110.252
 L 112.948,-111.03 L 112.661,-111.828 L 112.424,-112.643 L 112.239,-113.47 L 112.106,-114.308 L 112.027,-115.152
 L 112,-116 L 112.027,-116.848 L 112.106,-117.692 L 112.239,-118.53 L 112.424,-119.357 L 112.661,-120.172
 L 112.948,-120.97 L 113.285,-121.748 L 113.67,-122.504 L 114.102,-123.234 L 114.578,-123.935 L 115.098,-124.605
 L 115.659,-125.241 L 116.259,-125.841 L 116.895,-126.402 L 117.565,-126.922 L 118.266,-127.398 L 118.996,-127.83
 L 119.752,-128.215 L 120.53,-128.552 L 121.328,-128.839 L 122.143,-129.076 L 122.97,-129.261 L 123.808,-129.394
 L 124.652,-129.473 L 125.5,-129.5 L 126.348,-129.473 L 127.192,-129.394 L 128.03,-129.261 L 128.857,-129.076
 L 129.672,-128.839 L 130.47,-128.552 L 131.248,-128.215 L 132.004,-127.83 L 132.734,-127.398 L 133.435,-126.922
 L 134.105,-126.402 L 134.741,-125.841 L 135.341,-125.241 L 135.902,-124.605 L 136.422,-123.935 L 136.898,-123.234
 L 137.33,-122.504 L 137.715,-121.748 L 138.052,-120.97 L 138.339,-120.172 L 138.576,-119.357 L 138.761,-118.53
 L 138.894,-117.692 L 138.973,-116.848 L 139,-116 L 138.973,-115.152 L 138.894,-114.308 L 138.761,-113.47
 L 138.576,-112.643 L 138.339,-111.828 L 138.052,-111.03 L 137.715,-110.252 L 137.33,-109.496 L 136.898,-108.766
 L 136.422,-108.065 L 135.902,-107.395 L 135.341,-106.759 L 134.741,-106.159 L 134.105,-105.598 L 133.435,-105.078
 L 132.734,-104.602 L 132.004,-104.17 L 131.248,-103.785 L 130.47,-103.448 L 129.672,-103.161 L 128.857,-102.924
 L 128.03,-102.739 L 127.192,-102.606 L 126.348,-102.527 L 125.5,-102.5 z
M 58.6523,-102.527 L 57.808,-102.606 L 56.9704,-102.739 L 56.1427,-102.924 L 55.3283,-103.161 L 54.5303,-103.448
 L 53.752,-103.785 L 52.9963,-104.17 L 52.2663,-104.602 L 51.5649,-105.078 L 50.8948,-105.598 L 50.2586,-106.159
 L 49.6589,-106.759 L 49.0981,-107.395 L 48.5783,-108.065 L 48.1016,-108.766 L 47.6699,-109.496 L 47.2848,-110.252
 L 46.948,-111.03 L 46.6608,-111.828 L 46.4241,-112.643 L 46.2391,-113.47 L 46.1065,-114.308 L 46.0266,-115.152
 L 46,-116 L 46.0266,-116.848 L 46.1065,-117.692 L 46.2391,-118.53 L 46.4241,-119.357 L 46.6608,-120.172
 L 46.948,-120.97 L 47.2848,-121.748 L 47.6699,-122.504 L 48.1016,-123.234 L 48.5783,-123.935 L 49.0981,-124.605
 L 49.6589,-125.241 L 50.2586,-125.841 L 50.8948,-126.402 L 51.5649,-126.922 L 52.2663,-127.398 L 52.9963,-127.83
 L 53.752,-128.215 L 54.5303,-128.552 L 55.3283,-128.839 L 56.1427,-129.076 L 56.9704,-129.261 L 57.808,-129.394
 L 58.6523,-129.473 L 59.5,-129.5 L 60.3477,-129.473 L 61.192,-129.394 L 62.0296,-129.261 L 62.8573,-129.076
 L 63.6717,-128.839 L 64.4697,-128.552 L 65.248,-128.215 L 66.0037,-127.83 L 66.7337,-127.398 L 67.4351,-126.922
 L 68.1052,-126.402 L 68.7414,-125.841 L 69.3411,-125.241 L 69.9019,-124.605 L 70.4217,-123.935 L 70.8984,-123.234
 L 71.3302,-122.504 L 71.7152,-121.748 L 72.052,-120.97 L 72.3393,-120.172 L 72.5759,-119.357 L 72.7609,-118.53
 L 72.8936,-117.692 L 72.9734,-116.848 L 73,-116 L 72.9734,-115.152 L 72.8936,-114.308 L 72.7609,-113.47
 L 72.5759,-112.643 L 72.3393,-111.828 L 72.052,-111.03 L 71.7152,-110.252 L 71.3302,-109.496 L 70.8984,-108.766
 L 70.4217,-108.065 L 69.9019,-107.395 L 69.3411,-106.759 L 68.7414,-106.159 L 68.1052,-105.598 L 67.4351,-105.078
 L 66.7337,-104.602 L 66.0037,-104.17 L 65.248,-103.785 L 64.4697,-103.448 L 63.6717,-103.161 L 62.8573,-102.924
 L 62.0296,-102.739 L 61.192,-102.606 L 60.3477,-102.527 L 59.5,-102.5 z
M 319.247,-104.024 L 318.496,-104.095 L 317.751,-104.213 L 317.016,-104.377 L 316.292,-104.587 L 315.583,-104.843
 L 314.891,-105.142 L 314.219,-105.484 L 313.57,-105.868 L 312.947,-106.292 L 312.351,-106.754 L 311.785,-107.252
 L 311.252,-107.785 L 310.754,-108.351 L 310.292,-108.947 L 309.868,-109.57 L 309.484,-110.219 L 309.142,-110.891
 L 308.843,-111.583 L 308.587,-112.292 L 308.377,-113.016 L 308.213,-113.751 L 308.095,-114.496 L 308.024,-115.247
 L 308,-116 L 308.024,-116.753 L 308.095,-117.504 L 308.213,-118.249 L 308.377,-118.984 L 308.587,-119.708
 L 308.843,-120.417 L 309.142,-121.109 L 309.484,-121.781 L 309.868,-122.43 L 310.292,-123.053 L 310.754,-123.649
 L 311.252,-124.215 L 311.785,-124.748 L 312.351,-125.246 L 312.947,-125.708 L 313.57,-126.132 L 314.219,-126.516
 L 314.891,-126.858 L 315.583,-127.157 L 316.292,-127.413 L 317.016,-127.623 L 317.751,-127.787 L 318.496,-127.905
 L 319.247,-127.976 L 320,-128 L 320.753,-127.976 L 321.504,-127.905 L 322.249,-127.787 L 322.984,-127.623
 L 323.708,-127.413 L 324.417,-127.157 L 325.109,-126.858 L 325.781,-126.516 L 326.43,-126.132 L 327.053,-125.708
 L 327.649,-125.246 L 328.215,-124.748 L 328.748,-124.215 L 329.246,-123.649 L 329.708,-123.053 L 330.132,-122.43
 L 330.516,-121.781 L 330.858,-121.109 L 331.157,-120.417 L 331.413,-119.708 L 331.623,-118.984 L 331.787,-118.249
 L 331.905,-117.504 L 331.976,-116.753 L 332,-116 L 331.976,-115.247 L 331.905,-114.496 L 331.787,-113.751
 L 331.623,-113.016 L 331.413,-112.292 L 331.157,-111.583 L 330.858,-110.891 L 330.516,-110.219 L 330.132,-109.57
 L 329.708,-108.947 L 329.246,-108.351 L 328.748,-107.785 L 328.215,-107.252 L 327.649,-106.754 L 327.053,-106.292
 L 326.43,-105.868 L 325.781,-105.484 L 325.109,-105.142 L 324.417,-104.843 L 323.708,-104.587 L 322.984,-104.377
 L 322.249,-104.213 L 321.504,-104.095 L 320.753,-104.024 L 320,-104 z
M 329.4,-102.403 L 329.299,-102.413 L 329.2,-102.428 L 329.102,-102.45 L 329.006,-102.478 L 328.911,-102.512
 L 328.819,-102.552 L 328.729,-102.598 L 328.643,-102.649 L 328.56,-102.706 L 328.48,-102.767 L 328.405,-102.834
 L 328.334,-102.905 L 328.267,-102.98 L 328.206,-103.06 L 328.149,-103.143 L 328.098,-103.229 L 328.052,-103.319
 L 328.012,-103.411 L 327.978,-103.506 L 327.95,-103.602 L 327.928,-103.7 L 327.913,-103.799 L 327.903,-103.9
 L 327.9,-104 L 327.903,-104.1 L 327.913,-104.201 L 327.928,-104.3 L 327.95,-104.398 L 327.978,-104.494
 L 328.012,-104.589 L 328.052,-104.681 L 328.098,-104.771 L 328.149,-104.857 L 328.206,-104.94 L 328.267,-105.02
 L 328.334,-105.095 L 328.405,-105.166 L 328.48,-105.233 L 328.56,-105.294 L 328.643,-105.351 L 328.729,-105.402
 L 328.819,-105.448 L 328.911,-105.488 L 329.006,-105.522 L 329.102,-105.55 L 329.2,-105.572 L 329.299,-105.587
 L 329.4,-105.597 L 329.5,-105.6 L 329.6,-105.597 L 329.701,-105.587 L 329.8,-105.572 L 329.898,-105.55
 L 329.994,-105.522 L 330.089,-105.488 L 330.181,-105.448 L 330.271,-105.402 L 330.357,-105.351 L 330.44,-105.294
 L 330.52,-105.233 L 330.595,-105.166 L 330.666,-105.095 L 330.733,-105.02 L 330.794,-104.94 L 330.851,-104.857
 L 330.902,-104.771 L 330.948,-104.681 L 330.988,-104.589 L 331.022,-104.494 L 331.05,-104.398 L 331.072,-104.3
 L 331.087,-104.201 L 331.097,-104.1 L 331.1,-104 L 331.097,-103.9 L 331.087,-103.799 L 331.072,-103.7
 L 331.05,-103.602 L 331.022,-103.506 L 330.988,-103.411 L 330.948,-103.319 L 330.902,-103.229 L 330.851,-103.143
 L 330.794,-103.06 L 330.733,-102.98 L 330.666,-102.905 L 330.595,-102.834 L 330.52,-102.767 L 330.44,-102.706
 L 330.357,-102.649 L 330.271,-102.598 L 330.181,-102.552 L 330.089,-102.512 L 329.994,-102.478 L 329.898,-102.45
 L 329.8,-102.428 L 329.701,-102.413 L 329.6,-102.403 L 329.5,-102.4 z
M 127.667,-87 L 127.667,-93 L 151,-93 L 151,-87 z
M 34.3333,-87 L 34.3333,-93 L 57.6667,-93 L 57.6667,-87 z
M 81,-87 L 81,-93 L 104.333,-93 L 104.333,-87 z
M 174.333,-87 L 174.333,-93 L 197.667,-93 L 197.667,-87 z
M 221,-87 L 221,-93 L 244.333,-93 L 244.333,-87 z
M 267.667,-87 L 267.667,-93 L 291,-93 L 291,-87 z
M 314.333,-87 L 314.333,-93 L 337.667,-93 L 337.667,-87 z
M 367,-19.4 L 361,-19.4 L 361,-33.8 L 367,-33.8 L 367,-48.2 L 361,-48.2
 L 361,-62.6 L 367,-62.6 L 367,-77 L 5,-77 L 5,-62.6 L 11,-62.6
 L 11,-48.2 L 5,-48.2 L 5,-33.8 L 11,-33.8 L 11,-19.4 L 5,-19.4
 L 5,-5 L 367,-5 z
M 314.333,-62 L 314.333,-68 L 337.667,-68 L 337.667,-62 z
M 267.667,-62 L 267.667,-68 L 291,-68 L 291,-62 z
M 221,-62 L 221,-68 L 244.333,-68 L 244.333,-62 z
M 34.3333,-62 L 34.3333,-68 L 57.6667,-68 L 57.6667,-62 z
M 81,-62 L 81,-68 L 104.333,-68 L 104.333,-62 z
M 127.667,-62 L 127.667,-68 L 151,-68 L 151,-62 z
M 174.333,-62 L 174.333,-68 L 197.667,-68 L 197.667,-62 z
M 307,-25.5 L 307,-56.5 L 333,-56.5 L 333,-25.5 z
M 58.7465,-29.0237 L 57.996,-29.0946 L 57.2514,-29.2126 L 56.5157,-29.377 L 55.7918,-29.5873 L 55.0825,-29.8427
 L 54.3907,-30.1421 L 53.719,-30.4843 L 53.0701,-30.8681 L 52.4466,-31.2918 L 51.8509,-31.7538 L 51.2854,-32.2524
 L 50.7524,-32.7854 L 50.2538,-33.3509 L 49.7918,-33.9466 L 49.3681,-34.5701 L 48.9843,-35.219 L 48.6421,-35.8907
 L 48.3427,-36.5825 L 48.0873,-37.2918 L 47.877,-38.0157 L 47.7126,-38.7514 L 47.5946,-39.496 L 47.5237,-40.2465
 L 47.5,-41 L 47.5237,-41.7535 L 47.5946,-42.504 L 47.7126,-43.2486 L 47.877,-43.9843 L 48.0873,-44.7082
 L 48.3427,-45.4175 L 48.6421,-46.1093 L 48.9843,-46.781 L 49.3681,-47.4299 L 49.7918,-48.0534 L 50.2538,-48.6491
 L 50.7524,-49.2146 L 51.2854,-49.7476 L 51.8509,-50.2462 L 52.4466,-50.7082 L 53.0701,-51.1319 L 53.719,-51.5157
 L 54.3907,-51.8579 L 55.0825,-52.1573 L 55.7918,-52.4127 L 56.5157,-52.623 L 57.2514,-52.7874 L 57.996,-52.9054
 L 58.7465,-52.9763 L 59.5,-53 L 60.2535,-52.9763 L 61.004,-52.9054 L 61.7486,-52.7874 L 62.4843,-52.623
 L 63.2082,-52.4127 L 63.9175,-52.1573 L 64.6094,-51.8579 L 65.2811,-51.5157 L 65.9299,-51.1319 L 66.5534,-50.7082
 L 67.1491,-50.2462 L 67.7146,-49.7476 L 68.2476,-49.2146 L 68.7462,-48.6491 L 69.2082,-48.0534 L 69.6319,-47.4299
 L 70.0157,-46.781 L 70.3579,-46.1093 L 70.6573,-45.4175 L 70.9127,-44.7082 L 71.123,-43.9843 L 71.2875,-43.2486
 L 71.4054,-42.504 L 71.4763,-41.7535 L 71.5,-41 L 71.4763,-40.2465 L 71.4054,-39.496 L 71.2875,-38.7514
 L 71.123,-38.0157 L 70.9127,-37.2918 L 70.6573,-36.5825 L 70.3579,-35.8907 L 70.0157,-35.219 L 69.6319,-34.5701
 L 69.2082,-33.9466 L 68.7462,-33.3509 L 68.2476,-32.7854 L 67.7146,-32.2524 L 67.1491,-31.7538 L 66.5534,-31.2918
 L 65.9299,-30.8681 L 65.2811,-30.4843 L 64.6094,-30.1421 L 63.9175,-29.8427 L 63.2082,-29.5873 L 62.4843,-29.377
 L 61.7486,-29.2126 L 61.004,-29.0946 L 60.2535,-29.0237 L 59.5,-29 z
M 124.747,-29.0237 L 123.996,-29.0946 L 123.251,-29.2126 L 122.516,-29.377 L 121.792,-29.5873 L 121.083,-29.8427
 L 120.391,-30.1421 L 119.719,-30.4843 L 119.07,-30.8681 L 118.447,-31.2918 L 117.851,-31.7538 L 117.285,-32.2524
 L 116.752,-32.7854 L 116.254,-33.3509 L 115.792,-33.9466 L 115.368,-34.5701 L 114.984,-35.219 L 114.642,-35.8907
 L 114.343,-36.5825 L 114.087,-37.2918 L 113.877,-38.0157 L 113.713,-38.7514 L 113.595,-39.496 L 113.524,-40.2465
 L 113.5,-41 L 113.524,-41.7535 L 113.595,-42.504 L 113.713,-43.2486 L 113.877,-43.9843 L 114.087,-44.7082
 L 114.343,-45.4175 L 114.642,-46.1093 L 114.984,-46.781 L 115.368,-47.4299 L 115.792,-48.0534 L 116.254,-48.6491
 L 116.752,-49.2146 L 117.285,-49.7476 L 117.851,-50.2462 L 118.447,-50.7082 L 119.07,-51.1319 L 119.719,-51.5157
 L 120.391,-51.8579 L 121.083,-52.1573 L 121.792,-52.4127 L 122.516,-52.623 L 123.251,-52.7874 L 123.996,-52.9054
 L 124.747,-52.9763 L 125.5,-53 L 126.253,-52.9763 L 127.004,-52.9054 L 127.749,-52.7874 L 128.484,-52.623
 L 129.208,-52.4127 L 129.917,-52.1573 L 130.609,-51.8579 L 131.281,-51.5157 L 131.93,-51.1319 L 132.553,-50.7082
 L 133.149,-50.2462 L 133.715,-49.7476 L 134.248,-49.2146 L 134.746,-48.6491 L 135.208,-48.0534 L 135.632,-47.4299
 L 136.016,-46.781 L 136.358,-46.1093 L 136.657,-45.4175 L 136.913,-44.7082 L 137.123,-43.9843 L 137.287,-43.2486
 L 137.405,-42.504 L 137.476,-41.7535 L 137.5,-41 L 137.476,-40.2465 L 137.405,-39.496 L 137.287,-38.7514
 L 137.123,-38.0157 L 136.913,-37.2918 L 136.657,-36.5825 L 136.358,-35.8907 L 136.016,-35.219 L 135.632,-34.5701
 L 135.208,-33.9466 L 134.746,-33.3509 L 134.248,-32.7854 L 133.715,-32.2524 L 133.149,-31.7538 L 132.553,-31.2918
 L 131.93,-30.8681 L 131.281,-30.4843 L 130.609,-30.1421 L 129.917,-29.8427 L 129.208,-29.5873 L 128.484,-29.377
 L 127.749,-29.2126 L 127.004,-29.0946 L 126.253,-29.0237 L 125.5,-29 z
M 91.7465,-29.0237 L 90.996,-29.0946 L 90.2514,-29.2126 L 89.5157,-29.377 L 88.7918,-29.5873 L 88.0825,-29.8427
 L 87.3907,-30.1421 L 86.719,-30.4843 L 86.0701,-30.8681 L 85.4466,-31.2918 L 84.8509,-31.7538 L 84.2854,-32.2524
 L 83.7524,-32.7854 L 83.2538,-33.3509 L 82.7918,-33.9466 L 82.3681,-34.5701 L 81.9843,-35.219 L 81.6421,-35.8907
 L 81.3427,-36.5825 L 81.0873,-37.2918 L 80.877,-38.0157 L 80.7126,-38.7514 L 80.5946,-39.496 L 80.5237,-40.2465
 L 80.5,-41 L 80.5237,-41.7535 L 80.5946,-42.504 L 80.7126,-43.2486 L 80.877,-43.9843 L 81.0873,-44.7082
 L 81.3427,-45.4175 L 81.6421,-46.1093 L 81.9843,-46.781 L 82.3681,-47.4299 L 82.7918,-48.0534 L 83.2538,-48.6491
 L 83.7524,-49.2146 L 84.2854,-49.7476 L 84.8509,-50.2462 L 85.4466,-50.7082 L 86.0701,-51.1319 L 86.719,-51.5157
 L 87.3907,-51.8579 L 88.0825,-52.1573 L 88.7918,-52.4127 L 89.5157,-52.623 L 90.2514,-52.7874 L 90.996,-52.9054
 L 91.7465,-52.9763 L 92.5,-53 L 93.2535,-52.9763 L 94.004,-52.9054 L 94.7486,-52.7874 L 95.4843,-52.623
 L 96.2082,-52.4127 L 96.9175,-52.1573 L 97.6093,-51.8579 L 98.281,-51.5157 L 98.9299,-51.1319 L 99.5534,-50.7082
 L 100.149,-50.2462 L 100.715,-49.7476 L 101.248,-49.2146 L 101.746,-48.6491 L 102.208,-48.0534 L 102.632,-47.4299
 L 103.016,-46.781 L 103.358,-46.1093 L 103.657,-45.4175 L 103.913,-44.7082 L 104.123,-43.9843 L 104.287,-43.2486
 L 104.405,-42.504 L 104.476,-41.7535 L 104.5,-41 L 104.476,-40.2465 L 104.405,-39.496 L 104.287,-38.7514
 L 104.123,-38.0157 L 103.913,-37.2918 L 103.657,-36.5825 L 103.358,-35.8907 L 103.016,-35.219 L 102.632,-34.5701
 L 102.208,-33.9466 L 101.746,-33.3509 L 101.248,-32.7854 L 100.715,-32.2524 L 100.149,-31.7538 L 99.5534,-31.2918
 L 98.9299,-30.8681 L 98.281,-30.4843 L 97.6093,-30.1421 L 96.9175,-29.8427 L 96.2082,-29.5873 L 95.4843,-29.377
 L 94.7486,-29.2126 L 94.004,-29.0946 L 93.2535,-29.0237 L 92.5,-29 z
M 81,-12 L 81,-18 L 104.333,-18 L 104.333,-12 z
M 127.667,-12 L 127.667,-18 L 151,-18 L 151,-12 z
M 174.333,-12 L 174.333,-18 L 197.667,-18 L 197.667,-12 z
M 221,-12 L 221,-18 L 244.333,-18 L 244.333,-12 z
M 267.667,-12 L 267.667,-18 L 291,-18 L 291,-12 z
M 314.333,-12 L 314.333,-18 L 337.667,-18 L 337.667,-12 z
M 34.3333,-12 L 34.3333,-18 L 57.6667,-18 L 57.6667,-12 z
" stroke="black" fill="lightgray" stroke-width="0.5"/>
</svg>
