<?xml version="1.0" standalone="no"?>
<!DOCTYPE svg PUBLIC "-//W3C//DTD SVG 1.1//EN" "http://www.w3.org/Graphics/SVG/1.1/DTD/svg11.dtd">
<svg width="350mm" height="362mm" viewBox="5 -367 350 362" xmlns="http://www.w3.org/2000/svg" version="1.1">
<title>OpenSCAD Model</title>
<path d="
M 211,-309.4 L 217,-309.4 L 217,-323.8 L 211,-323.8 L 211,-338.2 L 217,-338.2
 L 217,-352.6 L 211,-352.6 L 211,-367 L 11,-367 L 11,-352.6 L 5,-352.6
 L 5,-338.2 L 11,-338.2 L 11,-323.8 L 5,-323.8 L 5,-309.4 L 11,-309.4
 L 11,-295 L 211,-295 z
M 166.556,-352 L 166.556,-358 L 188.778,-358 L 188.778,-352 z
M 122.111,-352 L 122.111,-358 L 144.333,-358 L 144.333,-352 z
M 77.6667,-352 L 77.6667,-358 L 99.8889,-358 L 99.8889,-352 z
M 33.2222,-352 L 33.2222,-358 L 55.4444,-358 L 55.4444,-352 z
M 166.556,-302 L 166.556,-308 L 188.778,-308 L 188.778,-302 z
M 122.111,-302 L 122.111,-308 L 144.333,-308 L 144.333,-302 z
M 77.6667,-302 L 77.6667,-308 L 99.8889,-308 L 99.8889,-302 z
M 33.2222,-302 L 33.2222,-308 L 55.4444,-308 L 55.4444,-302 z
M 211,-229.4 L 217,-229.4 L 217,-243.8 L 211,-243.8 L 211,-258.2 L 217,-258.2
 L 217,-272.6 L 211,-272.6 L 211,-287 L 11,-287 L 11,-272.6 L 5,-272.6
 L 5,-258.2 L 11,-258.2 L 11,-243.8 L 5,-243.8 L 5,-229.4 L 11,-229.4
 L 11,-215 L 211,-215 z
M 166.556,-272 L 166.556,-278 L 188.778,-278 L 188.778,-272 z
M 122.111,-272 L 122.111,-278 L 144.333,-278 L 144.333,-272 z
M 77.6667,-272 L 77.6667,-278 L 99.8889,-278 L 99.8889,-272 z
M 33.2222,-272 L 33.2222,-278 L 55.4444,-278 L 55.4444,-272 z
M 166.556,-222 L 166.556,-228 L 188.778,-228 L 188.778,-222 z
M 122.111,-222 L 122.111,-228 L 144.333,-228 L 144.333,-222 z
M 77.6667,-222 L 77.6667,-228 L 99.8889,-228 L 99.8889,-222 z
M 33.2222,-222 L 33.2222,-228 L 55.4444,-228 L 55.4444,-222 z
M 355,-205 L 5,-205 L 5,-5 L 355,-5 z
M 17.3744,-190.504 L 17.2493,-190.516 L 17.1252,-190.535 L 17.0026,-190.563 L 16.882,-190.598 L 16.7638,-190.64
 L 16.6485,-190.69 L 16.5365,-190.747 L 16.4284,-190.811 L 16.3244,-190.882 L 16.2252,-190.959 L 16.1309,-191.042
 L 16.0421,-191.131 L 15.959,-191.225 L 15.882,-191.324 L 15.8114,-191.428 L 15.7474,-191.536 L 15.6904,-191.648
 L 15.6405,-191.764 L 15.5979,-191.882 L 15.5628,-192.003 L 15.5354,-192.125 L 15.5158,-192.249 L 15.504,-192.374
 L 15.5,-192.5 L 15.504,-192.626 L 15.5158,-192.751 L 15.5354,-192.875 L 15.5628,-192.997 L 15.5979,-193.118
 L 15.6405,-193.236 L 15.6904,-193.352 L 15.7474,-193.464 L 15.8114,-193.572 L 15.882,-193.676 L 15.959,-193.775
 L 16.0421,-193.869 L 16.1309,-193.958 L 16.2252,-194.041 L 16.3244,-194.118 L 16.4284,-194.189 L 16.5365,-194.253
 L 16.6485,-194.31 L 16.7638,-194.36 L 16.882,-194.402 L 17.0026,-194.437 L 17.1252,-194.465 L 17.2493,-194.484
 L 17.3744,-194.496 L 17.5,-194.5 L 17.6256,-194.496 L 17.7507,-194.484 L 17.8748,-194.465 L 17.9974,-194.437
 L 18.118,-194.402 L 18.2362,-194.36 L 18.3515,-194.31 L 18.4635,-194.253 L 18.5716,-194.189 L 18.6756,-194.118
 L 18.7748,-194.041 L 18.8691,-193.958 L 18.9579,-193.869 L 19.041,-193.775 L 19.118,-193.676 L 19.1886,-193.572
 L 19.2526,-193.464 L 19.3096,-193.352 L 19.3595,-193.236 L 19.4021,-193.118 L 19.4372,-192.997 L 19.4646,-192.875
 L 19.4842,-192.751 L 19.496,-192.626 L 19.5,-192.5 L 19.496,-192.374 L 19.4842,-192.249 L 19.4646,-192.125
 L 19.4372,-192.003 L 19.4021,-191.882 L 19.3595,-191.764 L 19.3096,-191.648 L 19.2526,-191.536 L 19.1886,-191.428
 L 19.118,-191.324 L 19.041,-191.225 L 18.9579,-191.131 L 18.8691,-191.042 L 18.7748,-190.959 L 18.6756,-190.882
 L 18.5716,-190.811 L 18.4635,-190.747 L 18.3515,-190.69 L 18.2362,-190.64 L 18.118,-190.598 L 17.9974,-190.563
 L 17.8748,-190.535 L 17.7507,-190.516 L 17.6256,-190.504 L 17.5,-190.5 z
M 179.874,-190.504 L 179.749,-190.516 L 179.625,-190.535 L 179.503,-190.563 L 179.382,-190.598 L 179.264,-190.64
 L 179.148,-190.69 L 179.036,-190.747 L 178.928,-190.811 L 178.824,-190.882 L 178.725,-190.959 L 178.631,-191.042
 L 178.542,-191.131 L 178.459,-191.225 L 178.382,-191.324 L 178.311,-191.428 L 178.247,-191.536 L 178.19,-191.648
 L 178.14,-191.764 L 178.098,-191.882 L 178.063,-192.003 L 178.035,-192.125 L 178.016,-192.249 L 178.004,-192.374
 L 178,-192.5 L 178.004,-192.626 L 178.016,-192.751 L 178.035,-192.875 L 178.063,-192.997 L 178.098,-193.118
 L 178.14,-193.236 L 178.19,-193.352 L 178.247,-193.464 L 178.311,-193.572 L 178.382,-193.676 L 178.459,-193.775
 L 178.542,-193.869 L 178.631,-193.958 L 178.725,-194.041 L 178.824,-194.118 L 178.928,-194.189 L 179.036,-194.253
 L 179.148,-194.31 L 179.264,-194.36 L 179.382,-194.402 L 179.503,-194.437 L 179.625,-194.465 L 179.749,-194.484
 L 179.874,-194.496 L 180,-194.5 L 180.126,-194.496 L 180.251,-194.484 L 180.375,-194.465 L 180.497,-194.437
 L 180.618,-194.402 L 180.736,-194.36 L 180.852,-194.31 L 180.964,-194.253 L 181.072,-194.189 L 181.176,-194.118
 L 181.275,-194.041 L 181.369,-193.958 L 181.458,-193.869 L 181.541,-193.775 L 181.618,-193.676 L 181.689,-193.572
 L 181.753,-193.464 L 181.81,-193.352 L 181.86,-193.236 L 181.902,-193.118 L 181.937,-192.997 L 181.965,-192.875
 L 181.984,-192.751 L 181.996,-192.626 L 182,-192.5 L 181.996,-192.374 L 181.984,-192.249 L 181.965,-192.125
 L 181.937,-192.003 L 181.902,-191.882 L 181.86,-191.764 L 181.81,-191.648 L 181.753,-191.536 L 181.689,-191.428
 L 181.618,-191.324 L 181.541,-191.225 L 181.458,-191.131 L 181.369,-191.042 L 181.275,-190.959 L 181.176,-190.882
 L 181.072,-190.811 L 180.964,-190.747 L 180.852,-190.69 L 180.736,-190.64 L 180.618,-190.598 L 180.497,-190.563
 L 180.375,-190.535 L 180.251,-190.516 L 180.126,-190.504 L 180,-190.5 z
M 342.374,-190.504 L 342.249,-190.516 L 342.125,-190.535 L 342.003,-190.563 L 341.882,-190.598 L 341.764,-190.64
 L 341.648,-190.69 L 341.536,-190.747 L 341.428,-190.811 L 341.324,-190.882 L 341.225,-190.959 L 341.131,-191.042
 L 341.042,-191.131 L 340.959,-191.225 L 340.882,-191.324 L 340.811,-191.428 L 340.747,-191.536 L 340.69,-191.648
 L 340.64,-191.764 L 340.598,-191.882 L 340.563,-192.003 L 340.535,-192.125 L 340.516,-192.249 L 340.504,-192.374
 L 340.5,-192.5 L 340.504,-192.626 L 340.516,-192.751 L 340.535,-192.875 L 340.563,-192.997 L 340.598,-193.118
 L 340.64,-193.236 L 340.69,-193.352 L 340.747,-193.464 L 340.811,-193.572 L 340.882,-193.676 L 340.959,-193.775
 L 341.042,-193.869 L 341.131,-193.958 L 341.225,-194.041 L 341.324,-194.118 L 341.428,-194.189 L 341.536,-194.253
 L 341.648,-194.31 L 341.764,-194.36 L 341.882,-194.402 L 342.003,-194.437 L 342.125,-194.465 L 342.249,-194.484
 L 342.374,-194.496 L 342.5,-194.5 L 342.626,-194.496 L 342.751,-194.484 L 342.875,-194.465 L 342.997,-194.437
 L 343.118,-194.402 L 343.236,-194.36 L 343.352,-194.31 L 343.464,-194.253 L 343.572,-194.189 L 343.676,-194.118
 L 343.775,-194.041 L 343.869,-193.958 L 343.958,-193.869 L 344.041,-193.775 L 344.118,-193.676 L 344.189,-193.572
 L 344.253,-193.464 L 344.31,-193.352 L 344.36,-193.236 L 344.402,-193.118 L 344.437,-192.997 L 344.465,-192.875
 L 344.484,-192.751 L 344.496,-192.626 L 344.5,-192.5 L 344.496,-192.374 L 344.484,-192.249 L 344.465,-192.125
 L 344.437,-192.003 L 344.402,-191.882 L 344.36,-191.764 L 344.31,-191.648 L 344.253,-191.536 L 344.189,-191.428
 L 344.118,-191.324 L 344.041,-191.225 L 343.958,-191.131 L 343.869,-191.042 L 343.775,-190.959 L 343.676,-190.882
 L 343.572,-190.811 L 343.464,-190.747 L 343.352,-190.69 L 343.236,-190.64 L 343.118,-190.598 L 342.997,-190.563
 L 342.875,-190.535 L 342.751,-190.516 L 342.626,-190.504 L 342.5,-190.5 z
M 241.808,-141.03 L 240.87,-141.118 L 239.939,-141.266 L 239.02,-141.471 L 238.115,-141.734 L 237.228,-142.053
 L 236.363,-142.428 L 235.524,-142.855 L 234.713,-143.335 L 233.933,-143.865 L 233.189,-144.442 L 232.482,-145.065
 L 231.815,-145.732 L 231.192,-146.439 L 230.615,-147.183 L 230.085,-147.963 L 229.605,-148.774 L 229.178,-149.613
 L 228.803,-150.478 L 228.484,-151.365 L 228.221,-152.27 L 228.016,-153.189 L 227.868,-154.12 L 227.78,-155.058
 L 227.75,-156 L 227.78,-156.942 L 227.868,-157.88 L 228.016,-158.811 L 228.221,-159.73 L 228.484,-160.635
 L 228.803,-161.522 L 229.178,-162.387 L 229.605,-163.226 L 230.085,-164.037 L 230.615,-164.817 L 231.192,-165.561
 L 231.815,-166.268 L 232.482,-166.935 L 233.189,-167.558 L 233.933,-168.135 L 234.713,-168.665 L 235.524,-169.145
 L 236.363,-169.572 L 237.228,-169.947 L 238.115,-170.266 L 239.02,-170.529 L 239.939,-170.734 L 240.87,-170.882
 L 241.808,-170.97 L 242.75,-171 L 243.692,-170.97 L 244.63,-170.882 L 245.561,-170.734 L 246.48,-170.529
 L 247.385,-170.266 L 248.272,-169.947 L 249.137,-169.572 L 249.976,-169.145 L 250.787,-168.665 L 251.567,-168.135
 L 252.311,-167.558 L 253.018,-166.935 L 253.685,-166.268 L 254.308,-165.561 L 254.885,-164.817 L 255.415,-164.037
 L 255.895,-163.226 L 256.322,-162.387 L 256.697,-161.522 L 257.016,-160.635 L 257.279,-159.73 L 257.484,-158.811
 L 257.632,-157.88 L 257.72,-156.942 L 257.75,-156 L 257.72,-155.058 L 257.632,-154.12 L 257.484,-153.189
 L 257.279,-152.27 L 257.016,-151.365 L 256.697,-150.478 L 256.322,-149.613 L 255.895,-148.774 L 255.415,-147.963
 L 254.885,-147.183 L 254.308,-146.439 L 253.685,-145.732 L 253.018,-145.065 L 252.311,-144.442 L 251.567,-143.865
 L 250.787,-143.335 L 249.976,-142.855 L 249.137,-142.428 L 248.272,-142.053 L 247.385,-141.734 L 246.48,-141.471
 L 245.561,-141.266 L 244.63,-141.118 L 243.692,-141.03 L 242.75,-141 z
M 205.808,-141.03 L 204.87,-141.118 L 203.939,-141.266 L 203.02,-141.471 L 202.115,-141.734 L 201.228,-142.053
 L 200.363,-142.428 L 199.524,-142.855 L 198.713,-143.335 L 197.933,-143.865 L 197.189,-144.442 L 196.482,-145.065
 L 195.815,-145.732 L 195.192,-146.439 L 194.615,-147.183 L 194.085,-147.963 L 193.605,-148.774 L 193.178,-149.613
 L 192.803,-150.478 L 192.484,-151.365 L 192.221,-152.27 L 192.016,-153.189 L 191.868,-154.12 L 191.78,-155.058
 L 191.75,-156 L 191.78,-156.942 L 191.868,-157.88 L 192.016,-158.811 L 192.221,-159.73 L 192.484,-160.635
 L 192.803,-161.522 L 193.178,-162.387 L 193.605,-163.226 L 194.085,-164.037 L 194.615,-164.817 L 195.192,-165.561
 L 195.815,-166.268 L 196.482,-166.935 L 197.189,-167.558 L 197.933,-168.135 L 198.713,-168.665 L 199.524,-169.145
 L 200.363,-169.572 L 201.228,-169.947 L 202.115,-170.266 L 203.02,-170.529 L 203.939,-170.734 L 204.87,-170.882
 L 205.808,-170.97 L 206.75,-171 L 207.692,-170.97 L 208.63,-170.882 L 209.561,-170.734 L 210.48,-170.529
 L 211.385,-170.266 L 212.272,-169.947 L 213.137,-169.572 L 213.976,-169.145 L 214.787,-168.665 L 215.567,-168.135
 L 216.311,-167.558 L 217.018,-166.935 L 217.685,-166.268 L 218.308,-165.561 L 218.885,-164.817 L 219.415,-164.037
 L 219.895,-163.226 L 220.322,-162.387 L 220.697,-161.522 L 221.016,-160.635 L 221.279,-159.73 L 221.484,-158.811
 L 221.632,-157.88 L 221.72,-156.942 L 221.75,-156 L 221.72,-155.058 L 221.632,-154.12 L 221.484,-153.189
 L 221.279,-152.27 L 221.016,-151.365 L 220.697,-150.478 L 220.322,-149.613 L 219.895,-148.774 L 219.415,-147.963
 L 218.885,-147.183 L 218.308,-146.439 L 217.685,-145.732 L 217.018,-145.065 L 216.311,-144.442 L 215.567,-143.865
 L 214.787,-143.335 L 213.976,-142.855 L 213.137,-142.428 L 212.272,-142.053 L 211.385,-141.734 L 210.48,-141.471
 L 209.561,-141.266 L 208.63,-141.118 L 207.692,-141.03 L 206.75,-141 z
M 277.808,-132.03 L 276.87,-132.118 L 275.939,-132.266 L 275.02,-132.471 L 274.115,-132.734 L 273.228,-133.053
 L 272.363,-133.428 L 271.524,-133.855 L 270.713,-134.335 L 269.933,-134.865 L 269.189,-135.442 L 268.482,-136.065
 L 267.815,-136.732 L 267.192,-137.439 L 266.615,-138.183 L 266.085,-138.963 L 265.605,-139.774 L 265.178,-140.613
 L 264.803,-141.478 L 264.484,-142.365 L 264.221,-143.27 L 264.016,-144.189 L 263.868,-145.12 L 263.78,-146.058
 L 263.75,-147 L 263.78,-147.942 L 263.868,-148.88 L 264.016,-149.811 L 264.221,-150.73 L 264.484,-151.635
 L 264.803,-152.522 L 265.178,-153.387 L 265.605,-154.226 L 266.085,-155.037 L 266.615,-155.817 L 267.192,-156.561
 L 267.815,-157.268 L 268.482,-157.935 L 269.189,-158.558 L 269.933,-159.135 L 270.713,-159.665 L 271.524,-160.145
 L 272.363,-160.572 L 273.228,-160.947 L 274.115,-161.266 L 275.02,-161.529 L 275.939,-161.734 L 276.87,-161.882
 L 277.808,-161.97 L 278.75,-162 L 279.692,-161.97 L 280.63,-161.882 L 281.561,-161.734 L 282.48,-161.529
 L 283.385,-161.266 L 284.272,-160.947 L 285.137,-160.572 L 285.976,-160.145 L 286.787,-159.665 L 287.567,-159.135
 L 288.311,-158.558 L 289.018,-157.935 L 289.685,-157.268 L 290.308,-156.561 L 290.885,-155.817 L 291.415,-155.037
 L 291.895,-154.226 L 292.322,-153.387 L 292.697,-152.522 L 293.016,-151.635 L 293.279,-150.73 L 293.484,-149.811
 L 293.632,-148.88 L 293.72,-147.942 L 293.75,-147 L 293.72,-146.058 L 293.632,-145.12 L 293.484,-144.189
 L 293.279,-143.27 L 293.016,-142.365 L 292.697,-141.478 L 292.322,-140.613 L 291.895,-139.774 L 291.415,-138.963
 L 290.885,-138.183 L 290.308,-137.439 L 289.685,-136.732 L 289.018,-136.065 L 288.311,-135.442 L 287.567,-134.865
 L 286.787,-134.335 L 285.976,-133.855 L 285.137,-133.428 L 284.272,-133.053 L 283.385,-132.734 L 282.48,-132.471
 L 281.561,-132.266 L 280.63,-132.118 L 279.692,-132.03 L 278.75,-132 z
M 113.062,-155.256 L 112.874,-155.274 L 112.688,-155.303 L 112.504,-155.344 L 112.323,-155.397 L 112.146,-155.461
 L 111.973,-155.536 L 111.805,-155.621 L 111.643,-155.717 L 111.487,-155.823 L 111.338,-155.938 L 111.196,-156.063
 L 111.063,-156.196 L 110.938,-156.338 L 110.823,-156.487 L 110.717,-156.643 L 110.621,-156.805 L 110.536,-156.973
 L 110.461,-157.146 L 110.397,-157.323 L 110.344,-157.504 L 110.303,-157.688 L 110.274,-157.874 L 110.256,-158.062
 L 110.25,-158.25 L 110.256,-158.438 L 110.274,-158.626 L 110.303,-158.812 L 110.344,-158.996 L 110.397,-159.177
 L 110.461,-159.354 L 110.536,-159.527 L 110.621,-159.695 L 110.717,-159.857 L 110.823,-160.013 L 110.938,-160.162
 L 111.063,-160.304 L 111.196,-160.437 L 111.338,-160.562 L 111.487,-160.677 L 111.643,-160.783 L 111.805,-160.879
 L 111.973,-160.964 L 112.146,-161.039 L 112.323,-161.103 L 112.504,-161.156 L 112.688,-161.197 L 112.874,-161.226
 L 113.062,-161.244 L 113.25,-161.25 L 113.438,-161.244 L 113.626,-161.226 L 113.812,-161.197 L 113.996,-161.156
 L 114.177,-161.103 L 114.354,-161.039 L 114.527,-160.964 L 114.695,-160.879 L 114.857,-160.783 L 115.013,-160.677
 L 115.162,-160.562 L 115.304,-160.437 L 115.437,-160.304 L 115.562,-160.162 L 115.677,-160.013 L 115.783,-159.857
 L 115.879,-159.695 L 115.964,-159.527 L 116.039,-159.354 L 116.103,-159.177 L 116.156,-158.996 L 116.197,-158.812
 L 116.226,-158.626 L 116.244,-158.438 L 116.25,-158.25 L 116.244,-158.062 L 116.226,-157.874 L 116.197,-157.688
 L 116.156,-157.504 L 116.103,-157.323 L 116.039,-157.146 L 115.964,-156.973 L 115.879,-156.805 L 115.783,-156.643
 L 115.677,-156.487 L 115.562,-156.338 L 115.437,-156.196 L 115.304,-156.063 L 115.162,-155.938 L 115.013,-155.823
 L 114.857,-155.717 L 114.695,-155.621 L 114.527,-155.536 L 114.354,-155.461 L 114.177,-155.397 L 113.996,-155.344
 L 113.812,-155.303 L 113.626,-155.274 L 113.438,-155.256 L 113.25,-155.25 z
M 93.1244,-156.254 L 92.9993,-156.266 L 92.8752,-156.285 L 92.7526,-156.313 L 92.632,-156.348 L 92.5138,-156.39
 L 92.3985,-156.44 L 92.2865,-156.497 L 92.1784,-156.561 L 92.0744,-156.632 L 91.9752,-156.709 L 91.8809,-156.792
 L 91.7921,-156.881 L 91.709,-156.975 L 91.632,-157.074 L 91.5614,-157.178 L 91.4974,-157.286 L 91.4404,-157.398
 L 91.3905,-157.514 L 91.3479,-157.632 L 91.3128,-157.753 L 91.2854,-157.875 L 91.2658,-157.999 L 91.254,-158.124
 L 91.25,-158.25 L 91.254,-158.376 L 91.2658,-158.501 L 91.2854,-158.625 L 91.3128,-158.747 L 91.3479,-158.868
 L 91.3905,-158.986 L 91.4404,-159.102 L 91.4974,-159.214 L 91.5614,-159.322 L 91.632,-159.426 L 91.709,-159.525
 L 91.7921,-159.619 L 91.8809,-159.708 L 91.9752,-159.791 L 92.0744,-159.868 L 92.1784,-159.939 L 92.2865,-160.003
 L 92.3985,-160.06 L 92.5138,-160.11 L 92.632,-160.152 L 92.7526,-160.187 L 92.8752,-160.215 L 92.9993,-160.234
 L 93.1244,-160.246 L 93.25,-160.25 L 93.3756,-160.246 L 93.5007,-160.234 L 93.6248,-160.215 L 93.7474,-160.187
 L 93.868,-160.152 L 93.9863,-160.11 L 94.1016,-160.06 L 94.2135,-160.003 L 94.3217,-159.939 L 94.4256,-159.868
 L 94.5249,-159.791 L 94.6191,-159.708 L 94.7079,-159.619 L 94.791,-159.525 L 94.868,-159.426 L 94.9387,-159.322
 L 95.0026,-159.214 L 95.0597,-159.102 L 95.1096,-158.986 L 95.1521,-158.868 L 95.1872,-158.747 L 95.2146,-158.625
 L 95.2342,-158.501 L 95.2461,-158.376 L 95.25,-158.25 L 95.2461,-158.124 L 95.2342,-157.999 L 95.2146,-157.875
 L 95.1872,-157.753 L 95.1521,-157.632 L 95.1096,-157.514 L 95.0597,-157.398 L 95.0026,-157.286 L 94.9387,-157.178
 L 94.868,-157.074 L 94.791,-156.975 L 94.7079,-156.881 L 94.6191,-156.792 L 94.5249,-156.709 L 94.4256,-156.632
 L 94.3217,-156.561 L 94.2135,-156.497 L 94.1016,-156.44 L 93.9863,-156.39 L 93.868,-156.348 L 93.7474,-156.313
 L 93.6248,-156.285 L 93.5007,-156.266 L 93.3756,-156.254 L 93.25,-156.25 z
M 133.124,-156.254 L 132.999,-156.266 L 132.875,-156.285 L 132.753,-156.313 L 132.632,-156.348 L 132.514,-156.39
 L 132.398,-156.44 L 132.286,-156.497 L 132.178,-156.561 L 132.074,-156.632 L 131.975,-156.709 L 131.881,-156.792
 L 131.792,-156.881 L 131.709,-156.975 L 131.632,-157.074 L 131.561,-157.178 L 131.497,-157.286 L 131.44,-157.398
 L 131.39,-157.514 L 131.348,-157.632 L 131.313,-157.753 L 131.285,-157.875 L 131.266,-157.999 L 131.254,-158.124
 L 131.25,-158.25 L 131.254,-158.376 L 131.266,-158.501 L 131.285,-158.625 L 131.313,-158.747 L 131.348,-158.868
 L 131.39,-158.986 L 131.44,-159.102 L 131.497,-159.214 L 131.561,-159.322 L 131.632,-159.426 L 131.709,-159.525
 L 131.792,-159.619 L 131.881,-159.708 L 131.975,-159.791 L 132.074,-159.868 L 132.178,-159.939 L 132.286,-160.003
 L 132.398,-160.06 L 132.514,-160.11 L 132.632,-160.152 L 132.753,-160.187 L 132.875,-160.215 L 132.999,-160.234
 L 133.124,-160.246 L 133.25,-160.25 L 133.376,-160.246 L 133.501,-160.234 L 133.625,-160.215 L 133.747,-160.187
 L 133.868,-160.152 L 133.986,-160.11 L 134.102,-160.06 L 134.214,-160.003 L 134.322,-159.939 L 134.426,-159.868
 L 134.525,-159.791 L 134.619,-159.708 L 134.708,-159.619 L 134.791,-159.525 L 134.868,-159.426 L 134.939,-159.322
 L 135.003,-159.214 L 135.06,-159.102 L 135.11,-158.986 L 135.152,-158.868 L 135.187,-158.747 L 135.215,-158.625
 L 135.234,-158.501 L 135.246,-158.376 L 135.25,-158.25 L 135.246,-158.124 L 135.234,-157.999 L 135.215,-157.875
 L 135.187,-157.753 L 135.152,-157.632 L 135.11,-157.514 L 135.06,-157.398 L 135.003,-157.286 L 134.939,-157.178
 L 134.868,-157.074 L 134.791,-156.975 L 134.708,-156.881 L 134.619,-156.792 L 134.525,-156.709 L 134.426,-156.632
 L 134.322,-156.561 L 134.214,-156.497 L 134.102,-156.44 L 133.986,-156.39 L 133.868,-156.348 L 133.747,-156.313
 L 133.625,-156.285 L 133.501,-156.266 L 133.376,-156.254 L 133.25,-156.25 z
M 175.308,-121.03 L 174.37,-121.118 L 173.439,-121.266 L 172.52,-121.471 L 171.615,-121.734 L 170.728,-122.053
 L 169.863,-122.428 L 169.024,-122.855 L 168.213,-123.335 L 167.433,-123.865 L 166.689,-124.442 L 165.982,-125.065
 L 165.315,-125.732 L 164.692,-126.439 L 164.115,-127.183 L 163.585,-127.963 L 163.105,-128.774 L 162.678,-129.613
 L 162.303,-130.478 L 161.984,-131.365 L 161.721,-132.27 L 161.516,-133.189 L 161.368,-134.12 L 161.28,-135.058
 L 161.25,-136 L 161.28,-136.942 L 161.368,-137.88 L 161.516,-138.811 L 161.721,-139.73 L 161.984,-140.635
 L 162.303,-141.522 L 162.678,-142.387 L 163.105,-143.226 L 163.585,-144.037 L 164.115,-144.817 L 164.692,-145.561
 L 165.315,-146.268 L 165.982,-146.935 L 166.689,-147.558 L 167.433,-148.135 L 168.213,-148.665 L 169.024,-149.145
 L 169.863,-149.572 L 170.728,-149.947 L 171.615,-150.266 L 172.52,-150.529 L 173.439,-150.734 L 174.37,-150.882
 L 175.308,-150.97 L 176.25,-151 L 177.192,-150.97 L 178.13,-150.882 L 179.061,-150.734 L 179.98,-150.529
 L 180.885,-150.266 L 181.772,-149.947 L 182.637,-149.572 L 183.476,-149.145 L 184.287,-148.665 L 185.067,-148.135
 L 185.811,-147.558 L 186.518,-146.935 L 187.185,-146.268 L 187.808,-145.561 L 188.385,-144.817 L 188.915,-144.037
 L 189.395,-143.226 L 189.822,-142.387 L 190.197,-141.522 L 190.516,-140.635 L 190.779,-139.73 L 190.984,-138.811
 L 191.132,-137.88 L 191.22,-136.942 L 191.25,-136 L 191.22,-135.058 L 191.132,-134.12 L 190.984,-133.189
 L 190.779,-132.27 L 190.516,-131.365 L 190.197,-130.478 L 189.822,-129.613 L 189.395,-128.774 L 188.915,-127.963
 L 188.385,-127.183 L 187.808,-126.439 L 187.185,-125.732 L 186.518,-125.065 L 185.811,-124.442 L 185.067,-123.865
 L 184.287,-123.335 L 183.476,-122.855 L 182.637,-122.428 L 181.772,-122.053 L 180.885,-121.734 L 179.98,-121.471
 L 179.061,-121.266 L 178.13,-121.118 L 177.192,-121.03 L 176.25,-121 z
M 241.808,-102.03 L 240.87,-102.118 L 239.939,-102.266 L 239.02,-102.471 L 238.115,-102.734 L 237.228,-103.053
 L 236.363,-103.428 L 235.524,-103.855 L 234.713,-104.335 L 233.933,-104.865 L 233.189,-105.442 L 232.482,-106.065
 L 231.815,-106.732 L 231.192,-107.439 L 230.615,-108.183 L 230.085,-108.963 L 229.605,-109.774 L 229.178,-110.613
 L 228.803,-111.478 L 228.484,-112.365 L 228.221,-113.27 L 228.016,-114.189 L 227.868,-115.12 L 227.78,-116.058
 L 227.75,-117 L 227.78,-117.942 L 227.868,-118.88 L 228.016,-119.811 L 228.221,-120.73 L 228.484,-121.635
 L 228.803,-122.522 L 229.178,-123.387 L 229.605,-124.226 L 230.085,-125.037 L 230.615,-125.817 L 231.192,-126.561
 L 231.815,-127.268 L 232.482,-127.935 L 233.189,-128.558 L 233.933,-129.135 L 234.713,-129.665 L 235.524,-130.145
 L 236.363,-130.572 L 237.228,-130.947 L 238.115,-131.266 L 239.02,-131.529 L 239.939,-131.734 L 240.87,-131.882
 L 241.808,-131.97 L 242.75,-132 L 243.692,-131.97 L 244.63,-131.882 L 245.561,-131.734 L 246.48,-131.529
 L 247.385,-131.266 L 248.272,-130.947 L 249.137,-130.572 L 249.976,-130.145 L 250.787,-129.665 L 251.567,-129.135
 L 252.311,-128.558 L 253.018,-127.935 L 253.685,-127.268 L 254.308,-126.561 L 254.885,-125.817 L 255.415,-125.037
 L 255.895,-124.226 L 256.322,-123.387 L 256.697,-122.522 L 257.016,-121.635 L 257.279,-120.73 L 257.484,-119.811
 L 257.632,-118.88 L 257.72,-117.942 L 257.75,-117 L 257.72,-116.058 L 257.632,-115.12 L 257.484,-114.189
 L 257.279,-113.27 L 257.016,-112.365 L 256.697,-111.478 L 256.322,-110.613 L 255.895,-109.774 L 255.415,-108.963
 L 254.885,-108.183 L 254.308,-107.439 L 253.685,-106.732 L 253.018,-106.065 L 252.311,-105.442 L 251.567,-104.865
 L 250.787,-104.335 L 249.976,-103.855 L 249.137,-103.428 L 248.272,-103.053 L 247.385,-102.734 L 246.48,-102.471
 L 245.561,-102.266 L 244.63,-102.118 L 243.692,-102.03 L 242.75,-102 z
M 205.808,-102.03 L 204.87,-102.118 L 203.939,-102.266 L 203.02,-102.471 L 202.115,-102.734 L 201.228,-103.053
 L 200.363,-103.428 L 199.524,-103.855 L 198.713,-104.335 L 197.933,-104.865 L 197.189,-105.442 L 196.482,-106.065
 L 195.815,-106.732 L 195.192,-107.439 L 194.615,-108.183 L 194.085,-108.963 L 193.605,-109.774 L 193.178,-110.613
 L 192.803,-111.478 L 192.484,-112.365 L 192.221,-113.27 L 192.016,-114.189 L 191.868,-115.12 L 191.78,-116.058
 L 191.75,-117 L 191.78,-117.942 L 191.868,-118.88 L 192.016,-119.811 L 192.221,-120.73 L 192.484,-121.635
 L 192.803,-122.522 L 193.178,-123.387 L 193.605,-124.226 L 194.085,-125.037 L 194.615,-125.817 L 195.192,-126.561
 L 195.815,-127.268 L 196.482,-127.935 L 197.189,-128.558 L 197.933,-129.135 L 198.713,-129.665 L 199.524,-130.145
 L 200.363,-130.572 L 201.228,-130.947 L 202.115,-131.266 L 203.02,-131.529 L 203.939,-131.734 L 204.87,-131.882
 L 205.808,-131.97 L 206.75,-132 L 207.692,-131.97 L 208.63,-131.882 L 209.561,-131.734 L 210.48,-131.529
 L 211.385,-131.266 L 212.272,-130.947 L 213.137,-130.572 L 213.976,-130.145 L 214.787,-129.665 L 215.567,-129.135
 L 216.311,-128.558 L 217.018,-127.935 L 217.685,-127.268 L 218.308,-126.561 L 218.885,-125.817 L 219.415,-125.037
 L 219.895,-124.226 L 220.322,-123.387 L 220.697,-122.522 L 221.016,-121.635 L 221.279,-120.73 L 221.484,-119.811
 L 221.632,-118.88 L 221.72,-117.942 L 221.75,-117 L 221.72,-116.058 L 221.632,-115.12 L 221.484,-114.189
 L 221.279,-113.27 L 221.016,-112.365 L 220.697,-111.478 L 220.322,-110.613 L 219.895,-109.774 L 219.415,-108.963
 L 218.885,-108.183 L 218.308,-107.439 L 217.685,-106.732 L 217.018,-106.065 L 216.311,-105.442 L 215.567,-104.865
 L 214.787,-104.335 L 213.976,-103.855 L 213.137,-103.428 L 212.272,-103.053 L 211.385,-102.734 L 210.48,-102.471
 L 209.561,-102.266 L 208.63,-102.118 L 207.692,-102.03 L 206.75,-102 z
M 112.497,-105.024 L 111.746,-105.095 L 111.001,-105.213 L 110.266,-105.377 L 109.542,-105.587 L 108.833,-105.843
 L 108.141,-106.142 L 107.469,-106.484 L 106.82,-106.868 L 106.197,-107.292 L 105.601,-107.754 L 105.035,-108.252
 L 104.502,-108.785 L 104.004,-109.351 L 103.542,-109.947 L 103.118,-110.57 L 102.734,-111.219 L 102.392,-111.891
 L 102.093,-112.583 L 101.837,-113.292 L 101.627,-114.016 L 101.463,-114.751 L 101.345,-115.496 L 101.274,-116.247
 L 101.25,-117 L 101.274,-117.753 L 101.345,-118.504 L 101.463,-119.249 L 101.627,-119.984 L 101.837,-120.708
 L 102.093,-121.417 L 102.392,-122.109 L 102.734,-122.781 L 103.118,-123.43 L 103.542,-124.053 L 104.004,-124.649
 L 104.502,-125.215 L 105.035,-125.748 L 105.601,-126.246 L 106.197,-126.708 L 106.82,-127.132 L 107.469,-127.516
 L 108.141,-127.858 L 108.833,-128.157 L 109.542,-128.413 L 110.266,-128.623 L 111.001,-128.787 L 111.746,-128.905
 L 112.497,-128.976 L 113.25,-129 L 114.003,-128.976 L 114.754,-128.905 L 115.499,-128.787 L 116.234,-128.623
 L 116.958,-128.413 L 117.667,-128.157 L 118.359,-127.858 L 119.031,-127.516 L 119.68,-127.132 L 120.303,-126.708
 L 120.899,-126.246 L 121.465,-125.748 L 121.998,-125.215 L 122.496,-124.649 L 122.958,-124.053 L 123.382,-123.43
 L 123.766,-122.781 L 124.108,-122.109 L 124.407,-121.417 L 124.663,-120.708 L 124.873,-119.984 L 125.037,-119.249
 L 125.155,-118.504 L 125.226,-117.753 L 125.25,-117 L 125.226,-116.247 L 125.155,-115.496 L 125.037,-114.751
 L 124.873,-114.016 L 124.663,-113.292 L 124.407,-112.583 L 124.108,-111.891 L 123.766,-111.219 L 123.382,-110.57
 L 122.958,-109.947 L 122.496,-109.351 L 121.998,-108.785 L 121.465,-108.252 L 120.899,-107.754 L 120.303,-107.292
 L 119.68,-106.868 L 119.031,-106.484 L 118.359,-106.142 L 117.667,-105.843 L 116.958,-105.587 L 116.234,-105.377
 L 115.499,-105.213 L 114.754,-105.095 L 114.003,-105.024 L 113.25,-105 z
M 277.808,-93.0296 L 276.87,-93.1183 L 275.939,-93.2657 L 275.02,-93.4713 L 274.115,-93.7342 L 273.228,-94.0534
 L 272.363,-94.4276 L 271.524,-94.8554 L 270.713,-95.3351 L 269.933,-95.8647 L 269.189,-96.4423 L 268.482,-97.0655
 L 267.815,-97.7318 L 267.192,-98.4386 L 266.615,-99.1832 L 266.085,-99.9626 L 265.605,-100.774 L 265.178,-101.613
 L 264.803,-102.478 L 264.484,-103.365 L 264.221,-104.27 L 264.016,-105.189 L 263.868,-106.12 L 263.78,-107.058
 L 263.75,-108 L 263.78,-108.942 L 263.868,-109.88 L 264.016,-110.811 L 264.221,-111.73 L 264.484,-112.635
 L 264.803,-113.522 L 265.178,-114.387 L 265.605,-115.226 L 266.085,-116.037 L 266.615,-116.817 L 267.192,-117.561
 L 267.815,-118.268 L 268.482,-118.935 L 269.189,-119.558 L 269.933,-120.135 L 270.713,-120.665 L 271.524,-121.145
 L 272.363,-121.572 L 273.228,-121.947 L 274.115,-122.266 L 275.02,-122.529 L 275.939,-122.734 L 276.87,-122.882
 L 277.808,-122.97 L 278.75,-123 L 279.692,-122.97 L 280.63,-122.882 L 281.561,-122.734 L 282.48,-122.529
 L 283.385,-122.266 L 284.272,-121.947 L 285.137,-121.572 L 285.976,-121.145 L 286.787,-120.665 L 287.567,-120.135
 L 288.311,-119.558 L 289.018,-118.935 L 289.685,-118.268 L 290.308,-117.561 L 290.885,-116.817 L 291.415,-116.037
 L 291.895,-115.226 L 292.322,-114.387 L 292.697,-113.522 L 293.016,-112.635 L 293.279,-111.73 L 293.484,-110.811
 L 293.632,-109.88 L 293.72,-108.942 L 293.75,-108 L 293.72,-107.058 L 293.632,-106.12 L 293.484,-105.189
 L 293.279,-104.27 L 293.016,-103.365 L 292.697,-102.478 L 292.322,-101.613 L 291.895,-100.774 L 291.415,-99.9626
 L 290.885,-99.1832 L 290.308,-98.4386 L 289.685,-97.7318 L 289.018,-97.0655 L 288.311,-96.4423 L 287.567,-95.8647
 L 286.787,-95.3351 L 285.976,-94.8554 L 285.137,-94.4276 L 284.272,-94.0534 L 283.385,-93.7342 L 282.48,-93.4713
 L 281.561,-93.2657 L 280.63,-93.1183 L 279.692,-93.0296 L 278.75,-93 z
M 175.308,-82.0296 L 174.37,-82.1183 L 173.439,-82.2657 L 172.52,-82.4713 L 171.615,-82.7342 L 170.728,-83.0534
 L 169.863,-83.4276 L 169.024,-83.8554 L 168.213,-84.3351 L 167.433,-84.8647 L 166.689,-85.4423 L 165.982,-86.0655
 L 165.315,-86.7318 L 164.692,-87.4386 L 164.115,-88.1832 L 163.585,-88.9626 L 163.105,-89.7737 L 162.678,-90.6133
 L 162.303,-91.4781 L 161.984,-92.3647 L 161.721,-93.2697 L 161.516,-94.1893 L 161.368,-95.12 L 161.28,-96.0582
 L 161.25,-97 L 161.28,-97.9418 L 161.368,-98.88 L 161.516,-99.8107 L 161.721,-100.73 L 161.984,-101.635
 L 162.303,-102.522 L 162.678,-103.387 L 163.105,-104.226 L 163.585,-105.037 L 164.115,-105.817 L 164.692,-106.561
 L 165.315,-107.268 L 165.982,-107.935 L 166.689,-108.558 L 167.433,-109.135 L 168.213,-109.665 L 169.024,-110.145
 L 169.863,-110.572 L 170.728,-110.947 L 171.615,-111.266 L 172.52,-111.529 L 173.439,-111.734 L 174.37,-111.882
 L 175.308,-111.97 L 176.25,-112 L 177.192,-111.97 L 178.13,-111.882 L 179.061,-111.734 L 179.98,-111.529
 L 180.885,-111.266 L 181.772,-110.947 L 182.637,-110.572 L 183.476,-110.145 L 184.287,-109.665 L 185.067,-109.135
 L 185.811,-108.558 L 186.518,-107.935 L 187.185,-107.268 L 187.808,-106.561 L 188.385,-105.817 L 188.915,-105.037
 L 189.395,-104.226 L 189.822,-103.387 L 190.197,-102.522 L 190.516,-101.635 L 190.779,-100.73 L 190.984,-99.8107
 L 191.132,-98.88 L 191.22,-97.9418 L 191.25,-97 L 191.22,-96.0582 L 191.132,-95.12 L 190.984,-94.1893
 L 190.779,-93.2697 L 190.516,-92.3647 L 190.197,-91.4781 L 189.822,-90.6133 L 189.395,-89.7737 L 188.915,-88.9626
 L 188.385,-88.1832 L 187.808,-87.4386 L 187.185,-86.7318 L 186.518,-86.0655 L 185.811,-85.4423 L 185.067,-84.8647
 L 184.287,-84.3351 L 183.476,-83.8554 L 182.637,-83.4276 L 181.772,-83.0534 L 180.885,-82.7342 L 179.98,-82.4713
 L 179.061,-82.2657 L 178.13,-82.1183 L 177.192,-82.0296 L 176.25,-82 z
M 342.374,-103.004 L 342.249,-103.016 L 342.125,-103.035 L 342.003,-103.063 L 341.882,-103.098 L 341.764,-103.14
 L 341.648,-103.19 L 341.536,-103.247 L 341.428,-103.311 L 341.324,-103.382 L 341.225,-103.459 L 341.131,-103.542
 L 341.042,-103.631 L 340.959,-103.725 L 340.882,-103.824 L 340.811,-103.928 L 340.747,-104.036 L 340.69,-104.148
 L 340.64,-104.264 L 340.598,-104.382 L 340.563,-104.503 L 340.535,-104.625 L 340.516,-104.749 L 340.504,-104.874
 L 340.5,-105 L 340.504,-105.126 L 340.516,-105.251 L 340.535,-105.375 L 340.563,-105.497 L 340.598,-105.618
 L 340.64,-105.736 L 340.69,-105.852 L 340.747,-105.964 L 340.811,-106.072 L 340.882,-106.176 L 340.959,-106.275
 L 341.042,-106.369 L 341.131,-106.458 L 341.225,-106.541 L 341.324,-106.618 L 341.428,-106.689 L 341.536,-106.753
 L 341.648,-106.81 L 341.764,-106.86 L 341.882,-106.902 L 342.003,-106.937 L 342.125,-106.965 L 342.249,-106.984
 L 342.374,-106.996 L 342.5,-107 L 342.626,-106.996 L 342.751,-106.984 L 342.875,-106.965 L 342.997,-106.937
 L 343.118,-106.902 L 343.236,-106.86 L 343.352,-106.81 L 343.464,-106.753 L 343.572,-106.689 L 343.676,-106.618
 L 343.775,-106.541 L 343.869,-106.458 L 343.958,-106.369 L 344.041,-106.275 L 344.118,-106.176 L 344.189,-106.072
 L 344.253,-105.964 L 344.31,-105.852 L 344.36,-105.736 L 344.402,-105.618 L 344.437,-105.497 L 344.465,-105.375
 L 344.484,-105.251 L 344.496,-105.126 L 344.5,-105 L 344.496,-104.874 L 344.484,-104.749 L 344.465,-104.625
 L 344.437,-104.503 L 344.402,-104.382 L 344.36,-104.264 L 344.31,-104.148 L 344.253,-104.036 L 344.189,-103.928
 L 344.118,-103.824 L 344.041,-103.725 L 343.958,-103.631 L 343.869,-103.542 L 343.775,-103.459 L 343.676,-103.382
 L 343.572,-103.311 L 343.464,-103.247 L 343.352,-103.19 L 343.236,-103.14 L 343.118,-103.098 L 342.997,-103.063
 L 342.875,-103.035 L 342.751,-103.016 L 342.626,-103.004 L 342.5,-103 z
M 17.3744,-103.004 L 17.2493,-103.016 L 17.1252,-103.035 L 17.0026,-103.063 L 16.882,-103.098 L 16.7638,-103.14
 L 16.6485,-103.19 L 16.5365,-103.247 L 16.4284,-103.311 L 16.3244,-103.382 L 16.2252,-103.459 L 16.1309,-103.542
 L 16.0421,-103.631 L 15.959,-103.725 L 15.882,-103.824 L 15.8114,-103.928 L 15.7474,-104.036 L 15.6904,-104.148
 L 15.6405,-104.264 L 15.5979,-104.382 L 15.5628,-104.503 L 15.5354,-104.625 L 15.5158,-104.749 L 15.504,-104.874
 L 15.5,-105 L 15.504,-105.126 L 15.5158,-105.251 L 15.5354,-105.375 L 15.5628,-105.497 L 15.5979,-105.618
 L 15.6405,-105.736 L 15.6904,-105.852 L 15.7474,-105.964 L 15.8114,-106.072 L 15.882,-106.176 L 15.959,-106.275
 L 16.0421,-106.369 L 16.1309,-106.458 L 16.2252,-106.541 L 16.3244,-106.618 L 16.4284,-106.689 L 16.5365,-106.753
 L 16.6485,-106.81 L 16.7638,-106.86 L 16.882,-106.902 L 17.0026,-106.937 L 17.1252,-106.965 L 17.2493,-106.984
 L 17.3744,-106.996 L 17.5,-107 L 17.6256,-106.996 L 17.7507,-106.984 L 17.8748,-106.965 L 17.9974,-106.937
 L 18.118,-106.902 L 18.2362,-106.86 L 18.3515,-106.81 L 18.4635,-106.753 L 18.5716,-106.689 L 18.6756,-106.618
 L 18.7748,-106.541 L 18.8691,-106.458 L 18.9579,-106.369 L 19.041,-106.275 L 19.118,-106.176 L 19.1886,-106.072
 L 19.2526,-105.964 L 19.3096,-105.852 L 19.3595,-105.736 L 19.4021,-105.618 L 19.4372,-105.497 L 19.4646,-105.375
 L 19.4842,-105.251 L 19.496,-105.126 L 19.5,-105 L 19.496,-104.874 L 19.4842,-104.749 L 19.4646,-104.625
 L 19.4372,-104.503 L 19.4021,-104.382 L 19.3595,-104.264 L 19.3096,-104.148 L 19.2526,-104.036 L 19.1886,-103.928
 L 19.118,-103.824 L 19.041,-103.725 L 18.9579,-103.631 L 18.8691,-103.542 L 18.7748,-103.459 L 18.6756,-103.382
 L 18.5716,-103.311 L 18.4635,-103.247 L 18.3515,-103.19 L 18.2362,-103.14 L 18.118,-103.098 L 17.9974,-103.063
 L 17.8748,-103.035 L 17.7507,-103.016 L 17.6256,-103.004 L 17.5,-103 z
M 113.062,-72.7559 L 112.874,-72.7737 L 112.688,-72.8031 L 112.504,-72.8443 L 112.323,-72.8968 L 112.146,-72.9607
 L 111.973,-73.0355 L 111.805,-73.1211 L 111.643,-73.217 L 111.487,-73.323 L 111.338,-73.4385 L 111.196,-73.5631
 L 111.063,-73.6964 L 110.938,-73.8377 L 110.823,-73.9866 L 110.717,-74.1425 L 110.621,-74.3047 L 110.536,-74.4727
 L 110.461,-74.6456 L 110.397,-74.823 L 110.344,-75.0039 L 110.303,-75.1879 L 110.274,-75.374 L 110.256,-75.5616
 L 110.25,-75.75 L 110.256,-75.9384 L 110.274,-76.126 L 110.303,-76.3121 L 110.344,-76.4961 L 110.397,-76.677
 L 110.461,-76.8544 L 110.536,-77.0273 L 110.621,-77.1953 L 110.717,-77.3575 L 110.823,-77.5134 L 110.938,-77.6623
 L 111.063,-77.8036 L 111.196,-77.9369 L 111.338,-78.0615 L 111.487,-78.177 L 111.643,-78.283 L 111.805,-78.3789
 L 111.973,-78.4645 L 112.146,-78.5393 L 112.323,-78.6032 L 112.504,-78.6557 L 112.688,-78.6969 L 112.874,-78.7263
 L 113.062,-78.7441 L 113.25,-78.75 L 113.438,-78.7441 L 113.626,-78.7263 L 113.812,-78.6969 L 113.996,-78.6557
 L 114.177,-78.6032 L 114.354,-78.5393 L 114.527,-78.4645 L 114.695,-78.3789 L 114.857,-78.283 L 115.013,-78.177
 L 115.162,-78.0615 L 115.304,-77.9369 L 115.437,-77.8036 L 115.562,-77.6623 L 115.677,-77.5134 L 115.783,-77.3575
 L 115.879,-77.1953 L 115.964,-77.0273 L 116.039,-76.8544 L 116.103,-76.677 L 116.156,-76.4961 L 116.197,-76.3121
 L 116.226,-76.126 L 116.244,-75.9384 L 116.25,-75.75 L 116.244,-75.5616 L 116.226,-75.374 L 116.197,-75.1879
 L 116.156,-75.0039 L 116.103,-74.823 L 116.039,-74.6456 L 115.964,-74.4727 L 115.879,-74.3047 L 115.783,-74.1425
 L 115.677,-73.9866 L 115.562,-73.8377 L 115.437,-73.6964 L 115.304,-73.5631 L 115.162,-73.4385 L 115.013,-73.323
 L 114.857,-73.217 L 114.695,-73.1211 L 114.527,-73.0355 L 114.354,-72.9607 L 114.177,-72.8968 L 113.996,-72.8443
 L 113.812,-72.8031 L 113.626,-72.7737 L 113.438,-72.7559 L 113.25,-72.75 z
M 133.124,-73.754 L 132.999,-73.7658 L 132.875,-73.7854 L 132.753,-73.8128 L 132.632,-73.8479 L 132.514,-73.8905
 L 132.398,-73.9404 L 132.286,-73.9974 L 132.178,-74.0614 L 132.074,-74.132 L 131.975,-74.209 L 131.881,-74.2921
 L 131.792,-74.3809 L 131.709,-74.4752 L 131.632,-74.5744 L 131.561,-74.6784 L 131.497,-74.7865 L 131.44,-74.8985
 L 131.39,-75.0138 L 131.348,-75.132 L 131.313,-75.2526 L 131.285,-75.3752 L 131.266,-75.4993 L 131.254,-75.6244
 L 131.25,-75.75 L 131.254,-75.8756 L 131.266,-76.0007 L 131.285,-76.1248 L 131.313,-76.2474 L 131.348,-76.368
 L 131.39,-76.4862 L 131.44,-76.6015 L 131.497,-76.7135 L 131.561,-76.8216 L 131.632,-76.9256 L 131.709,-77.0248
 L 131.792,-77.1191 L 131.881,-77.2079 L 131.975,-77.291 L 132.074,-77.368 L 132.178,-77.4386 L 132.286,-77.5026
 L 132.398,-77.5596 L 132.514,-77.6095 L 132.632,-77.6521 L 132.753,-77.6872 L 132.875,-77.7146 L 132.999,-77.7342
 L 133.124,-77.746 L 133.25,-77.75 L 133.376,-77.746 L 133.501,-77.7342 L 133.625,-77.7146 L 133.747,-77.6872
 L 133.868,-77.6521 L 133.986,-77.6095 L 134.102,-77.5596 L 134.214,-77.5026 L 134.322,-77.4386 L 134.426,-77.368
 L 134.525,-77.291 L 134.619,-77.2079 L 134.708,-77.1191 L 134.791,-77.0248 L 134.868,-76.9256 L 134.939,-76.8216
 L 135.003,-76.7135 L 135.06,-76.6015 L 135.11,-76.4862 L 135.152,-76.368 L 135.187,-76.2474 L 135.215,-76.1248
 L 135.234,-76.0007 L 135.246,-75.8756 L 135.25,-75.75 L 135.246,-75.6244 L 135.234,-75.4993 L 135.215,-75.3752
 L 135.187,-75.2526 L 135.152,-75.132 L 135.11,-75.0138 L 135.06,-74.8985 L 135.003,-74.7865 L 134.939,-74.6784
 L 134.868,-74.5744 L 134.791,-74.4752 L 134.708,-74.3809 L 134.619,-74.2921 L 134.525,-74.209 L 134.426,-74.132
 L 134.322,-74.0614 L 134.214,-73.9974 L 134.102,-73.9404 L 133.986,-73.8905 L 133.868,-73.8479 L 133.747,-73.8128
 L 133.625,-73.7854 L 133.501,-73.7658 L 133.376,-73.754 L 133.25,-73.75 z
M 93.1244,-73.754 L 92.9993,-73.7658 L 92.8752,-73.7854 L 92.7526,-73.8128 L 92.632,-73.8479 L 92.5138,-73.8905
 L 92.3985,-73.9404 L 92.2865,-73.9974 L 92.1784,-74.0614 L 92.0744,-74.132 L 91.9752,-74.209 L 91.8809,-74.2921
 L 91.7921,-74.3809 L 91.709,-74.4752 L 91.632,-74.5744 L 91.5614,-74.6784 L 91.4974,-74.7865 L 91.4404,-74.8985
 L 91.3905,-75.0138 L 91.3479,-75.132 L 91.3128,-75.2526 L 91.2854,-75.3752 L 91.2658,-75.4993 L 91.254,-75.6244
 L 91.25,-75.75 L 91.254,-75.8756 L 91.2658,-76.0007 L 91.2854,-76.1248 L 91.3128,-76.2474 L 91.3479,-76.368
 L 91.3905,-76.4862 L 91.4404,-76.6015 L 91.4974,-76.7135 L 91.5614,-76.8216 L 91.632,-76.9256 L 91.709,-77.0248
 L 91.7921,-77.1191 L 91.8809,-77.2079 L 91.9752,-77.291 L 92.0744,-77.368 L 92.1784,-77.4386 L 92.2865,-77.5026
 L 92.3985,-77.5596 L 92.5138,-77.6095 L 92.632,-77.6521 L 92.7526,-77.6872 L 92.8752,-77.7146 L 92.9993,-77.7342
 L 93.1244,-77.746 L 93.25,-77.75 L 93.3756,-77.746 L 93.5007,-77.7342 L 93.6248,-77.7146 L 93.7474,-77.6872
 L 93.868,-77.6521 L 93.9863,-77.6095 L 94.1016,-77.5596 L 94.2135,-77.5026 L 94.3217,-77.4386 L 94.4256,-77.368
 L 94.5249,-77.291 L 94.6191,-77.2079 L 94.7079,-77.1191 L 94.791,-77.0248 L 94.868,-76.9256 L 94.9387,-76.8216
 L 95.0026,-76.7135 L 95.0597,-76.6015 L 95.1096,-76.4862 L 95.1521,-76.368 L 95.1872,-76.2474 L 95.2146,-76.1248
 L 95.2342,-76.0007 L 95.2461,-75.8756 L 95.25,-75.75 L 95.2461,-75.6244 L 95.2342,-75.4993 L 95.2146,-75.3752
 L 95.1872,-75.2526 L 95.1521,-75.132 L 95.1096,-75.0138 L 95.0597,-74.8985 L 95.0026,-74.7865 L 94.9387,-74.6784
 L 94.868,-74.5744 L 94.791,-74.4752 L 94.7079,-74.3809 L 94.6191,-74.2921 L 94.5249,-74.209 L 94.4256,-74.132
 L 94.3217,-74.0614 L 94.2135,-73.9974 L 94.1016,-73.9404 L 93.9863,-73.8905 L 93.868,-73.8479 L 93.7474,-73.8128
 L 93.6248,-73.7854 L 93.5007,-73.7658 L 93.3756,-73.754 L 93.25,-73.75 z
M 17.3744,-15.5039 L 17.2493,-15.5158 L 17.1252,-15.5354 L 17.0026,-15.5628 L 16.882,-15.5979 L 16.7638,-15.6404
 L 16.6485,-15.6903 L 16.5365,-15.7474 L 16.4284,-15.8113 L 16.3244,-15.882 L 16.2252,-15.959 L 16.1309,-16.0421
 L 16.0421,-16.1309 L 15.959,-16.2251 L 15.882,-16.3244 L 15.8114,-16.4283 L 15.7474,-16.5365 L 15.6904,-16.6484
 L 15.6405,-16.7637 L 15.5979,-16.882 L 15.5628,-17.0026 L 15.5354,-17.1252 L 15.5158,-17.2493 L 15.504,-17.3744
 L 15.5,-17.5 L 15.504,-17.6256 L 15.5158,-17.7507 L 15.5354,-17.8748 L 15.5628,-17.9974 L 15.5979,-18.118
 L 15.6405,-18.2362 L 15.6904,-18.3515 L 15.7474,-18.4635 L 15.8114,-18.5716 L 15.882,-18.6756 L 15.959,-18.7748
 L 16.0421,-18.8691 L 16.1309,-18.9579 L 16.2252,-19.041 L 16.3244,-19.118 L 16.4284,-19.1886 L 16.5365,-19.2526
 L 16.6485,-19.3096 L 16.7638,-19.3595 L 16.882,-19.4021 L 17.0026,-19.4372 L 17.1252,-19.4646 L 17.2493,-19.4842
 L 17.3744,-19.496 L 17.5,-19.5 L 17.6256,-19.496 L 17.7507,-19.4842 L 17.8748,-19.4646 L 17.9974,-19.4372
 L 18.118,-19.4021 L 18.2362,-19.3595 L 18.3515,-19.3096 L 18.4635,-19.2526 L 18.5716,-19.1886 L 18.6756,-19.118
 L 18.7748,-19.041 L 18.8691,-18.9579 L 18.9579,-18.8691 L 19.041,-18.7748 L 19.118,-18.6756 L 19.1886,-18.5716
 L 19.2526,-18.4635 L 19.3096,-18.3515 L 19.3595,-18.2362 L 19.4021,-18.118 L 19.4372,-17.9974 L 19.4646,-17.8748
 L 19.4842,-17.7507 L 19.496,-17.6256 L 19.5,-17.5 L 19.496,-17.3744 L 19.4842,-17.2493 L 19.4646,-17.1252
 L 19.4372,-17.0026 L 19.4021,-16.882 L 19.3595,-16.7637 L 19.3096,-16.6484 L 19.2526,-16.5365 L 19.1886,-16.4283
 L 19.118,-16.3244 L 19.041,-16.2251 L 18.9579,-16.1309 L 18.8691,-16.0421 L 18.7748,-15.959 L 18.6756,-15.882
 L 18.5716,-15.8113 L 18.4635,-15.7474 L 18.3515,-15.6903 L 18.2362,-15.6404 L 18.118,-15.5979 L 17.9974,-15.5628
 L 17.8748,-15.5354 L 17.7507,-15.5158 L 17.6256,-15.5039 L 17.5,-15.5 z
M 179.874,-15.5039 L 179.749,-15.5158 L 179.625,-15.5354 L 179.503,-15.5628 L 179.382,-15.5979 L 179.264,-15.6404
 L 179.148,-15.6903 L 179.036,-15.7474 L 178.928,-15.8113 L 178.824,-15.882 L 178.725,-15.959 L 178.631,-16.0421
 L 178.542,-16.1309 L 178.459,-16.2251 L 178.382,-16.3244 L 178.311,-16.4283 L 178.247,-16.5365 L 178.19,-16.6484
 L 178.14,-16.7637 L 178.098,-16.882 L 178.063,-17.0026 L 178.035,-17.1252 L 178.016,-17.2493 L 178.004,-17.3744
 L 178,-17.5 L 178.004,-17.6256 L 178.016,-17.7507 L 178.035,-17.8748 L 178.063,-17.9974 L 178.098,-18.118
 L 178.14,-18.2362 L 178.19,-18.3515 L 178.247,-18.4635 L 178.311,-18.5716 L 178.382,-18.6756 L 178.459,-18.7748
 L 178.542,-18.8691 L 178.631,-18.9579 L 178.725,-19.041 L 178.824,-19.118 L 178.928,-19.1886 L 179.036,-19.2526
 L 179.148,-19.3096 L 179.264,-19.3595 L 179.382,-19.4021 L 179.503,-19.4372 L 179.625,-19.4646 L 179.749,-19.4842
 L 179.874,-19.496 L 180,-19.5 L 180.126,-19.496 L 180.251,-19.4842 L 180.375,-19.4646 L 180.497,-19.4372
 L 180.618,-19.4021 L 180.736,-19.3595 L 180.852,-19.3096 L 180.964,-19.2526 L 181.072,-19.1886 L 181.176,-19.118
 L 181.275,-19.041 L 181.369,-18.9579 L 181.458,-18.8691 L 181.541,-18.7748 L 181.618,-18.6756 L 181.689,-18.5716
 L 181.753,-18.4635 L 181.81,-18.3515 L 181.86,-18.2362 L 181.902,-18.118 L 181.937,-17.9974 L 181.965,-17.8748
 L 181.984,-17.7507 L 181.996,-17.6256 L 182,-17.5 L 181.996,-17.3744 L 181.984,-17.2493 L 181.965,-17.1252
 L 181.937,-17.0026 L 181.902,-16.882 L 181.86,-16.7637 L 181.81,-16.6484 L 181.753,-16.5365 L 181.689,-16.4283
 L 181.618,-16.3244 L 181.541,-16.2251 L 181.458,-16.1309 L 181.369,-16.0421 L 181.275,-15.959 L 181.176,-15.882
 L 181.072,-15.8113 L 180.964,-15.7474 L 180.852,-15.6903 L 180.736,-15.6404 L 180.618,-15.5979 L 180.497,-15.5628
 L 180.375,-15.5354 L 180.251,-15.5158 L 180.126,-15.5039 L 180,-15.5 z
M 342.374,-15.5039 L 342.249,-15.5158 L 342.125,-15.5354 L 342.003,-15.5628 L 341.882,-15.5979 L 341.764,-15.6404
 L 341.648,-15.6903 L 341.536,-15.7474 L 341.428,-15.8113 L 341.324,-15.882 L 341.225,-15.959 L 341.131,-16.0421
 L 341.042,-16.1309 L 340.959,-16.2251 L 340.882,-16.3244 L 340.811,-16.4283 L 340.747,-16.5365 L 340.69,-16.6484
 L 340.64,-16.7637 L 340.598,-16.882 L 340.563,-17.0026 L 340.535,-17.1252 L 340.516,-17.2493 L 340.504,-17.3744
 L 340.5,-17.5 L 340.504,-17.6256 L 340.516,-17.7507 L 340.535,-17.8748 L 340.563,-17.9974 L 340.598,-18.118
 L 340.64,-18.2362 L 340.69,-18.3515 L 340.747,-18.4635 L 340.811,-18.5716 L 340.882,-18.6756 L 340.959,-18.7748
 L 341.042,-18.8691 L 341.131,-18.9579 L 341.225,-19.041 L 341.324,-19.118 L 341.428,-19.1886 L 341.536,-19.2526
 L 341.648,-19.3096 L 341.764,-19.3595 L 341.882,-19.4021 L 342.003,-19.4372 L 342.125,-19.4646 L 342.249,-19.4842
 L 342.374,-19.496 L 342.5,-19.5 L 342.626,-19.496 L 342.751,-19.4842 L 342.875,-19.4646 L 342.997,-19.4372
 L 343.118,-19.4021 L 343.236,-19.3595 L 343.352,-19.3096 L 343.464,-19.2526 L 343.572,-19.1886 L 343.676,-19.118
 L 343.775,-19.041 L 343.869,-18.9579 L 343.958,-18.8691 L 344.041,-18.7748 L 344.118,-18.6756 L 344.189,-18.5716
 L 344.253,-18.4635 L 344.31,-18.3515 L 344.36,-18.2362 L 344.402,-18.118 L 344.437,-17.9974 L 344.465,-17.8748
 L 344.484,-17.7507 L 344.496,-17.6256 L 344.5,-17.5 L 344.496,-17.3744 L 344.484,-17.2493 L 344.465,-17.1252
 L 344.437,-17.0026 L 344.402,-16.882 L 344.36,-16.7637 L 344.31,-16.6484 L 344.253,-16.5365 L 344.189,-16.4283
 L 344.118,-16.3244 L 344.041,-16.2251 L 343.958,-16.1309 L 343.869,-16.0421 L 343.775,-15.959 L 343.676,-15.882
 L 343.572,-15.8113 L 343.464,-15.7474 L 343.352,-15.6903 L 343.236,-15.6404 L 343.118,-15.5979 L 342.997,-15.5628
 L 342.875,-15.5354 L 342.751,-15.5158 L 342.626,-15.5039 L 342.5,-15.5 z
" stroke="black" fill="lightgray" stroke-width="0.5"/>
</svg>
