<?xml version="1.0" standalone="no"?>
<!DOCTYPE svg PUBLIC "-//W3C//DTD SVG 1.1//EN" "http://www.w3.org/Graphics/SVG/1.1/DTD/svg11.dtd">
<svg width="362mm" height="72mm" viewBox="0 -72 362 72" xmlns="http://www.w3.org/2000/svg" version="1.1">
<title>OpenSCAD Model</title>
<path d="
M 0,-57.6 L 6,-57.6 L 6,-43.2 L 0,-43.2 L 0,-28.8 L 6,-28.8
 L 6,-14.4 L 0,-14.4 L 0,-0 L 362,-0 L 362,-14.4 L 356,-14.4
 L 356,-28.8 L 362,-28.8 L 362,-43.2 L 356,-43.2 L 356,-57.6 L 362,-57.6
 L 362,-72 L 0,-72 z
M 309.333,-57 L 309.333,-63 L 332.667,-63 L 332.667,-57 z
M 262.667,-57 L 262.667,-63 L 286,-63 L 286,-57 z
M 216,-57 L 216,-63 L 239.333,-63 L 239.333,-57 z
M 29.3333,-57 L 29.3333,-63 L 52.6667,-63 L 52.6667,-57 z
M 76,-57 L 76,-63 L 99.3333,-63 L 99.3333,-57 z
M 122.667,-57 L 122.667,-63 L 146,-63 L 146,-57 z
M 169.333,-57 L 169.333,-63 L 192.667,-63 L 192.667,-57 z
M 29.3333,-7 L 29.3333,-13 L 52.6667,-13 L 52.6667,-7 z
M 76,-7 L 76,-13 L 99.3333,-13 L 99.3333,-7 z
M 122.667,-7 L 122.667,-13 L 146,-13 L 146,-7 z
M 169.333,-7 L 169.333,-13 L 192.667,-13 L 192.667,-7 z
M 216,-7 L 216,-13 L 239.333,-13 L 239.333,-7 z
M 262.667,-7 L 262.667,-13 L 286,-13 L 286,-7 z
M 309.333,-7 L 309.333,-13 L 332.667,-13 L 332.667,-7 z
" stroke="black" fill="lightgray" stroke-width="0.5"/>
</svg>
