<?xml version="1.0" standalone="no"?>
<!DOCTYPE svg PUBLIC "-//W3C//DTD SVG 1.1//EN" "http://www.w3.org/Graphics/SVG/1.1/DTD/svg11.dtd">
<svg width="350mm" height="200mm" viewBox="0 -200 350 200" xmlns="http://www.w3.org/2000/svg" version="1.1">
<title>OpenSCAD Model</title>
<path d="
M 350,-200 L 0,-200 L 0,-0 L 350,-0 z
M 12.3744,-185.504 L 12.2493,-185.516 L 12.1252,-185.535 L 12.0026,-185.563 L 11.882,-185.598 L 11.7638,-185.64
 L 11.6485,-185.69 L 11.5365,-185.747 L 11.4284,-185.811 L 11.3244,-185.882 L 11.2252,-185.959 L 11.1309,-186.042
 L 11.0421,-186.131 L 10.959,-186.225 L 10.882,-186.324 L 10.8114,-186.428 L 10.7474,-186.536 L 10.6904,-186.648
 L 10.6405,-186.764 L 10.5979,-186.882 L 10.5628,-187.003 L 10.5354,-187.125 L 10.5158,-187.249 L 10.504,-187.374
 L 10.5,-187.5 L 10.504,-187.626 L 10.5158,-187.751 L 10.5354,-187.875 L 10.5628,-187.997 L 10.5979,-188.118
 L 10.6405,-188.236 L 10.6904,-188.352 L 10.7474,-188.464 L 10.8114,-188.572 L 10.882,-188.676 L 10.959,-188.775
 L 11.0421,-188.869 L 11.1309,-188.958 L 11.2252,-189.041 L 11.3244,-189.118 L 11.4284,-189.189 L 11.5365,-189.253
 L 11.6485,-189.31 L 11.7638,-189.36 L 11.882,-189.402 L 12.0026,-189.437 L 12.1252,-189.465 L 12.2493,-189.484
 L 12.3744,-189.496 L 12.5,-189.5 L 12.6256,-189.496 L 12.7507,-189.484 L 12.8748,-189.465 L 12.9974,-189.437
 L 13.118,-189.402 L 13.2362,-189.36 L 13.3515,-189.31 L 13.4635,-189.253 L 13.5716,-189.189 L 13.6756,-189.118
 L 13.7748,-189.041 L 13.8691,-188.958 L 13.9579,-188.869 L 14.041,-188.775 L 14.118,-188.676 L 14.1886,-188.572
 L 14.2526,-188.464 L 14.3096,-188.352 L 14.3595,-188.236 L 14.4021,-188.118 L 14.4372,-187.997 L 14.4646,-187.875
 L 14.4842,-187.751 L 14.496,-187.626 L 14.5,-187.5 L 14.496,-187.374 L 14.4842,-187.249 L 14.4646,-187.125
 L 14.4372,-187.003 L 14.4021,-186.882 L 14.3595,-186.764 L 14.3096,-186.648 L 14.2526,-186.536 L 14.1886,-186.428
 L 14.118,-186.324 L 14.041,-186.225 L 13.9579,-186.131 L 13.8691,-186.042 L 13.7748,-185.959 L 13.6756,-185.882
 L 13.5716,-185.811 L 13.4635,-185.747 L 13.3515,-185.69 L 13.2362,-185.64 L 13.118,-185.598 L 12.9974,-185.563
 L 12.8748,-185.535 L 12.7507,-185.516 L 12.6256,-185.504 L 12.5,-185.5 z
M 174.874,-185.504 L 174.749,-185.516 L 174.625,-185.535 L 174.503,-185.563 L 174.382,-185.598 L 174.264,-185.64
 L 174.148,-185.69 L 174.036,-185.747 L 173.928,-185.811 L 173.824,-185.882 L 173.725,-185.959 L 173.631,-186.042
 L 173.542,-186.131 L 173.459,-186.225 L 173.382,-186.324 L 173.311,-186.428 L 173.247,-186.536 L 173.19,-186.648
 L 173.14,-186.764 L 173.098,-186.882 L 173.063,-187.003 L 173.035,-187.125 L 173.016,-187.249 L 173.004,-187.374
 L 173,-187.5 L 173.004,-187.626 L 173.016,-187.751 L 173.035,-187.875 L 173.063,-187.997 L 173.098,-188.118
 L 173.14,-188.236 L 173.19,-188.352 L 173.247,-188.464 L 173.311,-188.572 L 173.382,-188.676 L 173.459,-188.775
 L 173.542,-188.869 L 173.631,-188.958 L 173.725,-189.041 L 173.824,-189.118 L 173.928,-189.189 L 174.036,-189.253
 L 174.148,-189.31 L 174.264,-189.36 L 174.382,-189.402 L 174.503,-189.437 L 174.625,-189.465 L 174.749,-189.484
 L 174.874,-189.496 L 175,-189.5 L 175.126,-189.496 L 175.251,-189.484 L 175.375,-189.465 L 175.497,-189.437
 L 175.618,-189.402 L 175.736,-189.36 L 175.852,-189.31 L 175.964,-189.253 L 176.072,-189.189 L 176.176,-189.118
 L 176.275,-189.041 L 176.369,-188.958 L 176.458,-188.869 L 176.541,-188.775 L 176.618,-188.676 L 176.689,-188.572
 L 176.753,-188.464 L 176.81,-188.352 L 176.86,-188.236 L 176.902,-188.118 L 176.937,-187.997 L 176.965,-187.875
 L 176.984,-187.751 L 176.996,-187.626 L 177,-187.5 L 176.996,-187.374 L 176.984,-187.249 L 176.965,-187.125
 L 176.937,-187.003 L 176.902,-186.882 L 176.86,-186.764 L 176.81,-186.648 L 176.753,-186.536 L 176.689,-186.428
 L 176.618,-186.324 L 176.541,-186.225 L 176.458,-186.131 L 176.369,-186.042 L 176.275,-185.959 L 176.176,-185.882
 L 176.072,-185.811 L 175.964,-185.747 L 175.852,-185.69 L 175.736,-185.64 L 175.618,-185.598 L 175.497,-185.563
 L 175.375,-185.535 L 175.251,-185.516 L 175.126,-185.504 L 175,-185.5 z
M 337.374,-185.504 L 337.249,-185.516 L 337.125,-185.535 L 337.003,-185.563 L 336.882,-185.598 L 336.764,-185.64
 L 336.648,-185.69 L 336.536,-185.747 L 336.428,-185.811 L 336.324,-185.882 L 336.225,-185.959 L 336.131,-186.042
 L 336.042,-186.131 L 335.959,-186.225 L 335.882,-186.324 L 335.811,-186.428 L 335.747,-186.536 L 335.69,-186.648
 L 335.64,-186.764 L 335.598,-186.882 L 335.563,-187.003 L 335.535,-187.125 L 335.516,-187.249 L 335.504,-187.374
 L 335.5,-187.5 L 335.504,-187.626 L 335.516,-187.751 L 335.535,-187.875 L 335.563,-187.997 L 335.598,-188.118
 L 335.64,-188.236 L 335.69,-188.352 L 335.747,-188.464 L 335.811,-188.572 L 335.882,-188.676 L 335.959,-188.775
 L 336.042,-188.869 L 336.131,-188.958 L 336.225,-189.041 L 336.324,-189.118 L 336.428,-189.189 L 336.536,-189.253
 L 336.648,-189.31 L 336.764,-189.36 L 336.882,-189.402 L 337.003,-189.437 L 337.125,-189.465 L 337.249,-189.484
 L 337.374,-189.496 L 337.5,-189.5 L 337.626,-189.496 L 337.751,-189.484 L 337.875,-189.465 L 337.997,-189.437
 L 338.118,-189.402 L 338.236,-189.36 L 338.352,-189.31 L 338.464,-189.253 L 338.572,-189.189 L 338.676,-189.118
 L 338.775,-189.041 L 338.869,-188.958 L 338.958,-188.869 L 339.041,-188.775 L 339.118,-188.676 L 339.189,-188.572
 L 339.253,-188.464 L 339.31,-188.352 L 339.36,-188.236 L 339.402,-188.118 L 339.437,-187.997 L 339.465,-187.875
 L 339.484,-187.751 L 339.496,-187.626 L 339.5,-187.5 L 339.496,-187.374 L 339.484,-187.249 L 339.465,-187.125
 L 339.437,-187.003 L 339.402,-186.882 L 339.36,-186.764 L 339.31,-186.648 L 339.253,-186.536 L 339.189,-186.428
 L 339.118,-186.324 L 339.041,-186.225 L 338.958,-186.131 L 338.869,-186.042 L 338.775,-185.959 L 338.676,-185.882
 L 338.572,-185.811 L 338.464,-185.747 L 338.352,-185.69 L 338.236,-185.64 L 338.118,-185.598 L 337.997,-185.563
 L 337.875,-185.535 L 337.751,-185.516 L 337.626,-185.504 L 337.5,-185.5 z
M 200.808,-136.03 L 199.87,-136.118 L 198.939,-136.266 L 198.02,-136.471 L 197.115,-136.734 L 196.228,-137.053
 L 195.363,-137.428 L 194.524,-137.855 L 193.713,-138.335 L 192.933,-138.865 L 192.189,-139.442 L 191.482,-140.065
 L 190.815,-140.732 L 190.192,-141.439 L 189.615,-142.183 L 189.085,-142.963 L 188.605,-143.774 L 188.178,-144.613
 L 187.803,-145.478 L 187.484,-146.365 L 187.221,-147.27 L 187.016,-148.189 L 186.868,-149.12 L 186.78,-150.058
 L 186.75,-151 L 186.78,-151.942 L 186.868,-152.88 L 187.016,-153.811 L 187.221,-154.73 L 187.484,-155.635
 L 187.803,-156.522 L 188.178,-157.387 L 188.605,-158.226 L 189.085,-159.037 L 189.615,-159.817 L 190.192,-160.561
 L 190.815,-161.268 L 191.482,-161.935 L 192.189,-162.558 L 192.933,-163.135 L 193.713,-163.665 L 194.524,-164.145
 L 195.363,-164.572 L 196.228,-164.947 L 197.115,-165.266 L 198.02,-165.529 L 198.939,-165.734 L 199.87,-165.882
 L 200.808,-165.97 L 201.75,-166 L 202.692,-165.97 L 203.63,-165.882 L 204.561,-165.734 L 205.48,-165.529
 L 206.385,-165.266 L 207.272,-164.947 L 208.137,-164.572 L 208.976,-164.145 L 209.787,-163.665 L 210.567,-163.135
 L 211.311,-162.558 L 212.018,-161.935 L 212.685,-161.268 L 213.308,-160.561 L 213.885,-159.817 L 214.415,-159.037
 L 214.895,-158.226 L 215.322,-157.387 L 215.697,-156.522 L 216.016,-155.635 L 216.279,-154.73 L 216.484,-153.811
 L 216.632,-152.88 L 216.72,-151.942 L 216.75,-151 L 216.72,-150.058 L 216.632,-149.12 L 216.484,-148.189
 L 216.279,-147.27 L 216.016,-146.365 L 215.697,-145.478 L 215.322,-144.613 L 214.895,-143.774 L 214.415,-142.963
 L 213.885,-142.183 L 213.308,-141.439 L 212.685,-140.732 L 212.018,-140.065 L 211.311,-139.442 L 210.567,-138.865
 L 209.787,-138.335 L 208.976,-137.855 L 208.137,-137.428 L 207.272,-137.053 L 206.385,-136.734 L 205.48,-136.471
 L 204.561,-136.266 L 203.63,-136.118 L 202.692,-136.03 L 201.75,-136 z
M 236.808,-136.03 L 235.87,-136.118 L 234.939,-136.266 L 234.02,-136.471 L 233.115,-136.734 L 232.228,-137.053
 L 231.363,-137.428 L 230.524,-137.855 L 229.713,-138.335 L 228.933,-138.865 L 228.189,-139.442 L 227.482,-140.065
 L 226.815,-140.732 L 226.192,-141.439 L 225.615,-142.183 L 225.085,-142.963 L 224.605,-143.774 L 224.178,-144.613
 L 223.803,-145.478 L 223.484,-146.365 L 223.221,-147.27 L 223.016,-148.189 L 222.868,-149.12 L 222.78,-150.058
 L 222.75,-151 L 222.78,-151.942 L 222.868,-152.88 L 223.016,-153.811 L 223.221,-154.73 L 223.484,-155.635
 L 223.803,-156.522 L 224.178,-157.387 L 224.605,-158.226 L 225.085,-159.037 L 225.615,-159.817 L 226.192,-160.561
 L 226.815,-161.268 L 227.482,-161.935 L 228.189,-162.558 L 228.933,-163.135 L 229.713,-163.665 L 230.524,-164.145
 L 231.363,-164.572 L 232.228,-164.947 L 233.115,-165.266 L 234.02,-165.529 L 234.939,-165.734 L 235.87,-165.882
 L 236.808,-165.97 L 237.75,-166 L 238.692,-165.97 L 239.63,-165.882 L 240.561,-165.734 L 241.48,-165.529
 L 242.385,-165.266 L 243.272,-164.947 L 244.137,-164.572 L 244.976,-164.145 L 245.787,-163.665 L 246.567,-163.135
 L 247.311,-162.558 L 248.018,-161.935 L 248.685,-161.268 L 249.308,-160.561 L 249.885,-159.817 L 250.415,-159.037
 L 250.895,-158.226 L 251.322,-157.387 L 251.697,-156.522 L 252.016,-155.635 L 252.279,-154.73 L 252.484,-153.811
 L 252.632,-152.88 L 252.72,-151.942 L 252.75,-151 L 252.72,-150.058 L 252.632,-149.12 L 252.484,-148.189
 L 252.279,-147.27 L 252.016,-146.365 L 251.697,-145.478 L 251.322,-144.613 L 250.895,-143.774 L 250.415,-142.963
 L 249.885,-142.183 L 249.308,-141.439 L 248.685,-140.732 L 248.018,-140.065 L 247.311,-139.442 L 246.567,-138.865
 L 245.787,-138.335 L 244.976,-137.855 L 244.137,-137.428 L 243.272,-137.053 L 242.385,-136.734 L 241.48,-136.471
 L 240.561,-136.266 L 239.63,-136.118 L 238.692,-136.03 L 237.75,-136 z
M 272.808,-127.03 L 271.87,-127.118 L 270.939,-127.266 L 270.02,-127.471 L 269.115,-127.734 L 268.228,-128.053
 L 267.363,-128.428 L 266.524,-128.855 L 265.713,-129.335 L 264.933,-129.865 L 264.189,-130.442 L 263.482,-131.065
 L 262.815,-131.732 L 262.192,-132.439 L 261.615,-133.183 L 261.085,-133.963 L 260.605,-134.774 L 260.178,-135.613
 L 259.803,-136.478 L 259.484,-137.365 L 259.221,-138.27 L 259.016,-139.189 L 258.868,-140.12 L 258.78,-141.058
 L 258.75,-142 L 258.78,-142.942 L 258.868,-143.88 L 259.016,-144.811 L 259.221,-145.73 L 259.484,-146.635
 L 259.803,-147.522 L 260.178,-148.387 L 260.605,-149.226 L 261.085,-150.037 L 261.615,-150.817 L 262.192,-151.561
 L 262.815,-152.268 L 263.482,-152.935 L 264.189,-153.558 L 264.933,-154.135 L 265.713,-154.665 L 266.524,-155.145
 L 267.363,-155.572 L 268.228,-155.947 L 269.115,-156.266 L 270.02,-156.529 L 270.939,-156.734 L 271.87,-156.882
 L 272.808,-156.97 L 273.75,-157 L 274.692,-156.97 L 275.63,-156.882 L 276.561,-156.734 L 277.48,-156.529
 L 278.385,-156.266 L 279.272,-155.947 L 280.137,-155.572 L 280.976,-155.145 L 281.787,-154.665 L 282.567,-154.135
 L 283.311,-153.558 L 284.018,-152.935 L 284.685,-152.268 L 285.308,-151.561 L 285.885,-150.817 L 286.415,-150.037
 L 286.895,-149.226 L 287.322,-148.387 L 287.697,-147.522 L 288.016,-146.635 L 288.279,-145.73 L 288.484,-144.811
 L 288.632,-143.88 L 288.72,-142.942 L 288.75,-142 L 288.72,-141.058 L 288.632,-140.12 L 288.484,-139.189
 L 288.279,-138.27 L 288.016,-137.365 L 287.697,-136.478 L 287.322,-135.613 L 286.895,-134.774 L 286.415,-133.963
 L 285.885,-133.183 L 285.308,-132.439 L 284.685,-131.732 L 284.018,-131.065 L 283.311,-130.442 L 282.567,-129.865
 L 281.787,-129.335 L 280.976,-128.855 L 280.137,-128.428 L 279.272,-128.053 L 278.385,-127.734 L 277.48,-127.471
 L 276.561,-127.266 L 275.63,-127.118 L 274.692,-127.03 L 273.75,-127 z
M 170.308,-116.03 L 169.37,-116.118 L 168.439,-116.266 L 167.52,-116.471 L 166.615,-116.734 L 165.728,-117.053
 L 164.863,-117.428 L 164.024,-117.855 L 163.213,-118.335 L 162.433,-118.865 L 161.689,-119.442 L 160.982,-120.065
 L 160.315,-120.732 L 159.692,-121.439 L 159.115,-122.183 L 158.585,-122.963 L 158.105,-123.774 L 157.678,-124.613
 L 157.303,-125.478 L 156.984,-126.365 L 156.721,-127.27 L 156.516,-128.189 L 156.368,-129.12 L 156.28,-130.058
 L 156.25,-131 L 156.28,-131.942 L 156.368,-132.88 L 156.516,-133.811 L 156.721,-134.73 L 156.984,-135.635
 L 157.303,-136.522 L 157.678,-137.387 L 158.105,-138.226 L 158.585,-139.037 L 159.115,-139.817 L 159.692,-140.561
 L 160.315,-141.268 L 160.982,-141.935 L 161.689,-142.558 L 162.433,-143.135 L 163.213,-143.665 L 164.024,-144.145
 L 164.863,-144.572 L 165.728,-144.947 L 166.615,-145.266 L 167.52,-145.529 L 168.439,-145.734 L 169.37,-145.882
 L 170.308,-145.97 L 171.25,-146 L 172.192,-145.97 L 173.13,-145.882 L 174.061,-145.734 L 174.98,-145.529
 L 175.885,-145.266 L 176.772,-144.947 L 177.637,-144.572 L 178.476,-144.145 L 179.287,-143.665 L 180.067,-143.135
 L 180.811,-142.558 L 181.518,-141.935 L 182.185,-141.268 L 182.808,-140.561 L 183.385,-139.817 L 183.915,-139.037
 L 184.395,-138.226 L 184.822,-137.387 L 185.197,-136.522 L 185.516,-135.635 L 185.779,-134.73 L 185.984,-133.811
 L 186.132,-132.88 L 186.22,-131.942 L 186.25,-131 L 186.22,-130.058 L 186.132,-129.12 L 185.984,-128.189
 L 185.779,-127.27 L 185.516,-126.365 L 185.197,-125.478 L 184.822,-124.613 L 184.395,-123.774 L 183.915,-122.963
 L 183.385,-122.183 L 182.808,-121.439 L 182.185,-120.732 L 181.518,-120.065 L 180.811,-119.442 L 180.067,-118.865
 L 179.287,-118.335 L 178.476,-117.855 L 177.637,-117.428 L 176.772,-117.053 L 175.885,-116.734 L 174.98,-116.471
 L 174.061,-116.266 L 173.13,-116.118 L 172.192,-116.03 L 171.25,-116 z
M 201.279,-97.0074 L 200.338,-97.0666 L 199.403,-97.1847 L 198.478,-97.3613 L 197.565,-97.5956 L 196.669,-97.8868
 L 195.793,-98.2337 L 194.94,-98.6349 L 194.114,-99.0889 L 193.319,-99.5938 L 192.556,-100.148 L 191.83,-100.748
 L 191.143,-101.393 L 190.498,-102.08 L 189.898,-102.806 L 189.344,-103.569 L 188.839,-104.364 L 188.385,-105.19
 L 187.984,-106.043 L 187.637,-106.919 L 187.346,-107.815 L 187.111,-108.728 L 186.935,-109.653 L 186.817,-110.588
 L 186.757,-111.529 L 186.757,-112.471 L 186.817,-113.412 L 186.935,-114.347 L 187.111,-115.272 L 187.346,-116.185
 L 187.637,-117.081 L 187.984,-117.957 L 188.385,-118.81 L 188.839,-119.636 L 189.344,-120.431 L 189.898,-121.194
 L 190.498,-121.92 L 191.143,-122.607 L 191.83,-123.252 L 192.556,-123.852 L 193.319,-124.406 L 194.114,-124.911
 L 194.94,-125.365 L 195.793,-125.766 L 196.669,-126.113 L 197.565,-126.404 L 198.478,-126.639 L 199.403,-126.815
 L 200.338,-126.933 L 201.279,-126.993 L 202.221,-126.993 L 203.162,-126.933 L 204.097,-126.815 L 205.022,-126.639
 L 205.935,-126.404 L 206.831,-126.113 L 207.707,-125.766 L 208.56,-125.365 L 209.386,-124.911 L 210.181,-124.406
 L 210.944,-123.852 L 211.67,-123.252 L 212.357,-122.607 L 213.002,-121.92 L 213.602,-121.194 L 214.156,-120.431
 L 214.661,-119.636 L 215.115,-118.81 L 215.516,-117.957 L 215.863,-117.081 L 216.154,-116.185 L 216.389,-115.272
 L 216.565,-114.347 L 216.683,-113.412 L 216.743,-112.471 L 216.743,-111.529 L 216.683,-110.588 L 216.565,-109.653
 L 216.389,-108.728 L 216.154,-107.815 L 215.863,-106.919 L 215.516,-106.043 L 215.115,-105.19 L 214.661,-104.364
 L 214.156,-103.569 L 213.602,-102.806 L 213.002,-102.08 L 212.357,-101.393 L 211.67,-100.748 L 210.944,-100.148
 L 210.181,-99.5938 L 209.386,-99.0889 L 208.56,-98.6349 L 207.707,-98.2337 L 206.831,-97.8868 L 205.935,-97.5956
 L 205.022,-97.3613 L 204.097,-97.1847 L 203.162,-97.0666 L 202.221,-97.0074 z
M 237.279,-97.0074 L 236.338,-97.0666 L 235.403,-97.1847 L 234.478,-97.3613 L 233.565,-97.5956 L 232.669,-97.8868
 L 231.793,-98.2337 L 230.94,-98.6349 L 230.114,-99.0889 L 229.319,-99.5938 L 228.556,-100.148 L 227.83,-100.748
 L 227.143,-101.393 L 226.498,-102.08 L 225.898,-102.806 L 225.344,-103.569 L 224.839,-104.364 L 224.385,-105.19
 L 223.984,-106.043 L 223.637,-106.919 L 223.346,-107.815 L 223.111,-108.728 L 222.935,-109.653 L 222.817,-110.588
 L 222.757,-111.529 L 222.757,-112.471 L 222.817,-113.412 L 222.935,-114.347 L 223.111,-115.272 L 223.346,-116.185
 L 223.637,-117.081 L 223.984,-117.957 L 224.385,-118.81 L 224.839,-119.636 L 225.344,-120.431 L 225.898,-121.194
 L 226.498,-121.92 L 227.143,-122.607 L 227.83,-123.252 L 228.556,-123.852 L 229.319,-124.406 L 230.114,-124.911
 L 230.94,-125.365 L 231.793,-125.766 L 232.669,-126.113 L 233.565,-126.404 L 234.478,-126.639 L 235.403,-126.815
 L 236.338,-126.933 L 237.279,-126.993 L 238.221,-126.993 L 239.162,-126.933 L 240.097,-126.815 L 241.022,-126.639
 L 241.935,-126.404 L 242.831,-126.113 L 243.707,-125.766 L 244.56,-125.365 L 245.386,-124.911 L 246.181,-124.406
 L 246.944,-123.852 L 247.67,-123.252 L 248.357,-122.607 L 249.002,-121.92 L 249.602,-121.194 L 250.156,-120.431
 L 250.661,-119.636 L 251.115,-118.81 L 251.516,-117.957 L 251.863,-117.081 L 252.154,-116.185 L 252.389,-115.272
 L 252.565,-114.347 L 252.683,-113.412 L 252.743,-112.471 L 252.743,-111.529 L 252.683,-110.588 L 252.565,-109.653
 L 252.389,-108.728 L 252.154,-107.815 L 251.863,-106.919 L 251.516,-106.043 L 251.115,-105.19 L 250.661,-104.364
 L 250.156,-103.569 L 249.602,-102.806 L 249.002,-102.08 L 248.357,-101.393 L 247.67,-100.748 L 246.944,-100.148
 L 246.181,-99.5938 L 245.386,-99.0889 L 244.56,-98.6349 L 243.707,-98.2337 L 242.831,-97.8868 L 241.935,-97.5956
 L 241.022,-97.3613 L 240.097,-97.1847 L 239.162,-97.0666 L 238.221,-97.0074 z
M 107.497,-100.024 L 106.746,-100.095 L 106.001,-100.213 L 105.266,-100.377 L 104.542,-100.587 L 103.833,-100.843
 L 103.141,-101.142 L 102.469,-101.484 L 101.82,-101.868 L 101.197,-102.292 L 100.601,-102.754 L 100.035,-103.252
 L 99.5024,-103.785 L 99.0038,-104.351 L 98.5418,-104.947 L 98.1181,-105.57 L 97.7343,-106.219 L 97.3921,-106.891
 L 97.0927,-107.583 L 96.8373,-108.292 L 96.627,-109.016 L 96.4626,-109.751 L 96.3446,-110.496 L 96.2737,-111.247
 L 96.25,-112 L 96.2737,-112.753 L 96.3446,-113.504 L 96.4626,-114.249 L 96.627,-114.984 L 96.8373,-115.708
 L 97.0927,-116.417 L 97.3921,-117.109 L 97.7343,-117.781 L 98.1181,-118.43 L 98.5418,-119.053 L 99.0038,-119.649
 L 99.5024,-120.215 L 100.035,-120.748 L 100.601,-121.246 L 101.197,-121.708 L 101.82,-122.132 L 102.469,-122.516
 L 103.141,-122.858 L 103.833,-123.157 L 104.542,-123.413 L 105.266,-123.623 L 106.001,-123.787 L 106.746,-123.905
 L 107.497,-123.976 L 108.25,-124 L 109.003,-123.976 L 109.754,-123.905 L 110.499,-123.787 L 111.234,-123.623
 L 111.958,-123.413 L 112.667,-123.157 L 113.359,-122.858 L 114.031,-122.516 L 114.68,-122.132 L 115.303,-121.708
 L 115.899,-121.246 L 116.465,-120.748 L 116.998,-120.215 L 117.496,-119.649 L 117.958,-119.053 L 118.382,-118.43
 L 118.766,-117.781 L 119.108,-117.109 L 119.407,-116.417 L 119.663,-115.708 L 119.873,-114.984 L 120.037,-114.249
 L 120.155,-113.504 L 120.226,-112.753 L 120.25,-112 L 120.226,-111.247 L 120.155,-110.496 L 120.037,-109.751
 L 119.873,-109.016 L 119.663,-108.292 L 119.407,-107.583 L 119.108,-106.891 L 118.766,-106.219 L 118.382,-105.57
 L 117.958,-104.947 L 117.496,-104.351 L 116.998,-103.785 L 116.465,-103.252 L 115.899,-102.754 L 115.303,-102.292
 L 114.68,-101.868 L 114.031,-101.484 L 113.359,-101.142 L 112.667,-100.843 L 111.958,-100.587 L 111.234,-100.377
 L 110.499,-100.213 L 109.754,-100.095 L 109.003,-100.024 L 108.25,-100 z
M 273.279,-88.0074 L 272.338,-88.0666 L 271.403,-88.1847 L 270.478,-88.3613 L 269.565,-88.5956 L 268.669,-88.8868
 L 267.793,-89.2337 L 266.94,-89.6349 L 266.114,-90.0889 L 265.319,-90.5938 L 264.556,-91.1477 L 263.83,-91.7483
 L 263.143,-92.3934 L 262.498,-93.0803 L 261.898,-93.8064 L 261.344,-94.5688 L 260.839,-95.3644 L 260.385,-96.1902
 L 259.984,-97.0428 L 259.637,-97.9189 L 259.346,-98.8151 L 259.111,-99.7279 L 258.935,-100.653 L 258.817,-101.588
 L 258.757,-102.529 L 258.757,-103.471 L 258.817,-104.412 L 258.935,-105.347 L 259.111,-106.272 L 259.346,-107.185
 L 259.637,-108.081 L 259.984,-108.957 L 260.385,-109.81 L 260.839,-110.636 L 261.344,-111.431 L 261.898,-112.194
 L 262.498,-112.92 L 263.143,-113.607 L 263.83,-114.252 L 264.556,-114.852 L 265.319,-115.406 L 266.114,-115.911
 L 266.94,-116.365 L 267.793,-116.766 L 268.669,-117.113 L 269.565,-117.404 L 270.478,-117.639 L 271.403,-117.815
 L 272.338,-117.933 L 273.279,-117.993 L 274.221,-117.993 L 275.162,-117.933 L 276.097,-117.815 L 277.022,-117.639
 L 277.935,-117.404 L 278.831,-117.113 L 279.707,-116.766 L 280.56,-116.365 L 281.386,-115.911 L 282.181,-115.406
 L 282.944,-114.852 L 283.67,-114.252 L 284.357,-113.607 L 285.002,-112.92 L 285.602,-112.194 L 286.156,-111.431
 L 286.661,-110.636 L 287.115,-109.81 L 287.516,-108.957 L 287.863,-108.081 L 288.154,-107.185 L 288.389,-106.272
 L 288.565,-105.347 L 288.683,-104.412 L 288.743,-103.471 L 288.743,-102.529 L 288.683,-101.588 L 288.565,-100.653
 L 288.389,-99.7279 L 288.154,-98.8151 L 287.863,-97.9189 L 287.516,-97.0428 L 287.115,-96.1902 L 286.661,-95.3644
 L 286.156,-94.5688 L 285.602,-93.8064 L 285.002,-93.0803 L 284.357,-92.3934 L 283.67,-91.7483 L 282.944,-91.1477
 L 282.181,-90.5938 L 281.386,-90.0889 L 280.56,-89.6349 L 279.707,-89.2337 L 278.831,-88.8868 L 277.935,-88.5956
 L 277.022,-88.3613 L 276.097,-88.1847 L 275.162,-88.0666 L 274.221,-88.0074 z
M 170.779,-77.0074 L 169.838,-77.0666 L 168.903,-77.1847 L 167.978,-77.3613 L 167.065,-77.5956 L 166.169,-77.8868
 L 165.293,-78.2337 L 164.44,-78.6349 L 163.614,-79.0889 L 162.819,-79.5938 L 162.056,-80.1477 L 161.33,-80.7483
 L 160.643,-81.3934 L 159.998,-82.0803 L 159.398,-82.8064 L 158.844,-83.5688 L 158.339,-84.3644 L 157.885,-85.1902
 L 157.484,-86.0428 L 157.137,-86.9189 L 156.846,-87.8151 L 156.611,-88.7279 L 156.435,-89.6535 L 156.317,-90.5884
 L 156.257,-91.5288 L 156.257,-92.4712 L 156.317,-93.4116 L 156.435,-94.3465 L 156.611,-95.2721 L 156.846,-96.1849
 L 157.137,-97.0811 L 157.484,-97.9572 L 157.885,-98.8098 L 158.339,-99.6356 L 158.844,-100.431 L 159.398,-101.194
 L 159.998,-101.92 L 160.643,-102.607 L 161.33,-103.252 L 162.056,-103.852 L 162.819,-104.406 L 163.614,-104.911
 L 164.44,-105.365 L 165.293,-105.766 L 166.169,-106.113 L 167.065,-106.404 L 167.978,-106.639 L 168.903,-106.815
 L 169.838,-106.933 L 170.779,-106.993 L 171.721,-106.993 L 172.662,-106.933 L 173.597,-106.815 L 174.522,-106.639
 L 175.435,-106.404 L 176.331,-106.113 L 177.207,-105.766 L 178.06,-105.365 L 178.886,-104.911 L 179.681,-104.406
 L 180.444,-103.852 L 181.17,-103.252 L 181.857,-102.607 L 182.502,-101.92 L 183.102,-101.194 L 183.656,-100.431
 L 184.161,-99.6356 L 184.615,-98.8098 L 185.016,-97.9572 L 185.363,-97.0811 L 185.654,-96.1849 L 185.889,-95.2721
 L 186.065,-94.3465 L 186.183,-93.4116 L 186.243,-92.4712 L 186.243,-91.5288 L 186.183,-90.5884 L 186.065,-89.6535
 L 185.889,-88.7279 L 185.654,-87.8151 L 185.363,-86.9189 L 185.016,-86.0428 L 184.615,-85.1902 L 184.161,-84.3644
 L 183.656,-83.5688 L 183.102,-82.8064 L 182.502,-82.0803 L 181.857,-81.3934 L 181.17,-80.7483 L 180.444,-80.1477
 L 179.681,-79.5938 L 178.886,-79.0889 L 178.06,-78.6349 L 177.207,-78.2337 L 176.331,-77.8868 L 175.435,-77.5956
 L 174.522,-77.3613 L 173.597,-77.1847 L 172.662,-77.0666 L 171.721,-77.0074 z
M 337.374,-98.0039 L 337.249,-98.0158 L 337.125,-98.0354 L 337.003,-98.0628 L 336.882,-98.0979 L 336.764,-98.1404
 L 336.648,-98.1903 L 336.536,-98.2474 L 336.428,-98.3113 L 336.324,-98.382 L 336.225,-98.459 L 336.131,-98.5421
 L 336.042,-98.6309 L 335.959,-98.7251 L 335.882,-98.8244 L 335.811,-98.9283 L 335.747,-99.0365 L 335.69,-99.1484
 L 335.64,-99.2637 L 335.598,-99.382 L 335.563,-99.5026 L 335.535,-99.6252 L 335.516,-99.7493 L 335.504,-99.8744
 L 335.5,-100 L 335.504,-100.126 L 335.516,-100.251 L 335.535,-100.375 L 335.563,-100.497 L 335.598,-100.618
 L 335.64,-100.736 L 335.69,-100.852 L 335.747,-100.964 L 335.811,-101.072 L 335.882,-101.176 L 335.959,-101.275
 L 336.042,-101.369 L 336.131,-101.458 L 336.225,-101.541 L 336.324,-101.618 L 336.428,-101.689 L 336.536,-101.753
 L 336.648,-101.81 L 336.764,-101.86 L 336.882,-101.902 L 337.003,-101.937 L 337.125,-101.965 L 337.249,-101.984
 L 337.374,-101.996 L 337.5,-102 L 337.626,-101.996 L 337.751,-101.984 L 337.875,-101.965 L 337.997,-101.937
 L 338.118,-101.902 L 338.236,-101.86 L 338.352,-101.81 L 338.464,-101.753 L 338.572,-101.689 L 338.676,-101.618
 L 338.775,-101.541 L 338.869,-101.458 L 338.958,-101.369 L 339.041,-101.275 L 339.118,-101.176 L 339.189,-101.072
 L 339.253,-100.964 L 339.31,-100.852 L 339.36,-100.736 L 339.402,-100.618 L 339.437,-100.497 L 339.465,-100.375
 L 339.484,-100.251 L 339.496,-100.126 L 339.5,-100 L 339.496,-99.8744 L 339.484,-99.7493 L 339.465,-99.6252
 L 339.437,-99.5026 L 339.402,-99.382 L 339.36,-99.2637 L 339.31,-99.1484 L 339.253,-99.0365 L 339.189,-98.9283
 L 339.118,-98.8244 L 339.041,-98.7251 L 338.958,-98.6309 L 338.869,-98.5421 L 338.775,-98.459 L 338.676,-98.382
 L 338.572,-98.3113 L 338.464,-98.2474 L 338.352,-98.1903 L 338.236,-98.1404 L 338.118,-98.0979 L 337.997,-98.0628
 L 337.875,-98.0354 L 337.751,-98.0158 L 337.626,-98.0039 L 337.5,-98 z
M 12.3744,-98.0039 L 12.2493,-98.0158 L 12.1252,-98.0354 L 12.0026,-98.0628 L 11.882,-98.0979 L 11.7638,-98.1404
 L 11.6485,-98.1903 L 11.5365,-98.2474 L 11.4284,-98.3113 L 11.3244,-98.382 L 11.2252,-98.459 L 11.1309,-98.5421
 L 11.0421,-98.6309 L 10.959,-98.7251 L 10.882,-98.8244 L 10.8114,-98.9283 L 10.7474,-99.0365 L 10.6904,-99.1484
 L 10.6405,-99.2637 L 10.5979,-99.382 L 10.5628,-99.5026 L 10.5354,-99.6252 L 10.5158,-99.7493 L 10.504,-99.8744
 L 10.5,-100 L 10.504,-100.126 L 10.5158,-100.251 L 10.5354,-100.375 L 10.5628,-100.497 L 10.5979,-100.618
 L 10.6405,-100.736 L 10.6904,-100.852 L 10.7474,-100.964 L 10.8114,-101.072 L 10.882,-101.176 L 10.959,-101.275
 L 11.0421,-101.369 L 11.1309,-101.458 L 11.2252,-101.541 L 11.3244,-101.618 L 11.4284,-101.689 L 11.5365,-101.753
 L 11.6485,-101.81 L 11.7638,-101.86 L 11.882,-101.902 L 12.0026,-101.937 L 12.1252,-101.965 L 12.2493,-101.984
 L 12.3744,-101.996 L 12.5,-102 L 12.6256,-101.996 L 12.7507,-101.984 L 12.8748,-101.965 L 12.9974,-101.937
 L 13.118,-101.902 L 13.2362,-101.86 L 13.3515,-101.81 L 13.4635,-101.753 L 13.5716,-101.689 L 13.6756,-101.618
 L 13.7748,-101.541 L 13.8691,-101.458 L 13.9579,-101.369 L 14.041,-101.275 L 14.118,-101.176 L 14.1886,-101.072
 L 14.2526,-100.964 L 14.3096,-100.852 L 14.3595,-100.736 L 14.4021,-100.618 L 14.4372,-100.497 L 14.4646,-100.375
 L 14.4842,-100.251 L 14.496,-100.126 L 14.5,-100 L 14.496,-99.8744 L 14.4842,-99.7493 L 14.4646,-99.6252
 L 14.4372,-99.5026 L 14.4021,-99.382 L 14.3595,-99.2637 L 14.3096,-99.1484 L 14.2526,-99.0365 L 14.1886,-98.9283
 L 14.118,-98.8244 L 14.041,-98.7251 L 13.9579,-98.6309 L 13.8691,-98.5421 L 13.7748,-98.459 L 13.6756,-98.382
 L 13.5716,-98.3113 L 13.4635,-98.2474 L 13.3515,-98.1903 L 13.2362,-98.1404 L 13.118,-98.0979 L 12.9974,-98.0628
 L 12.8748,-98.0354 L 12.7507,-98.0158 L 12.6256,-98.0039 L 12.5,-98 z
M 12.3744,-10.5039 L 12.2493,-10.5158 L 12.1252,-10.5354 L 12.0026,-10.5628 L 11.882,-10.5979 L 11.7638,-10.6404
 L 11.6485,-10.6903 L 11.5365,-10.7474 L 11.4284,-10.8113 L 11.3244,-10.882 L 11.2252,-10.959 L 11.1309,-11.0421
 L 11.0421,-11.1309 L 10.959,-11.2251 L 10.882,-11.3244 L 10.8114,-11.4283 L 10.7474,-11.5365 L 10.6904,-11.6484
 L 10.6405,-11.7637 L 10.5979,-11.882 L 10.5628,-12.0026 L 10.5354,-12.1252 L 10.5158,-12.2493 L 10.504,-12.3744
 L 10.5,-12.5 L 10.504,-12.6256 L 10.5158,-12.7507 L 10.5354,-12.8748 L 10.5628,-12.9974 L 10.5979,-13.118
 L 10.6405,-13.2362 L 10.6904,-13.3515 L 10.7474,-13.4635 L 10.8114,-13.5716 L 10.882,-13.6756 L 10.959,-13.7748
 L 11.0421,-13.8691 L 11.1309,-13.9579 L 11.2252,-14.041 L 11.3244,-14.118 L 11.4284,-14.1886 L 11.5365,-14.2526
 L 11.6485,-14.3096 L 11.7638,-14.3595 L 11.882,-14.4021 L 12.0026,-14.4372 L 12.1252,-14.4646 L 12.2493,-14.4842
 L 12.3744,-14.496 L 12.5,-14.5 L 12.6256,-14.496 L 12.7507,-14.4842 L 12.8748,-14.4646 L 12.9974,-14.4372
 L 13.118,-14.4021 L 13.2362,-14.3595 L 13.3515,-14.3096 L 13.4635,-14.2526 L 13.5716,-14.1886 L 13.6756,-14.118
 L 13.7748,-14.041 L 13.8691,-13.9579 L 13.9579,-13.8691 L 14.041,-13.7748 L 14.118,-13.6756 L 14.1886,-13.5716
 L 14.2526,-13.4635 L 14.3096,-13.3515 L 14.3595,-13.2362 L 14.4021,-13.118 L 14.4372,-12.9974 L 14.4646,-12.8748
 L 14.4842,-12.7507 L 14.496,-12.6256 L 14.5,-12.5 L 14.496,-12.3744 L 14.4842,-12.2493 L 14.4646,-12.1252
 L 14.4372,-12.0026 L 14.4021,-11.882 L 14.3595,-11.7637 L 14.3096,-11.6484 L 14.2526,-11.5365 L 14.1886,-11.4283
 L 14.118,-11.3244 L 14.041,-11.2251 L 13.9579,-11.1309 L 13.8691,-11.0421 L 13.7748,-10.959 L 13.6756,-10.882
 L 13.5716,-10.8113 L 13.4635,-10.7474 L 13.3515,-10.6903 L 13.2362,-10.6404 L 13.118,-10.5979 L 12.9974,-10.5628
 L 12.8748,-10.5354 L 12.7507,-10.5158 L 12.6256,-10.5039 L 12.5,-10.5 z
M 174.874,-10.5039 L 174.749,-10.5158 L 174.625,-10.5354 L 174.503,-10.5628 L 174.382,-10.5979 L 174.264,-10.6404
 L 174.148,-10.6903 L 174.036,-10.7474 L 173.928,-10.8113 L 173.824,-10.882 L 173.725,-10.959 L 173.631,-11.0421
 L 173.542,-11.1309 L 173.459,-11.2251 L 173.382,-11.3244 L 173.311,-11.4283 L 173.247,-11.5365 L 173.19,-11.6484
 L 173.14,-11.7637 L 173.098,-11.882 L 173.063,-12.0026 L 173.035,-12.1252 L 173.016,-12.2493 L 173.004,-12.3744
 L 173,-12.5 L 173.004,-12.6256 L 173.016,-12.7507 L 173.035,-12.8748 L 173.063,-12.9974 L 173.098,-13.118
 L 173.14,-13.2362 L 173.19,-13.3515 L 173.247,-13.4635 L 173.311,-13.5716 L 173.382,-13.6756 L 173.459,-13.7748
 L 173.542,-13.8691 L 173.631,-13.9579 L 173.725,-14.041 L 173.824,-14.118 L 173.928,-14.1886 L 174.036,-14.2526
 L 174.148,-14.3096 L 174.264,-14.3595 L 174.382,-14.4021 L 174.503,-14.4372 L 174.625,-14.4646 L 174.749,-14.4842
 L 174.874,-14.496 L 175,-14.5 L 175.126,-14.496 L 175.251,-14.4842 L 175.375,-14.4646 L 175.497,-14.4372
 L 175.618,-14.4021 L 175.736,-14.3595 L 175.852,-14.3096 L 175.964,-14.2526 L 176.072,-14.1886 L 176.176,-14.118
 L 176.275,-14.041 L 176.369,-13.9579 L 176.458,-13.8691 L 176.541,-13.7748 L 176.618,-13.6756 L 176.689,-13.5716
 L 176.753,-13.4635 L 176.81,-13.3515 L 176.86,-13.2362 L 176.902,-13.118 L 176.937,-12.9974 L 176.965,-12.8748
 L 176.984,-12.7507 L 176.996,-12.6256 L 177,-12.5 L 176.996,-12.3744 L 176.984,-12.2493 L 176.965,-12.1252
 L 176.937,-12.0026 L 176.902,-11.882 L 176.86,-11.7637 L 176.81,-11.6484 L 176.753,-11.5365 L 176.689,-11.4283
 L 176.618,-11.3244 L 176.541,-11.2251 L 176.458,-11.1309 L 176.369,-11.0421 L 176.275,-10.959 L 176.176,-10.882
 L 176.072,-10.8113 L 175.964,-10.7474 L 175.852,-10.6903 L 175.736,-10.6404 L 175.618,-10.5979 L 175.497,-10.5628
 L 175.375,-10.5354 L 175.251,-10.5158 L 175.126,-10.5039 L 175,-10.5 z
M 337.374,-10.5039 L 337.249,-10.5158 L 337.125,-10.5354 L 337.003,-10.5628 L 336.882,-10.5979 L 336.764,-10.6404
 L 336.648,-10.6903 L 336.536,-10.7474 L 336.428,-10.8113 L 336.324,-10.882 L 336.225,-10.959 L 336.131,-11.0421
 L 336.042,-11.1309 L 335.959,-11.2251 L 335.882,-11.3244 L 335.811,-11.4283 L 335.747,-11.5365 L 335.69,-11.6484
 L 335.64,-11.7637 L 335.598,-11.882 L 335.563,-12.0026 L 335.535,-12.1252 L 335.516,-12.2493 L 335.504,-12.3744
 L 335.5,-12.5 L 335.504,-12.6256 L 335.516,-12.7507 L 335.535,-12.8748 L 335.563,-12.9974 L 335.598,-13.118
 L 335.64,-13.2362 L 335.69,-13.3515 L 335.747,-13.4635 L 335.811,-13.5716 L 335.882,-13.6756 L 335.959,-13.7748
 L 336.042,-13.8691 L 336.131,-13.9579 L 336.225,-14.041 L 336.324,-14.118 L 336.428,-14.1886 L 336.536,-14.2526
 L 336.648,-14.3096 L 336.764,-14.3595 L 336.882,-14.4021 L 337.003,-14.4372 L 337.125,-14.4646 L 337.249,-14.4842
 L 337.374,-14.496 L 337.5,-14.5 L 337.626,-14.496 L 337.751,-14.4842 L 337.875,-14.4646 L 337.997,-14.4372
 L 338.118,-14.4021 L 338.236,-14.3595 L 338.352,-14.3096 L 338.464,-14.2526 L 338.572,-14.1886 L 338.676,-14.118
 L 338.775,-14.041 L 338.869,-13.9579 L 338.958,-13.8691 L 339.041,-13.7748 L 339.118,-13.6756 L 339.189,-13.5716
 L 339.253,-13.4635 L 339.31,-13.3515 L 339.36,-13.2362 L 339.402,-13.118 L 339.437,-12.9974 L 339.465,-12.8748
 L 339.484,-12.7507 L 339.496,-12.6256 L 339.5,-12.5 L 339.496,-12.3744 L 339.484,-12.2493 L 339.465,-12.1252
 L 339.437,-12.0026 L 339.402,-11.882 L 339.36,-11.7637 L 339.31,-11.6484 L 339.253,-11.5365 L 339.189,-11.4283
 L 339.118,-11.3244 L 339.041,-11.2251 L 338.958,-11.1309 L 338.869,-11.0421 L 338.775,-10.959 L 338.676,-10.882
 L 338.572,-10.8113 L 338.464,-10.7474 L 338.352,-10.6903 L 338.236,-10.6404 L 338.118,-10.5979 L 337.997,-10.5628
 L 337.875,-10.5354 L 337.751,-10.5158 L 337.626,-10.5039 L 337.5,-10.5 z
" stroke="black" fill="lightgray" stroke-width="0.5"/>
</svg>
