<?xml version="1.0" encoding="UTF-8" standalone="no"?>
<svg
   xmlns:dc="http://purl.org/dc/elements/1.1/"
   xmlns:cc="http://creativecommons.org/ns#"
   xmlns:rdf="http://www.w3.org/1999/02/22-rdf-syntax-ns#"
   xmlns:svg="http://www.w3.org/2000/svg"
   xmlns="http://www.w3.org/2000/svg"
   xmlns:sodipodi="http://sodipodi.sourceforge.net/DTD/sodipodi-0.dtd"
   xmlns:inkscape="http://www.inkscape.org/namespaces/inkscape"
   width="362mm"
   height="72mm"
   viewBox="0 -72 362 72"
   version="1.1"
   id="svg4133"
   sodipodi:docname="Jill Bottom Frame.svg"
   inkscape:version="0.92.4 5da689c313, 2019-01-14">
  <metadata
     id="metadata4139">
    <rdf:RDF>
      <cc:Work
         rdf:about="">
        <dc:format>image/svg+xml</dc:format>
        <dc:type
           rdf:resource="http://purl.org/dc/dcmitype/StillImage" />
        <dc:title>OpenSCAD Model</dc:title>
      </cc:Work>
    </rdf:RDF>
  </metadata>
  <defs
     id="defs4137" />
  <sodipodi:namedview
     pagecolor="#ffffff"
     bordercolor="#666666"
     borderopacity="1"
     objecttolerance="10"
     gridtolerance="10"
     guidetolerance="10"
     inkscape:pageopacity="0"
     inkscape:pageshadow="2"
     inkscape:window-width="1356"
     inkscape:window-height="729"
     id="namedview4135"
     showgrid="false"
     inkscape:zoom="0.75526501"
     inkscape:cx="1044.7861"
     inkscape:cy="259.12068"
     inkscape:window-x="4"
     inkscape:window-y="33"
     inkscape:window-maximized="0"
     inkscape:current-layer="svg4133" />
  <title
     id="title4129">OpenSCAD Model</title>
  <g
     inkscape:groupmode="layer"
     id="layer3"
     inkscape:label="Panel"
     style="display:inline"
     sodipodi:insensitive="true">
    <path
       style="display:inline;fill:#d3d3d3;stroke:#000000;stroke-width:0.5"
       d="m 0,-57.6 h 6 v 14.4 H 0 v 14.4 h 6 v 14.4 H 0 V 0 h 362 v -14.4 h -6 v -14.4 h 6 v -14.4 h -6 v -14.4 h 6 V -72 H 0 Z m 309.333,0.6 v -6 h 23.334 v 6 z m -46.666,0 v -6 H 286 v 6 z M 216,-57 v -6 h 23.333 v 6 z m -186.6667,0 v -6 h 23.3334 v 6 z M 76,-57 v -6 h 23.3333 v 6 z m 46.667,0 v -6 H 146 v 6 z m 46.666,0 v -6 h 23.334 v 6 z M 29.3333,-7 v -6 h 23.3334 v 6 z M 76,-7 v -6 h 23.3333 v 6 z m 46.667,0 v -6 H 146 v 6 z m 46.666,0 v -6 h 23.334 v 6 z M 216,-7 v -6 h 23.333 v 6 z m 46.667,0 v -6 H 286 v 6 z m 46.666,0 v -6 h 23.334 v 6 z"
       id="path4131"
       inkscape:connector-curvature="0" />
  </g>
  <g
     inkscape:groupmode="layer"
     id="layer2"
     inkscape:label="S.T.A.R.S"
     style="display:inline"
     sodipodi:insensitive="true">
    <path
       style="fill:#000000;stroke-width:0.08041896"
       d="m 179.41077,-16.14431 c -4.7424,-0.536738 -8.89654,-3.505445 -11.19364,-7.999403 -3.76359,-7.362953 -1.43498,-16.621366 5.28999,-21.032639 0.93623,-0.614122 0.67606,-0.583485 -0.71199,0.08384 -2.09946,1.009349 -4.0469,2.324461 -6.06656,4.096774 l -0.3781,0.331794 -0.0922,-0.344711 c -0.24298,-0.908387 -2.32961,-8.546034 -2.36686,-8.663391 -0.0511,-0.161036 1.01101,-1.23929 1.81956,-1.847214 2.62208,-1.971432 5.82229,-3.289693 9.55904,-3.937649 2.00645,-0.347921 3.18326,-0.446101 5.34706,-0.446101 2.79612,0 4.72281,0.238761 7.45211,0.923483 3.49435,0.876658 7.20251,2.843576 9.41685,4.99497 l 0.62434,0.606588 -1.46032,4.333976 c -0.80318,2.383685 -1.4837,4.360806 -1.51228,4.393602 -0.0286,0.03279 -0.41234,-0.247822 -0.85281,-0.623587 -1.07196,-0.914491 -2.50724,-1.95628 -3.60311,-2.615292 -0.96429,-0.579886 -2.53795,-1.398888 -2.58926,-1.347567 -0.0172,0.0172 0.28412,0.263776 0.66964,0.547929 3.30857,2.438705 5.59901,6.432371 6.17007,10.758305 0.13848,1.049072 0.15741,3.128701 0.0375,4.119464 -0.354,2.924647 -1.42197,5.632417 -3.14317,7.969322 -0.61632,0.836786 -2.15389,2.376843 -2.99946,3.00432 -1.85781,1.378625 -3.7229,2.188102 -5.91815,2.568575 -0.93599,0.162222 -2.6321,0.22264 -3.49823,0.124612 z m 3.5893,-0.64804 c 3.44663,-0.614414 6.75979,-2.829436 8.81487,-5.893208 3.66711,-5.467044 3.67348,-12.60484 0.0161,-18.06467 -0.51504,-0.768864 -0.93879,-1.271676 -1.80211,-2.138352 -1.65963,-1.666088 -3.08939,-2.563217 -5.17809,-3.249082 -1.57781,-0.518109 -2.15249,-0.603196 -4.07295,-0.603053 -1.84996,1.61e-4 -2.52667,0.101403 -4.09324,0.612521 -3.7485,1.223013 -6.98199,4.389188 -8.57314,8.394663 -0.78852,1.984975 -1.1374,3.863724 -1.1348,6.110855 0.005,4.342146 1.67637,8.372745 4.65518,11.226455 2.28268,2.186816 4.98289,3.461482 7.98393,3.768923 0.90227,0.09243 2.33063,0.02276 3.38424,-0.165052 z m -3.75013,-0.480486 c -5.58502,-0.757016 -10.07987,-5.158226 -11.41101,-11.173289 -0.5946,-2.68681 -0.43285,-5.448205 0.48048,-8.202737 1.41039,-4.253619 4.63304,-7.62124 8.53183,-8.915623 1.3882,-0.460879 2.38848,-0.612143 4.00708,-0.605961 1.17351,0.0045 1.60738,0.03935 2.29193,0.184225 2.45667,0.519902 4.46536,1.559001 6.19747,3.205949 2.30161,2.188445 3.69065,4.725729 4.39127,8.021256 0.20609,0.969402 0.22245,1.182917 0.22494,2.935295 0.003,2.316804 -0.12979,3.176083 -0.81347,5.252695 -0.51802,1.573465 -1.69906,3.616087 -2.86401,4.953363 -1.76669,2.028019 -4.49979,3.636956 -7.12019,4.191547 -0.90562,0.191668 -3.02199,0.274503 -3.91632,0.15328 z m 2.30819,-0.719838 c 0.031,-0.286943 0.11482,-1.060384 0.18615,-1.718767 0.0713,-0.65838 0.10021,-1.223196 0.0642,-1.255147 -0.0633,-0.05613 -1.84706,-0.244627 -2.29715,-0.242752 -0.20758,9.12e-4 -0.22116,0.02261 -0.22116,0.354434 v 0.353516 l 0.66346,0.05434 c 0.94635,0.07751 0.9583,0.08306 0.92927,0.431642 l -0.0246,0.294742 -0.65327,-0.02079 -0.65327,-0.02079 -0.0504,0.251992 c -0.0905,0.452365 -0.0898,0.452909 0.59296,0.513352 l 0.64335,0.05695 v 0.313304 c 0,0.300402 -0.0108,0.313198 -0.26136,0.310675 -0.14375,-0.0015 -0.51407,-0.03517 -0.82293,-0.07495 -0.634,-0.08164 -0.68173,-0.05325 -0.6837,0.406713 l -0.001,0.288925 1.14597,0.123505 c 0.63028,0.06793 1.20025,0.118396 1.2666,0.112156 0.0871,-0.0082 0.13631,-0.156313 0.17709,-0.533057 z m 2.74029,-0.164662 c 0.35797,-0.09941 0.81709,-0.480435 1.0018,-0.831395 0.0821,-0.155951 0.13194,-0.447818 0.13307,-0.778818 0.002,-0.655882 -0.3123,-1.346446 -0.7829,-1.718843 -0.27539,-0.21792 -0.36863,-0.244728 -0.85059,-0.24454 -0.45864,1.58e-4 -0.59351,0.03476 -0.8832,0.22647 -0.37984,0.251366 -0.64633,0.73143 -0.64919,1.169495 -0.002,0.268457 3.1e-4,0.269946 0.29981,0.216865 0.52675,-0.09336 0.57237,-0.122527 0.59834,-0.382595 0.0349,-0.349692 0.38592,-0.605812 0.6882,-0.502151 0.29462,0.101034 0.58531,0.694978 0.64107,1.309832 0.0372,0.410476 0.0199,0.497699 -0.12805,0.645666 -0.0941,0.0941 -0.26775,0.171079 -0.3859,0.171079 -0.23135,0 -0.50895,-0.201592 -0.50895,-0.369601 0,-0.185948 -0.15794,-0.207221 -0.55625,-0.07492 -0.45412,0.150833 -0.46274,0.244847 -0.0665,0.725525 0.39622,0.48069 0.82679,0.610797 1.44926,0.437931 z m 3.16853,-1.65244 c 0.0288,-0.07472 -1.54472,-2.735685 -1.7501,-2.959544 -0.0705,-0.07683 -0.71696,0.304903 -0.71696,0.42336 0,0.05223 0.95666,1.637255 1.69118,2.801993 l 0.11143,0.176705 0.31504,-0.176705 c 0.17328,-0.09719 0.33051,-0.216801 0.34941,-0.265809 z m -11.39356,-0.341912 c 0.11057,-0.07826 0.26904,-0.279198 0.35215,-0.44653 0.12705,-0.255797 0.13687,-0.351765 0.0617,-0.602769 -0.12017,-0.40109 -0.40903,-0.65466 -0.8065,-0.707972 -0.93196,-0.125004 -1.51955,0.874874 -0.92757,1.578405 0.34658,0.41188 0.88748,0.485161 1.32025,0.178866 z m 13.97948,-1.646027 0.25938,-0.267621 -1.17924,-1.341036 -1.17924,-1.341032 -0.37118,0.33703 c -1.08678,0.986805 -1.296,1.189014 -1.296,1.252609 0,0.03829 0.10791,0.172997 0.2398,0.299353 l 0.23978,0.229731 0.48477,-0.462383 c 0.26662,-0.254315 0.51509,-0.450442 0.55215,-0.435843 0.0371,0.01459 0.45585,0.469857 0.93064,1.01168 0.47479,0.541822 0.90747,0.98513 0.9615,0.98513 0.054,0 0.21497,-0.120429 0.35764,-0.267618 z m -7.12162,-0.08385 c 1.97371,-0.592849 3.79716,-1.974541 5.00188,-3.790111 1.17338,-1.768332 1.70499,-3.458699 1.78304,-5.669536 0.0886,-2.509895 -0.48008,-4.528817 -1.85652,-6.590879 -0.909,-1.361786 -2.07122,-2.377815 -3.54332,-3.097613 -3.14876,-1.539613 -6.70173,-0.937685 -9.33269,1.581101 -1.45315,1.391205 -2.46595,3.240355 -2.94351,5.3742 -0.16208,0.724217 -0.18862,1.059174 -0.18789,2.371305 9.1e-4,1.658841 0.0868,2.245322 0.52617,3.591063 1.03017,3.155704 3.6886,5.685486 6.67048,6.347674 1.03829,0.230573 2.91295,0.173979 3.88236,-0.117204 z m -3.64874,-0.443965 c -1.55161,-0.338729 -2.97675,-1.137668 -4.17415,-2.340047 -2.89391,-2.905948 -3.63787,-7.683716 -1.7998,-11.558412 0.64082,-1.350865 1.83403,-2.78465 3.00859,-3.615185 1.97631,-1.397444 4.52387,-1.79075 6.8331,-1.054922 1.20905,0.38526 2.63434,1.298346 3.46246,2.21815 0.85648,0.951316 1.69384,2.401183 2.11594,3.663691 0.2071,0.619472 0.50486,2.118057 0.43476,2.188156 -0.0196,0.01958 -0.53013,-0.188133 -1.13454,-0.461608 l -1.09892,-0.497222 -0.002,-1.010768 c -0.002,-1.087876 -0.11784,-2.438462 -0.22683,-2.633212 -0.053,-0.09471 -0.1353,-0.03801 -0.38992,0.268682 -0.5868,0.706814 -1.26944,1.672002 -1.42005,2.007826 l -0.14835,0.330771 -0.85689,-0.184397 c -1.43002,-0.307736 -1.92512,-0.434883 -2.4857,-0.638362 -0.29513,-0.107129 -0.54328,-0.187419 -0.55145,-0.178428 -0.0276,0.03039 0.96976,1.576557 1.60401,2.486685 l 0.63003,0.904078 -0.45478,0.873114 c -0.58571,1.124462 -1.29177,2.3545 -1.54634,2.693892 -0.11,0.146654 -0.1833,0.28335 -0.16288,0.303769 0.0419,0.04189 2.2359,-0.858686 3.2737,-1.343759 0.66348,-0.310116 0.68412,-0.314313 0.80419,-0.163629 0.16367,0.205409 2.90911,3.309336 2.92712,3.309336 0.008,0 -0.0137,-0.407123 -0.0476,-0.904715 -0.0339,-0.497593 -0.10838,-1.623493 -0.16549,-2.502002 l -0.10384,-1.597289 0.75007,-0.372595 c 0.8508,-0.422637 0.90118,-0.409175 0.90333,0.241372 0.004,1.264378 -0.331,2.974139 -0.82346,4.200627 -0.57098,1.422049 -1.74447,2.933483 -3.05934,3.940366 -0.68991,0.528316 -1.86099,1.098493 -2.75053,1.339185 -0.92336,0.24984 -2.42038,0.288712 -3.34503,0.08685 z m 2.97399,-1.599894 c 0.0819,-0.499166 0.17378,-0.93245 0.20418,-0.962854 0.0304,-0.0304 0.54179,-0.0695 1.13641,-0.08687 0.59462,-0.01738 1.07913,-0.05454 1.0767,-0.08259 -0.002,-0.02805 -0.40207,-0.35233 -0.88808,-0.720624 l -0.88364,-0.669629 0.0558,-1.320741 c 0.0326,-0.771074 0.0257,-1.320344 -0.0167,-1.319781 -0.0398,6.08e-4 -0.52226,0.254335 -1.07208,0.564007 l -0.99965,0.563042 -0.29251,-0.193571 c -0.47932,-0.317198 -1.27495,-0.696583 -2.15241,-1.026346 -0.95556,-0.359112 -1.07162,-0.376756 -0.85024,-0.12925 0.089,0.09952 0.23625,0.307606 0.32717,0.462411 0.19881,0.338462 0.90615,2.118456 0.90615,2.280267 0,0.06297 -0.42522,0.378407 -0.94493,0.700966 -0.94759,0.588129 -1.37446,0.884266 -1.38279,0.959295 -0.002,0.02213 0.85502,0.03125 1.9055,0.0203 l 1.90997,-0.01991 0.8837,1.064354 c 0.50148,0.604001 0.89339,1.012613 0.9061,0.944727 0.0123,-0.0658 0.0894,-0.528042 0.17131,-1.027206 z m -5.26535,-8.644418 c 0.54695,-0.654863 0.83141,-0.93577 0.92179,-0.91025 0.0719,0.0203 0.34784,0.07834 0.61323,0.128976 0.9663,0.184373 2.71485,0.661823 3.3798,0.922873 0.37475,0.147122 0.65661,0.22571 0.62635,0.174641 -0.36041,-0.60832 -2.12791,-3.241267 -2.37209,-3.533556 l -0.32145,-0.384789 0.54303,-0.982335 c 0.60614,-1.096484 1.29767,-2.214368 1.61581,-2.612011 l 0.21006,-0.262558 -0.59426,0.252494 c -1.29443,0.549971 -2.22887,0.97851 -2.7719,1.271189 l -0.56926,0.306818 -0.86936,-0.791265 c -0.47814,-0.435199 -0.89888,-0.773016 -0.93497,-0.750709 -0.0931,0.05754 -0.76487,2.15037 -0.87847,2.736818 -0.0947,0.488598 -0.0959,0.490279 -0.54935,0.712208 -0.44449,0.217571 -1.54338,0.919417 -1.94129,1.239889 l -0.20011,0.161164 0.24032,0.09146 c 0.13218,0.05031 0.60054,0.21689 1.04081,0.370185 0.44027,0.153298 0.81354,0.291769 0.82948,0.307714 0.016,0.01596 -0.099,0.548376 -0.25552,1.183179 -0.30212,1.2256 -0.53005,2.618692 -0.53005,3.239641 v 0.376011 l 0.98816,-1.150313 c 0.54349,-0.632672 1.34414,-1.576538 1.77924,-2.097477 z m -2.98484,8.575389 c 0.11959,-0.09483 0.21744,-0.197187 0.21744,-0.227473 0,-0.157984 -1.01944,-1.273195 -1.29007,-1.411256 -0.78051,-0.398187 -1.8841,0.0097 -2.35192,0.869221 -0.38082,0.699701 -0.27874,1.169875 0.47,2.164671 l 0.441,0.585916 1.14806,-0.904333 c 0.63143,-0.497383 1.2459,-0.981918 1.36549,-1.076746 z m -2.67602,0.598722 c -0.21798,-0.357529 -0.20415,-0.67814 0.0433,-1.002498 0.22215,-0.291259 0.72975,-0.589886 1.00266,-0.589886 0.21774,0 0.47641,0.139536 0.65546,0.353586 0.16274,0.194544 0.2108,0.141113 -0.91759,1.019911 l -0.62193,0.484359 z m 20.14955,-0.553422 c 0.13612,-0.08267 0.34845,-0.335829 0.47186,-0.56257 0.18407,-0.338194 0.2176,-0.482763 0.18666,-0.804753 -0.0857,-0.8915 -1.05629,-1.66906 -2.09538,-1.678583 -0.53834,-0.0049 -0.96493,0.232099 -1.22916,0.682969 -0.18322,0.312648 -0.20899,0.433794 -0.17937,0.8433 0.0276,0.381707 0.0838,0.539309 0.27846,0.781013 0.69611,0.864345 1.82509,1.189206 2.56693,0.738624 z m -1.21419,-0.826467 c -0.49135,-0.228805 -0.92313,-0.643727 -0.92313,-0.887078 0,-0.09883 0.0774,-0.262813 0.17207,-0.364397 0.13492,-0.144818 0.22954,-0.175377 0.4382,-0.141517 0.6699,0.108712 1.4002,0.67044 1.4002,1.077004 0,0.282712 -0.21613,0.505902 -0.48885,0.504802 -0.10709,-3.04e-4 -0.37641,-0.0854 -0.59849,-0.188814 z m -19.40984,-1.346373 c 0.81295,-0.314022 1.50726,-0.59832 1.54291,-0.631776 0.0591,-0.05543 -0.79995,-2.335713 -0.8799,-2.335713 -0.10836,0 -0.59224,0.243494 -0.59224,0.298022 0,0.03573 0.12666,0.387601 0.28146,0.781928 0.15481,0.39433 0.28147,0.723096 0.28147,0.730594 0,0.02909 -0.66008,0.209622 -0.67787,0.185398 -0.0104,-0.01413 -0.10296,-0.242807 -0.20575,-0.508191 -0.1028,-0.265382 -0.21412,-0.513562 -0.24738,-0.55151 -0.0671,-0.0765 -0.63822,0.08637 -0.63822,0.181997 0,0.03317 0.0905,0.282967 0.20105,0.555096 0.11057,0.272131 0.20104,0.5273 0.20104,0.567044 0,0.111508 -0.48115,0.286587 -0.56038,0.203905 -0.0379,-0.03956 -0.18327,-0.37048 -0.32304,-0.735382 -0.13977,-0.364899 -0.28885,-0.663455 -0.33129,-0.663455 -0.0424,0 -0.20117,0.05182 -0.35275,0.115153 l -0.2756,0.115152 0.28264,0.709142 c 0.15545,0.390029 0.35561,0.899132 0.4448,1.131341 0.0892,0.232211 0.20914,0.422201 0.26656,0.422201 0.0574,0 0.76954,-0.256928 1.58249,-0.570946 z m 21.57916,-0.91009 c 0.14995,-0.06265 0.33536,-0.209649 0.41203,-0.326665 0.2197,-0.335298 0.68364,-1.974851 0.57067,-2.016713 -0.31432,-0.116475 -3.29582,-0.922253 -3.32064,-0.897433 -0.0722,0.07216 -0.25133,0.784243 -0.20385,0.810179 0.0289,0.01577 0.29994,0.09433 0.6024,0.174596 0.54823,0.14548 0.54978,0.146693 0.50331,0.393436 -0.2173,1.154033 -0.12581,1.519899 0.45156,1.80569 0.40461,0.200282 0.61261,0.212306 0.98452,0.05691 z m -0.68067,-0.915998 c -0.15202,-0.123092 -0.17121,-0.19402 -0.12559,-0.464055 0.0831,-0.492063 0.11946,-0.521574 0.51758,-0.420521 0.19056,0.04837 0.36474,0.135539 0.38706,0.193711 0.0641,0.167085 -0.1327,0.668486 -0.2969,0.756366 -0.20684,0.110694 -0.2762,0.101271 -0.48215,-0.0655 z m -21.51238,-1.329704 c 1.33448,-0.103159 1.31812,-0.09407 1.20969,-0.672042 l -0.0528,-0.281354 -0.62662,0.05547 -0.62663,0.05547 -0.0425,-0.530048 c -0.0669,-0.833559 -0.41062,-1.20437 -1.11633,-1.20437 -0.46088,0 -0.76277,0.185191 -0.97743,0.599582 -0.12103,0.233649 -0.13543,0.404667 -0.0944,1.120149 0.0267,0.464417 0.0631,0.890716 0.0809,0.947326 0.0241,0.07644 0.1622,0.09007 0.53668,0.05295 0.27732,-0.02748 1.04656,-0.0919 1.70941,-0.143137 z m -1.6475,-1.132866 c 0,-0.815484 0.745,-0.838012 0.85482,-0.02584 l 0.0516,0.38199 h -0.45323 -0.45324 z m 23.8388,-1.650018 c 0.30655,-0.202078 0.44135,-0.454359 0.44488,-0.832602 0.007,-0.801158 -0.68537,-1.236572 -1.41598,-0.889876 -0.67287,0.319297 -0.6958,1.400703 -0.0373,1.75862 0.29684,0.161347 0.73249,0.145733 1.00839,-0.03614 z m -1.56944,-4.797877 c 0.82194,-0.424937 1.50998,-0.787277 1.52896,-0.805197 0.0573,-0.0541 -0.22689,-0.5935 -0.3127,-0.5935 -0.0438,0 -0.42442,0.184167 -0.8457,0.409263 -0.42128,0.225093 -0.76596,0.382412 -0.76596,0.349592 0,-0.03282 0.25705,-0.457441 0.57123,-0.943611 l 0.57124,-0.883944 -0.18289,-0.39047 c -0.10059,-0.214756 -0.21892,-0.390467 -0.26296,-0.390467 -0.0718,0 -3.01969,1.498692 -3.1035,1.577813 -0.0518,0.04888 0.22271,0.593499 0.29912,0.593499 0.0364,0 0.48934,-0.219604 1.00655,-0.488012 0.5172,-0.268405 0.94037,-0.468687 0.94037,-0.445071 0,0.02362 -0.19214,0.342742 -0.42698,0.709163 -0.23484,0.366425 -0.53982,0.844714 -0.67772,1.062865 l -0.25074,0.396643 0.15663,0.307024 c 0.0862,0.168864 0.18003,0.307025 0.20862,0.307025 0.0286,0 0.72448,-0.347677 1.54643,-0.772615 z m -18.13546,-0.195226 c 0.11811,-0.178471 0.19245,-0.360559 0.1652,-0.40464 -0.0272,-0.04408 -0.28398,-0.237427 -0.57053,-0.42966 l -0.521,-0.349511 0.18554,-0.215606 0.18554,-0.215604 0.70552,0.157249 0.70553,0.157249 0.2394,-0.347951 c 0.13166,-0.191373 0.23939,-0.381345 0.23939,-0.422159 0,-0.04081 -0.36188,-0.142721 -0.80419,-0.226461 -0.79487,-0.150492 -0.80419,-0.154912 -0.80419,-0.381412 0,-0.768566 -1.01275,-1.226913 -1.64515,-0.744554 -0.32288,0.246278 -1.30095,1.719977 -1.20241,1.811741 0.14,0.130377 2.80181,1.935811 2.85402,1.935811 0.0289,0 0.14922,-0.146021 0.26733,-0.324492 z m -1.87121,-1.826713 -0.26444,-0.221154 0.24787,-0.341781 c 0.17393,-0.239807 0.306,-0.341781 0.44268,-0.341781 0.22612,0 0.44754,0.192547 0.44754,0.389172 0,0.183115 -0.38214,0.736694 -0.50855,0.736694 -0.0554,0 -0.21966,-0.09952 -0.3651,-0.22115 z m 17.39748,-0.617116 c 0.71678,-0.29949 1.4096,-1.252415 1.4096,-1.9388 0,-0.76298 -0.62659,-1.402363 -1.38898,-1.417338 -1.10602,-0.02173 -2.25347,1.347923 -1.9821,2.365928 0.0974,0.36534 0.50386,0.847744 0.83639,0.992638 0.32121,0.139961 0.7867,0.138958 1.12509,-0.0024 z m -1.07755,-0.901585 c -0.20727,-0.263503 -0.20704,-0.322921 0.003,-0.672717 0.4884,-0.814678 1.20658,-1.194358 1.54721,-0.817961 0.28596,0.315982 0.11131,0.76657 -0.51561,1.330228 -0.49153,0.441922 -0.77791,0.486349 -1.03426,0.16045 z m -12.23561,0.472243 c 0.0192,-0.01161 -0.0258,-0.148547 -0.10012,-0.304298 -0.0743,-0.155754 -0.13505,-0.312484 -0.13505,-0.348289 0,-0.03581 0.17986,-0.216755 0.39968,-0.402111 l 0.39967,-0.337008 0.32,0.211771 0.32001,0.211768 0.32432,-0.269339 c 0.17838,-0.148137 0.32497,-0.294718 0.32577,-0.325738 9.1e-4,-0.03102 -0.68531,-0.513614 -1.52468,-1.072436 l -1.52613,-1.016036 -0.36372,0.29804 c -0.20004,0.163918 -0.36371,0.34952 -0.36371,0.412445 0,0.111415 1.12344,2.938751 1.29533,3.259936 0.0838,0.156563 0.0932,0.154675 0.33994,-0.06828 0.13957,-0.126119 0.26948,-0.238807 0.28869,-0.250421 z m -0.68177,-1.683908 c -0.23619,-0.553573 -0.27378,-0.667337 -0.22048,-0.667337 0.0742,0 0.82429,0.514058 0.8214,0.562932 -0.001,0.02213 -0.10772,0.123381 -0.23648,0.225032 l -0.23411,0.184824 z m 11.26153,0.101728 c 0.62463,-0.366057 0.99728,-1.102909 1.00313,-1.983562 0.004,-0.603338 -0.16506,-0.940772 -0.62752,-1.252429 -0.77989,-0.525568 -1.73315,-0.180905 -2.23827,0.809277 -0.3657,0.716862 -0.35082,1.610985 0.0344,2.068821 0.45949,0.546084 1.24479,0.699814 1.82823,0.357893 z m -0.98488,-0.611165 c -0.40955,-0.164535 -0.39691,-0.852668 0.0291,-1.583858 0.30722,-0.5273 0.68741,-0.653264 1.00702,-0.333644 0.14089,0.140888 0.16209,0.231461 0.12224,0.522224 -0.0854,0.62315 -0.60912,1.483547 -0.89583,1.471751 -0.0442,-0.0018 -0.16237,-0.03623 -0.26253,-0.07647 z m -6.09238,0.315335 c 0.62876,-0.174556 1.14989,-0.945217 1.03332,-1.528072 -0.0508,-0.254205 -0.1707,-0.285283 -0.5672,-0.147067 -0.20541,0.07161 -0.25023,0.136854 -0.28813,0.419378 -0.0506,0.376896 -0.21979,0.54127 -0.55727,0.54127 -0.43569,0 -0.86924,-0.754385 -0.87996,-1.531139 -0.005,-0.363634 0.10561,-0.522264 0.41744,-0.598542 0.204,-0.0499 0.46392,0.118791 0.62413,0.405078 0.0636,0.113666 0.1121,0.1077 0.44699,-0.055 0.2066,-0.100375 0.37564,-0.226795 0.37564,-0.280934 0,-0.150235 -0.3932,-0.584558 -0.64894,-0.716804 -0.72871,-0.376829 -1.80825,0.12842 -2.08845,0.977446 -0.20617,0.624691 0.0669,1.61 0.59155,2.134675 0.44568,0.445678 0.9,0.557636 1.54088,0.379713 z m 3.60315,-0.422661 c 0.14233,-0.06065 0.33847,-0.196844 0.43588,-0.302669 0.21411,-0.232601 0.44946,-0.770809 0.38364,-0.877309 -0.0261,-0.04228 -0.22632,-0.07688 -0.44486,-0.07688 -0.30478,0 -0.39735,0.02897 -0.39735,0.124283 0,0.177283 -0.36531,0.51907 -0.55479,0.51907 -0.088,0 -0.26155,-0.08734 -0.38565,-0.194085 -0.21437,-0.184391 -0.22563,-0.228275 -0.22563,-0.878713 0,-0.569846 0.0283,-0.722691 0.1689,-0.911676 0.0929,-0.124876 0.24879,-0.238886 0.34643,-0.253357 0.25713,-0.0381 0.54804,0.184103 0.60993,0.465888 0.0516,0.235099 0.0695,0.24398 0.4895,0.24398 0.39457,0 0.43592,-0.01666 0.43592,-0.175656 0,-0.319471 -0.32294,-0.857412 -0.62895,-1.047697 -0.23001,-0.143022 -0.41354,-0.183976 -0.82447,-0.183976 -0.67563,0 -1.09028,0.247585 -1.37161,0.818988 -0.26242,0.533011 -0.26549,1.514619 -0.006,2.01112 0.18126,0.347191 0.57788,0.702428 0.86105,0.771223 0.32758,0.07958 0.8572,0.05448 1.10834,-0.05253 z m 12.87707,0.17058 c 0.11279,-0.304882 2.4597,-7.240226 2.4601,-7.26983 8e-5,-0.0066 -0.31649,-0.246172 -0.7035,-0.532358 -3.75939,-2.779938 -7.90706,-4.557735 -12.16337,-5.213522 -1.39436,-0.214832 -4.59554,-0.297812 -6.08935,-0.157845 -4.83434,0.45297 -9.36568,2.160868 -13.07269,4.927202 -0.74352,0.554847 -0.85891,0.671079 -0.81167,0.817666 0.0303,0.09398 0.53468,1.847388 1.12089,3.896462 0.58622,2.049074 1.08586,3.745604 1.11033,3.770072 0.0245,0.02447 0.25388,-0.134681 0.50981,-0.353665 1.87823,-1.60707 4.28522,-3.055144 6.66665,-4.01074 5.19974,-2.086486 10.04502,-1.855488 15.27054,0.728023 1.94582,0.962022 3.40714,1.924229 4.86534,3.203582 0.33173,0.291043 0.62729,0.530868 0.65681,0.53295 0.0295,0.0021 0.11056,-0.150018 0.18011,-0.337997 z m -1.07899,-1.281687 c -2.07197,-1.632067 -5.09154,-3.203353 -7.67919,-3.996007 -4.06172,-1.244189 -8.19211,-1.06822 -12.25126,0.521951 -2.11835,0.829863 -4.42552,2.08231 -5.92123,3.21435 -0.34579,0.261712 -0.69336,0.523853 -0.77238,0.582533 -0.12863,0.09552 -0.15145,0.07868 -0.21798,-0.160839 -0.0409,-0.14714 -0.46462,-1.602627 -0.94167,-3.234414 l -0.86736,-2.966886 0.34457,-0.290083 c 3.7524,-3.158968 9.29631,-5.075245 14.6763,-5.072935 3.361,0.0015 6.3527,0.528826 9.43125,1.662558 1.15432,0.425102 3.45761,1.549646 4.60772,2.249648 0.816,0.496647 2.27182,1.508647 2.39255,1.663167 0.0454,0.05812 -0.0757,0.492595 -0.32821,1.177743 -0.2201,0.597114 -0.73107,1.994206 -1.13548,3.104656 l -0.73531,2.019002 z m 0.42972,-1.515321 c 0.1928,-0.336027 0.19831,-0.370756 0.071,-0.44697 -0.0759,-0.04545 -0.27207,-0.163882 -0.43589,-0.263184 l -0.29787,-0.180547 -0.20963,0.332067 c -0.11529,0.182638 -0.22775,0.379321 -0.24992,0.437074 -0.0448,0.116867 0.78128,0.635432 0.86365,0.542114 0.0273,-0.03092 0.14369,-0.220172 0.25865,-0.420554 z m -24.63875,-0.853169 c 0.77863,-0.851942 1.03609,-1.642058 0.7476,-2.294249 -0.23176,-0.523939 -0.56976,-0.666 -1.43866,-0.604682 -0.56616,0.03995 -0.69141,0.02538 -0.84397,-0.09815 -0.16369,-0.132544 -0.17014,-0.166802 -0.0748,-0.397047 0.0574,-0.13859 0.2449,-0.378938 0.41665,-0.534109 0.17176,-0.155167 0.31228,-0.311064 0.31228,-0.346431 0,-0.03537 -0.13913,-0.200172 -0.30919,-0.366224 l -0.30919,-0.301918 -0.44117,0.476523 c -0.5759,0.622034 -0.81842,1.127398 -0.8236,1.716189 -0.007,0.781314 0.36063,1.032306 1.51153,1.032306 1.20701,0 1.31592,0.267582 0.46625,1.145581 l -0.36928,0.381603 0.31448,0.322064 c 0.17297,0.177134 0.3397,0.322064 0.37052,0.322064 0.0308,0 0.24255,-0.204087 0.47052,-0.453523 z m 23.6067,-0.341824 c 0.42533,-0.1963 0.67948,-0.484267 0.73627,-0.83423 0.0367,-0.226327 -0.0223,-0.434472 -0.28465,-1.004042 -0.18204,-0.395187 -0.33099,-0.739762 -0.33099,-0.765715 0,-0.113327 0.26773,-0.299776 0.42795,-0.298031 0.0964,9.12e-4 0.38538,0.08834 0.64227,0.193969 l 0.46708,0.19206 0.18507,-0.41512 c 0.10179,-0.228318 0.17167,-0.439442 0.1553,-0.46917 -0.0853,-0.154794 -1.15748,-0.416139 -1.71683,-0.418464 -1.31859,-0.0055 -1.69656,0.64193 -1.13761,1.948581 0.29386,0.686969 0.31113,0.859525 0.0974,0.973881 -0.2355,0.126037 -0.48162,0.09851 -0.9906,-0.110803 l -0.46258,-0.190231 -0.16066,0.3632 c -0.0884,0.199762 -0.16066,0.407968 -0.16066,0.462684 0,0.09708 0.39892,0.2754 0.96503,0.431369 0.47593,0.131132 1.21541,0.102865 1.56816,-0.05994 z m -20.72679,-0.796505 c 0.0361,-0.108378 -0.30204,-0.820717 -0.38962,-0.820717 -0.10493,0 -0.87817,0.393002 -0.87817,0.446332 0,0.02286 0.0903,0.219692 0.20063,0.437445 l 0.20062,0.395917 0.42194,-0.195486 c 0.23206,-0.107515 0.43213,-0.226087 0.4446,-0.263491 z m 17.8559,0.02152 c 0.0973,-0.200218 0.17686,-0.410138 0.17686,-0.466486 0,-0.09588 -0.63579,-0.45618 -0.80499,-0.45618 -0.0751,0 -0.51753,0.798219 -0.46702,0.842592 0.0491,0.04314 0.83013,0.43666 0.874,0.440368 0.0243,0.0021 0.12387,-0.160073 0.22115,-0.360294 z m -15.97295,-0.777657 c 0.30169,-0.09716 0.54853,-0.217926 0.54853,-0.268353 0,-0.05043 -0.18374,-0.631369 -0.40831,-1.290979 -0.22457,-0.659611 -0.49065,-1.456961 -0.59129,-1.771888 l -0.18297,-0.572594 0.79234,-0.221288 c 0.43972,-0.122809 0.79233,-0.264232 0.79233,-0.31779 0,-0.160052 -0.25234,-0.84893 -0.31097,-0.84893 -0.03,0 -0.34327,0.111466 -0.69611,0.247704 -0.35283,0.136238 -1.30909,0.444946 -2.12502,0.686021 -0.81593,0.241071 -1.4934,0.44821 -1.5055,0.460307 -0.0569,0.05693 0.25625,0.857698 0.33545,0.857698 0.0496,0 0.41137,-0.108563 0.80392,-0.241257 0.39256,-0.13269 0.71887,-0.241256 0.72515,-0.241256 0.006,0 0.27942,0.832336 0.60699,1.849637 0.32758,1.0173 0.61164,1.849637 0.63126,1.849637 0.0196,0 0.2825,-0.0795 0.5842,-0.176669 z m 14.36498,0.0084 c 0.27397,-0.09252 0.49813,-0.212941 0.49813,-0.267597 0,-0.05466 -0.14851,-0.440362 -0.33001,-0.857123 -0.52652,-1.208975 -0.5105,-1.102296 -0.18594,-1.237904 0.63964,-0.26726 0.99712,-0.707336 0.99793,-1.228509 6.1e-4,-0.464244 -0.36853,-0.865525 -1.14134,-1.240348 -0.64971,-0.315109 -1.8879,-0.769894 -1.92988,-0.708837 -0.0147,0.02146 -0.34811,1.016093 -0.74082,2.210314 -0.3927,1.194221 -0.72862,2.21097 -0.7465,2.259441 -0.0335,0.09087 0.47426,0.315331 0.90001,0.397852 l 0.24126,0.04676 0.60708,-1.874752 c 0.53503,-1.652227 0.6257,-1.87167 0.76398,-1.84881 0.26101,0.04316 0.71797,0.457371 0.74419,0.674589 0.0347,0.287347 -0.31562,0.667386 -0.77053,0.835924 -0.20883,0.07737 -0.39097,0.148538 -0.40474,0.158152 -0.0251,0.01751 0.65055,2.283826 0.79091,2.65298 0.0903,0.23751 0.086,0.237339 0.70627,0.02787 z m -12.29462,-0.488942 c 0.24891,-0.05746 0.40823,-0.137712 0.40823,-0.205647 0,-0.278861 -0.19015,-0.825987 -0.28706,-0.825987 -0.21205,0 -0.91922,0.175343 -0.91878,0.227816 6.1e-4,0.05563 0.14402,0.621104 0.20246,0.797523 0.041,0.123737 0.0844,0.124195 0.59515,0.0063 z m 8.2022,-0.47266 c 0.13199,-0.615453 0.13098,-0.617538 -0.33511,-0.68934 -0.23222,-0.03577 -0.45691,-0.06631 -0.49933,-0.06786 -0.11876,-0.0043 -0.28717,0.927357 -0.17432,0.96439 0.0792,0.02599 0.72088,0.166632 0.86803,0.190251 0.0295,0.0047 0.0928,-0.174112 0.14073,-0.397439 z m -5.82763,-0.676577 c 0.31558,-0.692497 0.24924,-0.662009 1.55005,-0.712467 l 0.90278,-0.03502 0.37316,0.664802 0.37316,0.664805 0.48112,-0.286602 c 0.26462,-0.157632 0.49902,-0.333243 0.52089,-0.390245 0.0219,-0.057 -0.0331,-0.205984 -0.12217,-0.331073 -0.0891,-0.125089 -0.69213,-1.094417 -1.34013,-2.154063 -0.648,-1.059646 -1.22442,-1.974142 -1.28093,-2.032211 -0.0841,-0.08643 -0.16175,-0.0062 -0.42785,0.442302 -0.83249,1.40298 -2.35094,4.155469 -2.31323,4.19318 0.0438,0.0438 0.94866,0.569995 0.98753,0.574271 0.0122,0.0012 0.1452,-0.267618 0.29562,-0.597682 z m 0.75394,-1.63151 c 0.0337,-0.0774 0.18083,-0.389464 0.32696,-0.693471 l 0.26568,-0.552737 0.34493,0.633155 0.34492,0.633159 -0.33269,0.05435 c -0.18298,0.02991 -0.48533,0.05704 -0.67189,0.06032 -0.29382,0.0052 -0.33099,-0.01286 -0.27791,-0.134773 z"
       id="path4362"
       inkscape:connector-curvature="0" />
  </g>
</svg>
