<?xml version="1.0" encoding="UTF-8" standalone="no"?>
<svg
   xmlns:dc="http://purl.org/dc/elements/1.1/"
   xmlns:cc="http://creativecommons.org/ns#"
   xmlns:rdf="http://www.w3.org/1999/02/22-rdf-syntax-ns#"
   xmlns:svg="http://www.w3.org/2000/svg"
   xmlns="http://www.w3.org/2000/svg"
   xmlns:sodipodi="http://sodipodi.sourceforge.net/DTD/sodipodi-0.dtd"
   xmlns:inkscape="http://www.inkscape.org/namespaces/inkscape"
   width="350mm"
   height="200mm"
   viewBox="0 -200 350 200"
   version="1.1"
   id="svg1370"
   sodipodi:docname="Jill Bottom.svg"
   inkscape:version="0.92.4 5da689c313, 2019-01-14">
  <metadata
     id="metadata1376">
    <rdf:RDF>
      <cc:Work
         rdf:about="">
        <dc:format>image/svg+xml</dc:format>
        <dc:type
           rdf:resource="http://purl.org/dc/dcmitype/StillImage" />
        <dc:title>OpenSCAD Model</dc:title>
      </cc:Work>
    </rdf:RDF>
  </metadata>
  <defs
     id="defs1374" />
  <sodipodi:namedview
     pagecolor="#ffffff"
     bordercolor="#666666"
     borderopacity="1"
     objecttolerance="10"
     gridtolerance="10"
     guidetolerance="10"
     inkscape:pageopacity="0"
     inkscape:pageshadow="2"
     inkscape:window-width="1366"
     inkscape:window-height="768"
     id="namedview1372"
     showgrid="false"
     inkscape:zoom="0.48938834"
     inkscape:cx="781.8651"
     inkscape:cy="280.87585"
     inkscape:window-x="0"
     inkscape:window-y="0"
     inkscape:window-maximized="0"
     inkscape:current-layer="layer10" />
  <title
     id="title1366">OpenSCAD Model</title>
  <g
     inkscape:groupmode="layer"
     id="layer9"
     inkscape:label="Template"
     sodipodi:insensitive="true"
     style="display:none">
    <path
       style="fill:#d3d3d3;stroke:#000000;stroke-width:0.5"
       d="M 350,-200 H 0 V 0 h 350 z m -337.6256,14.496 -0.1251,-0.012 -0.1241,-0.019 -0.1226,-0.028 -0.1206,-0.035 -0.1182,-0.042 -0.1153,-0.05 -0.112,-0.057 -0.1081,-0.064 -0.104,-0.071 -0.0992,-0.077 -0.0943,-0.083 -0.0888,-0.089 -0.0831,-0.094 -0.077,-0.099 -0.0706,-0.104 -0.064,-0.108 -0.057,-0.112 -0.0499,-0.116 -0.0426,-0.118 -0.0351,-0.121 -0.0274,-0.122 -0.0196,-0.124 -0.0118,-0.125 -0.004,-0.126 0.004,-0.126 0.0118,-0.125 0.0196,-0.124 0.0274,-0.122 0.0351,-0.121 0.0426,-0.118 0.0499,-0.116 0.057,-0.112 0.064,-0.108 0.0706,-0.104 0.077,-0.099 0.0831,-0.094 0.0888,-0.089 0.0943,-0.083 0.0992,-0.077 0.104,-0.071 0.1081,-0.064 0.112,-0.057 0.1153,-0.05 0.1182,-0.042 0.1206,-0.035 0.1226,-0.028 0.1241,-0.019 0.1251,-0.012 0.1256,-0.004 0.1256,0.004 0.1251,0.012 0.1241,0.019 0.1226,0.028 0.1206,0.035 0.1182,0.042 0.1153,0.05 0.112,0.057 0.1081,0.064 0.104,0.071 0.0992,0.077 0.0943,0.083 0.0888,0.089 0.0831,0.094 0.077,0.099 0.0706,0.104 0.064,0.108 0.057,0.112 0.0499,0.116 0.0426,0.118 0.0351,0.121 0.0274,0.122 0.0196,0.124 0.0118,0.125 0.004,0.126 -0.004,0.126 -0.0118,0.125 -0.0196,0.124 -0.0274,0.122 -0.0351,0.121 -0.0426,0.118 -0.0499,0.116 -0.057,0.112 -0.064,0.108 -0.0706,0.104 -0.077,0.099 -0.0831,0.094 -0.0888,0.089 -0.0943,0.083 -0.0992,0.077 -0.104,0.071 -0.1081,0.064 -0.112,0.057 -0.1153,0.05 -0.1182,0.042 -0.1206,0.035 -0.1226,0.028 -0.1241,0.019 -0.1251,0.012 -0.1256,0.004 z m 162.4996,0 -0.125,-0.012 -0.124,-0.019 -0.122,-0.028 -0.121,-0.035 -0.118,-0.042 -0.116,-0.05 -0.112,-0.057 -0.108,-0.064 -0.104,-0.071 -0.099,-0.077 -0.094,-0.083 -0.089,-0.089 -0.083,-0.094 -0.077,-0.099 -0.071,-0.104 -0.064,-0.108 -0.057,-0.112 -0.05,-0.116 -0.042,-0.118 -0.035,-0.121 -0.028,-0.122 -0.019,-0.124 -0.012,-0.125 -0.004,-0.126 0.004,-0.126 0.012,-0.125 0.019,-0.124 0.028,-0.122 0.035,-0.121 0.042,-0.118 0.05,-0.116 0.057,-0.112 0.064,-0.108 0.071,-0.104 0.077,-0.099 0.083,-0.094 0.089,-0.089 0.094,-0.083 0.099,-0.077 0.104,-0.071 0.108,-0.064 0.112,-0.057 0.116,-0.05 0.118,-0.042 0.121,-0.035 0.122,-0.028 0.124,-0.019 0.125,-0.012 0.126,-0.004 0.126,0.004 0.125,0.012 0.124,0.019 0.122,0.028 0.121,0.035 0.118,0.042 0.116,0.05 0.112,0.057 0.108,0.064 0.104,0.071 0.099,0.077 0.094,0.083 0.089,0.089 0.083,0.094 0.077,0.099 0.071,0.104 0.064,0.108 0.057,0.112 0.05,0.116 0.042,0.118 0.035,0.121 0.028,0.122 0.019,0.124 0.012,0.125 0.004,0.126 -0.004,0.126 -0.012,0.125 -0.019,0.124 -0.028,0.122 -0.035,0.121 -0.042,0.118 -0.05,0.116 -0.057,0.112 -0.064,0.108 -0.071,0.104 -0.077,0.099 -0.083,0.094 -0.089,0.089 -0.094,0.083 -0.099,0.077 -0.104,0.071 -0.108,0.064 -0.112,0.057 -0.116,0.05 -0.118,0.042 -0.121,0.035 -0.122,0.028 -0.124,0.019 -0.125,0.012 -0.126,0.004 z m 162.5,0 -0.125,-0.012 -0.124,-0.019 -0.122,-0.028 -0.121,-0.035 -0.118,-0.042 -0.116,-0.05 -0.112,-0.057 -0.108,-0.064 -0.104,-0.071 -0.099,-0.077 -0.094,-0.083 -0.089,-0.089 -0.083,-0.094 -0.077,-0.099 -0.071,-0.104 -0.064,-0.108 -0.057,-0.112 -0.05,-0.116 -0.042,-0.118 -0.035,-0.121 -0.028,-0.122 -0.019,-0.124 -0.012,-0.125 -0.004,-0.126 0.004,-0.126 0.012,-0.125 0.019,-0.124 0.028,-0.122 0.035,-0.121 0.042,-0.118 0.05,-0.116 0.057,-0.112 0.064,-0.108 0.071,-0.104 0.077,-0.099 0.083,-0.094 0.089,-0.089 0.094,-0.083 0.099,-0.077 0.104,-0.071 0.108,-0.064 0.112,-0.057 0.116,-0.05 0.118,-0.042 0.121,-0.035 0.122,-0.028 0.124,-0.019 0.125,-0.012 0.126,-0.004 0.126,0.004 0.125,0.012 0.124,0.019 0.122,0.028 0.121,0.035 0.118,0.042 0.116,0.05 0.112,0.057 0.108,0.064 0.104,0.071 0.099,0.077 0.094,0.083 0.089,0.089 0.083,0.094 0.077,0.099 0.071,0.104 0.064,0.108 0.057,0.112 0.05,0.116 0.042,0.118 0.035,0.121 0.028,0.122 0.019,0.124 0.012,0.125 0.004,0.126 -0.004,0.126 -0.012,0.125 -0.019,0.124 -0.028,0.122 -0.035,0.121 -0.042,0.118 -0.05,0.116 -0.057,0.112 -0.064,0.108 -0.071,0.104 -0.077,0.099 -0.083,0.094 -0.089,0.089 -0.094,0.083 -0.099,0.077 -0.104,0.071 -0.108,0.064 -0.112,0.057 -0.116,0.05 -0.118,0.042 -0.121,0.035 -0.122,0.028 -0.124,0.019 -0.125,0.012 -0.126,0.004 z M 137.5,-77.25 l -0.251,-0.0079 -0.25,-0.0237 -0.249,-0.0393 -0.245,-0.0548 -0.241,-0.0701 -0.236,-0.0851 -0.231,-0.0998 -0.224,-0.1141 -0.216,-0.1279 -0.208,-0.1412 -0.199,-0.1541 -0.188,-0.1661 -0.178,-0.1777 -0.166,-0.1885 -0.154,-0.1986 -0.141,-0.2078 -0.128,-0.2163 -0.114,-0.2239 -0.1,-0.2306 -0.085,-0.2364 -0.07,-0.2413 -0.055,-0.2453 -0.039,-0.2482 -0.024,-0.2501 -0.008,-0.2512 v -37.5 l 0.008,-0.251 0.024,-0.25 0.039,-0.249 0.055,-0.245 0.07,-0.241 0.085,-0.236 0.1,-0.231 0.114,-0.224 0.128,-0.216 0.141,-0.208 0.154,-0.199 0.166,-0.188 0.178,-0.178 0.188,-0.166 0.199,-0.154 0.208,-0.141 0.216,-0.128 0.224,-0.114 0.231,-0.1 0.236,-0.085 0.241,-0.07 0.245,-0.055 0.249,-0.039 0.25,-0.024 0.251,-0.008 h 75 l 0.251,0.008 0.25,0.024 0.249,0.039 0.245,0.055 0.241,0.07 0.236,0.085 0.231,0.1 0.224,0.114 0.216,0.128 0.208,0.141 0.199,0.154 0.188,0.166 0.178,0.178 0.166,0.188 0.154,0.199 0.141,0.208 0.128,0.216 0.114,0.224 0.1,0.231 0.085,0.236 0.07,0.241 0.055,0.245 0.039,0.249 0.024,0.25 0.008,0.251 v 37.5 l -0.008,0.2512 -0.024,0.2501 -0.039,0.2482 -0.055,0.2453 -0.07,0.2413 -0.085,0.2364 -0.1,0.2306 -0.114,0.2239 -0.128,0.2163 -0.141,0.2078 -0.154,0.1986 -0.166,0.1885 -0.178,0.1777 -0.188,0.1661 -0.199,0.1541 -0.208,0.1412 -0.216,0.1279 -0.224,0.1141 -0.231,0.0998 -0.236,0.0851 -0.241,0.0701 -0.245,0.0548 -0.249,0.0393 -0.25,0.0237 -0.251,0.0079 z m -125.1256,-20.7539 -0.1251,-0.0119 -0.1241,-0.0196 -0.1226,-0.0274 -0.1206,-0.0351 -0.1182,-0.0425 -0.1153,-0.0499 -0.112,-0.0571 -0.1081,-0.0639 -0.104,-0.0707 -0.0992,-0.077 -0.0943,-0.0831 -0.0888,-0.0888 -0.0831,-0.0942 -0.077,-0.0993 -0.0706,-0.1039 -0.064,-0.1082 -0.057,-0.1119 -0.0499,-0.1153 -0.0426,-0.1183 -0.0351,-0.1206 -0.0274,-0.1226 -0.0196,-0.1241 L 10.504,-99.8744 10.5,-100 l 0.004,-0.126 0.0118,-0.125 0.0196,-0.124 0.0274,-0.122 0.0351,-0.121 0.0426,-0.118 0.0499,-0.116 0.057,-0.112 0.064,-0.108 0.0706,-0.104 0.077,-0.099 0.0831,-0.094 0.0888,-0.089 0.0943,-0.083 0.0992,-0.077 0.104,-0.071 0.1081,-0.064 0.112,-0.057 0.1153,-0.05 0.1182,-0.042 0.1206,-0.035 0.1226,-0.028 0.1241,-0.019 0.1251,-0.012 0.1256,-0.004 0.1256,0.004 0.1251,0.012 0.1241,0.019 0.1226,0.028 0.1206,0.035 0.1182,0.042 0.1153,0.05 0.112,0.057 0.1081,0.064 0.104,0.071 0.0992,0.077 0.0943,0.083 0.0888,0.089 0.0831,0.094 0.077,0.099 0.0706,0.104 0.064,0.108 0.057,0.112 0.0499,0.116 0.0426,0.118 0.0351,0.121 0.0274,0.122 0.0196,0.124 0.0118,0.125 0.004,0.126 -0.004,0.1256 -0.0118,0.1251 -0.0196,0.1241 -0.0274,0.1226 -0.0351,0.1206 -0.0426,0.1183 -0.0499,0.1153 -0.057,0.1119 -0.064,0.1082 -0.0706,0.1039 -0.077,0.0993 -0.0831,0.0942 -0.0888,0.0888 -0.0943,0.0831 -0.0992,0.077 -0.104,0.0707 -0.1081,0.0639 -0.112,0.0571 -0.1153,0.0499 -0.1182,0.0425 -0.1206,0.0351 -0.1226,0.0274 -0.1241,0.0196 -0.1251,0.0119 L 12.5,-98 Z m 324.9996,0 -0.125,-0.0119 -0.124,-0.0196 -0.122,-0.0274 -0.121,-0.0351 -0.118,-0.0425 -0.116,-0.0499 -0.112,-0.0571 -0.108,-0.0639 -0.104,-0.0707 -0.099,-0.077 -0.094,-0.0831 -0.089,-0.0888 -0.083,-0.0942 -0.077,-0.0993 -0.071,-0.1039 -0.064,-0.1082 -0.057,-0.1119 -0.05,-0.1153 -0.042,-0.1183 -0.035,-0.1206 -0.028,-0.1226 -0.019,-0.1241 -0.012,-0.1251 -0.004,-0.1256 0.004,-0.126 0.012,-0.125 0.019,-0.124 0.028,-0.122 0.035,-0.121 0.042,-0.118 0.05,-0.116 0.057,-0.112 0.064,-0.108 0.071,-0.104 0.077,-0.099 0.083,-0.094 0.089,-0.089 0.094,-0.083 0.099,-0.077 0.104,-0.071 0.108,-0.064 0.112,-0.057 0.116,-0.05 0.118,-0.042 0.121,-0.035 0.122,-0.028 0.124,-0.019 0.125,-0.012 0.126,-0.004 0.126,0.004 0.125,0.012 0.124,0.019 0.122,0.028 0.121,0.035 0.118,0.042 0.116,0.05 0.112,0.057 0.108,0.064 0.104,0.071 0.099,0.077 0.094,0.083 0.089,0.089 0.083,0.094 0.077,0.099 0.071,0.104 0.064,0.108 0.057,0.112 0.05,0.116 0.042,0.118 0.035,0.121 0.028,0.122 0.019,0.124 0.012,0.125 0.004,0.126 -0.004,0.1256 -0.012,0.1251 -0.019,0.1241 -0.028,0.1226 -0.035,0.1206 -0.042,0.1183 -0.05,0.1153 -0.057,0.1119 -0.064,0.1082 -0.071,0.1039 -0.077,0.0993 -0.083,0.0942 -0.089,0.0888 -0.094,0.0831 -0.099,0.077 -0.104,0.0707 -0.108,0.0639 -0.112,0.0571 -0.116,0.0499 -0.118,0.0425 -0.121,0.0351 -0.122,0.0274 -0.124,0.0196 -0.125,0.0119 L 337.5,-98 Z m -324.9996,87.5 -0.1251,-0.0119 -0.1241,-0.0196 -0.1226,-0.0274 -0.1206,-0.0351 -0.1182,-0.0425 -0.1153,-0.0499 -0.112,-0.0571 -0.1081,-0.0639 -0.104,-0.0707 -0.0992,-0.077 -0.0943,-0.0831 -0.0888,-0.0888 -0.0831,-0.0942 -0.077,-0.0993 -0.0706,-0.1039 -0.064,-0.1082 -0.057,-0.1119 -0.0499,-0.1153 -0.0426,-0.1183 -0.0351,-0.1206 -0.0274,-0.1226 -0.0196,-0.1241 -0.0118,-0.1251 -0.004,-0.1256 0.004,-0.1256 0.0118,-0.1251 0.0196,-0.1241 0.0274,-0.1226 0.0351,-0.1206 0.0426,-0.1182 0.0499,-0.1153 0.057,-0.112 0.064,-0.1081 0.0706,-0.104 0.077,-0.0992 0.0831,-0.0943 0.0888,-0.0888 0.0943,-0.0831 0.0992,-0.077 0.104,-0.0706 0.1081,-0.064 0.112,-0.057 0.1153,-0.0499 0.1182,-0.0426 0.1206,-0.0351 0.1226,-0.0274 0.1241,-0.0196 0.1251,-0.0118 0.1256,-0.004 0.1256,0.004 0.1251,0.0118 0.1241,0.0196 0.1226,0.0274 0.1206,0.0351 0.1182,0.0426 0.1153,0.0499 0.112,0.057 0.1081,0.064 0.104,0.0706 0.0992,0.077 0.0943,0.0831 0.0888,0.0888 0.0831,0.0943 0.077,0.0992 0.0706,0.104 0.064,0.1081 0.057,0.112 0.0499,0.1153 0.0426,0.1182 0.0351,0.1206 0.0274,0.1226 0.0196,0.1241 0.0118,0.1251 0.004,0.1256 -0.004,0.1256 -0.0118,0.1251 -0.0196,0.1241 -0.0274,0.1226 -0.0351,0.1206 -0.0426,0.1183 -0.0499,0.1153 -0.057,0.1119 -0.064,0.1082 -0.0706,0.1039 -0.077,0.0993 -0.0831,0.0942 -0.0888,0.0888 -0.0943,0.0831 -0.0992,0.077 -0.104,0.0707 -0.1081,0.0639 -0.112,0.0571 -0.1153,0.0499 -0.1182,0.0425 -0.1206,0.0351 -0.1226,0.0274 -0.1241,0.0196 -0.1251,0.0119 L 12.5,-10.5 Z m 162.4996,0 -0.125,-0.0119 -0.124,-0.0196 -0.122,-0.0274 -0.121,-0.0351 -0.118,-0.0425 -0.116,-0.0499 -0.112,-0.0571 -0.108,-0.0639 -0.104,-0.0707 -0.099,-0.077 -0.094,-0.0831 -0.089,-0.0888 -0.083,-0.0942 -0.077,-0.0993 -0.071,-0.1039 -0.064,-0.1082 -0.057,-0.1119 -0.05,-0.1153 -0.042,-0.1183 -0.035,-0.1206 -0.028,-0.1226 -0.019,-0.1241 -0.012,-0.1251 L 173,-12.5 l 0.004,-0.1256 0.012,-0.1251 0.019,-0.1241 0.028,-0.1226 0.035,-0.1206 0.042,-0.1182 0.05,-0.1153 0.057,-0.112 0.064,-0.1081 0.071,-0.104 0.077,-0.0992 0.083,-0.0943 0.089,-0.0888 0.094,-0.0831 0.099,-0.077 0.104,-0.0706 0.108,-0.064 0.112,-0.057 0.116,-0.0499 0.118,-0.0426 0.121,-0.0351 0.122,-0.0274 0.124,-0.0196 0.125,-0.0118 0.126,-0.004 0.126,0.004 0.125,0.0118 0.124,0.0196 0.122,0.0274 0.121,0.0351 0.118,0.0426 0.116,0.0499 0.112,0.057 0.108,0.064 0.104,0.0706 0.099,0.077 0.094,0.0831 0.089,0.0888 0.083,0.0943 0.077,0.0992 0.071,0.104 0.064,0.1081 0.057,0.112 0.05,0.1153 0.042,0.1182 0.035,0.1206 0.028,0.1226 0.019,0.1241 0.012,0.1251 0.004,0.1256 -0.004,0.1256 -0.012,0.1251 -0.019,0.1241 -0.028,0.1226 -0.035,0.1206 -0.042,0.1183 -0.05,0.1153 -0.057,0.1119 -0.064,0.1082 -0.071,0.1039 -0.077,0.0993 -0.083,0.0942 -0.089,0.0888 -0.094,0.0831 -0.099,0.077 -0.104,0.0707 -0.108,0.0639 -0.112,0.0571 -0.116,0.0499 -0.118,0.0425 -0.121,0.0351 -0.122,0.0274 -0.124,0.0196 -0.125,0.0119 L 175,-10.5 Z m 162.5,0 -0.125,-0.0119 -0.124,-0.0196 -0.122,-0.0274 -0.121,-0.0351 -0.118,-0.0425 -0.116,-0.0499 -0.112,-0.0571 -0.108,-0.0639 -0.104,-0.0707 -0.099,-0.077 -0.094,-0.0831 -0.089,-0.0888 -0.083,-0.0942 -0.077,-0.0993 -0.071,-0.1039 -0.064,-0.1082 -0.057,-0.1119 -0.05,-0.1153 -0.042,-0.1183 -0.035,-0.1206 -0.028,-0.1226 -0.019,-0.1241 -0.012,-0.1251 -0.004,-0.1256 0.004,-0.1256 0.012,-0.1251 0.019,-0.1241 0.028,-0.1226 0.035,-0.1206 0.042,-0.1182 0.05,-0.1153 0.057,-0.112 0.064,-0.1081 0.071,-0.104 0.077,-0.0992 0.083,-0.0943 0.089,-0.0888 0.094,-0.0831 0.099,-0.077 0.104,-0.0706 0.108,-0.064 0.112,-0.057 0.116,-0.0499 0.118,-0.0426 0.121,-0.0351 0.122,-0.0274 0.124,-0.0196 0.125,-0.0118 0.126,-0.004 0.126,0.004 0.125,0.0118 0.124,0.0196 0.122,0.0274 0.121,0.0351 0.118,0.0426 0.116,0.0499 0.112,0.057 0.108,0.064 0.104,0.0706 0.099,0.077 0.094,0.0831 0.089,0.0888 0.083,0.0943 0.077,0.0992 0.071,0.104 0.064,0.1081 0.057,0.112 0.05,0.1153 0.042,0.1182 0.035,0.1206 0.028,0.1226 0.019,0.1241 0.012,0.1251 0.004,0.1256 -0.004,0.1256 -0.012,0.1251 -0.019,0.1241 -0.028,0.1226 -0.035,0.1206 -0.042,0.1183 -0.05,0.1153 -0.057,0.1119 -0.064,0.1082 -0.071,0.1039 -0.077,0.0993 -0.083,0.0942 -0.089,0.0888 -0.094,0.0831 -0.099,0.077 -0.104,0.0707 -0.108,0.0639 -0.112,0.0571 -0.116,0.0499 -0.118,0.0425 -0.121,0.0351 -0.122,0.0274 -0.124,0.0196 -0.125,0.0119 -0.126,0.0039 z"
       id="path1368"
       inkscape:connector-curvature="0" />
  </g>
  <g
     inkscape:label="Template copy"
     id="g1382"
     inkscape:groupmode="layer"
     style="display:inline">
    <path
       id="path1380"
       style="fill:#d3d3d3;stroke:#000000;stroke-width:0.5"
       d="m 337.374,-10.5039 -0.125,-0.0119 -0.124,-0.0196 -0.122,-0.0274 -0.121,-0.0351 -0.118,-0.0425 -0.116,-0.0499 -0.112,-0.0571 -0.108,-0.0639 -0.104,-0.0707 -0.099,-0.077 -0.094,-0.0831 -0.089,-0.0888 -0.083,-0.0942 -0.077,-0.0993 -0.071,-0.1039 -0.064,-0.1082 -0.057,-0.1119 -0.05,-0.1153 -0.042,-0.1183 -0.035,-0.1206 -0.028,-0.1226 -0.019,-0.1241 -0.012,-0.1251 -0.004,-0.1256 0.004,-0.1256 0.012,-0.1251 0.019,-0.1241 0.028,-0.1226 0.035,-0.1206 0.042,-0.1182 0.05,-0.1153 0.057,-0.112 0.064,-0.1081 0.071,-0.104 0.077,-0.0992 0.083,-0.0943 0.089,-0.0888 0.094,-0.0831 0.099,-0.077 0.104,-0.0706 0.108,-0.064 0.112,-0.057 0.116,-0.0499 0.118,-0.0426 0.121,-0.0351 0.122,-0.0274 0.124,-0.0196 0.125,-0.0118 0.126,-0.004 0.126,0.004 0.125,0.0118 0.124,0.0196 0.122,0.0274 0.121,0.0351 0.118,0.0426 0.116,0.0499 0.112,0.057 0.108,0.064 0.104,0.0706 0.099,0.077 0.094,0.0831 0.089,0.0888 0.083,0.0943 0.077,0.0992 0.071,0.104 0.064,0.1081 0.057,0.112 0.05,0.1153 0.042,0.1182 0.035,0.1206 0.028,0.1226 0.019,0.1241 0.012,0.1251 0.004,0.1256 -0.004,0.1256 -0.012,0.1251 -0.019,0.1241 -0.028,0.1226 -0.035,0.1206 -0.042,0.1183 -0.05,0.1153 -0.057,0.1119 -0.064,0.1082 -0.071,0.1039 -0.077,0.0993 -0.083,0.0942 -0.089,0.0888 -0.094,0.0831 -0.099,0.077 -0.104,0.0707 -0.108,0.0639 -0.112,0.0571 -0.116,0.0499 -0.118,0.0425 -0.121,0.0351 -0.122,0.0274 -0.124,0.0196 -0.125,0.0119 -0.126,0.0039 z m -162.5,0 -0.125,-0.0119 -0.124,-0.0196 -0.122,-0.0274 -0.121,-0.0351 -0.118,-0.0425 -0.116,-0.0499 -0.112,-0.0571 -0.108,-0.0639 -0.104,-0.0707 -0.099,-0.077 -0.094,-0.0831 -0.089,-0.0888 -0.083,-0.0942 -0.077,-0.0993 -0.071,-0.1039 -0.064,-0.1082 -0.057,-0.1119 -0.05,-0.1153 -0.042,-0.1183 -0.035,-0.1206 -0.028,-0.1226 -0.019,-0.1241 -0.012,-0.1251 L 173,-12.5 l 0.004,-0.1256 0.012,-0.1251 0.019,-0.1241 0.028,-0.1226 0.035,-0.1206 0.042,-0.1182 0.05,-0.1153 0.057,-0.112 0.064,-0.1081 0.071,-0.104 0.077,-0.0992 0.083,-0.0943 0.089,-0.0888 0.094,-0.0831 0.099,-0.077 0.104,-0.0706 0.108,-0.064 0.112,-0.057 0.116,-0.0499 0.118,-0.0426 0.121,-0.0351 0.122,-0.0274 0.124,-0.0196 0.125,-0.0118 0.126,-0.004 0.126,0.004 0.125,0.0118 0.124,0.0196 0.122,0.0274 0.121,0.0351 0.118,0.0426 0.116,0.0499 0.112,0.057 0.108,0.064 0.104,0.0706 0.099,0.077 0.094,0.0831 0.089,0.0888 0.083,0.0943 0.077,0.0992 0.071,0.104 0.064,0.1081 0.057,0.112 0.05,0.1153 0.042,0.1182 0.035,0.1206 0.028,0.1226 0.019,0.1241 0.012,0.1251 0.004,0.1256 -0.004,0.1256 -0.012,0.1251 -0.019,0.1241 -0.028,0.1226 -0.035,0.1206 -0.042,0.1183 -0.05,0.1153 -0.057,0.1119 -0.064,0.1082 -0.071,0.1039 -0.077,0.0993 -0.083,0.0942 -0.089,0.0888 -0.094,0.0831 -0.099,0.077 -0.104,0.0707 -0.108,0.0639 -0.112,0.0571 -0.116,0.0499 -0.118,0.0425 -0.121,0.0351 -0.122,0.0274 -0.124,0.0196 -0.125,0.0119 L 175,-10.5 Z m -162.4996,0 -0.1251,-0.0119 -0.1241,-0.0196 -0.1226,-0.0274 -0.1206,-0.0351 -0.1182,-0.0425 -0.1153,-0.0499 -0.112,-0.0571 -0.1081,-0.0639 -0.104,-0.0707 -0.0992,-0.077 -0.0943,-0.0831 -0.0888,-0.0888 -0.0831,-0.0942 -0.077,-0.0993 -0.0706,-0.1039 -0.064,-0.1082 -0.057,-0.1119 -0.0499,-0.1153 -0.0426,-0.1183 -0.0351,-0.1206 -0.0274,-0.1226 -0.0196,-0.1241 -0.0118,-0.1251 -0.004,-0.1256 0.004,-0.1256 0.0118,-0.1251 0.0196,-0.1241 0.0274,-0.1226 0.0351,-0.1206 0.0426,-0.1182 0.0499,-0.1153 0.057,-0.112 0.064,-0.1081 0.0706,-0.104 0.077,-0.0992 0.0831,-0.0943 0.0888,-0.0888 0.0943,-0.0831 0.0992,-0.077 0.104,-0.0706 0.1081,-0.064 0.112,-0.057 0.1153,-0.0499 0.1182,-0.0426 0.1206,-0.0351 0.1226,-0.0274 0.1241,-0.0196 0.1251,-0.0118 0.1256,-0.004 0.1256,0.004 0.1251,0.0118 0.1241,0.0196 0.1226,0.0274 0.1206,0.0351 0.1182,0.0426 0.1153,0.0499 0.112,0.057 0.1081,0.064 0.104,0.0706 0.0992,0.077 0.0943,0.0831 0.0888,0.0888 0.0831,0.0943 0.077,0.0992 0.0706,0.104 0.064,0.1081 0.057,0.112 0.0499,0.1153 0.0426,0.1182 0.0351,0.1206 0.0274,0.1226 0.0196,0.1241 0.0118,0.1251 0.004,0.1256 -0.004,0.1256 -0.0118,0.1251 -0.0196,0.1241 -0.0274,0.1226 -0.0351,0.1206 -0.0426,0.1183 -0.0499,0.1153 -0.057,0.1119 -0.064,0.1082 -0.0706,0.1039 -0.077,0.0993 -0.0831,0.0942 -0.0888,0.0888 -0.0943,0.0831 -0.0992,0.077 -0.104,0.0707 -0.1081,0.0639 -0.112,0.0571 -0.1153,0.0499 -0.1182,0.0425 -0.1206,0.0351 -0.1226,0.0274 -0.1241,0.0196 -0.1251,0.0119 L 12.5,-10.5 Z m 324.9996,-87.5 -0.125,-0.0119 -0.124,-0.0196 -0.122,-0.0274 -0.121,-0.0351 -0.118,-0.0425 -0.116,-0.0499 -0.112,-0.0571 -0.108,-0.0639 -0.104,-0.0707 -0.099,-0.077 -0.094,-0.0831 -0.089,-0.0888 -0.083,-0.0942 -0.077,-0.0993 -0.071,-0.1039 -0.064,-0.1082 -0.057,-0.1119 -0.05,-0.1153 -0.042,-0.1183 -0.035,-0.1206 -0.028,-0.1226 -0.019,-0.1241 -0.012,-0.1251 -0.004,-0.1256 0.004,-0.126 0.012,-0.125 0.019,-0.124 0.028,-0.122 0.035,-0.121 0.042,-0.118 0.05,-0.116 0.057,-0.112 0.064,-0.108 0.071,-0.104 0.077,-0.099 0.083,-0.094 0.089,-0.089 0.094,-0.083 0.099,-0.077 0.104,-0.071 0.108,-0.064 0.112,-0.057 0.116,-0.05 0.118,-0.042 0.121,-0.035 0.122,-0.028 0.124,-0.019 0.125,-0.012 0.126,-0.004 0.126,0.004 0.125,0.012 0.124,0.019 0.122,0.028 0.121,0.035 0.118,0.042 0.116,0.05 0.112,0.057 0.108,0.064 0.104,0.071 0.099,0.077 0.094,0.083 0.089,0.089 0.083,0.094 0.077,0.099 0.071,0.104 0.064,0.108 0.057,0.112 0.05,0.116 0.042,0.118 0.035,0.121 0.028,0.122 0.019,0.124 0.012,0.125 0.004,0.126 -0.004,0.1256 -0.012,0.1251 -0.019,0.1241 -0.028,0.1226 -0.035,0.1206 -0.042,0.1183 -0.05,0.1153 -0.057,0.1119 -0.064,0.1082 -0.071,0.1039 -0.077,0.0993 -0.083,0.0942 -0.089,0.0888 -0.094,0.0831 -0.099,0.077 -0.104,0.0707 -0.108,0.0639 -0.112,0.0571 -0.116,0.0499 -0.118,0.0425 -0.121,0.0351 -0.122,0.0274 -0.124,0.0196 -0.125,0.0119 L 337.5,-98 Z m -324.9996,0 -0.1251,-0.0119 -0.1241,-0.0196 -0.1226,-0.0274 -0.1206,-0.0351 -0.1182,-0.0425 -0.1153,-0.0499 -0.112,-0.0571 -0.1081,-0.0639 -0.104,-0.0707 -0.0992,-0.077 -0.0943,-0.0831 -0.0888,-0.0888 -0.0831,-0.0942 -0.077,-0.0993 -0.0706,-0.1039 -0.064,-0.1082 -0.057,-0.1119 -0.0499,-0.1153 -0.0426,-0.1183 -0.0351,-0.1206 -0.0274,-0.1226 -0.0196,-0.1241 L 10.504,-99.8744 10.5,-100 l 0.004,-0.126 0.0118,-0.125 0.0196,-0.124 0.0274,-0.122 0.0351,-0.121 0.0426,-0.118 0.0499,-0.116 0.057,-0.112 0.064,-0.108 0.0706,-0.104 0.077,-0.099 0.0831,-0.094 0.0888,-0.089 0.0943,-0.083 0.0992,-0.077 0.104,-0.071 0.1081,-0.064 0.112,-0.057 0.1153,-0.05 0.1182,-0.042 0.1206,-0.035 0.1226,-0.028 0.1241,-0.019 0.1251,-0.012 0.1256,-0.004 0.1256,0.004 0.1251,0.012 0.1241,0.019 0.1226,0.028 0.1206,0.035 0.1182,0.042 0.1153,0.05 0.112,0.057 0.1081,0.064 0.104,0.071 0.0992,0.077 0.0943,0.083 0.0888,0.089 0.0831,0.094 0.077,0.099 0.0706,0.104 0.064,0.108 0.057,0.112 0.0499,0.116 0.0426,0.118 0.0351,0.121 0.0274,0.122 0.0196,0.124 0.0118,0.125 0.004,0.126 -0.004,0.1256 -0.0118,0.1251 -0.0196,0.1241 -0.0274,0.1226 -0.0351,0.1206 -0.0426,0.1183 -0.0499,0.1153 -0.057,0.1119 -0.064,0.1082 -0.0706,0.1039 -0.077,0.0993 -0.0831,0.0942 -0.0888,0.0888 -0.0943,0.0831 -0.0992,0.077 -0.104,0.0707 -0.1081,0.0639 -0.112,0.0571 -0.1153,0.0499 -0.1182,0.0425 -0.1206,0.0351 -0.1226,0.0274 -0.1241,0.0196 -0.1251,0.0119 L 12.5,-98 Z m 324.9996,-87.5001 -0.125,-0.012 -0.124,-0.019 -0.122,-0.028 -0.121,-0.035 -0.118,-0.042 -0.116,-0.05 -0.112,-0.057 -0.108,-0.064 -0.104,-0.071 -0.099,-0.077 -0.094,-0.083 -0.089,-0.089 -0.083,-0.094 -0.077,-0.099 -0.071,-0.104 -0.064,-0.108 -0.057,-0.112 -0.05,-0.116 -0.042,-0.118 -0.035,-0.121 -0.028,-0.122 -0.019,-0.124 -0.012,-0.125 -0.004,-0.126 0.004,-0.126 0.012,-0.125 0.019,-0.124 0.028,-0.122 0.035,-0.121 0.042,-0.118 0.05,-0.116 0.057,-0.112 0.064,-0.108 0.071,-0.104 0.077,-0.099 0.083,-0.094 0.089,-0.089 0.094,-0.083 0.099,-0.077 0.104,-0.071 0.108,-0.064 0.112,-0.057 0.116,-0.05 0.118,-0.042 0.121,-0.035 0.122,-0.028 0.124,-0.019 0.125,-0.012 0.126,-0.004 0.126,0.004 0.125,0.012 0.124,0.019 0.122,0.028 0.121,0.035 0.118,0.042 0.116,0.05 0.112,0.057 0.108,0.064 0.104,0.071 0.099,0.077 0.094,0.083 0.089,0.089 0.083,0.094 0.077,0.099 0.071,0.104 0.064,0.108 0.057,0.112 0.05,0.116 0.042,0.118 0.035,0.121 0.028,0.122 0.019,0.124 0.012,0.125 0.004,0.126 -0.004,0.126 -0.012,0.125 -0.019,0.124 -0.028,0.122 -0.035,0.121 -0.042,0.118 -0.05,0.116 -0.057,0.112 -0.064,0.108 -0.071,0.104 -0.077,0.099 -0.083,0.094 -0.089,0.089 -0.094,0.083 -0.099,0.077 -0.104,0.071 -0.108,0.064 -0.112,0.057 -0.116,0.05 -0.118,0.042 -0.121,0.035 -0.122,0.028 -0.124,0.019 -0.125,0.012 -0.126,0.004 z m -162.5,0 -0.125,-0.012 -0.124,-0.019 -0.122,-0.028 -0.121,-0.035 -0.118,-0.042 -0.116,-0.05 -0.112,-0.057 -0.108,-0.064 -0.104,-0.071 -0.099,-0.077 -0.094,-0.083 -0.089,-0.089 -0.083,-0.094 -0.077,-0.099 -0.071,-0.104 -0.064,-0.108 -0.057,-0.112 -0.05,-0.116 -0.042,-0.118 -0.035,-0.121 -0.028,-0.122 -0.019,-0.124 -0.012,-0.125 -0.004,-0.126 0.004,-0.126 0.012,-0.125 0.019,-0.124 0.028,-0.122 0.035,-0.121 0.042,-0.118 0.05,-0.116 0.057,-0.112 0.064,-0.108 0.071,-0.104 0.077,-0.099 0.083,-0.094 0.089,-0.089 0.094,-0.083 0.099,-0.077 0.104,-0.071 0.108,-0.064 0.112,-0.057 0.116,-0.05 0.118,-0.042 0.121,-0.035 0.122,-0.028 0.124,-0.019 0.125,-0.012 0.126,-0.004 0.126,0.004 0.125,0.012 0.124,0.019 0.122,0.028 0.121,0.035 0.118,0.042 0.116,0.05 0.112,0.057 0.108,0.064 0.104,0.071 0.099,0.077 0.094,0.083 0.089,0.089 0.083,0.094 0.077,0.099 0.071,0.104 0.064,0.108 0.057,0.112 0.05,0.116 0.042,0.118 0.035,0.121 0.028,0.122 0.019,0.124 0.012,0.125 0.004,0.126 -0.004,0.126 -0.012,0.125 -0.019,0.124 -0.028,0.122 -0.035,0.121 -0.042,0.118 -0.05,0.116 -0.057,0.112 -0.064,0.108 -0.071,0.104 -0.077,0.099 -0.083,0.094 -0.089,0.089 -0.094,0.083 -0.099,0.077 -0.104,0.071 -0.108,0.064 -0.112,0.057 -0.116,0.05 -0.118,0.042 -0.121,0.035 -0.122,0.028 -0.124,0.019 -0.125,0.012 -0.126,0.004 z m -162.4996,0 -0.1251,-0.012 -0.1241,-0.019 -0.1226,-0.028 -0.1206,-0.035 -0.1182,-0.042 -0.1153,-0.05 -0.112,-0.057 -0.1081,-0.064 -0.104,-0.071 -0.0992,-0.077 -0.0943,-0.083 -0.0888,-0.089 -0.0831,-0.094 -0.077,-0.099 -0.0706,-0.104 -0.064,-0.108 -0.057,-0.112 -0.0499,-0.116 -0.0426,-0.118 -0.0351,-0.121 -0.0274,-0.122 -0.0196,-0.124 -0.0118,-0.125 -0.004,-0.126 0.004,-0.126 0.0118,-0.125 0.0196,-0.124 0.0274,-0.122 0.0351,-0.121 0.0426,-0.118 0.0499,-0.116 0.057,-0.112 0.064,-0.108 0.0706,-0.104 0.077,-0.099 0.0831,-0.094 0.0888,-0.089 0.0943,-0.083 0.0992,-0.077 0.104,-0.071 0.1081,-0.064 0.112,-0.057 0.1153,-0.05 0.1182,-0.042 0.1206,-0.035 0.1226,-0.028 0.1241,-0.019 0.1251,-0.012 0.1256,-0.004 0.1256,0.004 0.1251,0.012 0.1241,0.019 0.1226,0.028 0.1206,0.035 0.1182,0.042 0.1153,0.05 0.112,0.057 0.1081,0.064 0.104,0.071 0.0992,0.077 0.0943,0.083 0.0888,0.089 0.0831,0.094 0.077,0.099 0.0706,0.104 0.064,0.108 0.057,0.112 0.0499,0.116 0.0426,0.118 0.0351,0.121 0.0274,0.122 0.0196,0.124 0.0118,0.125 0.004,0.126 -0.004,0.126 -0.0118,0.125 -0.0196,0.124 -0.0274,0.122 -0.0351,0.121 -0.0426,0.118 -0.0499,0.116 -0.057,0.112 -0.064,0.108 -0.0706,0.104 -0.077,0.099 -0.0831,0.094 -0.0888,0.089 -0.0943,0.083 -0.0992,0.077 -0.104,0.071 -0.1081,0.064 -0.112,0.057 -0.1153,0.05 -0.1182,0.042 -0.1206,0.035 -0.1226,0.028 -0.1241,0.019 -0.1251,0.012 L 12.5,-185.5 Z M 350,-200 H 0 V 0 h 350 z" />
  </g>
  <g
     inkscape:groupmode="layer"
     id="layer10"
     inkscape:label="Text">
    <path
       style="fill:#d3d3d3;stroke:#000000;stroke-width:0.5"
       d="m 137.5,-77.25 -0.251,-0.0079 -0.25,-0.0237 -0.249,-0.0393 -0.245,-0.0548 -0.241,-0.0701 -0.236,-0.0851 -0.231,-0.0998 -0.224,-0.1141 -0.216,-0.1279 -0.208,-0.1412 -0.199,-0.1541 -0.188,-0.1661 -0.178,-0.1777 -0.166,-0.1885 -0.154,-0.1986 -0.141,-0.2078 -0.128,-0.2163 -0.114,-0.2239 -0.1,-0.2306 -0.085,-0.2364 -0.07,-0.2413 -0.055,-0.2453 -0.039,-0.2482 -0.024,-0.2501 -0.008,-0.2512 v -37.5 l 0.008,-0.251 0.024,-0.25 0.039,-0.249 0.055,-0.245 0.07,-0.241 0.085,-0.236 0.1,-0.231 0.114,-0.224 0.128,-0.216 0.141,-0.208 0.154,-0.199 0.166,-0.188 0.178,-0.178 0.188,-0.166 0.199,-0.154 0.208,-0.141 0.216,-0.128 0.224,-0.114 0.231,-0.1 0.236,-0.085 0.241,-0.07 0.245,-0.055 0.249,-0.039 0.25,-0.024 0.251,-0.008 h 75 l 0.251,0.008 0.25,0.024 0.249,0.039 0.245,0.055 0.241,0.07 0.236,0.085 0.231,0.1 0.224,0.114 0.216,0.128 0.208,0.141 0.199,0.154 0.188,0.166 0.178,0.178 0.166,0.188 0.154,0.199 0.141,0.208 0.128,0.216 0.114,0.224 0.1,0.231 0.085,0.236 0.07,0.241 0.055,0.245 0.039,0.249 0.024,0.25 0.008,0.251 v 37.5 l -0.008,0.2512 -0.024,0.2501 -0.039,0.2482 -0.055,0.2453 -0.07,0.2413 -0.085,0.2364 -0.1,0.2306 -0.114,0.2239 -0.128,0.2163 -0.141,0.2078 -0.154,0.1986 -0.166,0.1885 -0.178,0.1777 -0.188,0.1661 -0.199,0.1541 -0.208,0.1412 -0.216,0.1279 -0.224,0.1141 -0.231,0.0998 -0.236,0.0851 -0.241,0.0701 -0.245,0.0548 -0.249,0.0393 -0.25,0.0237 -0.251,0.0079 z"
       id="path1394" />
    <text
       xml:space="preserve"
       style="font-style:normal;font-variant:normal;font-weight:normal;font-stretch:normal;font-size:10.58333397px;line-height:1.25;font-family:'JMH Typewriter';-inkscape-font-specification:'JMH Typewriter';text-align:center;letter-spacing:0px;word-spacing:0px;text-anchor:middle;fill:#000000;fill-opacity:1;stroke:none;stroke-width:0.26458335"
       x="175"
       y="-109.46195"
       id="text1409"><tspan
         sodipodi:role="line"
         id="tspan1407"
         x="175"
         y="-109.46195"
         style="font-style:normal;font-variant:normal;font-weight:normal;font-stretch:normal;font-family:'JMH Typewriter';-inkscape-font-specification:'JMH Typewriter';text-align:center;text-anchor:middle;stroke-width:0.26458335">IYKE CUSTOM</tspan><tspan
         sodipodi:role="line"
         x="175"
         y="-96.232788"
         style="font-style:normal;font-variant:normal;font-weight:normal;font-stretch:normal;font-family:'JMH Typewriter';-inkscape-font-specification:'JMH Typewriter';text-align:center;text-anchor:middle;stroke-width:0.26458335"
         id="tspan1411">JILL</tspan><tspan
         sodipodi:role="line"
         x="175"
         y="-83.003616"
         style="font-style:normal;font-variant:normal;font-weight:normal;font-stretch:normal;font-family:'JMH Typewriter';-inkscape-font-specification:'JMH Typewriter';text-align:center;text-anchor:middle;stroke-width:0.26458335"
         id="tspan1413">ASTRO P2</tspan></text>
  </g>
</svg>
