<?xml version="1.0" encoding="UTF-8" standalone="no"?>
<svg
   xmlns:dc="http://purl.org/dc/elements/1.1/"
   xmlns:cc="http://creativecommons.org/ns#"
   xmlns:rdf="http://www.w3.org/1999/02/22-rdf-syntax-ns#"
   xmlns:svg="http://www.w3.org/2000/svg"
   xmlns="http://www.w3.org/2000/svg"
   xmlns:sodipodi="http://sodipodi.sourceforge.net/DTD/sodipodi-0.dtd"
   xmlns:inkscape="http://www.inkscape.org/namespaces/inkscape"
   width="350mm"
   height="200mm"
   viewBox="0 -200 350 200"
   version="1.1"
   id="svg1370"
   sodipodi:docname="Jill Bottom.svg"
   inkscape:version="0.92.4 5da689c313, 2019-01-14">
  <metadata
     id="metadata1376">
    <rdf:RDF>
      <cc:Work
         rdf:about="">
        <dc:format>image/svg+xml</dc:format>
        <dc:type
           rdf:resource="http://purl.org/dc/dcmitype/StillImage" />
        <dc:title>OpenSCAD Model</dc:title>
      </cc:Work>
    </rdf:RDF>
  </metadata>
  <defs
     id="defs1374" />
  <sodipodi:namedview
     pagecolor="#ffffff"
     bordercolor="#666666"
     borderopacity="1"
     objecttolerance="10"
     gridtolerance="10"
     guidetolerance="10"
     inkscape:pageopacity="0"
     inkscape:pageshadow="2"
     inkscape:window-width="1366"
     inkscape:window-height="768"
     id="namedview1372"
     showgrid="false"
     inkscape:zoom="0.48938834"
     inkscape:cx="400.77715"
     inkscape:cy="280.87585"
     inkscape:window-x="0"
     inkscape:window-y="0"
     inkscape:window-maximized="0"
     inkscape:current-layer="g1542" />
  <title
     id="title1366">OpenSCAD Model</title>
  <g
     inkscape:groupmode="layer"
     id="layer11"
     inkscape:label="Backups"
     style="display:none"
     sodipodi:insensitive="true">
    <g
       inkscape:groupmode="layer"
       id="layer10"
       inkscape:label="Text"
       style="display:inline"
       sodipodi:insensitive="true">
      <path
         style="fill:#d3d3d3;stroke:#000000;stroke-width:0.5"
         d="m 137.5,-77.25 -0.251,-0.0079 -0.25,-0.0237 -0.249,-0.0393 -0.245,-0.0548 -0.241,-0.0701 -0.236,-0.0851 -0.231,-0.0998 -0.224,-0.1141 -0.216,-0.1279 -0.208,-0.1412 -0.199,-0.1541 -0.188,-0.1661 -0.178,-0.1777 -0.166,-0.1885 -0.154,-0.1986 -0.141,-0.2078 -0.128,-0.2163 -0.114,-0.2239 -0.1,-0.2306 -0.085,-0.2364 -0.07,-0.2413 -0.055,-0.2453 -0.039,-0.2482 -0.024,-0.2501 -0.008,-0.2512 v -37.5 l 0.008,-0.251 0.024,-0.25 0.039,-0.249 0.055,-0.245 0.07,-0.241 0.085,-0.236 0.1,-0.231 0.114,-0.224 0.128,-0.216 0.141,-0.208 0.154,-0.199 0.166,-0.188 0.178,-0.178 0.188,-0.166 0.199,-0.154 0.208,-0.141 0.216,-0.128 0.224,-0.114 0.231,-0.1 0.236,-0.085 0.241,-0.07 0.245,-0.055 0.249,-0.039 0.25,-0.024 0.251,-0.008 h 75 l 0.251,0.008 0.25,0.024 0.249,0.039 0.245,0.055 0.241,0.07 0.236,0.085 0.231,0.1 0.224,0.114 0.216,0.128 0.208,0.141 0.199,0.154 0.188,0.166 0.178,0.178 0.166,0.188 0.154,0.199 0.141,0.208 0.128,0.216 0.114,0.224 0.1,0.231 0.085,0.236 0.07,0.241 0.055,0.245 0.039,0.249 0.024,0.25 0.008,0.251 v 37.5 l -0.008,0.2512 -0.024,0.2501 -0.039,0.2482 -0.055,0.2453 -0.07,0.2413 -0.085,0.2364 -0.1,0.2306 -0.114,0.2239 -0.128,0.2163 -0.141,0.2078 -0.154,0.1986 -0.166,0.1885 -0.178,0.1777 -0.188,0.1661 -0.199,0.1541 -0.208,0.1412 -0.216,0.1279 -0.224,0.1141 -0.231,0.0998 -0.236,0.0851 -0.241,0.0701 -0.245,0.0548 -0.249,0.0393 -0.25,0.0237 -0.251,0.0079 z"
         id="path1394"
         inkscape:connector-curvature="0" />
      <text
         xml:space="preserve"
         style="font-style:normal;font-variant:normal;font-weight:normal;font-stretch:normal;font-size:10.58333397px;line-height:1.25;font-family:'JMH Typewriter';-inkscape-font-specification:'JMH Typewriter';text-align:center;letter-spacing:0px;word-spacing:0px;text-anchor:middle;fill:#000000;fill-opacity:1;stroke:none;stroke-width:0.26458335"
         x="175"
         y="-109.46195"
         id="text1409"><tspan
           sodipodi:role="line"
           id="tspan1407"
           x="175"
           y="-109.46195"
           style="font-style:normal;font-variant:normal;font-weight:normal;font-stretch:normal;font-family:'JMH Typewriter';-inkscape-font-specification:'JMH Typewriter';text-align:center;text-anchor:middle;stroke-width:0.26458335">IYKE CUSTOM</tspan><tspan
           sodipodi:role="line"
           x="175"
           y="-96.232788"
           style="font-style:normal;font-variant:normal;font-weight:normal;font-stretch:normal;font-family:'JMH Typewriter';-inkscape-font-specification:'JMH Typewriter';text-align:center;text-anchor:middle;stroke-width:0.26458335"
           id="tspan1411">JILL</tspan><tspan
           sodipodi:role="line"
           x="175"
           y="-83.003616"
           style="font-style:normal;font-variant:normal;font-weight:normal;font-stretch:normal;font-family:'JMH Typewriter';-inkscape-font-specification:'JMH Typewriter';text-align:center;text-anchor:middle;stroke-width:0.26458335"
           id="tspan1413">ASTRO P2</tspan></text>
    </g>
    <g
       inkscape:groupmode="layer"
       id="layer9"
       inkscape:label="Template"
       sodipodi:insensitive="true"
       style="display:inline">
      <path
         style="fill:#d3d3d3;stroke:#000000;stroke-width:0.5"
         d="M 350,-200 H 0 V 0 h 350 z m -337.6256,14.496 -0.1251,-0.012 -0.1241,-0.019 -0.1226,-0.028 -0.1206,-0.035 -0.1182,-0.042 -0.1153,-0.05 -0.112,-0.057 -0.1081,-0.064 -0.104,-0.071 -0.0992,-0.077 -0.0943,-0.083 -0.0888,-0.089 -0.0831,-0.094 -0.077,-0.099 -0.0706,-0.104 -0.064,-0.108 -0.057,-0.112 -0.0499,-0.116 -0.0426,-0.118 -0.0351,-0.121 -0.0274,-0.122 -0.0196,-0.124 -0.0118,-0.125 -0.004,-0.126 0.004,-0.126 0.0118,-0.125 0.0196,-0.124 0.0274,-0.122 0.0351,-0.121 0.0426,-0.118 0.0499,-0.116 0.057,-0.112 0.064,-0.108 0.0706,-0.104 0.077,-0.099 0.0831,-0.094 0.0888,-0.089 0.0943,-0.083 0.0992,-0.077 0.104,-0.071 0.1081,-0.064 0.112,-0.057 0.1153,-0.05 0.1182,-0.042 0.1206,-0.035 0.1226,-0.028 0.1241,-0.019 0.1251,-0.012 0.1256,-0.004 0.1256,0.004 0.1251,0.012 0.1241,0.019 0.1226,0.028 0.1206,0.035 0.1182,0.042 0.1153,0.05 0.112,0.057 0.1081,0.064 0.104,0.071 0.0992,0.077 0.0943,0.083 0.0888,0.089 0.0831,0.094 0.077,0.099 0.0706,0.104 0.064,0.108 0.057,0.112 0.0499,0.116 0.0426,0.118 0.0351,0.121 0.0274,0.122 0.0196,0.124 0.0118,0.125 0.004,0.126 -0.004,0.126 -0.0118,0.125 -0.0196,0.124 -0.0274,0.122 -0.0351,0.121 -0.0426,0.118 -0.0499,0.116 -0.057,0.112 -0.064,0.108 -0.0706,0.104 -0.077,0.099 -0.0831,0.094 -0.0888,0.089 -0.0943,0.083 -0.0992,0.077 -0.104,0.071 -0.1081,0.064 -0.112,0.057 -0.1153,0.05 -0.1182,0.042 -0.1206,0.035 -0.1226,0.028 -0.1241,0.019 -0.1251,0.012 -0.1256,0.004 z m 162.4996,0 -0.125,-0.012 -0.124,-0.019 -0.122,-0.028 -0.121,-0.035 -0.118,-0.042 -0.116,-0.05 -0.112,-0.057 -0.108,-0.064 -0.104,-0.071 -0.099,-0.077 -0.094,-0.083 -0.089,-0.089 -0.083,-0.094 -0.077,-0.099 -0.071,-0.104 -0.064,-0.108 -0.057,-0.112 -0.05,-0.116 -0.042,-0.118 -0.035,-0.121 -0.028,-0.122 -0.019,-0.124 -0.012,-0.125 -0.004,-0.126 0.004,-0.126 0.012,-0.125 0.019,-0.124 0.028,-0.122 0.035,-0.121 0.042,-0.118 0.05,-0.116 0.057,-0.112 0.064,-0.108 0.071,-0.104 0.077,-0.099 0.083,-0.094 0.089,-0.089 0.094,-0.083 0.099,-0.077 0.104,-0.071 0.108,-0.064 0.112,-0.057 0.116,-0.05 0.118,-0.042 0.121,-0.035 0.122,-0.028 0.124,-0.019 0.125,-0.012 0.126,-0.004 0.126,0.004 0.125,0.012 0.124,0.019 0.122,0.028 0.121,0.035 0.118,0.042 0.116,0.05 0.112,0.057 0.108,0.064 0.104,0.071 0.099,0.077 0.094,0.083 0.089,0.089 0.083,0.094 0.077,0.099 0.071,0.104 0.064,0.108 0.057,0.112 0.05,0.116 0.042,0.118 0.035,0.121 0.028,0.122 0.019,0.124 0.012,0.125 0.004,0.126 -0.004,0.126 -0.012,0.125 -0.019,0.124 -0.028,0.122 -0.035,0.121 -0.042,0.118 -0.05,0.116 -0.057,0.112 -0.064,0.108 -0.071,0.104 -0.077,0.099 -0.083,0.094 -0.089,0.089 -0.094,0.083 -0.099,0.077 -0.104,0.071 -0.108,0.064 -0.112,0.057 -0.116,0.05 -0.118,0.042 -0.121,0.035 -0.122,0.028 -0.124,0.019 -0.125,0.012 -0.126,0.004 z m 162.5,0 -0.125,-0.012 -0.124,-0.019 -0.122,-0.028 -0.121,-0.035 -0.118,-0.042 -0.116,-0.05 -0.112,-0.057 -0.108,-0.064 -0.104,-0.071 -0.099,-0.077 -0.094,-0.083 -0.089,-0.089 -0.083,-0.094 -0.077,-0.099 -0.071,-0.104 -0.064,-0.108 -0.057,-0.112 -0.05,-0.116 -0.042,-0.118 -0.035,-0.121 -0.028,-0.122 -0.019,-0.124 -0.012,-0.125 -0.004,-0.126 0.004,-0.126 0.012,-0.125 0.019,-0.124 0.028,-0.122 0.035,-0.121 0.042,-0.118 0.05,-0.116 0.057,-0.112 0.064,-0.108 0.071,-0.104 0.077,-0.099 0.083,-0.094 0.089,-0.089 0.094,-0.083 0.099,-0.077 0.104,-0.071 0.108,-0.064 0.112,-0.057 0.116,-0.05 0.118,-0.042 0.121,-0.035 0.122,-0.028 0.124,-0.019 0.125,-0.012 0.126,-0.004 0.126,0.004 0.125,0.012 0.124,0.019 0.122,0.028 0.121,0.035 0.118,0.042 0.116,0.05 0.112,0.057 0.108,0.064 0.104,0.071 0.099,0.077 0.094,0.083 0.089,0.089 0.083,0.094 0.077,0.099 0.071,0.104 0.064,0.108 0.057,0.112 0.05,0.116 0.042,0.118 0.035,0.121 0.028,0.122 0.019,0.124 0.012,0.125 0.004,0.126 -0.004,0.126 -0.012,0.125 -0.019,0.124 -0.028,0.122 -0.035,0.121 -0.042,0.118 -0.05,0.116 -0.057,0.112 -0.064,0.108 -0.071,0.104 -0.077,0.099 -0.083,0.094 -0.089,0.089 -0.094,0.083 -0.099,0.077 -0.104,0.071 -0.108,0.064 -0.112,0.057 -0.116,0.05 -0.118,0.042 -0.121,0.035 -0.122,0.028 -0.124,0.019 -0.125,0.012 -0.126,0.004 z M 137.5,-77.25 l -0.251,-0.0079 -0.25,-0.0237 -0.249,-0.0393 -0.245,-0.0548 -0.241,-0.0701 -0.236,-0.0851 -0.231,-0.0998 -0.224,-0.1141 -0.216,-0.1279 -0.208,-0.1412 -0.199,-0.1541 -0.188,-0.1661 -0.178,-0.1777 -0.166,-0.1885 -0.154,-0.1986 -0.141,-0.2078 -0.128,-0.2163 -0.114,-0.2239 -0.1,-0.2306 -0.085,-0.2364 -0.07,-0.2413 -0.055,-0.2453 -0.039,-0.2482 -0.024,-0.2501 -0.008,-0.2512 v -37.5 l 0.008,-0.251 0.024,-0.25 0.039,-0.249 0.055,-0.245 0.07,-0.241 0.085,-0.236 0.1,-0.231 0.114,-0.224 0.128,-0.216 0.141,-0.208 0.154,-0.199 0.166,-0.188 0.178,-0.178 0.188,-0.166 0.199,-0.154 0.208,-0.141 0.216,-0.128 0.224,-0.114 0.231,-0.1 0.236,-0.085 0.241,-0.07 0.245,-0.055 0.249,-0.039 0.25,-0.024 0.251,-0.008 h 75 l 0.251,0.008 0.25,0.024 0.249,0.039 0.245,0.055 0.241,0.07 0.236,0.085 0.231,0.1 0.224,0.114 0.216,0.128 0.208,0.141 0.199,0.154 0.188,0.166 0.178,0.178 0.166,0.188 0.154,0.199 0.141,0.208 0.128,0.216 0.114,0.224 0.1,0.231 0.085,0.236 0.07,0.241 0.055,0.245 0.039,0.249 0.024,0.25 0.008,0.251 v 37.5 l -0.008,0.2512 -0.024,0.2501 -0.039,0.2482 -0.055,0.2453 -0.07,0.2413 -0.085,0.2364 -0.1,0.2306 -0.114,0.2239 -0.128,0.2163 -0.141,0.2078 -0.154,0.1986 -0.166,0.1885 -0.178,0.1777 -0.188,0.1661 -0.199,0.1541 -0.208,0.1412 -0.216,0.1279 -0.224,0.1141 -0.231,0.0998 -0.236,0.0851 -0.241,0.0701 -0.245,0.0548 -0.249,0.0393 -0.25,0.0237 -0.251,0.0079 z m -125.1256,-20.7539 -0.1251,-0.0119 -0.1241,-0.0196 -0.1226,-0.0274 -0.1206,-0.0351 -0.1182,-0.0425 -0.1153,-0.0499 -0.112,-0.0571 -0.1081,-0.0639 -0.104,-0.0707 -0.0992,-0.077 -0.0943,-0.0831 -0.0888,-0.0888 -0.0831,-0.0942 -0.077,-0.0993 -0.0706,-0.1039 -0.064,-0.1082 -0.057,-0.1119 -0.0499,-0.1153 -0.0426,-0.1183 -0.0351,-0.1206 -0.0274,-0.1226 -0.0196,-0.1241 L 10.504,-99.8744 10.5,-100 l 0.004,-0.126 0.0118,-0.125 0.0196,-0.124 0.0274,-0.122 0.0351,-0.121 0.0426,-0.118 0.0499,-0.116 0.057,-0.112 0.064,-0.108 0.0706,-0.104 0.077,-0.099 0.0831,-0.094 0.0888,-0.089 0.0943,-0.083 0.0992,-0.077 0.104,-0.071 0.1081,-0.064 0.112,-0.057 0.1153,-0.05 0.1182,-0.042 0.1206,-0.035 0.1226,-0.028 0.1241,-0.019 0.1251,-0.012 0.1256,-0.004 0.1256,0.004 0.1251,0.012 0.1241,0.019 0.1226,0.028 0.1206,0.035 0.1182,0.042 0.1153,0.05 0.112,0.057 0.1081,0.064 0.104,0.071 0.0992,0.077 0.0943,0.083 0.0888,0.089 0.0831,0.094 0.077,0.099 0.0706,0.104 0.064,0.108 0.057,0.112 0.0499,0.116 0.0426,0.118 0.0351,0.121 0.0274,0.122 0.0196,0.124 0.0118,0.125 0.004,0.126 -0.004,0.1256 -0.0118,0.1251 -0.0196,0.1241 -0.0274,0.1226 -0.0351,0.1206 -0.0426,0.1183 -0.0499,0.1153 -0.057,0.1119 -0.064,0.1082 -0.0706,0.1039 -0.077,0.0993 -0.0831,0.0942 -0.0888,0.0888 -0.0943,0.0831 -0.0992,0.077 -0.104,0.0707 -0.1081,0.0639 -0.112,0.0571 -0.1153,0.0499 -0.1182,0.0425 -0.1206,0.0351 -0.1226,0.0274 -0.1241,0.0196 -0.1251,0.0119 L 12.5,-98 Z m 324.9996,0 -0.125,-0.0119 -0.124,-0.0196 -0.122,-0.0274 -0.121,-0.0351 -0.118,-0.0425 -0.116,-0.0499 -0.112,-0.0571 -0.108,-0.0639 -0.104,-0.0707 -0.099,-0.077 -0.094,-0.0831 -0.089,-0.0888 -0.083,-0.0942 -0.077,-0.0993 -0.071,-0.1039 -0.064,-0.1082 -0.057,-0.1119 -0.05,-0.1153 -0.042,-0.1183 -0.035,-0.1206 -0.028,-0.1226 -0.019,-0.1241 -0.012,-0.1251 -0.004,-0.1256 0.004,-0.126 0.012,-0.125 0.019,-0.124 0.028,-0.122 0.035,-0.121 0.042,-0.118 0.05,-0.116 0.057,-0.112 0.064,-0.108 0.071,-0.104 0.077,-0.099 0.083,-0.094 0.089,-0.089 0.094,-0.083 0.099,-0.077 0.104,-0.071 0.108,-0.064 0.112,-0.057 0.116,-0.05 0.118,-0.042 0.121,-0.035 0.122,-0.028 0.124,-0.019 0.125,-0.012 0.126,-0.004 0.126,0.004 0.125,0.012 0.124,0.019 0.122,0.028 0.121,0.035 0.118,0.042 0.116,0.05 0.112,0.057 0.108,0.064 0.104,0.071 0.099,0.077 0.094,0.083 0.089,0.089 0.083,0.094 0.077,0.099 0.071,0.104 0.064,0.108 0.057,0.112 0.05,0.116 0.042,0.118 0.035,0.121 0.028,0.122 0.019,0.124 0.012,0.125 0.004,0.126 -0.004,0.1256 -0.012,0.1251 -0.019,0.1241 -0.028,0.1226 -0.035,0.1206 -0.042,0.1183 -0.05,0.1153 -0.057,0.1119 -0.064,0.1082 -0.071,0.1039 -0.077,0.0993 -0.083,0.0942 -0.089,0.0888 -0.094,0.0831 -0.099,0.077 -0.104,0.0707 -0.108,0.0639 -0.112,0.0571 -0.116,0.0499 -0.118,0.0425 -0.121,0.0351 -0.122,0.0274 -0.124,0.0196 -0.125,0.0119 L 337.5,-98 Z m -324.9996,87.5 -0.1251,-0.0119 -0.1241,-0.0196 -0.1226,-0.0274 -0.1206,-0.0351 -0.1182,-0.0425 -0.1153,-0.0499 -0.112,-0.0571 -0.1081,-0.0639 -0.104,-0.0707 -0.0992,-0.077 -0.0943,-0.0831 -0.0888,-0.0888 -0.0831,-0.0942 -0.077,-0.0993 -0.0706,-0.1039 -0.064,-0.1082 -0.057,-0.1119 -0.0499,-0.1153 -0.0426,-0.1183 -0.0351,-0.1206 -0.0274,-0.1226 -0.0196,-0.1241 -0.0118,-0.1251 -0.004,-0.1256 0.004,-0.1256 0.0118,-0.1251 0.0196,-0.1241 0.0274,-0.1226 0.0351,-0.1206 0.0426,-0.1182 0.0499,-0.1153 0.057,-0.112 0.064,-0.1081 0.0706,-0.104 0.077,-0.0992 0.0831,-0.0943 0.0888,-0.0888 0.0943,-0.0831 0.0992,-0.077 0.104,-0.0706 0.1081,-0.064 0.112,-0.057 0.1153,-0.0499 0.1182,-0.0426 0.1206,-0.0351 0.1226,-0.0274 0.1241,-0.0196 0.1251,-0.0118 0.1256,-0.004 0.1256,0.004 0.1251,0.0118 0.1241,0.0196 0.1226,0.0274 0.1206,0.0351 0.1182,0.0426 0.1153,0.0499 0.112,0.057 0.1081,0.064 0.104,0.0706 0.0992,0.077 0.0943,0.0831 0.0888,0.0888 0.0831,0.0943 0.077,0.0992 0.0706,0.104 0.064,0.1081 0.057,0.112 0.0499,0.1153 0.0426,0.1182 0.0351,0.1206 0.0274,0.1226 0.0196,0.1241 0.0118,0.1251 0.004,0.1256 -0.004,0.1256 -0.0118,0.1251 -0.0196,0.1241 -0.0274,0.1226 -0.0351,0.1206 -0.0426,0.1183 -0.0499,0.1153 -0.057,0.1119 -0.064,0.1082 -0.0706,0.1039 -0.077,0.0993 -0.0831,0.0942 -0.0888,0.0888 -0.0943,0.0831 -0.0992,0.077 -0.104,0.0707 -0.1081,0.0639 -0.112,0.0571 -0.1153,0.0499 -0.1182,0.0425 -0.1206,0.0351 -0.1226,0.0274 -0.1241,0.0196 -0.1251,0.0119 L 12.5,-10.5 Z m 162.4996,0 -0.125,-0.0119 -0.124,-0.0196 -0.122,-0.0274 -0.121,-0.0351 -0.118,-0.0425 -0.116,-0.0499 -0.112,-0.0571 -0.108,-0.0639 -0.104,-0.0707 -0.099,-0.077 -0.094,-0.0831 -0.089,-0.0888 -0.083,-0.0942 -0.077,-0.0993 -0.071,-0.1039 -0.064,-0.1082 -0.057,-0.1119 -0.05,-0.1153 -0.042,-0.1183 -0.035,-0.1206 -0.028,-0.1226 -0.019,-0.1241 -0.012,-0.1251 L 173,-12.5 l 0.004,-0.1256 0.012,-0.1251 0.019,-0.1241 0.028,-0.1226 0.035,-0.1206 0.042,-0.1182 0.05,-0.1153 0.057,-0.112 0.064,-0.1081 0.071,-0.104 0.077,-0.0992 0.083,-0.0943 0.089,-0.0888 0.094,-0.0831 0.099,-0.077 0.104,-0.0706 0.108,-0.064 0.112,-0.057 0.116,-0.0499 0.118,-0.0426 0.121,-0.0351 0.122,-0.0274 0.124,-0.0196 0.125,-0.0118 0.126,-0.004 0.126,0.004 0.125,0.0118 0.124,0.0196 0.122,0.0274 0.121,0.0351 0.118,0.0426 0.116,0.0499 0.112,0.057 0.108,0.064 0.104,0.0706 0.099,0.077 0.094,0.0831 0.089,0.0888 0.083,0.0943 0.077,0.0992 0.071,0.104 0.064,0.1081 0.057,0.112 0.05,0.1153 0.042,0.1182 0.035,0.1206 0.028,0.1226 0.019,0.1241 0.012,0.1251 0.004,0.1256 -0.004,0.1256 -0.012,0.1251 -0.019,0.1241 -0.028,0.1226 -0.035,0.1206 -0.042,0.1183 -0.05,0.1153 -0.057,0.1119 -0.064,0.1082 -0.071,0.1039 -0.077,0.0993 -0.083,0.0942 -0.089,0.0888 -0.094,0.0831 -0.099,0.077 -0.104,0.0707 -0.108,0.0639 -0.112,0.0571 -0.116,0.0499 -0.118,0.0425 -0.121,0.0351 -0.122,0.0274 -0.124,0.0196 -0.125,0.0119 L 175,-10.5 Z m 162.5,0 -0.125,-0.0119 -0.124,-0.0196 -0.122,-0.0274 -0.121,-0.0351 -0.118,-0.0425 -0.116,-0.0499 -0.112,-0.0571 -0.108,-0.0639 -0.104,-0.0707 -0.099,-0.077 -0.094,-0.0831 -0.089,-0.0888 -0.083,-0.0942 -0.077,-0.0993 -0.071,-0.1039 -0.064,-0.1082 -0.057,-0.1119 -0.05,-0.1153 -0.042,-0.1183 -0.035,-0.1206 -0.028,-0.1226 -0.019,-0.1241 -0.012,-0.1251 -0.004,-0.1256 0.004,-0.1256 0.012,-0.1251 0.019,-0.1241 0.028,-0.1226 0.035,-0.1206 0.042,-0.1182 0.05,-0.1153 0.057,-0.112 0.064,-0.1081 0.071,-0.104 0.077,-0.0992 0.083,-0.0943 0.089,-0.0888 0.094,-0.0831 0.099,-0.077 0.104,-0.0706 0.108,-0.064 0.112,-0.057 0.116,-0.0499 0.118,-0.0426 0.121,-0.0351 0.122,-0.0274 0.124,-0.0196 0.125,-0.0118 0.126,-0.004 0.126,0.004 0.125,0.0118 0.124,0.0196 0.122,0.0274 0.121,0.0351 0.118,0.0426 0.116,0.0499 0.112,0.057 0.108,0.064 0.104,0.0706 0.099,0.077 0.094,0.0831 0.089,0.0888 0.083,0.0943 0.077,0.0992 0.071,0.104 0.064,0.1081 0.057,0.112 0.05,0.1153 0.042,0.1182 0.035,0.1206 0.028,0.1226 0.019,0.1241 0.012,0.1251 0.004,0.1256 -0.004,0.1256 -0.012,0.1251 -0.019,0.1241 -0.028,0.1226 -0.035,0.1206 -0.042,0.1183 -0.05,0.1153 -0.057,0.1119 -0.064,0.1082 -0.071,0.1039 -0.077,0.0993 -0.083,0.0942 -0.089,0.0888 -0.094,0.0831 -0.099,0.077 -0.104,0.0707 -0.108,0.0639 -0.112,0.0571 -0.116,0.0499 -0.118,0.0425 -0.121,0.0351 -0.122,0.0274 -0.124,0.0196 -0.125,0.0119 -0.126,0.0039 z"
         id="path1368"
         inkscape:connector-curvature="0" />
    </g>
  </g>
  <g
     inkscape:label="Template"
     id="g1382"
     inkscape:groupmode="layer"
     style="display:inline"
     sodipodi:insensitive="true">
    <path
       id="path1380"
       style="fill:#d3d3d3;stroke:#000000;stroke-width:0.5"
       d="m 337.374,-10.5039 -0.125,-0.0119 -0.124,-0.0196 -0.122,-0.0274 -0.121,-0.0351 -0.118,-0.0425 -0.116,-0.0499 -0.112,-0.0571 -0.108,-0.0639 -0.104,-0.0707 -0.099,-0.077 -0.094,-0.0831 -0.089,-0.0888 -0.083,-0.0942 -0.077,-0.0993 -0.071,-0.1039 -0.064,-0.1082 -0.057,-0.1119 -0.05,-0.1153 -0.042,-0.1183 -0.035,-0.1206 -0.028,-0.1226 -0.019,-0.1241 -0.012,-0.1251 -0.004,-0.1256 0.004,-0.1256 0.012,-0.1251 0.019,-0.1241 0.028,-0.1226 0.035,-0.1206 0.042,-0.1182 0.05,-0.1153 0.057,-0.112 0.064,-0.1081 0.071,-0.104 0.077,-0.0992 0.083,-0.0943 0.089,-0.0888 0.094,-0.0831 0.099,-0.077 0.104,-0.0706 0.108,-0.064 0.112,-0.057 0.116,-0.0499 0.118,-0.0426 0.121,-0.0351 0.122,-0.0274 0.124,-0.0196 0.125,-0.0118 0.126,-0.004 0.126,0.004 0.125,0.0118 0.124,0.0196 0.122,0.0274 0.121,0.0351 0.118,0.0426 0.116,0.0499 0.112,0.057 0.108,0.064 0.104,0.0706 0.099,0.077 0.094,0.0831 0.089,0.0888 0.083,0.0943 0.077,0.0992 0.071,0.104 0.064,0.1081 0.057,0.112 0.05,0.1153 0.042,0.1182 0.035,0.1206 0.028,0.1226 0.019,0.1241 0.012,0.1251 0.004,0.1256 -0.004,0.1256 -0.012,0.1251 -0.019,0.1241 -0.028,0.1226 -0.035,0.1206 -0.042,0.1183 -0.05,0.1153 -0.057,0.1119 -0.064,0.1082 -0.071,0.1039 -0.077,0.0993 -0.083,0.0942 -0.089,0.0888 -0.094,0.0831 -0.099,0.077 -0.104,0.0707 -0.108,0.0639 -0.112,0.0571 -0.116,0.0499 -0.118,0.0425 -0.121,0.0351 -0.122,0.0274 -0.124,0.0196 -0.125,0.0119 -0.126,0.0039 z m -162.5,0 -0.125,-0.0119 -0.124,-0.0196 -0.122,-0.0274 -0.121,-0.0351 -0.118,-0.0425 -0.116,-0.0499 -0.112,-0.0571 -0.108,-0.0639 -0.104,-0.0707 -0.099,-0.077 -0.094,-0.0831 -0.089,-0.0888 -0.083,-0.0942 -0.077,-0.0993 -0.071,-0.1039 -0.064,-0.1082 -0.057,-0.1119 -0.05,-0.1153 -0.042,-0.1183 -0.035,-0.1206 -0.028,-0.1226 -0.019,-0.1241 -0.012,-0.1251 L 173,-12.5 l 0.004,-0.1256 0.012,-0.1251 0.019,-0.1241 0.028,-0.1226 0.035,-0.1206 0.042,-0.1182 0.05,-0.1153 0.057,-0.112 0.064,-0.1081 0.071,-0.104 0.077,-0.0992 0.083,-0.0943 0.089,-0.0888 0.094,-0.0831 0.099,-0.077 0.104,-0.0706 0.108,-0.064 0.112,-0.057 0.116,-0.0499 0.118,-0.0426 0.121,-0.0351 0.122,-0.0274 0.124,-0.0196 0.125,-0.0118 0.126,-0.004 0.126,0.004 0.125,0.0118 0.124,0.0196 0.122,0.0274 0.121,0.0351 0.118,0.0426 0.116,0.0499 0.112,0.057 0.108,0.064 0.104,0.0706 0.099,0.077 0.094,0.0831 0.089,0.0888 0.083,0.0943 0.077,0.0992 0.071,0.104 0.064,0.1081 0.057,0.112 0.05,0.1153 0.042,0.1182 0.035,0.1206 0.028,0.1226 0.019,0.1241 0.012,0.1251 0.004,0.1256 -0.004,0.1256 -0.012,0.1251 -0.019,0.1241 -0.028,0.1226 -0.035,0.1206 -0.042,0.1183 -0.05,0.1153 -0.057,0.1119 -0.064,0.1082 -0.071,0.1039 -0.077,0.0993 -0.083,0.0942 -0.089,0.0888 -0.094,0.0831 -0.099,0.077 -0.104,0.0707 -0.108,0.0639 -0.112,0.0571 -0.116,0.0499 -0.118,0.0425 -0.121,0.0351 -0.122,0.0274 -0.124,0.0196 -0.125,0.0119 L 175,-10.5 Z m -162.4996,0 -0.1251,-0.0119 -0.1241,-0.0196 -0.1226,-0.0274 -0.1206,-0.0351 -0.1182,-0.0425 -0.1153,-0.0499 -0.112,-0.0571 -0.1081,-0.0639 -0.104,-0.0707 -0.0992,-0.077 -0.0943,-0.0831 -0.0888,-0.0888 -0.0831,-0.0942 -0.077,-0.0993 -0.0706,-0.1039 -0.064,-0.1082 -0.057,-0.1119 -0.0499,-0.1153 -0.0426,-0.1183 -0.0351,-0.1206 -0.0274,-0.1226 -0.0196,-0.1241 -0.0118,-0.1251 -0.004,-0.1256 0.004,-0.1256 0.0118,-0.1251 0.0196,-0.1241 0.0274,-0.1226 0.0351,-0.1206 0.0426,-0.1182 0.0499,-0.1153 0.057,-0.112 0.064,-0.1081 0.0706,-0.104 0.077,-0.0992 0.0831,-0.0943 0.0888,-0.0888 0.0943,-0.0831 0.0992,-0.077 0.104,-0.0706 0.1081,-0.064 0.112,-0.057 0.1153,-0.0499 0.1182,-0.0426 0.1206,-0.0351 0.1226,-0.0274 0.1241,-0.0196 0.1251,-0.0118 0.1256,-0.004 0.1256,0.004 0.1251,0.0118 0.1241,0.0196 0.1226,0.0274 0.1206,0.0351 0.1182,0.0426 0.1153,0.0499 0.112,0.057 0.1081,0.064 0.104,0.0706 0.0992,0.077 0.0943,0.0831 0.0888,0.0888 0.0831,0.0943 0.077,0.0992 0.0706,0.104 0.064,0.1081 0.057,0.112 0.0499,0.1153 0.0426,0.1182 0.0351,0.1206 0.0274,0.1226 0.0196,0.1241 0.0118,0.1251 0.004,0.1256 -0.004,0.1256 -0.0118,0.1251 -0.0196,0.1241 -0.0274,0.1226 -0.0351,0.1206 -0.0426,0.1183 -0.0499,0.1153 -0.057,0.1119 -0.064,0.1082 -0.0706,0.1039 -0.077,0.0993 -0.0831,0.0942 -0.0888,0.0888 -0.0943,0.0831 -0.0992,0.077 -0.104,0.0707 -0.1081,0.0639 -0.112,0.0571 -0.1153,0.0499 -0.1182,0.0425 -0.1206,0.0351 -0.1226,0.0274 -0.1241,0.0196 -0.1251,0.0119 L 12.5,-10.5 Z m 324.9996,-87.5 -0.125,-0.0119 -0.124,-0.0196 -0.122,-0.0274 -0.121,-0.0351 -0.118,-0.0425 -0.116,-0.0499 -0.112,-0.0571 -0.108,-0.0639 -0.104,-0.0707 -0.099,-0.077 -0.094,-0.0831 -0.089,-0.0888 -0.083,-0.0942 -0.077,-0.0993 -0.071,-0.1039 -0.064,-0.1082 -0.057,-0.1119 -0.05,-0.1153 -0.042,-0.1183 -0.035,-0.1206 -0.028,-0.1226 -0.019,-0.1241 -0.012,-0.1251 -0.004,-0.1256 0.004,-0.126 0.012,-0.125 0.019,-0.124 0.028,-0.122 0.035,-0.121 0.042,-0.118 0.05,-0.116 0.057,-0.112 0.064,-0.108 0.071,-0.104 0.077,-0.099 0.083,-0.094 0.089,-0.089 0.094,-0.083 0.099,-0.077 0.104,-0.071 0.108,-0.064 0.112,-0.057 0.116,-0.05 0.118,-0.042 0.121,-0.035 0.122,-0.028 0.124,-0.019 0.125,-0.012 0.126,-0.004 0.126,0.004 0.125,0.012 0.124,0.019 0.122,0.028 0.121,0.035 0.118,0.042 0.116,0.05 0.112,0.057 0.108,0.064 0.104,0.071 0.099,0.077 0.094,0.083 0.089,0.089 0.083,0.094 0.077,0.099 0.071,0.104 0.064,0.108 0.057,0.112 0.05,0.116 0.042,0.118 0.035,0.121 0.028,0.122 0.019,0.124 0.012,0.125 0.004,0.126 -0.004,0.1256 -0.012,0.1251 -0.019,0.1241 -0.028,0.1226 -0.035,0.1206 -0.042,0.1183 -0.05,0.1153 -0.057,0.1119 -0.064,0.1082 -0.071,0.1039 -0.077,0.0993 -0.083,0.0942 -0.089,0.0888 -0.094,0.0831 -0.099,0.077 -0.104,0.0707 -0.108,0.0639 -0.112,0.0571 -0.116,0.0499 -0.118,0.0425 -0.121,0.0351 -0.122,0.0274 -0.124,0.0196 -0.125,0.0119 L 337.5,-98 Z m -324.9996,0 -0.1251,-0.0119 -0.1241,-0.0196 -0.1226,-0.0274 -0.1206,-0.0351 -0.1182,-0.0425 -0.1153,-0.0499 -0.112,-0.0571 -0.1081,-0.0639 -0.104,-0.0707 -0.0992,-0.077 -0.0943,-0.0831 -0.0888,-0.0888 -0.0831,-0.0942 -0.077,-0.0993 -0.0706,-0.1039 -0.064,-0.1082 -0.057,-0.1119 -0.0499,-0.1153 -0.0426,-0.1183 -0.0351,-0.1206 -0.0274,-0.1226 -0.0196,-0.1241 L 10.504,-99.8744 10.5,-100 l 0.004,-0.126 0.0118,-0.125 0.0196,-0.124 0.0274,-0.122 0.0351,-0.121 0.0426,-0.118 0.0499,-0.116 0.057,-0.112 0.064,-0.108 0.0706,-0.104 0.077,-0.099 0.0831,-0.094 0.0888,-0.089 0.0943,-0.083 0.0992,-0.077 0.104,-0.071 0.1081,-0.064 0.112,-0.057 0.1153,-0.05 0.1182,-0.042 0.1206,-0.035 0.1226,-0.028 0.1241,-0.019 0.1251,-0.012 0.1256,-0.004 0.1256,0.004 0.1251,0.012 0.1241,0.019 0.1226,0.028 0.1206,0.035 0.1182,0.042 0.1153,0.05 0.112,0.057 0.1081,0.064 0.104,0.071 0.0992,0.077 0.0943,0.083 0.0888,0.089 0.0831,0.094 0.077,0.099 0.0706,0.104 0.064,0.108 0.057,0.112 0.0499,0.116 0.0426,0.118 0.0351,0.121 0.0274,0.122 0.0196,0.124 0.0118,0.125 0.004,0.126 -0.004,0.1256 -0.0118,0.1251 -0.0196,0.1241 -0.0274,0.1226 -0.0351,0.1206 -0.0426,0.1183 -0.0499,0.1153 -0.057,0.1119 -0.064,0.1082 -0.0706,0.1039 -0.077,0.0993 -0.0831,0.0942 -0.0888,0.0888 -0.0943,0.0831 -0.0992,0.077 -0.104,0.0707 -0.1081,0.0639 -0.112,0.0571 -0.1153,0.0499 -0.1182,0.0425 -0.1206,0.0351 -0.1226,0.0274 -0.1241,0.0196 -0.1251,0.0119 L 12.5,-98 Z m 324.9996,-87.5001 -0.125,-0.012 -0.124,-0.019 -0.122,-0.028 -0.121,-0.035 -0.118,-0.042 -0.116,-0.05 -0.112,-0.057 -0.108,-0.064 -0.104,-0.071 -0.099,-0.077 -0.094,-0.083 -0.089,-0.089 -0.083,-0.094 -0.077,-0.099 -0.071,-0.104 -0.064,-0.108 -0.057,-0.112 -0.05,-0.116 -0.042,-0.118 -0.035,-0.121 -0.028,-0.122 -0.019,-0.124 -0.012,-0.125 -0.004,-0.126 0.004,-0.126 0.012,-0.125 0.019,-0.124 0.028,-0.122 0.035,-0.121 0.042,-0.118 0.05,-0.116 0.057,-0.112 0.064,-0.108 0.071,-0.104 0.077,-0.099 0.083,-0.094 0.089,-0.089 0.094,-0.083 0.099,-0.077 0.104,-0.071 0.108,-0.064 0.112,-0.057 0.116,-0.05 0.118,-0.042 0.121,-0.035 0.122,-0.028 0.124,-0.019 0.125,-0.012 0.126,-0.004 0.126,0.004 0.125,0.012 0.124,0.019 0.122,0.028 0.121,0.035 0.118,0.042 0.116,0.05 0.112,0.057 0.108,0.064 0.104,0.071 0.099,0.077 0.094,0.083 0.089,0.089 0.083,0.094 0.077,0.099 0.071,0.104 0.064,0.108 0.057,0.112 0.05,0.116 0.042,0.118 0.035,0.121 0.028,0.122 0.019,0.124 0.012,0.125 0.004,0.126 -0.004,0.126 -0.012,0.125 -0.019,0.124 -0.028,0.122 -0.035,0.121 -0.042,0.118 -0.05,0.116 -0.057,0.112 -0.064,0.108 -0.071,0.104 -0.077,0.099 -0.083,0.094 -0.089,0.089 -0.094,0.083 -0.099,0.077 -0.104,0.071 -0.108,0.064 -0.112,0.057 -0.116,0.05 -0.118,0.042 -0.121,0.035 -0.122,0.028 -0.124,0.019 -0.125,0.012 -0.126,0.004 z m -162.5,0 -0.125,-0.012 -0.124,-0.019 -0.122,-0.028 -0.121,-0.035 -0.118,-0.042 -0.116,-0.05 -0.112,-0.057 -0.108,-0.064 -0.104,-0.071 -0.099,-0.077 -0.094,-0.083 -0.089,-0.089 -0.083,-0.094 -0.077,-0.099 -0.071,-0.104 -0.064,-0.108 -0.057,-0.112 -0.05,-0.116 -0.042,-0.118 -0.035,-0.121 -0.028,-0.122 -0.019,-0.124 -0.012,-0.125 -0.004,-0.126 0.004,-0.126 0.012,-0.125 0.019,-0.124 0.028,-0.122 0.035,-0.121 0.042,-0.118 0.05,-0.116 0.057,-0.112 0.064,-0.108 0.071,-0.104 0.077,-0.099 0.083,-0.094 0.089,-0.089 0.094,-0.083 0.099,-0.077 0.104,-0.071 0.108,-0.064 0.112,-0.057 0.116,-0.05 0.118,-0.042 0.121,-0.035 0.122,-0.028 0.124,-0.019 0.125,-0.012 0.126,-0.004 0.126,0.004 0.125,0.012 0.124,0.019 0.122,0.028 0.121,0.035 0.118,0.042 0.116,0.05 0.112,0.057 0.108,0.064 0.104,0.071 0.099,0.077 0.094,0.083 0.089,0.089 0.083,0.094 0.077,0.099 0.071,0.104 0.064,0.108 0.057,0.112 0.05,0.116 0.042,0.118 0.035,0.121 0.028,0.122 0.019,0.124 0.012,0.125 0.004,0.126 -0.004,0.126 -0.012,0.125 -0.019,0.124 -0.028,0.122 -0.035,0.121 -0.042,0.118 -0.05,0.116 -0.057,0.112 -0.064,0.108 -0.071,0.104 -0.077,0.099 -0.083,0.094 -0.089,0.089 -0.094,0.083 -0.099,0.077 -0.104,0.071 -0.108,0.064 -0.112,0.057 -0.116,0.05 -0.118,0.042 -0.121,0.035 -0.122,0.028 -0.124,0.019 -0.125,0.012 -0.126,0.004 z m -162.4996,0 -0.1251,-0.012 -0.1241,-0.019 -0.1226,-0.028 -0.1206,-0.035 -0.1182,-0.042 -0.1153,-0.05 -0.112,-0.057 -0.1081,-0.064 -0.104,-0.071 -0.0992,-0.077 -0.0943,-0.083 -0.0888,-0.089 -0.0831,-0.094 -0.077,-0.099 -0.0706,-0.104 -0.064,-0.108 -0.057,-0.112 -0.0499,-0.116 -0.0426,-0.118 -0.0351,-0.121 -0.0274,-0.122 -0.0196,-0.124 -0.0118,-0.125 -0.004,-0.126 0.004,-0.126 0.0118,-0.125 0.0196,-0.124 0.0274,-0.122 0.0351,-0.121 0.0426,-0.118 0.0499,-0.116 0.057,-0.112 0.064,-0.108 0.0706,-0.104 0.077,-0.099 0.0831,-0.094 0.0888,-0.089 0.0943,-0.083 0.0992,-0.077 0.104,-0.071 0.1081,-0.064 0.112,-0.057 0.1153,-0.05 0.1182,-0.042 0.1206,-0.035 0.1226,-0.028 0.1241,-0.019 0.1251,-0.012 0.1256,-0.004 0.1256,0.004 0.1251,0.012 0.1241,0.019 0.1226,0.028 0.1206,0.035 0.1182,0.042 0.1153,0.05 0.112,0.057 0.1081,0.064 0.104,0.071 0.0992,0.077 0.0943,0.083 0.0888,0.089 0.0831,0.094 0.077,0.099 0.0706,0.104 0.064,0.108 0.057,0.112 0.0499,0.116 0.0426,0.118 0.0351,0.121 0.0274,0.122 0.0196,0.124 0.0118,0.125 0.004,0.126 -0.004,0.126 -0.0118,0.125 -0.0196,0.124 -0.0274,0.122 -0.0351,0.121 -0.0426,0.118 -0.0499,0.116 -0.057,0.112 -0.064,0.108 -0.0706,0.104 -0.077,0.099 -0.0831,0.094 -0.0888,0.089 -0.0943,0.083 -0.0992,0.077 -0.104,0.071 -0.1081,0.064 -0.112,0.057 -0.1153,0.05 -0.1182,0.042 -0.1206,0.035 -0.1226,0.028 -0.1241,0.019 -0.1251,0.012 L 12.5,-185.5 Z M 350,-200 H 0 V 0 h 350 z"
       inkscape:connector-curvature="0" />
  </g>
  <g
     style="display:inline"
     inkscape:label="Text"
     id="g1542"
     inkscape:groupmode="layer">
    <g
       aria-label="IYKE CUSTOM JILL ASTRO P2"
       style="font-style:normal;font-variant:normal;font-weight:normal;font-stretch:normal;font-size:10.58333397px;line-height:1.25;font-family:'JMH Typewriter';-inkscape-font-specification:'JMH Typewriter';text-align:center;letter-spacing:0px;word-spacing:0px;text-anchor:middle;fill:#000000;fill-opacity:1;stroke:none;stroke-width:0.26458335"
       id="text1540">
      <path
         d="M 143.22933,-116.91369 H 139.736 v 0.21704 h -0.12402 v 0.36173 h 0.12402 v 0.10335 h 0.81649 v 0.12403 h 0.93017 v 0.11369 h 0.11369 v 0.3514 h 0.12403 v 0.47542 h -0.12403 v 4.64054 h -0.11369 v 0.22738 h -0.23771 v 0.12402 h -0.3514 v -0.12402 h -0.57877 v 0.12402 h -0.22738 v 0.11369 h -0.11369 v 0.34107 h 0.11369 v 0.12402 h 0.10335 v 0.11369 h 4.30982 v -0.11369 h 0.23771 v -0.34107 h -0.12402 v -0.12402 h -0.11369 v -0.11369 h -1.63298 v -0.12402 h -0.23771 v -0.10335 h -0.10335 v -3.37964 h -0.12403 v -0.34107 h 0.12403 v -1.87068 h 0.10335 v -0.11369 h 1.04386 v -0.12403 h 0.58912 v -0.34106 h 0.11368 v -0.12402 h -0.11368 v -0.10336 h -0.12403 v -0.11368 h -0.80615 v -0.12403 h -0.10335 z"
         style="font-style:normal;font-variant:normal;font-weight:normal;font-stretch:normal;font-family:'JMH Typewriter';-inkscape-font-specification:'JMH Typewriter';text-align:center;text-anchor:middle;stroke-width:0.26458335"
         id="path1553"
         inkscape:connector-curvature="0" />
      <path
         d="m 145.43074,-117.14107 h -0.23771 v 0.59945 h 0.23771 v 0.11368 h 0.48576 v 0.12403 h 0.11369 v 0.24804 h 0.12402 v 0.11369 h 0.11369 v 0.23771 h 0.11369 v 0.13436 h 0.13436 v 0.23771 h 0.11369 v 0.11369 h 0.12402 v 0.23771 h 0.11369 v 0.24805 h 0.13436 v 0.11369 h 0.11369 v 0.23771 h 0.12402 v 0.24805 h 0.11369 v 0.12402 h 0.12402 v 0.24805 h 0.11369 v 0.11369 h 0.13436 v 0.12402 h 0.11369 v 0.36174 h 0.12402 v 0.11368 h 0.11369 v 0.23771 h 0.11369 v 2.29444 h -0.11369 v 0.13436 h -0.11369 v 0.11369 h -0.60978 v 0.12402 h -0.23771 v 0.24805 h -0.11369 v 0.11368 h 0.11369 v 0.23772 h 1.07487 v 0.11368 h 0.97151 v -0.11368 h 0.83716 v 0.11368 h 0.24805 v -0.11368 h 0.37207 v -0.23772 h 0.11369 v -0.24804 h -0.11369 v -0.11369 h -0.24805 v -0.12402 h -1.0852 v -0.24805 h -0.12403 v -1.80868 h -0.11369 v -0.3514 h 0.11369 v -0.37207 h 0.12403 v -0.22737 h 0.12402 v -0.24805 h 0.12402 v -0.12402 h 0.11369 v -0.24805 h 0.12402 v -0.23771 h 0.11369 v -0.11369 h 0.11369 v -0.24805 h 0.13436 v -0.12402 h 0.11369 v -0.36174 h 0.12402 v -0.11368 h 0.11369 v -0.12403 h 0.13436 v -0.23771 h 0.11369 v -0.24805 h 0.12402 v -0.23771 h 0.11369 v -0.11369 h 0.13436 v -0.13435 h 0.11368 v -0.23772 h 0.36174 v -0.11368 h 0.11369 v -0.13436 h 0.11369 v -0.46509 h -0.22738 v -0.13436 h -0.36174 v 0.13436 h -1.80867 v 0.11369 h -0.12402 v 0.3514 h 0.12402 v 0.13436 h 0.23771 v 0.11368 h 0.3514 v 0.23772 h 0.13436 v 0.13435 h -0.13436 v 0.48576 h -0.11369 v 0.11369 h -0.11369 v 0.23771 h -0.12402 v 0.23771 h -0.11369 v 0.24805 h -0.12402 v 0.23771 h -0.12402 v 0.24805 h -0.12403 v 0.11369 h -0.11369 v 0.12402 h -0.12402 v 0.24805 h -0.36173 v -0.24805 h -0.12403 v -0.12402 h -0.11369 v -0.11369 h -0.13435 v -0.24805 h -0.11369 v -0.23771 h -0.11369 v -0.24805 h -0.12402 v -0.11368 h -0.11369 v -0.23772 h -0.13436 v -0.12402 h -0.11369 v -0.24805 h -0.12402 v -0.23771 h -0.11369 v -0.24804 h -0.12402 v -0.23772 h 0.12402 v -0.11368 h 0.48576 v -0.13436 h 0.11369 v -0.11369 h 0.12402 v -0.11369 h -0.12402 v -0.23771 h -0.59945 v -0.13436 h -0.60978 v 0.13436 h -0.36174 v -0.13436 h -0.83716 z"
         style="font-style:normal;font-variant:normal;font-weight:normal;font-stretch:normal;font-family:'JMH Typewriter';-inkscape-font-specification:'JMH Typewriter';text-align:center;text-anchor:middle;stroke-width:0.26458335"
         id="path1555"
         inkscape:connector-curvature="0" />
      <path
         d="m 152.72746,-116.91369 h -0.36174 v 0.21704 h -0.10335 v 0.12402 h 0.10335 v 0.23771 h 0.12402 v 0.10335 h 0.7028 v 0.12403 h 0.11369 v 5.70508 h -0.11369 v 0.10335 h -0.22737 v 0.12402 h -0.23771 v 0.11369 h -0.12403 v 0.12402 h -0.11369 v 0.11369 h 0.11369 v 0.22738 h 0.12403 v 0.11369 h 0.7028 v -0.11369 h 0.10335 v 0.11369 h 1.50895 v -0.11369 h 0.23771 v -0.34107 h -0.11369 v -0.12402 h -0.12402 v -0.11369 h -0.46509 v -0.12402 h -0.22737 v -0.10335 h -0.11369 v -0.36174 h -0.12402 v -0.10335 h 0.12402 v -1.87069 h 0.23771 v -0.11369 h 0.22738 v 0.11369 h 0.23771 v 0.12403 h 0.10335 v 0.10335 h 0.12402 v 0.12402 h 0.11369 v 0.11369 h 0.10336 v 0.12402 h 0.12402 v 0.11369 h 0.11369 v 0.22738 h 0.12402 v 0.12402 h 0.11369 v 0.11369 h 0.12402 v 0.22738 h 0.10335 v 0.11368 h 0.12403 v 0.12403 h 0.11369 v 0.11369 h 0.12402 v 0.12402 h 0.10335 v 0.22738 h 0.12403 v 0.11368 h 0.11368 v 0.22738 h 0.12403 v 0.12402 h 0.10335 v 0.23771 h 0.11369 v 0.11369 h 0.12402 v 0.10336 h 0.11369 v 0.12402 h 0.22738 v 0.11369 h 1.0542 v 0.12402 h 0.22737 v -0.12402 h 0.22738 v -0.11369 h 0.12402 v -0.34107 h -0.12402 v -0.12402 h -0.10335 v -0.11369 h -0.47543 v -0.12402 h -0.46509 v -0.10335 h -0.10335 v -0.12403 h -0.12402 v -0.11368 h -0.11369 v -0.22738 h -0.12402 v -0.12402 h -0.10336 v -0.11369 H 157.368 v -0.12403 h -0.11369 v -0.11368 h -0.12402 v -0.12403 h -0.11369 v -0.21704 h -0.10335 v -0.12402 h -0.12403 v -0.10336 h -0.11368 v -0.23771 h -0.12403 v -0.12402 h -0.10335 v -0.11369 h -0.12402 v -0.12402 h -0.11369 v -0.10335 h -0.12403 v -0.12403 h -0.10335 v -0.11369 h -0.12402 v -0.12402 h -0.11369 v -0.22738 h -0.12402 v -0.11368 h -0.11369 v -0.46509 h 0.23771 v -0.11369 h 0.11369 v -0.12402 h 0.12402 v -0.10336 h 0.10335 v -0.23771 h 0.12403 v -0.12402 h 0.11369 v -0.11369 h 0.12402 v -0.11369 h 0.10335 v -0.11369 h 0.12403 v -0.12402 h 0.11368 v -0.11369 h 0.12403 v -0.10335 h 0.10335 v -0.23771 h 0.11369 v -0.12403 h 0.12402 v -0.11368 h 0.11369 v -0.11369 h 0.12402 v -0.11369 h 0.10336 v -0.12402 h 0.12402 v -0.11369 h 0.23771 v -0.12403 h 0.34107 v -0.10335 h 0.12402 v -0.12402 h 0.10335 v -0.23771 h -0.10335 v -0.21704 h -0.36174 v -0.12403 h -0.80615 v 0.12403 h -0.7028 v -0.12403 h -0.10335 v 0.12403 h -0.36174 v 0.11368 h -0.10335 v 0.46509 h 0.22738 v 0.10335 h 0.23771 v 0.23772 h 0.10335 v 0.12402 h -0.10335 v 0.22738 h -0.12402 v 0.11368 h -0.11369 v 0.12403 h -0.12403 v 0.23771 h -0.10335 v 0.10335 h -0.12402 v 0.23771 h -0.11369 v 0.11369 h -0.12402 v 0.11369 h -0.11369 v 0.11369 h -0.12402 v 0.12402 h -0.10336 v 0.11369 h -0.11369 v 0.12402 h -0.12402 v 0.10336 h -0.10335 v 0.12402 h -0.12403 v 0.11369 h -0.11368 v 0.12402 h -0.22738 v 0.10335 h -0.12402 v -0.22737 h -0.11369 v -0.23771 h -0.12402 v -0.46509 h 0.12402 v -0.46509 h -0.12402 v -0.21704 h 0.12402 v -0.12402 h -0.12402 v -0.7028 h 0.12402 v -0.23772 h 0.11369 v -0.10335 h 0.46508 v -0.12402 h 0.12403 v -0.34107 h -0.12403 v -0.11368 h -1.28157 v -0.12403 h -0.10335 v 0.12403 h -0.58912 v -0.12403 h -0.11368 z"
         style="font-style:normal;font-variant:normal;font-weight:normal;font-stretch:normal;font-family:'JMH Typewriter';-inkscape-font-specification:'JMH Typewriter';text-align:center;text-anchor:middle;stroke-width:0.26458335"
         id="path1557"
         inkscape:connector-curvature="0" />
      <path
         d="m 159.79679,-116.80001 h -0.11368 v 0.34107 h 0.11368 v 0.12402 h 0.12403 v 0.10335 h 0.57877 v 0.12403 h 0.22738 v 5.70508 h -0.10335 v 0.10335 h -0.12403 v 0.12402 h -0.3514 v 0.11369 h -0.22737 v 0.12402 h -0.12403 v 0.21705 h 0.12403 v 0.12402 h 0.10335 v 0.11369 h 4.88859 v 0.12402 h 0.23771 v -0.12402 h 0.22738 v -0.11369 h 0.11369 v -0.12402 h 0.12402 v -1.62264 h -0.12402 v -0.22738 h -0.11369 v -0.11369 h -0.3514 v 0.11369 h -0.11369 v 0.34106 h -0.12402 v 0.46509 h -0.11369 v 0.23771 h -0.12402 v 0.12403 h -0.21704 v 0.10335 h -0.46509 v 0.12402 h -2.09807 v -0.12402 h -0.11368 v -0.22738 h -0.12403 v -2.32544 h 0.12403 v -0.12402 h 0.11368 v -0.22738 h 0.82683 v 0.12403 h 0.34106 v 0.10335 h 0.10335 v 0.23771 h 0.12403 v 0.22738 h 0.11369 v 0.23771 h 0.12402 v 0.12402 h 0.34106 v -2.09806 h 0.12403 v -0.11369 h -0.12403 v -0.23771 h -0.10335 v -0.11369 h -0.23771 v 0.11369 h -0.12402 v 0.3514 h -0.11369 v 0.22738 h -0.12403 v 0.23771 h -1.27124 v -0.11369 h -0.11368 v -0.3514 h -0.12403 v -0.3514 h 0.12403 v -1.50895 h 0.11368 v -0.12403 h 1.74667 v 0.12403 h 0.69246 v 0.11369 h 0.23771 v 0.23771 h 0.10336 v 0.58911 h 0.12402 v 0.21704 h 0.47542 v -0.11369 h 0.10336 v -0.34106 h 0.12402 v -0.58911 h 0.11369 v -0.46509 h -0.11369 v -0.34107 h -0.12402 v -0.11368 h -5.45704 z"
         style="font-style:normal;font-variant:normal;font-weight:normal;font-stretch:normal;font-family:'JMH Typewriter';-inkscape-font-specification:'JMH Typewriter';text-align:center;text-anchor:middle;stroke-width:0.26458335"
         id="path1559"
         inkscape:connector-curvature="0" />
      <path
         d="m 173.05697,-116.91369 h -0.34107 v 0.11368 h -0.23771 v 0.10336 h -0.12402 v 0.12402 h -0.22738 v 0.11369 h -0.11369 v 0.12402 h -0.10335 v 0.10335 h -0.12402 v 0.12403 h -0.11369 v 0.11369 h -0.12403 v 0.12402 h -0.10335 v 0.22738 h -0.12402 v 0.11368 h -0.11369 v 0.23772 h -0.12402 v 0.22737 h -0.11369 v 0.3514 h -0.12403 v 0.3514 h -0.10335 v 0.46509 h -0.12402 v 1.62264 h 0.12402 v 0.58911 h 0.10335 v 0.34107 h 0.12403 v 0.23771 h 0.11369 v 0.34106 h 0.12402 v 0.12403 h 0.11369 v 0.11368 h 0.12402 v 0.22738 h 0.10335 v 0.12402 h 0.12403 v 0.11369 h 0.11369 v 0.12402 h 0.12402 v 0.11369 h 0.10335 v 0.10336 h 0.23771 v 0.12402 h 0.22738 v 0.11369 h 0.3514 v 0.12402 h 0.58911 v 0.10335 h 0.68213 v -0.10335 h 0.46509 v -0.12402 h 0.46509 v -0.11369 h 0.23771 v -0.12402 h 0.22737 v -0.10336 h 0.11369 v -0.11369 h 0.23771 v -0.12402 h 0.12403 v -0.11369 h 0.10335 v -0.12402 h 0.12402 v -1.50895 h -0.22737 v -0.10336 h -0.36174 v 0.10336 h -0.11369 v 0.12402 h -0.10335 v 0.34107 h -0.12402 v 0.47542 h -0.11369 v 0.10335 h -0.12402 v 0.23771 h -0.10336 v 0.12403 h -0.12402 v 0.10335 h -0.23771 v 0.12402 h -0.22738 v 0.11369 h -1.04386 v -0.11369 h -0.23771 v -0.12402 h -0.22738 v -0.10335 h -0.23771 v -0.12403 h -0.11369 v -0.11368 h -0.12402 v -0.12403 h -0.10336 v -0.22737 h -0.12402 v -0.11369 h -0.11369 v -0.36174 h -0.10335 v -0.44442 h -0.12402 v -0.94051 h -0.11369 v -0.3514 h 0.11369 v -1.04386 h 0.12402 v -0.46509 h 0.10335 v -0.3514 h 0.11369 v -0.22737 h 0.12402 v -0.11369 h 0.10336 v -0.23771 h 0.12402 v -0.11369 h 0.11369 v -0.11369 h 0.12402 v -0.12402 h 0.23771 v -0.11369 h 0.22738 v -0.12403 h 1.38493 v 0.12403 h 0.23771 v 0.11369 h 0.12402 v 0.12402 h 0.10336 v 0.11369 h 0.12402 v 0.22737 h 0.11369 v 0.57878 h 0.12402 v 0.23771 h 0.10335 v 0.11369 h 0.47543 v -0.11369 h 0.10335 v -0.11369 h 0.12402 v -0.23771 h -0.12402 v -1.16789 h 0.12402 v -0.22737 h -0.12402 v -0.23771 h -0.10335 v -0.10336 h -1.04387 v -0.11368 h -0.58911 v -0.12403 h -1.28157 z"
         style="font-style:normal;font-variant:normal;font-weight:normal;font-stretch:normal;font-family:'JMH Typewriter';-inkscape-font-specification:'JMH Typewriter';text-align:center;text-anchor:middle;stroke-width:0.26458335"
         id="path1561"
         inkscape:connector-curvature="0" />
      <path
         d="m 176.89136,-117.02738 h -0.23772 v 0.48576 h 0.23772 v 0.11368 h 0.48576 v 0.12403 h 0.11368 v 0.11369 h 0.11369 v 5.43636 h 0.12402 v 0.37207 h 0.11369 v 0.23771 h 0.13436 v 0.24805 h 0.11369 v 0.11368 h 0.12402 v 0.12403 h 0.24805 v 0.11369 h 0.23771 v 0.11368 h 0.23771 v 0.13436 h 1.9327 v -0.13436 h 0.23771 v -0.11368 h 0.3514 v -0.11369 h 0.13436 v -0.12403 h 0.23771 v -0.11368 h 0.11369 v -0.13436 h 0.13436 v -0.23771 h 0.11369 v -0.24805 h 0.12402 v -0.3514 h 0.11369 v -4.70256 h 0.13436 v -0.48576 h 0.11369 v -0.24804 h 0.3514 v -0.12403 h 0.23771 v -0.47542 h -0.11369 v -0.12402 h -2.2841 v 0.12402 h -0.12402 v 0.22738 h 0.12402 v 0.13436 h 0.12403 v 0.11368 h 0.3514 v 0.12403 h 0.24804 v 0.36173 h 0.11369 v 3.8654 h 0.12402 v 0.12402 h -0.12402 v 1.08521 h -0.11369 v 0.23771 h -0.13436 v 0.11369 h -0.11368 v 0.13436 h -0.12403 v 0.11369 h -0.22737 v 0.12402 h -0.48576 v 0.11369 h -0.97152 v -0.11369 h -0.23771 v -0.12402 h -0.24805 v -0.11369 h -0.11369 v -0.13436 h -0.12402 v -0.11369 h -0.11369 v -0.12402 h -0.12402 v -2.65617 h -0.11369 v -2.53215 h 0.11369 v -0.36173 h 0.12402 v -0.12403 h 0.48576 v -0.11368 h 0.11369 v -0.24805 h 0.11369 v -0.11369 h -0.11369 v -0.12402 h -0.36174 v -0.11369 h -0.12402 v 0.11369 h -0.72347 v -0.11369 h -1.19889 z"
         style="font-style:normal;font-variant:normal;font-weight:normal;font-stretch:normal;font-family:'JMH Typewriter';-inkscape-font-specification:'JMH Typewriter';text-align:center;text-anchor:middle;stroke-width:0.26458335"
         id="path1563"
         inkscape:connector-curvature="0" />
      <path
         d="m 185.76937,-117.14107 h -0.3514 v 0.11369 h -0.37207 v 0.12402 h -0.23771 v 0.11369 h -0.11369 v 0.11369 h -0.13436 v 0.13436 h -0.23771 v 0.11368 h -0.11369 v 0.23772 h -0.13436 v 0.24804 h -0.11368 v 0.23771 h -0.11369 v 0.48576 h -0.12403 v 0.48576 h 0.12403 v 0.3514 h 0.11369 v 0.24805 h 0.11368 v 0.12402 h 0.13436 v 0.24805 h 0.11369 v 0.11369 h 0.23771 v 0.12402 h 0.24805 v 0.11369 h 0.12402 v 0.13436 h 0.24805 v 0.11369 h 0.3514 v 0.11368 h 0.59945 v 0.12403 h 0.37207 v 0.11368 h 0.3514 v 0.13436 h 0.37207 v 0.11369 h 0.23771 v 0.12403 h 0.11369 v 0.11368 h 0.11368 v 0.12403 h 0.13436 v 0.24804 h 0.11369 v 0.3514 h 0.12403 v 0.36174 h -0.12403 v 0.48576 h -0.11369 v 0.12402 h -0.13436 v 0.11369 h -0.11368 v 0.13436 h -0.11369 v 0.11369 h -0.23771 v 0.12402 h -0.23771 v 0.11369 h -1.45728 v -0.11369 h -0.23771 v -0.12402 h -0.24805 v -0.11369 h -0.11369 v -0.13436 h -0.12402 v -0.23771 h -0.11369 v -0.36174 h -0.13436 v -0.3514 h -0.11369 v -0.24804 h -0.48575 v 0.11368 h -0.11369 v 0.24805 h -0.12403 v 1.69499 h 0.12403 v 0.22737 h 0.22737 v 0.13436 h 0.48576 v -0.13436 h 0.62012 v 0.13436 h 2.04639 v -0.13436 h 0.3514 v -0.11368 h 0.24804 v -0.11369 h 0.23772 v -0.12403 h 0.11368 v -0.11368 h 0.13436 v -0.13436 h 0.11369 v -0.11369 h 0.12402 v -0.12402 h 0.11369 v -0.24805 h 0.13436 v -0.23771 h 0.11369 v -0.36174 h 0.12402 v -0.72347 h -0.12402 v -0.36173 h -0.11369 v -0.36174 h -0.13436 v -0.11369 h -0.11369 v -0.13436 h -0.12402 v -0.11368 h -0.11369 v -0.12403 h -0.13436 v -0.11368 h -0.11368 v -0.11369 h -0.23772 v -0.13436 h -0.24804 v -0.11369 h -0.23771 v -0.12402 h -0.59945 v -0.11369 h -0.48576 v -0.13436 h -0.23771 v -0.11369 h -0.36174 v -0.12402 h -0.36173 v -0.11369 h -0.11369 v -0.13436 h -0.13436 v -0.23771 h -0.11369 v -0.24805 h -0.12402 v -0.83716 h 0.12402 v -0.23771 h 0.11369 v -0.11369 h 0.13436 v -0.13435 h 0.11369 v -0.11369 h 0.12402 v -0.12403 h 0.3514 v -0.11368 h 0.97152 v 0.11368 h 0.48576 v 0.12403 h 0.11369 v 0.11369 h 0.23771 v 0.24804 h 0.11368 v 0.12403 h 0.13436 v 0.59944 h 0.11369 v 0.23771 h 0.23771 v 0.11369 h 0.13436 v -0.11369 h 0.23771 v -0.11368 h 0.11369 v -0.23772 h 0.13436 v -0.48575 h -0.13436 v -0.12403 h 0.13436 v -0.24804 h -0.13436 v -0.3514 h 0.13436 v -0.13436 h -0.13436 v -0.3514 h -0.11369 v -0.11369 h -1.0852 v -0.13436 h -1.69499 z"
         style="font-style:normal;font-variant:normal;font-weight:normal;font-stretch:normal;font-family:'JMH Typewriter';-inkscape-font-specification:'JMH Typewriter';text-align:center;text-anchor:middle;stroke-width:0.26458335"
         id="path1565"
         inkscape:connector-curvature="0" />
      <path
         d="m 189.73812,-116.90336 h -0.13436 v 0.71314 h -0.11369 v 0.48575 h 0.11369 v 0.97152 h 0.13436 v 0.23771 h 0.3514 v -0.12402 h 0.24805 v -0.47542 h 0.11369 v -0.72347 h 0.12402 v -0.12403 h 0.11369 v -0.11369 h 0.12402 v -0.13435 h 0.36174 v -0.11369 h 0.48575 v 0.11369 h 0.48576 v 0.13435 h 0.11369 v 5.67408 h -0.11369 v 0.11369 h -0.36173 v 0.12402 h -0.48576 v 0.11369 h -0.37207 v 0.13436 h -0.11369 v 0.59944 h 3.25562 v 0.11369 h 0.12402 v -0.11369 h 0.59945 v -0.24804 h 0.12402 v -0.23772 h -0.12402 v -0.11368 h -0.11369 v -0.13436 h -0.85783 v -0.11369 h -0.3514 v -0.12402 h -0.24805 v -0.24805 h -0.11368 v -0.23771 h 0.11368 v -0.59945 h -0.11368 v -1.32292 h 0.11368 v -0.24804 h -0.11368 v -0.59945 h 0.11368 v -0.23771 h -0.11368 v -2.29444 h 0.11368 v -0.13435 h 0.37207 v -0.11369 h 0.8475 v 0.11369 h 0.3514 v 0.13435 h 0.12402 v 0.11369 h 0.11369 v 1.07487 h 0.13436 v 0.24805 h 0.59944 v -0.24805 h 0.11369 v -1.80867 h -0.11369 v -0.22738 h -0.13435 v -0.12402 h -5.89112 z"
         style="font-style:normal;font-variant:normal;font-weight:normal;font-stretch:normal;font-family:'JMH Typewriter';-inkscape-font-specification:'JMH Typewriter';text-align:center;text-anchor:middle;stroke-width:0.26458335"
         id="path1567"
         inkscape:connector-curvature="0" />
      <path
         d="m 201.19995,-112.03544 h -0.10335 v 0.46509 h -0.12402 v 0.22738 h -0.11369 v 0.23771 h -0.12403 v 0.11369 h -0.11368 v 0.22737 h -0.10336 v 0.12403 h -0.12402 v 0.11368 h -0.23771 v 0.12403 h -0.22738 v 0.10335 h -0.46509 v 0.12402 h -0.3514 v -0.12402 h -0.34106 v -0.10335 h -0.22738 v -0.12403 h -0.23771 v -0.11368 h -0.12402 v -0.12403 h -0.10335 v -0.10335 h -0.12403 v -0.12402 h -0.11369 v -0.23772 h -0.12402 v -0.23771 h -0.11369 v -0.34106 h -0.12402 v -0.46509 h -0.10335 v -2.08773 h 0.10335 v -0.46509 h 0.12402 v -0.34106 h 0.11369 v -0.23771 h 0.12402 v -0.23771 h 0.11369 v -0.22738 h 0.12403 v -0.12402 h 0.10335 v -0.11369 h 0.12402 v -0.12403 h 0.34107 v -0.10335 h 0.34106 v -0.12402 h 0.47542 v 0.12402 h 0.3514 v 0.10335 h 0.23772 v 0.12403 h 0.22737 v 0.11369 h 0.23771 v 0.12402 h 0.10336 v 0.22738 h 0.11368 v 0.23771 h 0.12403 v 0.23771 h 0.11369 v 0.10335 h 0.12402 v 0.46509 h 0.10335 v 0.7028 h 0.12403 v 1.04386 h -0.12403 z m -2.21175,-5.11597 h -0.34106 v 0.11369 h -0.46509 v 0.12403 h -0.22738 v 0.11368 h -0.11369 v 0.10336 h -0.23771 v 0.12402 h -0.12402 v 0.11369 h -0.22738 v 0.22737 h -0.11369 v 0.12403 h -0.10335 v 0.11369 h -0.12402 v 0.3514 h -0.11369 v 0.11368 h -0.12402 v 0.36174 h -0.10336 v 0.21704 h -0.12402 v 0.82682 h -0.11369 v 1.97404 h 0.11369 v 0.46509 h 0.12402 v 0.34107 h 0.10336 v 0.3514 h 0.12402 v 0.12402 h 0.11369 v 0.22738 h 0.12402 v 0.11368 h 0.10335 v 0.12403 h 0.11369 v 0.22737 h 0.12403 v 0.11369 h 0.10335 v 0.12402 h 0.23771 v 0.11369 h 0.23771 v 0.10336 h 0.22738 v 0.12402 h 0.46509 v 0.11369 h 1.04386 v -0.11369 h 0.7028 v -0.12402 h 0.22738 v -0.10336 h 0.23771 v -0.11369 h 0.11369 v -0.12402 h 0.12402 v -0.11369 h 0.10335 v -0.12402 h 0.12403 v -0.10335 h 0.23771 v -0.12403 h 0.10335 v -0.23771 h 0.12402 v -0.22737 h 0.11369 v -0.23772 h 0.12402 v -0.23771 h 0.10336 v -0.56844 h 0.12402 v -0.57877 h 0.11369 v -1.4056 h -0.11369 v -0.57878 h -0.12402 v -0.46509 h -0.10336 v -0.22737 h -0.12402 v -0.3514 h -0.11369 v -0.22738 h -0.12402 v -0.12402 h -0.10335 v -0.11369 h -0.12403 v -0.12403 h -0.11368 v -0.22737 h -0.12403 v -0.11369 h -0.22737 v -0.12402 h -0.11369 v -0.10336 h -0.12403 v -0.11368 h -0.21704 v -0.12403 h -0.46508 v -0.11369 h -0.7028 v -0.12402 h -0.36174 z"
         style="font-style:normal;font-variant:normal;font-weight:normal;font-stretch:normal;font-family:'JMH Typewriter';-inkscape-font-specification:'JMH Typewriter';text-align:center;text-anchor:middle;stroke-width:0.26458335"
         id="path1569"
         inkscape:connector-curvature="0" />
      <path
         d="m 203.18433,-117.03772 h -0.23771 v 0.12403 h -0.12403 v 0.11368 h 0.12403 v 0.34107 h 0.57877 v 0.12402 h 0.23772 v 0.10335 h 0.12402 v 3.72071 h -0.12402 v 1.87069 h -0.11369 v 0.11368 h -0.12403 v 0.12403 h -0.23771 v 0.10335 h -0.10335 v 0.12402 h -0.12402 v 0.45476 h 0.12402 v 0.12402 h 2.3151 v -0.12402 h 0.12403 v -0.10336 h 0.11369 v -0.11369 h -0.11369 v -0.36173 h -0.22738 v -0.10335 h -0.47542 v -0.12403 h -0.12403 v -0.11368 h -0.10335 v -0.3514 h -0.12402 v -1.39527 h -0.11369 v -1.39526 h 0.11369 v -0.11369 h -0.11369 v -0.3514 h 0.11369 v -0.81649 h 0.3514 v 0.23771 h 0.11369 v 0.22738 h 0.12402 v 0.23771 h 0.11369 v 0.23771 h 0.12402 v 0.22738 h 0.10335 v 0.23771 h 0.12403 v 0.22738 h 0.11369 v 0.22737 h 0.12402 v 0.3514 h 0.10335 v 0.11369 h 0.12402 v 0.22738 h 0.11369 v 0.12402 h 0.10336 v 0.11369 h 0.12402 v 0.12402 h 0.23771 v -0.12402 h 0.11369 v -0.23771 h 0.12402 v -0.10335 h 0.10336 v -0.23772 h 0.12402 v -0.22737 h 0.11369 v -0.23771 h 0.12402 v -0.11369 h 0.10335 v -0.3514 h 0.12403 v -0.34107 h 0.11368 v -0.12402 h 0.12403 v -0.23771 h 0.10335 v -0.22738 h 0.11369 v -0.23771 h 0.12402 v -0.11369 h 0.11369 v -0.22737 h 0.12402 v 0.80615 h 0.10336 v 1.63297 h -0.10336 v 2.32544 h -0.12402 v 0.12403 h -0.23771 v 0.10335 h -0.34107 v 0.12402 h -0.11368 v 0.23771 h -0.12403 v 0.11369 h 0.12403 v 0.10336 h 0.11368 v 0.12402 h 1.73633 v 0.11369 h 0.3514 v -0.11369 h 0.46509 v -0.12402 h 0.12402 v -0.34107 H 210.264 v -0.11369 h -0.11369 v -0.12402 h -0.3514 v -0.10335 h -0.3514 v -0.12403 h -0.10335 v -0.23771 h -0.12402 v -0.22737 h 0.12402 v -0.23772 h -0.12402 v -0.57877 h 0.12402 v -0.34107 h -0.12402 v -0.12402 h 0.12402 v -0.46509 h -0.12402 v -1.04386 h 0.12402 v -0.57878 h -0.12402 v -0.3514 h 0.12402 v -1.15755 h -0.12402 v -0.12402 h 0.12402 v -0.23772 h 0.45475 v -0.10335 h 0.22738 v -0.12402 h 0.23771 v 0.12402 h 0.12402 v -0.57877 h -0.23771 v -0.12403 h -1.86035 v 0.23771 h -0.11369 v 0.22738 h -0.12402 v 0.11369 h -0.11369 v 0.3514 h -0.10335 v 0.3514 h -0.12403 v 0.3514 h -0.11368 v 0.23771 h -0.12403 v 0.21704 h -0.10335 v 0.23771 h -0.12402 v 0.3514 h -0.11369 v 0.23771 h -0.12402 v 0.34107 h -0.10336 v 0.12402 h -0.12402 v 0.22738 h -0.3514 v -0.22738 h -0.12402 v -0.12402 h -0.10336 v -0.34107 h -0.11369 v -0.23771 h -0.12402 v -0.23771 h -0.10335 v -0.22738 h -0.12402 v -0.23771 h -0.11369 v -0.22737 h -0.12403 v -0.23772 h -0.10335 v -0.22737 h -0.12402 v -0.3514 h -0.11369 v -0.22738 h -0.12402 v -0.23771 h -0.11369 v -0.22738 h -0.12403 v -0.11368 h -0.10335 v -0.12403 h -0.34106 v -0.11369 h -1.16789 z"
         style="font-style:normal;font-variant:normal;font-weight:normal;font-stretch:normal;font-family:'JMH Typewriter';-inkscape-font-specification:'JMH Typewriter';text-align:center;text-anchor:middle;stroke-width:0.26458335"
         id="path1571"
         inkscape:connector-curvature="0" />
      <path
         d="m 164.6027,-103.46749 h -0.11369 v 0.36174 h 0.11369 v 0.10335 h 0.93018 v 0.12403 h 0.34106 v 0.11368 h 0.23771 v 5.229659 h -0.11369 v 0.237712 h -0.12402 v 0.124023 h -0.11369 v 0.103353 h -0.22737 v 0.124023 h -0.36174 v 0.113689 h -0.10335 v -0.113689 h -1.04386 v -0.124023 h -0.23772 v -0.103353 h -0.12402 v -0.124023 h -0.10335 v -0.113688 h -0.12403 v -0.227377 h -0.11368 v -0.237711 h -0.10336 v -0.237712 h -0.12402 v -0.124023 h -0.23771 v -0.103353 h -0.11369 v 0.103353 h -0.3514 v 0.124023 h -0.11369 v 0.816488 h 0.11369 v 0.465088 h 0.12402 v 0.124023 h 0.10336 v 0.113688 h 0.36173 v 0.103353 h 0.23771 v 0.124024 h 0.34107 v 0.113688 h 0.46509 v 0.124023 h 1.04386 v 0.103353 h 0.10335 v -0.103353 h 0.46509 v -0.124023 h 0.47542 v -0.113688 h 0.22738 v -0.124024 h 0.12402 v -0.103353 h 0.11369 v -0.113688 h 0.12402 v -0.124023 h 0.10336 v -0.341065 h 0.11369 v -0.361735 h 0.12402 v -3.255619 h -0.12402 v -0.10335 h 0.12402 v -0.47542 h -0.12402 v -1.39527 h 0.12402 v -0.11368 h 0.10335 v -0.12403 h 0.47543 v 0.12403 h 0.12402 v -0.12403 h 0.22737 v -0.10335 h 0.11369 v -0.23771 h 0.12403 v -0.12403 h -0.12403 v -0.10335 H 167.972 v -0.11369 h -3.3693 z"
         style="font-style:normal;font-variant:normal;font-weight:normal;font-stretch:normal;font-family:'JMH Typewriter';-inkscape-font-specification:'JMH Typewriter';text-align:center;text-anchor:middle;stroke-width:0.26458335"
         id="path1573"
         inkscape:connector-curvature="0" />
      <path
         d="m 172.28182,-103.68453 h -3.49333 v 0.21704 h -0.12402 v 0.36174 h 0.12402 v 0.10335 h 0.81649 v 0.12403 h 0.93018 v 0.11368 h 0.11368 v 0.3514 h 0.12403 v 0.47543 h -0.12403 v 4.640541 h -0.11368 v 0.227376 h -0.23772 v 0.124023 h -0.3514 v -0.124023 h -0.57877 v 0.124023 h -0.22738 v 0.113689 h -0.11369 v 0.341064 h 0.11369 v 0.124024 h 0.10336 v 0.113688 h 4.30981 v -0.113688 h 0.23771 v -0.341065 h -0.12402 v -0.124023 h -0.11369 v -0.113689 h -1.63298 v -0.124023 h -0.23771 v -0.103353 h -0.10335 v -3.379634 H 171.455 v -0.34107 h 0.12402 v -1.87069 h 0.10335 v -0.11368 h 1.04387 v -0.12403 h 0.58911 v -0.34106 h 0.11369 v -0.12403 h -0.11369 v -0.10335 h -0.12403 v -0.11369 h -0.80615 v -0.12402 h -0.10335 z"
         style="font-style:normal;font-variant:normal;font-weight:normal;font-stretch:normal;font-family:'JMH Typewriter';-inkscape-font-specification:'JMH Typewriter';text-align:center;text-anchor:middle;stroke-width:0.26458335"
         id="path1575"
         inkscape:connector-curvature="0" />
      <path
         d="m 174.48324,-103.68453 h -0.23772 v 0.57878 h 0.23772 v 0.10335 h 1.04386 v 0.12403 h 0.10335 v 0.11368 h 0.12403 v 0.7028 h -0.12403 v 4.888594 h -0.10335 v 0.103353 h -0.7028 v 0.124023 h -0.10335 v 0.113689 h -0.12403 v 0.124023 h -0.11368 v 0.113688 h 0.11368 v 0.227377 h 0.22738 v 0.113688 h 4.76457 v 0.124023 h 0.81649 v -0.124023 h 0.23771 v -0.341065 h 0.11369 v -0.3514 h -0.11369 v -1.632975 h -0.12403 v -0.103353 h -0.57877 v 0.103353 h -0.12403 v 0.7028 h -0.10335 v 0.578776 h -0.23771 v 0.124023 h -0.3514 v 0.103353 h -0.91984 v 0.124023 h -1.28158 v -0.124023 h -0.22737 v -0.227376 h -0.12403 v -3.720701 h 0.12403 v -0.46509 h -0.12403 v -0.3514 h 0.12403 v -0.34106 h -0.12403 v -0.58912 h 0.12403 v -0.11368 h 0.10335 v -0.12403 h 0.57878 v -0.10335 h 0.23771 v -0.12402 h 0.12402 v -0.11369 h 0.10335 v -0.12403 h -0.10335 v -0.21704 h -0.23771 v -0.12402 h -3.0179 z"
         style="font-style:normal;font-variant:normal;font-weight:normal;font-stretch:normal;font-family:'JMH Typewriter';-inkscape-font-specification:'JMH Typewriter';text-align:center;text-anchor:middle;stroke-width:0.26458335"
         id="path1577"
         inkscape:connector-curvature="0" />
      <path
         d="m 181.44922,-103.68453 h -0.23771 v 0.57878 h 0.23771 v 0.10335 h 1.04386 v 0.12403 h 0.10336 v 0.11368 h 0.12402 v 0.7028 h -0.12402 v 4.888594 h -0.10336 v 0.103353 h -0.7028 v 0.124023 h -0.10335 v 0.113689 h -0.12402 v 0.124023 h -0.11369 v 0.113688 h 0.11369 v 0.227377 h 0.22737 v 0.113688 h 4.76457 v 0.124023 h 0.81649 v -0.124023 h 0.23771 v -0.341065 h 0.11369 v -0.3514 h -0.11369 v -1.632975 h -0.12402 v -0.103353 h -0.57878 v 0.103353 h -0.12402 v 0.7028 h -0.10336 v 0.578776 h -0.23771 v 0.124023 h -0.3514 v 0.103353 h -0.91984 v 0.124023 h -1.28157 v -0.124023 h -0.22738 v -0.227376 h -0.12402 v -3.720701 h 0.12402 v -0.46509 h -0.12402 v -0.3514 h 0.12402 v -0.34106 h -0.12402 v -0.58912 h 0.12402 v -0.11368 h 0.10335 v -0.12403 h 0.57878 v -0.10335 h 0.23771 v -0.12402 h 0.12402 v -0.11369 h 0.10336 v -0.12403 h -0.10336 v -0.21704 h -0.23771 v -0.12402 h -3.0179 z"
         style="font-style:normal;font-variant:normal;font-weight:normal;font-stretch:normal;font-family:'JMH Typewriter';-inkscape-font-specification:'JMH Typewriter';text-align:center;text-anchor:middle;stroke-width:0.26458335"
         id="path1579"
         inkscape:connector-curvature="0" />
      <path
         d="m 152.6241,-86.744991 h 0.10336 v -0.227377 h 0.12402 v -0.351399 h 0.11369 v -0.237712 h 0.12402 v -0.465088 h 0.11369 v -0.227376 h 0.12402 v -0.3514 h 0.10336 v -0.227376 h 0.23771 v -0.113688 h 0.12402 v 0.237711 h 0.10335 v 0.217041 h 0.12403 v 0.3514 h 0.11369 v 0.237712 h 0.10335 v 0.341064 h 0.12402 v 0.361735 h 0.11369 v 0.454753 h 0.12402 v 0.227376 h 0.11369 v 0.361735 h -0.23771 v 0.103353 h -1.74666 v -0.103353 h -0.10336 z m 0.93018,-3.834392 h -0.12402 v 0.124024 h -0.22738 v 0.454752 h -0.11369 v 0.465088 h -0.12402 v 0.237712 h -0.11369 v 0.3514 h -0.12402 v 0.341064 h -0.10336 v 0.465088 h -0.12402 v 0.3514 h -0.11369 v 0.227376 h -0.10335 v 0.361735 h -0.12402 v 0.227376 h -0.11369 v 0.227377 h -0.12403 v 0.465088 h -0.10335 v 0.227376 h -0.12402 v 0.237712 h -0.11369 v 0.237711 h -0.12402 v 0.3514 h -0.11369 v 0.341064 h -0.12403 v 0.3514 h -0.10335 v 0.124024 h -0.12402 v 0.341064 h -0.11369 v 0.124024 h -0.12402 v 0.103352 h -0.21704 v 0.124024 H 150.309 v 0.113688 h -0.12402 v 0.465088 h 0.22737 v 0.113688 h 1.16789 v -0.113688 h 1.27124 v -0.124023 h 0.11369 v -0.341065 h -0.11369 v -0.113688 h -0.69246 v -0.124024 h -0.11369 v -0.103352 h -0.12403 v -0.465088 h 0.12403 v -0.361735 h 0.11369 v -0.454753 h 0.12402 v -0.124023 h 0.21704 v -0.103353 h 0.82682 v 0.103353 h 1.61231 v 0.124023 h 0.12402 v 0.113688 h 0.11369 v 0.227376 h 0.12402 v 0.3514 h 0.10336 v 0.3514 h 0.12402 v 0.341064 h -0.12402 v 0.124024 h -0.34107 v 0.113688 h -0.46509 v 0.124024 h -0.12402 v 0.341064 h 0.36173 v 0.113688 h 2.43913 v -0.113688 h 0.10336 v -0.465088 h -0.22738 v -0.113688 h -0.34107 v -0.124024 h -0.23771 v -0.227376 h -0.12402 v -0.237711 h -0.10335 v -0.227377 h -0.12403 v -0.3514 h -0.11368 v -0.227376 h -0.12403 v -0.465088 h -0.11369 v -0.237711 h -0.10335 v -0.237712 h -0.12402 v -0.465088 h -0.11369 v -0.227376 h -0.12402 v -0.227377 h -0.10336 v -0.227376 h -0.12402 v -0.361735 h -0.11369 v -0.341064 h -0.12402 v -0.3514 h -0.10336 v -0.3514 h -0.12402 v -0.341064 h -0.11369 v -0.3514 h -0.12402 v -0.3514 h -0.11369 v -0.227376 h -0.12402 v -0.361735 h -0.10335 v -0.217041 h -0.11369 v -0.124024 h -0.12403 v -0.113688 h -0.34106 z"
         style="font-style:normal;font-variant:normal;font-weight:normal;font-stretch:normal;font-family:'JMH Typewriter';-inkscape-font-specification:'JMH Typewriter';text-align:center;text-anchor:middle;stroke-width:0.26458335"
         id="path1581"
         inkscape:connector-curvature="0" />
      <path
         d="m 159.87947,-90.682736 h -0.35139 v 0.113689 H 159.156 v 0.124023 h -0.23771 v 0.113688 h -0.11368 v 0.113688 h -0.13436 v 0.134359 h -0.23772 v 0.113688 h -0.11368 v 0.237712 h -0.13436 v 0.248047 h -0.11369 v 0.237711 h -0.11369 v 0.485759 h -0.12402 v 0.485758 h 0.12402 v 0.3514 h 0.11369 v 0.248047 h 0.11369 v 0.124023 h 0.13436 v 0.248047 h 0.11368 v 0.113688 h 0.23772 v 0.124024 h 0.24804 v 0.113688 h 0.12403 v 0.134359 h 0.24804 v 0.113688 h 0.3514 v 0.113688 h 0.59945 v 0.124024 h 0.37207 v 0.113688 h 0.3514 v 0.134358 h 0.37207 v 0.113689 h 0.23771 v 0.124023 h 0.11369 v 0.113688 h 0.11369 v 0.124024 h 0.13436 v 0.248047 h 0.11369 v 0.351399 h 0.12402 v 0.361735 h -0.12402 v 0.485759 h -0.11369 v 0.124023 h -0.13436 v 0.113688 h -0.11369 v 0.134359 h -0.11369 v 0.113688 h -0.23771 v 0.124024 h -0.23771 v 0.113688 h -1.45728 v -0.113688 h -0.23771 V -83.80977 H 159.156 v -0.113688 h -0.11368 v -0.134359 h -0.12403 v -0.237711 h -0.11368 v -0.361735 h -0.13436 v -0.3514 h -0.11369 v -0.248047 h -0.48576 v 0.113688 h -0.11369 v 0.248047 h -0.12402 v 1.694987 h 0.12402 v 0.227377 h 0.22738 v 0.134358 h 0.48576 v -0.134358 h 0.62011 v 0.134358 h 2.04639 v -0.134358 h 0.3514 V -83.0863 h 0.24805 v -0.113688 h 0.23771 v -0.124023 h 0.11369 v -0.113688 h 0.13436 v -0.134359 h 0.11368 v -0.113688 h 0.12403 v -0.124024 h 0.11369 v -0.248047 h 0.13435 v -0.237711 h 0.11369 v -0.361735 h 0.12403 v -0.72347 h -0.12403 v -0.361735 h -0.11369 v -0.361735 h -0.13435 v -0.113689 h -0.11369 v -0.134358 h -0.12403 v -0.113688 h -0.11368 v -0.124024 h -0.13436 v -0.113688 h -0.11369 v -0.113688 h -0.23771 v -0.134359 h -0.24805 v -0.113688 h -0.23771 v -0.124024 h -0.59945 v -0.113688 h -0.48576 v -0.134358 h -0.23771 v -0.113689 h -0.36173 v -0.124023 h -0.36174 v -0.113688 h -0.11369 v -0.134359 H 159.156 v -0.237712 h -0.11368 v -0.248046 h -0.12403 v -0.837159 h 0.12403 v -0.237711 h 0.11368 v -0.113688 h 0.13436 v -0.134359 h 0.11369 v -0.113688 h 0.12403 v -0.124024 h 0.35139 v -0.113688 h 0.97152 v 0.113688 h 0.48576 v 0.124024 h 0.11369 v 0.113688 h 0.23771 v 0.248047 h 0.11369 v 0.124023 h 0.13436 v 0.599447 h 0.11369 v 0.237711 h 0.23771 v 0.113689 h 0.13436 v -0.113689 h 0.23771 v -0.113688 h 0.11369 v -0.237711 h 0.13435 v -0.485759 h -0.13435 v -0.124023 h 0.13435 v -0.248047 h -0.13435 v -0.3514 h 0.13435 v -0.134359 h -0.13435 v -0.351399 h -0.11369 v -0.113689 h -1.08521 v -0.134358 h -1.69499 z"
         style="font-style:normal;font-variant:normal;font-weight:normal;font-stretch:normal;font-family:'JMH Typewriter';-inkscape-font-specification:'JMH Typewriter';text-align:center;text-anchor:middle;stroke-width:0.26458335"
         id="path1583"
         inkscape:connector-curvature="0" />
      <path
         d="m 163.84823,-90.445024 h -0.13436 v 0.713135 h -0.11369 v 0.485758 h 0.11369 v 0.971517 h 0.13436 v 0.237712 h 0.3514 v -0.124024 h 0.24804 v -0.475423 h 0.11369 v -0.72347 h 0.12402 v -0.124023 h 0.11369 v -0.113688 h 0.12403 v -0.134359 h 0.36173 v -0.113688 h 0.48576 v 0.113688 h 0.48576 v 0.134359 h 0.11369 v 5.674072 h -0.11369 v 0.113688 h -0.36174 v 0.124024 h -0.48576 v 0.113688 h -0.37207 v 0.134359 h -0.11368 v 0.599446 h 3.25561 v 0.113688 h 0.12402 v -0.113688 h 0.59945 V -83.0863 h 0.12402 v -0.237711 h -0.12402 v -0.113688 h -0.11369 v -0.134359 h -0.85783 v -0.113688 h -0.3514 v -0.124024 h -0.24804 v -0.248047 h -0.11369 v -0.237711 h 0.11369 v -0.599447 h -0.11369 v -1.322917 h 0.11369 v -0.248046 h -0.11369 v -0.599447 h 0.11369 v -0.237712 h -0.11369 v -2.294433 h 0.11369 v -0.134359 h 0.37207 v -0.113688 h 0.84749 v 0.113688 h 0.3514 v 0.134359 h 0.12402 v 0.113688 h 0.11369 v 1.07487 h 0.13436 v 0.248046 h 0.59945 v -0.248046 h 0.11369 v -1.808676 h -0.11369 v -0.227376 h -0.13436 v -0.124023 h -5.89111 z"
         style="font-style:normal;font-variant:normal;font-weight:normal;font-stretch:normal;font-family:'JMH Typewriter';-inkscape-font-specification:'JMH Typewriter';text-align:center;text-anchor:middle;stroke-width:0.26458335"
         id="path1585"
         inkscape:connector-curvature="0" />
      <path
         d="m 174.89665,-87.788855 h -0.11369 v 0.113688 h -0.12403 v 0.124023 h -0.11368 v 0.113689 h -0.13436 v 0.134358 h -0.23771 v 0.113688 h -1.68466 v -0.113688 h -0.12402 v -2.294433 h 0.12402 v -0.248047 h 0.11369 v -0.124024 h 1.20923 v 0.124024 h 0.48576 v 0.113688 h 0.11369 v 0.134359 h 0.24804 v 0.113688 h 0.12403 v 0.124023 h 0.11369 v 0.361735 h 0.11368 v 0.837158 h -0.11368 z m -4.2168,-2.780192 h -0.12402 v 0.124023 h -0.11369 v 0.361735 h 0.11369 v 0.113688 h 0.37207 v 0.124024 h 0.11368 v -0.124024 h 0.23772 v 0.124024 h 0.11368 v 0.113688 h 0.12403 v 5.922119 h -0.23771 v 0.124024 h -0.3514 v 0.113688 h -0.13436 v 0.134359 h -0.11369 v 0.351399 h 0.11369 v 0.113689 h 2.78019 V -83.0863 h 0.11369 v -0.351399 h -0.24805 v -0.134359 h -0.7028 v -0.113688 h -0.24805 v -0.124024 h -0.12402 v -2.54248 h 0.12402 v -0.113688 h 0.71314 v 0.113688 h 0.12402 v 0.134358 h 0.24805 v 0.113689 h 0.11369 v 0.124023 h 0.12402 v 0.237712 h 0.11369 v 0.124023 h 0.24805 v 0.237712 h 0.12402 v 0.237711 h 0.11369 v 0.248047 h 0.13436 v 0.237712 h 0.11368 v 0.248047 h 0.12403 v 0.237711 h 0.11369 v 0.248047 h 0.11368 v 0.113688 h 0.12403 v 0.237712 h 0.11369 v 0.134359 h 0.13436 v 0.237711 h 0.11368 v 0.113688 h 0.12403 v 0.113689 h 0.11368 v 0.134358 h 1.57097 V -83.0863 h 0.12402 v -0.351399 h -0.12402 v -0.134359 h -0.59945 v -0.113688 h -0.23771 v -0.124024 h -0.24805 v -0.248047 h -0.11368 v -0.237711 h -0.12403 v -0.248047 h -0.11369 v -0.113688 h -0.13436 v -0.237712 h -0.11368 v -0.248047 h -0.12403 v -0.113688 h -0.11368 v -0.124023 h -0.13436 v -0.237712 h -0.11369 v -0.124023 h -0.12403 v -0.124024 h -0.11368 v -0.113688 h -0.11369 v -0.124023 h -0.12403 v -0.113689 h -0.24804 v -0.134358 h -0.11369 v -0.237712 h 0.24805 v -0.113688 h 0.23771 v -0.113688 h 0.22737 v -0.134359 h 0.23772 v -0.113688 h 0.13436 v -0.124024 h 0.23771 v -0.248046 h 0.11368 v -0.113689 h 0.13436 v -0.237711 h 0.11369 v -0.372071 h 0.12403 v -0.837158 h -0.12403 v -0.485758 h -0.11369 v -0.248047 h -0.13436 v -0.113688 h -0.11368 v -0.124024 h -0.12403 v -0.113688 h -0.11368 v -0.134359 h -0.13436 v -0.113688 h -0.11369 v -0.113688 h -0.3514 v -0.124023 h -1.20923 v -0.113689 h -0.48576 v 0.113689 h -1.0852 v -0.113689 h -0.37207 v 0.113689 h -0.23772 v -0.113689 h -0.71313 z"
         style="font-style:normal;font-variant:normal;font-weight:normal;font-stretch:normal;font-family:'JMH Typewriter';-inkscape-font-specification:'JMH Typewriter';text-align:center;text-anchor:middle;stroke-width:0.26458335"
         id="path1587"
         inkscape:connector-curvature="0" />
      <path
         d="m 182.15202,-85.577104 h -0.10335 v 0.465088 h -0.12403 v 0.227376 h -0.11369 v 0.237712 h -0.12402 v 0.113688 h -0.11369 v 0.227377 h -0.10335 v 0.124023 h -0.12402 v 0.113688 h -0.23772 v 0.124024 h -0.22737 v 0.103352 h -0.46509 v 0.124024 h -0.3514 v -0.124024 h -0.34106 v -0.103352 h -0.22738 v -0.124024 h -0.23771 v -0.113688 h -0.12402 v -0.124023 h -0.10336 v -0.103353 h -0.12402 v -0.124024 h -0.11369 v -0.237711 h -0.12402 v -0.237712 h -0.11369 v -0.341064 h -0.12402 v -0.465088 h -0.10336 v -2.087728 h 0.10336 v -0.465088 h 0.12402 v -0.341065 h 0.11369 v -0.237711 h 0.12402 v -0.237712 h 0.11369 v -0.227376 h 0.12402 v -0.124024 h 0.10336 v -0.113688 h 0.12402 v -0.124023 h 0.34106 v -0.103353 h 0.34107 v -0.124024 h 0.47542 v 0.124024 h 0.3514 v 0.103353 h 0.23771 v 0.124023 h 0.22738 v 0.113688 h 0.23771 v 0.124024 h 0.10335 v 0.227376 h 0.11369 v 0.237712 h 0.12402 v 0.237711 h 0.11369 v 0.103353 h 0.12403 v 0.465088 h 0.10335 v 0.7028 h 0.12402 v 1.043864 h -0.12402 z m -2.21175,-5.115967 h -0.34107 v 0.113688 h -0.46508 v 0.124024 h -0.22738 v 0.113688 h -0.11369 v 0.103353 h -0.23771 v 0.124023 h -0.12402 v 0.113688 h -0.22738 v 0.227377 h -0.11369 v 0.124023 h -0.10335 v 0.113688 h -0.12403 v 0.3514 h -0.11368 v 0.113688 h -0.12403 v 0.361735 h -0.10335 v 0.217041 h -0.12402 v 0.826823 h -0.11369 v 1.97404 h 0.11369 v 0.465088 h 0.12402 v 0.341064 h 0.10335 v 0.3514 h 0.12403 v 0.124024 h 0.11368 v 0.227376 h 0.12403 v 0.113688 h 0.10335 v 0.124024 h 0.11369 v 0.227376 h 0.12402 v 0.113688 h 0.10336 v 0.124024 h 0.23771 v 0.113688 h 0.23771 v 0.103353 h 0.22738 v 0.124023 h 0.46508 v 0.113688 h 1.04387 v -0.113688 h 0.7028 v -0.124023 h 0.22737 v -0.103353 h 0.23771 v -0.113688 h 0.11369 v -0.124024 h 0.12403 v -0.113688 h 0.10335 v -0.124024 h 0.12402 v -0.103352 h 0.23771 v -0.124024 h 0.10336 v -0.237711 h 0.12402 v -0.227377 h 0.11369 v -0.237711 h 0.12402 v -0.237712 h 0.10335 v -0.568441 h 0.12403 v -0.578776 h 0.11369 v -1.405599 h -0.11369 v -0.578776 h -0.12403 v -0.465088 h -0.10335 v -0.227376 h -0.12402 v -0.3514 h -0.11369 v -0.227376 h -0.12402 v -0.124024 h -0.10336 v -0.113688 h -0.12402 v -0.124023 h -0.11369 v -0.227377 h -0.12402 v -0.113688 h -0.22738 v -0.124023 h -0.11369 v -0.103353 h -0.12402 v -0.113688 h -0.21704 v -0.124024 h -0.46509 v -0.113688 h -0.7028 v -0.124023 h -0.36173 z"
         style="font-style:normal;font-variant:normal;font-weight:normal;font-stretch:normal;font-family:'JMH Typewriter';-inkscape-font-specification:'JMH Typewriter';text-align:center;text-anchor:middle;stroke-width:0.26458335"
         id="path1589"
         inkscape:connector-curvature="0" />
      <path
         d="m 193.14876,-87.675167 h -0.12402 v 0.124023 h -0.11369 v 0.248047 H 192.663 v 0.113688 h -0.23771 v 0.124024 h -0.48576 v 0.113688 h -1.19889 v -0.113688 h -0.12402 v -2.780192 h 0.12402 v -0.124024 h 0.83716 v 0.124024 h 0.11369 v -0.124024 h 0.48575 v 0.124024 h 0.24805 v 0.113688 h 0.23771 v 0.134359 h 0.13436 v 0.113688 h 0.11369 v 0.124023 h 0.11369 v 0.113688 h 0.12402 v 0.248047 h 0.11369 v 1.07487 h -0.11369 z m -4.58887,-2.89388 h -0.11368 v 0.124023 h -0.12403 v 0.361735 h 0.12403 v 0.237712 h 0.24804 v -0.124024 h 0.59945 v 0.124024 h 0.23771 v 0.248047 h 0.11369 v 5.674072 h -0.11369 v 0.113688 h -0.12402 v 0.124024 h -0.59945 v 0.113688 h -0.11369 v 0.134359 h -0.13436 v 0.465088 h 0.13436 v 0.134358 h 1.67432 v -0.134358 h 0.37207 v 0.134358 h 0.83716 v -0.134358 h 0.36173 V -83.0863 h 0.12403 v -0.351399 h -0.12403 v -0.134359 h -0.24804 v -0.113688 h -0.83716 v -0.124024 h -0.23771 v -0.248047 h -0.11369 v -1.808675 h 0.11369 v -0.3514 h 1.44694 v -0.134358 h 0.36173 v -0.113688 h 0.48576 v -0.124024 h 0.23771 v -0.113688 h 0.23771 v -0.113688 h 0.24805 v -0.134359 h 0.11369 v -0.113688 h 0.12402 v -0.124024 h 0.11369 v -0.248046 h 0.13436 v -0.237712 h 0.11369 v -0.248047 h 0.12402 v -1.436605 h -0.12402 v -0.237711 h -0.11369 v -0.134359 h -0.13436 v -0.237712 h -0.11369 v -0.113688 h -0.12402 v -0.134359 h -0.11369 v -0.113688 h -0.24805 v -0.113688 h -0.12402 v -0.124023 H 192.663 v -0.113689 h -4.10311 z"
         style="font-style:normal;font-variant:normal;font-weight:normal;font-stretch:normal;font-family:'JMH Typewriter';-inkscape-font-specification:'JMH Typewriter';text-align:center;text-anchor:middle;stroke-width:0.26458335"
         id="path1591"
         inkscape:connector-curvature="0" />
      <path
         d="m 196.79712,-90.982459 h -0.47542 v 0.113688 h -0.22738 v 0.124024 h -0.12402 v 0.103353 h -0.11369 v 0.124023 h -0.12402 v 0.113688 h -0.10336 v 0.124024 h -0.11369 v 0.113688 h -0.12402 v 0.227376 h -0.10335 v 0.113688 h -0.12403 v 0.3514 h -0.11368 v 0.475423 h 0.11368 v 0.103353 h 0.12403 v 0.124024 h 0.44442 v -0.124024 h 0.12402 v -0.103353 h 0.11369 v -0.237711 h 0.12402 v -0.589112 h 0.10335 v -0.113688 h 0.12403 v -0.124023 h 0.11369 v -0.103353 h 0.12402 v -0.113688 h 0.11369 v -0.124024 h 0.80615 v 0.124024 h 0.3514 v 0.113688 h 0.11369 v 0.103353 h 0.12402 v 0.124023 h 0.11369 v 0.113688 h 0.12402 v 0.227377 h 0.10336 v 1.064534 h -0.10336 v 0.341065 h -0.12402 v 0.341064 h -0.11369 v 0.237712 h -0.12402 v 0.227376 h -0.11369 v 0.124023 h -0.12402 v 0.237712 h -0.10336 v 0.113688 h -0.12402 v 0.124024 h -0.11369 v 0.217041 h -0.10335 v 0.124023 h -0.12403 v 0.103353 h -0.11368 v 0.124023 h -0.12403 v 0.113689 h -0.10335 v 0.237711 h -0.12402 v 0.113688 h -0.11369 v 0.113689 h -0.12402 v 0.124023 h -0.11369 v 0.113688 h -0.12403 v 0.124024 h -0.10335 v 0.103352 h -0.12402 v 0.124024 h -0.11369 v 0.227376 h -0.12402 v 0.113688 h -0.10336 v 0.113689 h -0.11369 v 0.124023 h -0.12402 v 0.113688 h -0.10335 v 0.124024 h -0.12403 v 0.103352 h -0.11368 v 0.124024 h -0.12403 v 0.237711 h -0.11368 v 0.465088 h 0.11368 v 0.113689 h 0.12403 v 0.103352 h 1.74666 v -0.103352 h 0.34106 v 0.103352 h 0.12403 v -0.103352 h 0.91984 v 0.103352 h 0.58911 v -0.103352 h 0.10335 v 0.103352 h 0.46509 v -0.103352 h 0.23771 v -0.113689 h 0.11369 v -0.361735 h 0.12402 v -0.465088 h -0.23771 v -0.103352 h -0.23771 v 0.103352 h -0.22738 v 0.124024 h -1.16788 v 0.113688 h -0.11369 v -0.113688 h -1.63298 v -0.227376 h 0.12403 v -0.124024 h 0.11369 v -0.237711 h 0.12402 v -0.227377 h 0.11369 v -0.113688 h 0.12402 v -0.113688 h 0.10335 v -0.124024 h 0.12403 v -0.103352 h 0.11368 v -0.124024 h 0.12403 v -0.113688 h 0.10335 v -0.124023 h 0.11369 v -0.113689 h 0.12402 v -0.113688 h 0.10336 v -0.237711 h 0.12402 v -0.113689 h 0.11369 v -0.124023 h 0.12402 v -0.103353 h 0.11369 v -0.237711 h 0.12402 v -0.103353 h 0.10336 v -0.124024 h 0.12402 v -0.113688 h 0.11369 v -0.237712 h 0.12402 v -0.124023 h 0.10335 v -0.103353 h 0.12403 v -0.124023 h 0.11368 v -0.237712 h 0.10336 v -0.341064 h 0.12402 v -0.341065 h 0.11369 v -0.940511 h -0.11369 v -0.3514 h -0.12402 v -0.237711 h -0.10336 v -0.103353 h -0.11368 v -0.113688 h -0.12403 v -0.124024 h -0.10335 v -0.113688 h -0.12402 v -0.124023 h -0.11369 v -0.103353 h -0.12402 v -0.124024 h -0.22738 v -0.113688 h -0.3514 v -0.124023 h -1.03353 z"
         style="font-style:normal;font-variant:normal;font-weight:normal;font-stretch:normal;font-family:'JMH Typewriter';-inkscape-font-specification:'JMH Typewriter';text-align:center;text-anchor:middle;stroke-width:0.26458335"
         id="path1593"
         inkscape:connector-curvature="0" />
    </g>
  </g>
</svg>
